<?xml version="1.0" encoding="UTF-8"?>
<svg width="38px" height="38px" viewBox="0 0 38 38" version="1.1" xmlns="http://www.w3.org/2000/svg" xmlns:xlink="http://www.w3.org/1999/xlink">
    <title>access</title>
    <g id="Page-1" stroke="none" stroke-width="1" fill="none" fill-rule="evenodd">
        <g id="access">
            <circle id="Oval" fill="#652D90" cx="18.75" cy="18.75" r="18.75"></circle>
            <g id="noun_Keyboard_3217924" transform="translate(8.437500, 14.062500)" fill="#FFFFFF" fill-rule="nonzero">
                <path d="M3.90789474,2.0564693 C3.90789474,3.13560463 3.0330827,4.01041667 1.95394737,4.01041667 C0.874812035,4.01041667 0,3.13560463 0,2.0564693 C0,0.977333965 0.874812035,0.10252193 1.95394737,0.10252193 C3.03170821,0.105833046 3.90458362,0.978708454 3.90789474,2.0564693 Z" id="Path"></path>
                <path d="M9.43804825,2.0564693 C9.43804825,3.13560463 8.56323621,4.01041667 7.48410088,4.01041667 C6.40496554,4.01041667 5.53015351,3.13560463 5.53015351,2.0564693 C5.53015351,0.977333965 6.40496554,0.10252193 7.48410088,0.10252193 C8.56323621,0.10252193 9.43804825,0.977333965 9.43804825,2.0564693 Z" id="Path"></path>
                <path d="M14.9742325,2.0564693 C14.9742325,3.13560463 14.0994204,4.01041667 13.0202851,4.01041667 C11.9411498,4.01041667 11.0663377,3.13560463 11.0663377,2.0564693 C11.0663377,0.977333965 11.9411498,0.10252193 13.0202851,0.10252193 C13.5385042,0.10252193 14.0354983,0.308383651 14.4019345,0.674819864 C14.7683707,1.04125608 14.9742325,1.53825024 14.9742325,2.0564693 Z" id="Path"></path>
                <path d="M20.504386,2.0564693 C20.504386,3.13560463 19.6295739,4.01041667 18.5504386,4.01041667 C17.4713033,4.01041667 16.5964912,3.13560463 16.5964912,2.0564693 C16.5964912,0.977333965 17.4713033,0.10252193 18.5504386,0.10252193 C19.6295739,0.10252193 20.504386,0.977333965 20.504386,2.0564693 Z" id="Path"></path>
                <path d="M3.90789474,7.59265351 C3.9045665,8.67099753 3.02828619,9.54278316 1.94993931,9.54057027 C0.871592426,9.53834893 -0.0010956558,8.66296737 9.28427579e-06,7.58461877 C0.00111632453,6.50627018 0.875598209,5.63267544 1.95394737,5.63267544 C3.03405749,5.63599887 3.90789474,6.51253828 3.90789474,7.59265351 L3.90789474,7.59265351 Z" id="Path"></path>
                <path d="M14.9742325,7.59265351 C14.9709213,8.67041435 14.0980459,9.54328976 13.0202851,9.54660088 L7.48410088,9.54660088 C6.44545865,9.4889208 5.63280101,8.62988076 5.63280101,7.58963816 C5.63280101,6.54939556 6.44545865,5.69035552 7.48410088,5.63267544 L13.0202851,5.63267544 C14.1003952,5.63599887 14.9742325,6.51253828 14.9742325,7.59265351 L14.9742325,7.59265351 Z" id="Path"></path>
                <path d="M20.504386,7.59265351 C20.5010577,8.67099753 19.6247774,9.54278316 18.5464305,9.54057027 C17.4680837,9.53834893 16.5953956,8.66296737 16.5965005,7.58461877 C16.5976076,6.50627018 17.4720894,5.63267544 18.5504386,5.63267544 C19.6305487,5.63599887 20.504386,6.51253828 20.504386,7.59265351 L20.504386,7.59265351 Z" id="Path"></path>
            </g>
        </g>
    </g>
</svg>