<?xml version="1.0" encoding="UTF-8"?>
<svg width="25px" height="25px" viewBox="0 0 25 25" version="1.1" xmlns="http://www.w3.org/2000/svg" xmlns:xlink="http://www.w3.org/1999/xlink">
    <title>angry</title>
    <g id="Page-1" stroke="none" stroke-width="1" fill="none" fill-rule="evenodd">
        <g id="angry">
            <path d="M24.9311973,12.4370535 C24.9311973,19.2901625 19.3827545,24.8453653 12.5379847,24.8453653 C5.69219065,24.8453653 0.144259975,19.2901625 0.144259975,12.4370535 C0.144259975,5.58394449 5.69219065,0.0287417019 12.5379847,0.0287417019 C19.3827545,0.0287417019 24.9311973,5.58394449 24.9311973,12.4370535" id="Fill-1" fill="#E25674"></path>
            <path d="M12.5374808,13.0533917 C15.0360041,13.0533917 17.3748995,14.0784702 18.9558103,15.8672929 C19.4277536,16.40161 19.3866073,17.2251167 18.8640987,17.7077748 C18.3410943,18.1894198 17.5345273,18.14789 17.0625841,17.6140793 C15.9650185,16.3717288 14.3151999,15.6591371 12.5374808,15.6591371 C10.7597616,15.6591371 9.10994308,16.3717288 8.01287323,17.6140793 C7.54092995,18.1483964 6.734363,18.1904328 6.21135863,17.7077748 C5.68884999,17.2251167 5.64770367,16.40161 6.11964696,15.8672929 C7.70006208,14.0784702 10.0394532,13.0533917 12.5374808,13.0533917" id="Fill-2" fill="#841238"></path>
            <path d="M10.4662843,8.26901935 L7.15474946,7.47488739 C6.66049793,7.35637535 6.10874071,7.68456254 5.96943812,8.15152023 C5.94415544,8.21786672 5.92234294,8.28573259 5.90697504,8.35511784 C5.74040682,9.07733223 5.85938412,9.82183094 6.24308591,10.4538952 C6.62629196,11.0854529 7.22613584,11.5255681 7.93206782,11.6952328 C8.13581644,11.7443596 8.34501819,11.7691762 8.5537242,11.7691762 C9.82231966,11.7691762 10.9109619,10.8869199 11.2014649,9.6253238 C11.2168328,9.55543208 11.2272433,9.48705975 11.2312092,9.43337481 C11.3139975,8.90361587 10.9778867,8.39208954 10.4662843,8.26901935" id="Fill-3" fill="#841238"></path>
            <path d="M19.0876768,8.36760796 C19.0708217,8.29417101 19.0480177,8.22478576 19.0356243,8.1964239 C18.8844239,7.6990785 18.3311795,7.36937193 17.8389109,7.48737751 L14.5278718,8.28150947 C14.0157737,8.4040732 13.6791671,8.90901552 13.758981,9.41497077 C13.7674086,9.50208218 13.7773234,9.56944159 13.793187,9.63781392 C14.0826984,10.8999165 15.1718365,11.7811599 16.4409277,11.7811599 C16.6491379,11.7811599 16.8583397,11.7568497 17.0620883,11.7077229 C17.7680203,11.5380582 18.3678642,11.0974366 18.7510702,10.4663853 C19.1337805,9.83482752 19.2537493,9.08982235 19.0876768,8.36760796" id="Fill-4" fill="#841238"></path>
        </g>
    </g>
</svg>