<?xml version="1.0" encoding="UTF-8"?>
<svg width="90px" height="30px" viewBox="0 0 90 30" version="1.1" xmlns="http://www.w3.org/2000/svg" xmlns:xlink="http://www.w3.org/1999/xlink">
    <title>appstore</title>
    <g id="Page-1" stroke="none" stroke-width="1" fill="none" fill-rule="evenodd">
        <g id="appstore" fill-rule="nonzero">
            <path d="M82.6010775,-9.75e-05 L7.15101,-9.75e-05 C6.875985,-9.75e-05 6.60426,-9.75e-05 6.3299625,0.0015 C6.10035,0.003 5.8725675,0.0073575 5.64075,0.011025 C5.13713526,0.0169513527 4.63470485,0.0612571949 4.137825,0.1435575 C3.64164306,0.227649471 3.16100439,0.386186805 2.712165,0.6138075 C2.26387456,0.843353784 1.85425876,1.14162565 1.4981775,1.4978025 C1.14022687,1.85297775 0.841847386,2.26351228 0.6145125,2.71362 C0.386550181,3.16283184 0.228480374,3.64420372 0.1457625,4.14111 C0.0622582059,4.63738868 0.0173237855,5.13939041 0.0113625,5.64261 C0.0044025,5.87256 0.0036675,6.103275 0,6.333255 L0,23.66895 C0.0036675,23.901825 0.0044025,24.127425 0.0113625,24.360375 C0.0173256135,24.8635696 0.0622600347,25.3655463 0.1457625,25.8618 C0.228251965,26.3589968 0.386331118,26.840645 0.6145125,27.290025 C0.841744163,27.7386772 1.14016561,28.1475497 1.4981775,28.50075 C1.85290862,28.8585105 2.26278918,29.1569853 2.712165,29.384775 C3.16100098,29.6130049 3.64158783,29.7724859 4.137825,29.857875 C4.63478932,29.939516 5.13716806,29.9838399 5.64075,29.990475 C5.8725675,29.995575 6.10035,29.9985 6.3299625,29.9985 C6.6042525,30 6.876,30 7.15101,30 L82.6010775,30 C82.8706275,30 83.1445275,30 83.4140775,29.9985 C83.6426025,29.9985 83.8769775,29.995575 84.1055025,29.990475 C84.6081324,29.9841928 85.1095653,29.9398661 85.6055025,29.857875 C86.1033406,29.7718848 86.5856503,29.612446 87.0366525,29.384775 C87.485623,29.1568534 87.8951252,28.8583868 88.2495525,28.50075 C88.6066407,28.1461664 88.9056993,27.7375929 89.1357525,27.290025 C89.3622217,26.8403181 89.518796,26.3587084 89.6000775,25.8618 C89.6837136,25.3654782 89.7302425,24.8636132 89.7392775,24.360375 C89.7422025,24.127425 89.7422025,23.901825 89.7422025,23.66895 C89.7480525,23.396475 89.7480525,23.1255 89.7480525,22.8486 L89.7480525,7.1520975 C89.7480525,6.87744 89.7480525,6.60498 89.7422025,6.333255 C89.7422025,6.103275 89.7422025,5.87256 89.7392775,5.64258 C89.7302444,5.13931683 89.6837155,4.63742675 89.6000775,4.14108 C89.5185695,3.6444612 89.3620043,3.16312746 89.1357525,2.71359 C88.6727957,1.81139706 87.93868,1.07701905 87.0366525,0.61374 C86.585649,0.386675535 86.1032876,0.228180307 85.6055025,0.14349 C85.1096511,0.0608270874 84.6081659,0.0165058237 84.1055025,0.01092 C83.8769775,0.00726 83.6426025,0.002865 83.4140775,0.0014025 C83.1445275,-9.75e-05 82.8706275,-9.75e-05 82.6010775,-9.75e-05 L82.6010775,-9.75e-05 Z" id="Background-Gray" fill="#A6A6A6"></path>
            <path d="M6.3336225,29.34375 C6.1051125,29.34375 5.8821225,29.340825 5.655405,29.335725 C5.18574133,29.3296056 4.71717538,29.2887188 4.25355,29.2134 C3.82124273,29.1389461 3.40245318,29.0004484 3.010995,28.802475 C2.62312628,28.606142 2.26935882,28.3487046 1.963245,28.040025 C1.65270025,27.7349814 1.39415755,27.381183 1.1978625,26.99265 C0.999404445,26.6015919 0.862059661,26.1824247 0.7906125,25.74975 C0.713455769,25.2848362 0.67171078,24.8147349 0.6657375,24.3435 C0.6609825,24.185325 0.6547575,23.658675 0.6547575,23.658675 L0.6547575,6.333255 C0.6547575,6.333255 0.6613875,5.8146975 0.665775,5.66235 C0.67149437,5.19186154 0.712996611,4.72248982 0.7899225,4.2582975 C0.861501543,3.82443756 0.998952654,3.40406165 1.1975175,3.0117225 C1.39309112,2.62345789 1.65019844,2.26939522 1.9588725,1.96326 C2.26719962,1.65421606 2.62209871,1.39545309 3.0106275,1.1964075 C3.401186,0.999070202 3.81918408,0.861549409 4.2506175,0.7884525 C4.7157655,0.712377104 5.18595813,0.671247063 5.65725,0.6654075 L6.33399,0.65625 L83.4104025,0.65625 L84.0952275,0.665775 C84.5622325,0.671324398 85.0281538,0.712087504 85.4890275,0.7877175 C85.9248284,0.861731301 86.3471828,1.00021165 86.7422025,1.198605 C87.5205664,1.59973954 88.1539061,2.23437221 88.5534525,3.0135525 C88.748848,3.40318317 88.884179,3.82013007 88.9548525,4.2502425 C89.0326944,4.71824354 89.0762602,5.19130375 89.0852025,5.66565 C89.0873775,5.87805 89.0873775,6.1062 89.0873775,6.333255 C89.0933025,6.614505 89.0933025,6.8822025 89.0933025,7.1520975 L89.0933025,22.8486 C89.0933025,23.121075 89.0933025,23.38695 89.0873775,23.655 C89.0873775,23.8989 89.0873775,24.122325 89.0844525,24.352275 C89.0757038,24.8181568 89.0328643,25.2827732 88.9562775,25.7424 C88.8862948,26.1781959 88.7496978,26.6006349 88.5512775,26.9949 C88.3535948,27.3792159 88.0965369,27.7299496 87.7895775,28.034175 C87.4831883,28.3445135 87.1287965,28.603457 86.7400275,28.80105 C86.346102,29.0005453 85.9243694,29.1395552 85.4890275,29.2134 C85.0254372,29.2891207 84.5568263,29.3300101 84.0871275,29.335725 C83.8674525,29.340825 83.6374275,29.34375 83.4140775,29.34375 L82.6010775,29.34525 L6.3336225,29.34375 Z" id="Background-Black" fill="#000000"></path>
            <path d="M31.7267025,20.3547375 L28.1766525,20.3547375 L27.3241125,22.872075 L25.8204525,22.872075 L29.1830025,13.558575 L30.7452525,13.558575 L34.1078025,22.872075 L32.5785,22.872075 L31.7267025,20.3547375 Z M28.544325,19.193115 L31.358325,19.193115 L29.9711175,15.1076625 L29.9322975,15.1076625 L28.544325,19.193115 Z M41.3697675,19.4772975 C41.3697675,21.5874075 40.2403725,22.943115 38.5360275,22.943115 C37.6550665,22.9891985 36.8252493,22.527773 36.399555,21.755115 L36.367305,21.755115 L36.367305,25.1184 L34.973505,25.1184 L34.973505,16.081785 L36.32265,16.081785 L36.32265,17.21118 L36.348285,17.21118 C36.7928912,16.4433659 37.6236032,15.9821391 38.5103925,16.0107375 C40.23375,16.010745 41.3697675,17.373045 41.3697675,19.4772975 Z M39.9371475,19.4772975 C39.9371475,18.1025475 39.226695,17.19873 38.1427125,17.19873 C37.0777725,17.19873 36.3614625,18.1215825 36.3614625,19.4772975 C36.3614625,20.8454625 37.0777725,21.7617225 38.1427125,21.7617225 C39.2267025,21.7617225 39.9371475,20.864505 39.9371475,19.4772975 Z M48.8433975,19.4772975 C48.8433975,21.5874075 47.7140025,22.943115 46.0096575,22.943115 C45.1286965,22.9891985 44.2988793,22.527773 43.873185,21.755115 L43.840935,21.755115 L43.840935,25.1184 L42.447135,25.1184 L42.447135,16.081785 L43.79625,16.081785 L43.79625,17.21118 L43.821885,17.21118 C44.2664945,16.4433664 45.0972096,15.9821423 45.984,16.010745 C47.70741,16.010745 48.8433975,17.373045 48.8433975,19.4772975 Z M47.410785,19.4772975 C47.410785,18.1025475 46.700325,17.19873 45.6163425,17.19873 C44.5514025,17.19873 43.8350925,18.1215825 43.8350925,19.4772975 C43.8350925,20.8454625 44.5514025,21.7617225 45.6163425,21.7617225 C46.7003325,21.7617225 47.410785,20.864505 47.410785,19.4772975 L47.410785,19.4772975 Z M53.7828525,20.2770975 C53.8861275,21.200685 54.7833525,21.8070975 56.009415,21.8070975 C57.1842225,21.8070975 58.029435,21.200655 58.029435,20.367885 C58.029435,19.6449825 57.5196675,19.212135 56.31264,18.915495 L55.1056125,18.62472 C53.39541,18.211635 52.60146,17.4118275 52.60146,16.113975 C52.60146,14.50704 54.0018525,13.40328 55.9903725,13.40328 C57.9583725,13.40328 59.30751,14.50704 59.3529225,16.113975 L57.9459225,16.113975 C57.8616975,15.18453 57.0933825,14.6235 55.97058,14.6235 C54.8477775,14.6235 54.07947,15.19113 54.07947,16.0173 C54.07947,16.6757475 54.570195,17.0631975 55.77063,17.3598 L56.79675,17.611755 C58.7076375,18.06366 59.5015875,18.831255 59.5015875,20.19354 C59.5015875,21.93597 58.113645,23.02728 55.906125,23.02728 C53.8406925,23.02728 52.446165,21.961605 52.356075,20.27703 L53.7828525,20.2770975 Z M62.5096575,14.47485 L62.5096575,16.081785 L63.8009175,16.081785 L63.8009175,17.185545 L62.5096575,17.185545 L62.5096575,20.9289525 C62.5096575,21.510495 62.768205,21.7814925 63.3358275,21.7814925 C63.4891211,21.7788195 63.6421666,21.7680545 63.794325,21.7492425 L63.794325,22.84641 C63.5391212,22.8940947 63.2797281,22.9156909 63.0201525,22.910865 C61.6454025,22.910865 61.109265,22.394505 61.109265,21.07761 L61.109265,17.185545 L60.121965,17.185545 L60.121965,16.081785 L61.10925,16.081785 L61.10925,14.47485 L62.5096575,14.47485 Z M64.54875,19.4772975 C64.54875,17.340825 65.8070475,15.998295 67.7692125,15.998295 C69.7379625,15.998295 70.9904025,17.340795 70.9904025,19.4772975 C70.9904025,21.619635 69.744555,22.9563 67.7692125,22.9563 C65.7945675,22.9563 64.54875,21.6196275 64.54875,19.4772975 Z M69.5702325,19.4772975 C69.5702325,18.0117225 68.8986,17.1467325 67.769205,17.1467325 C66.63981,17.1467325 65.9689125,18.018315 65.9689125,19.4772975 C65.9689125,20.94873 66.63981,21.807135 67.769205,21.807135 C68.8986,21.807135 69.5702325,20.94873 69.5702325,19.4772975 L69.5702325,19.4772975 Z M72.1395375,16.081785 L73.46889,16.081785 L73.46889,17.237535 L73.50114,17.237535 C73.686522,16.4935263 74.3682394,15.9814737 75.1344375,16.01073 C75.2950605,16.0101692 75.4552404,16.0276131 75.6119775,16.062735 L75.6119775,17.366445 C75.4092007,17.3044825 75.1976697,17.2760335 74.9857275,17.28222 C74.5759637,17.2655966 74.1794032,17.428901 73.9001711,17.7292545 C73.620939,18.0296079 73.4869324,18.4370031 73.5333375,18.84447 L73.5333375,22.87206 L72.1395375,22.87206 L72.1395375,16.081785 Z M82.038225,20.8776825 C81.850725,22.110345 80.6502825,22.9562925 79.114395,22.9562925 C77.1390525,22.9562925 75.9129825,21.632805 75.9129825,19.5095175 C75.9129825,17.3796375 77.145645,15.9982875 79.055805,15.9982875 C80.934465,15.9982875 82.115865,17.2888125 82.115865,19.3476525 L82.115865,19.8251925 L77.3199675,19.8251925 L77.3199675,19.9094175 C77.2751906,20.4149412 77.4497487,20.9153396 77.7992399,21.2833274 C78.1487312,21.6513153 78.6394706,21.851425 79.14663,21.832755 C79.8230117,21.8961297 80.4607073,21.5077333 80.714745,20.877675 L82.038225,20.8776825 Z M77.3265468,18.8510775 L80.72133,18.8510775 C80.7466241,18.3968231 80.5812724,17.9526173 80.2651125,17.6254737 C79.9489527,17.29833 79.5106506,17.1179103 79.055805,17.1276825 C78.5973613,17.1249467 78.156818,17.305451 77.8320941,17.6290749 C77.5073702,17.9526989 77.3253722,18.3926272 77.3265468,18.8510775 L77.3265468,18.8510775 Z" id="App-Store" fill="#FFFFFF"></path>
            <path d="M28.3696425,6.54825 C28.9613524,6.50578814 29.5409192,6.73091057 29.948821,7.16165386 C30.3567227,7.59239715 30.5499644,8.18335859 30.4753575,8.77188 C30.4753575,10.2015675 29.702655,11.02338 28.3696425,11.02338 L26.75319,11.02338 L26.75319,6.54825 L28.3696425,6.54825 Z M27.4482525,10.3905 L28.2920025,10.3905 C28.714869,10.4157765 29.1266149,10.2491693 29.4129139,9.93693884 C29.6992129,9.62470843 29.8295847,9.20009581 29.76783,8.781 C29.8250918,8.3636434 29.6928424,7.94253466 29.4072533,7.63285049 C29.1216642,7.32316631 28.7126218,7.15731472 28.2920025,7.1806575 L27.4482525,7.1806575 L27.4482525,10.3905 Z M31.26051,9.333255 C31.2026003,8.72791879 31.4928627,8.14208395 32.0095619,7.82144803 C32.5262611,7.5008121 33.1800614,7.5008121 33.6967606,7.82144803 C34.2134598,8.14208395 34.5037222,8.72791879 34.4458125,9.333255 C34.504824,9.9392417 34.2148265,10.5262128 33.6976692,10.847539 C33.1805118,11.1688652 32.5258107,11.1688652 32.0086533,10.847539 C31.491496,10.5262128 31.2014985,9.9392417 31.26051,9.333255 Z M33.7602675,9.333255 C33.7602675,8.6012025 33.4314,8.1731025 32.85426,8.1731025 C32.274915,8.1731025 31.94901,8.6012025 31.94901,9.3332625 C31.94901,10.07118 32.2749375,10.49598 32.85426,10.49598 C33.431415,10.49598 33.7602675,10.06824 33.7602675,9.333255 L33.7602675,9.333255 Z M38.679945,11.0233125 L37.9885425,11.0233125 L37.2905475,8.536005 L37.237815,8.536005 L36.542745,11.0233125 L35.8579275,11.0233125 L34.92702,7.646115 L35.6030475,7.646115 L36.2080275,10.223115 L36.257835,10.223115 L36.95217,7.646115 L37.591575,7.646115 L38.28591,10.223115 L38.3386425,10.223115 L38.94069,7.646115 L39.6071925,7.646115 L38.679945,11.0233125 Z M40.3901475,7.646115 L41.03175,7.646115 L41.03175,8.1826125 L41.0815575,8.1826125 C41.2547586,7.78760845 41.6594796,7.5459806 42.08937,7.580925 C42.4222326,7.55589883 42.7484144,7.68359243 42.9758181,7.92795155 C43.2032218,8.17231068 43.3071698,8.50681782 43.2583125,8.837025 L43.2583125,11.023275 L42.59181,11.023275 L42.59181,9.004395 C42.59181,8.4616725 42.3559725,8.19177 41.86305,8.19177 C41.6372744,8.18125434 41.4181651,8.26986193 41.263166,8.43436259 C41.1081668,8.59886325 41.0327363,8.82285076 41.05665,9.0476025 L41.05665,11.0233125 L40.3901475,11.0233125 L40.3901475,7.646115 Z M44.3203275,6.32775 L44.98683,6.32775 L44.98683,11.023305 L44.3203275,11.023305 L44.3203275,6.32775 Z M45.9133425,9.333255 C45.8554773,8.72787919 46.1457855,8.14202952 46.662523,7.82138865 C47.1792606,7.50074778 47.8330944,7.50074778 48.349832,7.82138865 C48.8665695,8.14202952 49.1568777,8.72787919 49.0990125,9.333255 C49.157949,9.93926339 48.8678984,10.5262179 48.3507154,10.8475299 C47.8335324,11.168842 47.1788226,11.168842 46.6616396,10.8475299 C46.1444566,10.5262179 45.854406,9.93926339 45.9133425,9.333255 L45.9133425,9.333255 Z M48.4131,9.333255 C48.4131,8.6012025 48.0842325,8.1731025 47.5070925,8.1731025 C46.9277475,8.1731025 46.6018425,8.6012025 46.6018425,9.3332625 C46.6018425,10.07118 46.92777,10.49598 47.5070925,10.49598 C48.08424,10.49598 48.4131,10.06824 48.4131,9.333255 L48.4131,9.333255 Z M49.800675,10.06824 C49.800675,9.4603275 50.253315,9.1098675 51.056775,9.06006 L51.9715725,9.0073275 L51.9715725,8.715825 C51.9715725,8.3591325 51.735735,8.15772 51.28017,8.15772 C50.9081025,8.15772 50.65029,8.2943175 50.57631,8.5330875 L49.9310475,8.5330875 C49.9991625,7.9530075 50.5448175,7.58094 51.3109275,7.58094 C52.15761,7.58094 52.63515,8.00244 52.63515,8.715825 L52.63515,11.02332 L51.9935475,11.02332 L51.9935475,10.5487125 L51.940815,10.5487125 C51.7229014,10.8953073 51.3353802,11.0978724 50.92641,11.0789625 C50.6397121,11.1087839 50.3537784,11.015933 50.1392969,10.8233643 C49.9248154,10.6307957 49.8018046,10.3564825 49.800675,10.06824 L49.800675,10.06824 Z M51.9715725,9.7796625 L51.9715725,9.4973175 L51.146865,9.55005 C50.681775,9.581175 50.4708375,9.73938 50.4708375,10.0371075 C50.4708375,10.34106 50.7345075,10.51794 51.0970875,10.51794 C51.3117271,10.5396674 51.5259948,10.4733563 51.6908403,10.3341867 C51.8556858,10.1950171 51.9569937,9.99490579 51.9715725,9.7796625 Z M53.51112,9.333255 C53.51112,8.2661175 54.0597075,7.59009 54.912975,7.59009 C55.3438326,7.5702376 55.7473707,7.80110465 55.94862,8.18259 L55.9984275,8.18259 L55.9984275,6.32775 L56.66493,6.32775 L56.66493,11.023305 L56.02626,11.023305 L56.02626,10.4897325 L55.9735275,10.4897325 C55.7570656,10.8680527 55.3485559,11.0950174 54.9129825,11.0789625 C54.05385,11.079 53.51112,10.4029575 53.51112,9.333255 Z M54.19962,9.333255 C54.19962,10.049565 54.53727,10.4805975 55.1019675,10.4805975 C55.6637175,10.4805975 56.0109,10.0433475 56.0109,9.3361875 C56.0109,8.6323275 55.6600725,8.188845 55.1019675,8.188845 C54.5409075,8.188845 54.1995975,8.6228025 54.1995975,9.333255 L54.19962,9.333255 Z M59.4225,9.333255 C59.3645903,8.72791879 59.6548527,8.14208395 60.1715519,7.82144803 C60.6882511,7.5008121 61.3420514,7.5008121 61.8587506,7.82144803 C62.3754498,8.14208395 62.6657122,8.72791879 62.6078025,9.333255 C62.666814,9.9392417 62.3768165,10.5262128 61.8596592,10.847539 C61.3425018,11.1688652 60.6878007,11.1688652 60.1706433,10.847539 C59.653486,10.5262128 59.3634885,9.9392417 59.4225,9.333255 L59.4225,9.333255 Z M61.92225,9.333255 C61.92225,8.6012025 61.59339,8.1731025 61.01625,8.1731025 C60.436905,8.1731025 60.111,8.6012025 60.111,9.3332625 C60.111,10.07118 60.4369275,10.49598 61.01625,10.49598 C61.5933975,10.49598 61.92225,10.06824 61.92225,9.333255 Z M63.5020875,7.646115 L64.14369,7.646115 L64.14369,8.1826125 L64.1934975,8.1826125 C64.3666986,7.78760845 64.7714196,7.5459806 65.20131,7.580925 C65.5341726,7.55589883 65.8603544,7.68359243 66.0877581,7.92795155 C66.3151618,8.17231068 66.4191098,8.50681782 66.3702525,8.837025 L66.3702525,11.023275 L65.70375,11.023275 L65.70375,9.004395 C65.70375,8.4616725 65.4679125,8.19177 64.97499,8.19177 C64.7492144,8.18125434 64.5301051,8.26986193 64.375106,8.43436259 C64.2201068,8.59886325 64.1446763,8.82285076 64.16859,9.0476025 L64.16859,11.0233125 L63.5020875,11.0233125 L63.5020875,7.646115 Z M70.13637,6.8052975 L70.13637,7.6614975 L70.8680625,7.6614975 L70.8680625,8.2229025 L70.13637,8.2229025 L70.13637,9.959475 C70.13637,10.313235 70.282125,10.46814 70.61391,10.46814 C70.6988517,10.4678682 70.7837081,10.4627322 70.8680625,10.4527575 L70.8680625,11.00793 C70.7483696,11.029343 70.6270992,11.040735 70.5055125,11.0419875 C69.7643025,11.0419875 69.4691325,10.7812425 69.4691325,10.1301225 L69.4691325,8.2228725 L68.9330025,8.2228725 L68.9330025,7.6614675 L69.4691325,7.6614675 L69.4691325,6.8052975 L70.13637,6.8052975 Z M71.7784575,6.32775 L72.4391025,6.32775 L72.4391025,8.1888375 L72.491835,8.1888375 C72.6733558,7.79037642 73.0851601,7.54844066 73.521585,7.5838575 C73.8525575,7.56584796 74.1743237,7.69635279 74.3992419,7.93982539 C74.6241602,8.183298 74.7288037,8.51437923 74.68467,8.84289 L74.68467,11.0233125 L74.0175,11.0233125 L74.0175,9.0073125 C74.0175,8.4678825 73.76625,8.1946875 73.2953325,8.1946875 C73.0634542,8.17567025 72.8350043,8.25996822 72.6710567,8.42504513 C72.5071092,8.59012203 72.4243814,8.81914523 72.44499,9.0508875 L72.44499,11.0233125 L71.7784875,11.0233125 L71.7784575,6.32775 Z M78.5709375,10.1114475 C78.3840428,10.7484821 77.7675742,11.1600773 77.10756,11.088495 C76.6572329,11.1003826 76.2244436,10.913723 75.9240212,10.5780414 C75.6235988,10.2423597 75.4859148,9.79159195 75.5475,9.3453375 C75.4875505,8.89784286 75.6247187,8.4463528 75.9234681,8.10783522 C76.2222176,7.76931763 76.6531515,7.57708256 77.1046275,7.5809325 C78.044325,7.5809325 78.61122,8.2229325 78.61122,9.2834325 L78.61122,9.516 L76.2264525,9.516 L76.2264525,9.55335 C76.205349,9.80395511 76.290938,10.0518358 76.4621706,10.2360305 C76.6334031,10.4202252 76.8743909,10.5236429 77.1258675,10.52085 C77.4519464,10.559996 77.7693619,10.3982498 77.929335,10.111425 L78.5709375,10.1114475 Z M76.2264375,9.02307 L77.932245,9.02307 C77.9492347,8.79387033 77.8686438,8.5681538 77.7103327,8.40154432 C77.5520215,8.23493484 77.3307131,8.14292717 77.100945,8.148195 C76.868064,8.14526918 76.643871,8.23651593 76.4792223,8.40123666 C76.3145735,8.5659574 76.2234248,8.7901903 76.2264525,9.02307 L76.2264375,9.02307 Z" id="Download-on-the" fill="#FFFFFF"></path>
            <path d="M18.57666,15.22551 C18.5930527,13.9531568 19.2600922,12.7778896 20.34408,12.111465 C19.6571345,11.1303846 18.547794,10.5306588 17.35071,10.493205 C16.09128,10.36101 14.8703175,11.2468275 14.228535,11.2468275 C13.5743325,11.2468275 12.5862075,10.50633 11.52216,10.5282225 C10.1221509,10.5734538 8.84860288,11.3501441 8.16747,12.574125 C6.71697,15.08544 7.7989125,18.7762275 9.18837,20.806185 C9.883545,21.8001975 10.696005,22.910535 11.7590925,22.87116 C12.7993875,22.8280125 13.1879175,22.2078 14.4436425,22.2078 C15.6877125,22.2078 16.052235,22.87116 17.1368925,22.846125 C18.2531775,22.828005 18.95649,21.847695 19.627275,20.84427 C20.1267571,20.1359998 20.5111078,19.353207 20.76609,18.5248875 C19.4402824,17.964136 18.5782074,16.6650258 18.57666,15.22551 L18.57666,15.22551 Z M16.5279375,9.1581675 C17.1365824,8.42751143 17.4364387,7.48837684 17.3638275,6.5402025 C16.4339534,6.63786787 15.5750102,7.08228726 14.9581425,7.78491 C14.349014,8.47814177 14.040431,9.38507451 14.10036,10.3059525 C15.0427026,10.3156551 15.9374371,9.89261491 16.5279375,9.1581675 L16.5279375,9.1581675 Z" id="Icon" fill="#FFFFFF"></path>
        </g>
    </g>
</svg>