<?xml version="1.0" encoding="UTF-8"?>
<svg width="423px" height="431px" viewBox="0 0 423 431" version="1.1" xmlns="http://www.w3.org/2000/svg" xmlns:xlink="http://www.w3.org/1999/xlink">
    <title>bar_chart</title>
    <g id="Page-1" stroke="none" stroke-width="1" fill="none" fill-rule="evenodd">
        <g id="bar_chart">
            <g id="Page-1" transform="translate(20.000000, 23.000000)">
                <path d="M200.456716,199.986032 L165.833019,3.63236561 C177.219125,1.62376195 188.892174,0.601375453 200.456716,0.601375453 L200.456716,199.986032 Z" id="Fill-1" fill="#EF659F"></path>
                <path d="M200.456716,199.986032 L165.833019,3.63236561 C177.219125,1.62376195 188.892174,0.601375453 200.456716,0.601375453 L200.456716,199.986032 Z" id="Stroke-3" stroke="#FFFFFF" stroke-width="4.44748843"></path>
                <path d="M200.137073,199.718153 L77.3831776,42.6009791 C104.717549,21.2466045 131.355057,9.38788567 165.513376,3.36448598 L200.137073,199.718153 Z" id="Fill-5" fill="#F77D2C"></path>
                <path d="M200.456716,199.986032 L77.7028205,42.8688587 C105.037192,21.5144841 131.6747,9.65576529 165.833019,3.63236561 L200.456716,199.986032 Z" id="Stroke-7" stroke="#FFFFFF" stroke-width="4.44748843"></path>
                <path d="M200.69507,200.01437 L11.068899,261.627624 C-15.4046419,180.150172 10.4323187,95.6417298 77.9411742,42.8971963 L200.69507,200.01437 Z" id="Fill-9" fill="#FFAC00"></path>
                <path d="M200.456716,199.986032 L10.8305452,261.599287 C-15.6429956,180.121834 10.193965,95.6133922 77.7028205,42.8688587 L200.456716,199.986032 Z" id="Stroke-11" stroke="#FFFFFF" stroke-width="4.44748843"></path>
                <path d="M200.56075,200.186916 L80.5677805,359.421201 C47.3257516,334.370321 23.7963945,301.3863 10.9345794,261.80017 L200.56075,200.186916 Z" id="Fill-13" fill="#7DCDF8"></path>
                <path d="M200.456716,199.986032 L80.4637463,359.220318 C47.2217174,334.169438 23.6923603,301.185417 10.8305452,261.599287 L200.456716,199.986032 Z" id="Stroke-15" stroke="#FFFFFF" stroke-width="4.44748843"></path>
                <path d="M200.740633,200.186916 L200.740633,399.571573 C154.378782,399.571573 117.773005,387.322225 80.7476636,359.421201 L200.740633,200.186916 Z" id="Fill-17" fill="#C2A5EF"></path>
                <path d="M200.456716,199.986032 L200.456716,399.37069 C154.094864,399.37069 117.489087,387.121342 80.4637463,359.220318 L200.456716,199.986032 Z" id="Stroke-19" stroke="#FFFFFF" stroke-width="4.44748843"></path>
                <path d="M200.456716,199.986032 L323.2082,357.103206 C286.677173,385.645633 246.816157,399.37069 200.456716,399.37069 L200.456716,199.986032 Z" id="Fill-21" fill="#DF65E3"></path>
                <path d="M200.186916,200.186916 L322.9384,357.30409 C286.407373,385.846516 246.546356,399.571573 200.186916,399.571573 L200.186916,200.186916 Z" id="Stroke-23" stroke="#FFFFFF" stroke-width="4.44748843" fill="#DD89E0"></path>
                <path d="M200.456716,199.986032 L367.674779,308.578428 C355.078206,327.972425 341.430311,342.864545 323.2082,357.103206 L200.456716,199.986032 Z" id="Fill-25" fill="#6599FE"></path>
                <path d="M200.456716,199.986032 L367.674779,308.578428 C355.078206,327.972425 341.430311,342.864545 323.2082,357.103206 L200.456716,199.986032 Z" id="Stroke-27" stroke="#FFFFFF" stroke-width="4.44748843"></path>
                <path d="M200.186916,200.186916 L383.71976,278.093249 C379.201004,288.736678 373.700854,299.083519 367.404979,308.779312 L200.186916,200.186916 Z" id="Fill-29" fill="#E25674"></path>
                <path d="M200.456716,199.986032 L383.98956,277.892366 C379.470804,288.535795 373.970654,298.882636 367.674779,308.578428 L200.456716,199.986032 Z" id="Stroke-31" stroke="#FFFFFF" stroke-width="4.44748843"></path>
                <path d="M200.186916,200.22224 L200.186916,0.841121495 C310.303246,0.841121495 399.571573,90.1078636 399.571573,200.22224 C399.571573,229.183716 395.035938,251.468453 383.71976,278.12719 L200.186916,200.22224 Z" id="Fill-33" fill="#6BCD83"></path>
                <path d="M200.456716,199.986032 L200.456716,0.601375453 C310.573047,0.601375453 399.841373,89.869702 399.841373,199.986032 C399.841373,228.948024 395.305739,251.233156 383.98956,277.892366 L200.456716,199.986032 Z" id="Stroke-35" stroke="#FFFFFF" stroke-width="4.44748843"></path>
                <path d="" id="Path-2" stroke="#979797" stroke-width="2.96499228"></path>
            </g>
            <text id="33%" font-family="Omnes-Medium, Omnes" font-size="16" font-weight="400" fill="#126D2B">
                <tspan x="390.384" y="112">33%</tspan>
            </text>
            <text id="5%" font-family="Omnes-Medium, Omnes" font-size="16" font-weight="400" fill="#991C5B">
                <tspan x="191.816" y="13">5%</tspan>
            </text>
            <text id="13%" font-family="Omnes-Medium, Omnes" font-size="16" font-weight="400" fill="#891818">
                <tspan x="117.324" y="36">13%</tspan>
            </text>
            <text id="26%" font-family="Omnes-Medium, Omnes" font-size="16" font-weight="400" fill="#A04F18">
                <tspan x="0.144" y="157">26%</tspan>
            </text>
            <path d="M219.99874,369 C139.366025,369 74,303.634539 74,223 C74,142.367981 139.366025,77 219.99874,77 C300.633975,77 366,142.367981 366,223 C366,303.634539 300.633975,369 219.99874,369 Z" id="Fill-37" stroke="#FFFFFF" stroke-width="6.175" fill="#FBFBFC"></path>
            <text id="18%" font-family="Omnes-Medium, Omnes" font-size="16" font-weight="400" fill="#3976C0">
                <tspan x="26.028" y="352">18%</tspan>
            </text>
            <text id="21%" font-family="Omnes-Medium, Omnes" font-size="16" font-weight="400" fill="#652D90">
                <tspan x="131.412" y="428">21%</tspan>
            </text>
            <text id="21%" font-family="Omnes-Medium, Omnes" font-size="16" font-weight="400" fill="#87259C">
                <tspan x="283.412" y="428">21%</tspan>
            </text>
            <text id="11%" font-family="Omnes-Medium, Omnes" font-size="16" font-weight="400" fill="#1D499D">
                <tspan x="371.264" y="374">11%</tspan>
            </text>
            <text id="4%" font-family="Omnes-Medium, Omnes" font-size="16" font-weight="400" fill="#841238">
                <tspan x="400.368" y="328">4%</tspan>
            </text>
            <text id="Melanie-Lee" font-family="Omnes-Medium, Omnes" font-size="48" font-weight="400" fill="#652D90">
                <tspan x="139.048" y="213">Melanie</tspan>
                <tspan x="181.84" y="261">Lee</tspan>
            </text>
        </g>
    </g>
</svg>