<?xml version="1.0" encoding="UTF-8"?>
<svg width="80px" height="80px" viewBox="0 0 80 80" version="1.1" xmlns="http://www.w3.org/2000/svg" xmlns:xlink="http://www.w3.org/1999/xlink">
    <title>barcode</title>
    <g id="Page-1" stroke="none" stroke-width="1" fill="none" fill-rule="evenodd">
        <g id="barcode" fill="#000000" fill-rule="nonzero">
            <rect id="Rectangle" x="25.6" y="0" width="6.4" height="3.2"></rect>
            <polygon id="Path" points="38.4 0 41.6 0 41.6 3.2 48 3.2 48 6.4 38.4 6.4"></polygon>
            <polygon id="Path" points="51.2 0 54.4 0 54.4 35.2 51.2 35.2 51.2 28.8 48 28.8 48 32 44.7987692 32 44.7987692 28.8 41.6 28.8 41.6 25.6 38.4 25.6 38.4 16 35.2 16 35.2 9.6 25.6 9.6 25.6 6.4 32 6.4 32 3.2 35.2 3.2 35.2 6.4 38.4 6.4 38.4 9.6 48 9.6 48 12.8 41.6 12.8 41.6 22.4 44.7987692 22.4 44.7987692 19.2 48 19.2 48 25.6 51.2 25.6 51.2 16 48 16 48 12.8 51.2 12.8"></polygon>
            <path d="M0,0 L0,22.4 L22.4,22.4 L22.4,0 L0,0 Z M19.2,19.2 L3.2,19.2 L3.2,3.2 L19.2,3.2 L19.2,19.2 Z" id="Shape"></path>
            <path d="M57.6,0 L57.6,22.4 L80,22.4 L80,0 L57.6,0 Z M76.8,19.2 L60.8,19.2 L60.8,3.2 L76.8,3.2 L76.8,19.2 Z" id="Shape"></path>
            <rect id="Rectangle" x="6.4" y="6.4" width="9.6" height="9.6"></rect>
            <rect id="Rectangle" x="64" y="6.4" width="9.6" height="9.6"></rect>
            <polygon id="Path" points="25.6 12.8 32 12.8 32 19.2 28.8 19.2 28.8 16 25.6 16"></polygon>
            <polygon id="Path" points="25.6 19.2 28.8 19.2 28.8 22.4 32 22.4 32 19.2 35.2 19.2 35.2 25.6 38.4 25.6 38.4 28.8 41.6 28.8 41.6 32 38.4 32 38.4 35.2 35.2 35.2 35.2 28.8 32 28.8 32 25.6 25.6 25.6"></polygon>
            <rect id="Rectangle" x="16" y="25.6" width="6.4" height="3.2"></rect>
            <rect id="Rectangle" x="64" y="25.6" width="3.2" height="3.2"></rect>
            <polygon id="Path" points="70.4 25.6 73.6 25.6 73.6 32 80 32 80 41.6 73.6 41.6 73.6 35.2 70.4 35.2"></polygon>
            <rect id="Rectangle" x="76.8" y="25.6" width="3.2" height="3.2"></rect>
            <rect id="Rectangle" x="3.2" y="28.8" width="6.4" height="3.2"></rect>
            <rect id="Rectangle" x="12.8" y="28.8" width="3.2" height="3.2"></rect>
            <rect id="Rectangle" x="0" y="32" width="3.2" height="3.2"></rect>
            <rect id="Rectangle" x="19.2" y="32" width="3.2" height="3.2"></rect>
            <polygon id="Path" points="6.4 35.2 12.8 35.2 12.8 41.6 9.6 41.6 9.6 44.8 6.4 44.8 6.4 41.6 3.2 41.6 3.2 38.4 6.4 38.4"></polygon>
            <rect id="Rectangle" x="16" y="35.2" width="3.2" height="3.2"></rect>
            <rect id="Rectangle" x="48" y="35.2" width="3.2" height="3.2"></rect>
            <rect id="Rectangle" x="19.2" y="38.4" width="3.2" height="3.2"></rect>
            <rect id="Rectangle" x="0" y="41.6" width="3.2" height="12.8"></rect>
            <rect id="Rectangle" x="12.8" y="41.6" width="3.2" height="3.20123077"></rect>
            <rect id="Rectangle" x="9.6" y="44.8" width="3.2" height="3.2"></rect>
            <rect id="Rectangle" x="19.2" y="44.8" width="3.2" height="3.2"></rect>
            <polygon id="Path" points="25.6 44.8 28.8 44.8 28.8 48 32 48 32 54.4 28.8 54.4 28.8 57.6 25.6 57.6"></polygon>
            <rect id="Rectangle" x="60.8" y="44.8" width="6.39876923" height="3.2"></rect>
            <rect id="Rectangle" x="73.6" y="44.8" width="6.4" height="3.2"></rect>
            <rect id="Rectangle" x="12.8" y="48" width="3.2" height="3.2"></rect>
            <rect id="Rectangle" x="6.4" y="51.2" width="3.2" height="3.20123077"></rect>
            <rect id="Rectangle" x="16" y="51.2" width="6.4" height="3.20123077"></rect>
            <rect id="Rectangle" x="32" y="54.4" width="3.2" height="3.2"></rect>
            <path d="M80,54.4 L80,51.2 L73.6,51.2 L73.6,48 L67.2,48 L67.2,51.2 L54.4,51.2 L54.4,48 L57.6,48 L57.6,44.8 L60.8,44.8 L60.8,41.6 L67.2,41.6 L67.2,44.8 L70.4,44.8 L70.4,35.2 L67.2,35.2 L67.2,32 L64,32 L64,35.2 L60.8,35.2 L60.8,32 L64,32 L64,28.8 L60.8,28.8 L60.8,25.6 L57.6,25.6 L57.6,35.2 L54.4,35.2 L54.4,44.8 L48,44.8 L48,38.4 L44.7987692,38.4 L44.7987692,44.8 L41.5987692,44.8 L41.5987692,35.2 L38.3987692,35.2 L38.3987692,41.6 L35.1987692,41.6 L35.1987692,35.2 L25.5987692,35.2 L25.5987692,38.4 L28.7987692,38.4 L28.7987692,44.8 L32,44.8 L32,48 L35.2,48 L35.2,44.8 L38.4,44.8 L38.4,48 L35.2,48 L35.2,54.4 L38.4,54.4 L38.4,57.6 L41.6,57.6 L41.6,51.2 L44.8,51.2 L44.8,57.6 L48,57.6 L48,54.4 L51.2,54.4 L51.2,57.6 L48,57.6 L48,60.8 L44.7987692,60.8 L44.7987692,70.4 L38.4,70.4 L38.4,73.6 L44.7987692,73.6 L44.7987692,76.8 L38.4,76.8 L38.4,80 L54.4,80 L54.4,76.8 L51.2,76.8 L51.2,73.6 L48,73.6 L48,64 L51.2,64 L51.2,67.2 L54.4,67.2 L54.4,70.4 L57.6,70.4 L57.6,67.2 L67.2,67.2 L67.2,70.4 L70.4,70.4 L70.4,67.2 L73.6,67.2 L73.6,64 L70.4,64 L70.4,57.6 L67.2,57.6 L67.2,54.4 L80,54.4 L80,54.4 Z M51.2,51.2 L48,51.2 L48,48 L51.2,48 L51.2,51.2 Z M64,64 L54.4,64 L54.4,54.4 L64,54.4 L64,64 Z" id="Shape"></path>
            <rect id="Rectangle" x="35.2" y="57.6" width="3.2" height="6.4"></rect>
            <rect id="Rectangle" x="57.6" y="57.6" width="3.20123077" height="3.20123077"></rect>
            <rect id="Rectangle" x="76.8" y="57.6" width="3.2" height="6.4"></rect>
            <path d="M0,57.6 L0,80 L22.4,80 L22.4,57.6 L0,57.6 Z M19.2,76.8 L3.2,76.8 L3.2,60.8 L19.2,60.8 L19.2,76.8 Z" id="Shape"></path>
            <polygon id="Path" points="25.6 60.8 32 60.8 32 67.2 35.2 67.2 35.2 70.4 32 70.4 32 73.6 28.8 73.6 28.8 64 25.6 64"></polygon>
            <rect id="Rectangle" x="6.4" y="64" width="9.6" height="9.6"></rect>
            <rect id="Rectangle" x="38.4" y="64" width="3.2" height="3.2"></rect>
            <rect id="Rectangle" x="76.8" y="67.2" width="3.2" height="12.8"></rect>
            <rect id="Rectangle" x="51.2" y="70.4" width="3.20123077" height="3.2"></rect>
            <polygon id="Path" points="57.6 70.4 64 70.4 64 73.6 70.4 73.6 70.4 80 67.2 80 67.2 76.8 60.8 76.8 60.8 80 57.6 80"></polygon>
            <rect id="Rectangle" x="70.4" y="70.4" width="3.2" height="3.2"></rect>
            <rect id="Rectangle" x="35.2" y="73.6" width="3.2" height="3.20123077"></rect>
            <rect id="Rectangle" x="28.8" y="76.8" width="3.2" height="3.2"></rect>
        </g>
    </g>
</svg>