<?xml version="1.0" encoding="UTF-8"?>
<svg width="25px" height="25px" viewBox="0 0 25 25" version="1.1" xmlns="http://www.w3.org/2000/svg" xmlns:xlink="http://www.w3.org/1999/xlink">
    <title>calm</title>
    <g id="Page-1" stroke="none" stroke-width="1" fill="none" fill-rule="evenodd">
        <g id="calm">
            <path d="M24.8751788,12.4687105 C24.8751788,19.3211652 19.3262238,24.876766 12.4814541,24.876766 C5.63668436,24.876766 0.0882414969,19.3211652 0.0882414969,12.4687105 C0.0882414969,5.61523033 5.63668436,0.0601423277 12.4814541,0.0601423277 C19.3262238,0.0601423277 24.8751788,5.61523033 24.8751788,12.4687105" id="Fill-1" fill="#7DCDF8"></path>
            <path d="M6.19616471,16.6776574 C5.72372569,16.1443532 5.764872,15.32034 6.28787638,14.837682 C6.81038502,14.3555305 7.61695196,14.3975668 8.08889525,14.9313774 C9.18695657,16.1742344 10.8362794,16.8863196 12.6139985,16.8863196 C14.3917177,16.8863196 16.0415362,16.1742344 17.1391018,14.9313774 C17.6105494,14.3970603 18.4171163,14.3555305 18.9401207,14.837682 C19.4626293,15.32034 19.5037756,16.1443532 19.0318323,16.6776574 C17.4514172,18.4664801 15.1120261,19.4915586 12.6139985,19.4915586 C10.1154752,19.4915586 7.77657984,18.4664801 6.19616471,16.6776574 Z" id="Fill-2" fill="#3976C0"></path>
            <path d="M10.9756559,10.1392368 C10.9756559,10.7393939 10.4997467,11.2255971 9.91279198,11.2255971 L6.93042768,11.2255971 C6.34297726,11.2255971 5.86706807,10.7393939 5.86706807,10.1392368 C5.86706807,9.54009255 6.34297726,9.05338285 6.93042768,9.05338285 L9.91279198,9.05338285 C10.4997467,9.05338285 10.9756559,9.54009255 10.9756559,10.1392368" id="Fill-3" fill="#3976C0"></path>
            <path d="M19.0963523,10.1392368 C19.0963523,10.7393939 18.6204431,11.2255971 18.0334884,11.2255971 L15.0506283,11.2255971 C14.4636737,11.2255971 13.9877645,10.7393939 13.9877645,10.1392368 C13.9877645,9.54009255 14.4636737,9.05338285 15.0506283,9.05338285 L18.0334884,9.05338285 C18.6204431,9.05338285 19.0963523,9.54009255 19.0963523,10.1392368" id="Fill-4" fill="#3976C0"></path>
        </g>
    </g>
</svg>