<?xml version="1.0" encoding="UTF-8"?>
<svg width="137px" height="137px" viewBox="0 0 137 137" version="1.1" xmlns="http://www.w3.org/2000/svg" xmlns:xlink="http://www.w3.org/1999/xlink">
    <title>circle</title>
    <g id="Page-1" stroke="none" stroke-width="1" fill="none" fill-rule="evenodd">
        <g id="circle" transform="translate(1.000000, 1.000000)">
            <path d="M67.6078373,67.4490904 L55.9303373,1.22508434 C59.7705181,0.547644578 63.7074759,0.202825301 67.6078373,0.202825301 L67.6078373,67.4490904 Z" id="Fill-1" fill="#EF659F"></path>
            <path d="M67.6078373,67.4490904 L55.9303373,1.22508434 C59.7705181,0.547644578 63.7074759,0.202825301 67.6078373,0.202825301 L67.6078373,67.4490904 Z" id="Stroke-3" stroke="#FFFFFF" stroke-width="1.5"></path>
            <path d="M67.6078373,67.4490904 L26.206753,14.4583373 C35.4257892,7.25616867 44.4097952,3.25659036 55.9303373,1.22508434 L67.6078373,67.4490904 Z" id="Fill-5" fill="#F77D2C"></path>
            <path d="M67.6078373,67.4490904 L26.206753,14.4583373 C35.4257892,7.25616867 44.4097952,3.25659036 55.9303373,1.22508434 L67.6078373,67.4490904 Z" id="Stroke-7" stroke="#FFFFFF" stroke-width="1.5"></path>
            <path d="M67.6078373,67.4490904 L3.65280723,88.2293313 C-5.27589759,60.749512 3.43810843,32.2474337 26.206753,14.4583373 L67.6078373,67.4490904 Z" id="Fill-9" fill="#FFAC00"></path>
            <path d="M67.6078373,67.4490904 L3.65280723,88.2293313 C-5.27589759,60.749512 3.43810843,32.2474337 26.206753,14.4583373 L67.6078373,67.4490904 Z" id="Stroke-11" stroke="#FFFFFF" stroke-width="1.5"></path>
            <path d="M67.6078373,67.4490904 L27.1379277,121.15388 C15.9264217,112.704994 7.9906988,101.580506 3.65280723,88.2293313 L67.6078373,67.4490904 Z" id="Fill-13" fill="#7DCDF8"></path>
            <path d="M67.6078373,67.4490904 L27.1379277,121.15388 C15.9264217,112.704994 7.9906988,101.580506 3.65280723,88.2293313 L67.6078373,67.4490904 Z" id="Stroke-15" stroke="#FFFFFF" stroke-width="1.5"></path>
            <path d="M67.6078373,67.4490904 L67.6078373,134.695355 C51.9714217,134.695355 39.6254277,130.56403 27.1379277,121.15388 L67.6078373,67.4490904 Z" id="Fill-17" fill="#C2A5EF"></path>
            <path d="M67.6078373,67.4490904 L67.6078373,134.695355 C51.9714217,134.695355 39.6254277,130.56403 27.1379277,121.15388 L67.6078373,67.4490904 Z" id="Stroke-19" stroke="#FFFFFF" stroke-width="1.5"></path>
            <path d="M67.6078373,67.4490904 L109.008108,120.439843 C96.6873253,130.066319 83.2434398,134.695355 67.6078373,134.695355 L67.6078373,67.4490904 Z" id="Fill-21" fill="#DF65E3"></path>
            <path d="M67.6078373,67.4490904 L109.008108,120.439843 C96.6873253,130.066319 83.2434398,134.695355 67.6078373,134.695355 L67.6078373,67.4490904 Z" id="Stroke-23" stroke="#FFFFFF" stroke-width="1.5" fill="#DD89E0"></path>
            <path d="M67.6078373,67.4490904 L124.005307,104.07394 C119.756873,110.614934 115.153861,115.637584 109.008108,120.439843 L67.6078373,67.4490904 Z" id="Fill-25" fill="#6599FE"></path>
            <path d="M67.6078373,67.4490904 L124.005307,104.07394 C119.756873,110.614934 115.153861,115.637584 109.008108,120.439843 L67.6078373,67.4490904 Z" id="Stroke-27" stroke="#FFFFFF" stroke-width="1.5"></path>
            <path d="M67.6078373,67.4490904 L129.507777,93.7244819 C127.983741,97.3141807 126.128711,100.803849 124.005307,104.07394 L67.6078373,67.4490904 Z" id="Fill-29" fill="#E25674"></path>
            <path d="M67.6078373,67.4490904 L129.507777,93.7244819 C127.983741,97.3141807 126.128711,100.803849 124.005307,104.07394 L67.6078373,67.4490904 Z" id="Stroke-31" stroke="#FFFFFF" stroke-width="1.5"></path>
            <path d="M67.6078373,67.4478968 L67.6078373,0.202825301 C104.746663,0.202825301 134.854102,30.3097307 134.854102,67.4478968 C134.854102,77.2157053 133.324373,84.7316562 129.507777,93.7228219 L67.6078373,67.4478968 Z" id="Fill-33" fill="#6BCD83"></path>
            <path d="M67.6078373,67.4490904 L67.6078373,0.202825301 C104.746663,0.202825301 134.854102,30.3102651 134.854102,67.4490904 C134.854102,77.2170723 133.324373,84.7331566 129.507777,93.7244819 L67.6078373,67.4490904 Z" id="Stroke-35" stroke="#FFFFFF" stroke-width="1.5"></path>
            <path d="M66.4661928,114.228949 C40.4453494,114.228949 19.3511928,93.1347922 19.3511928,67.1131355 C19.3511928,41.0922922 40.4453494,19.9973223 66.4661928,19.9973223 C92.4878494,19.9973223 113.582006,41.0922922 113.582006,67.1131355 C113.582006,93.1347922 92.4878494,114.228949 66.4661928,114.228949 Z" id="Fill-37" fill="#F3EEFB"></path>
            <path d="M66.4661928,114.228949 C40.4453494,114.228949 19.3511928,93.1347922 19.3511928,67.1131355 C19.3511928,41.0922922 40.4453494,19.9973223 66.4661928,19.9973223 C92.4878494,19.9973223 113.582006,41.0922922 113.582006,67.1131355 C113.582006,93.1347922 92.4878494,114.228949 66.4661928,114.228949 Z" id="Fill-37" fill="#FEFEFE"></path>
            <path d="M66.4661928,114.228949 C40.4453494,114.228949 19.3511928,93.1347922 19.3511928,67.1131355 C19.3511928,41.0922922 40.4453494,19.9973223 66.4661928,19.9973223 C92.4878494,19.9973223 113.582006,41.0922922 113.582006,67.1131355 C113.582006,93.1347922 92.4878494,114.228949 66.4661928,114.228949 Z" id="Fill-37" stroke="#FFFFFF" stroke-width="2" fill="#FBFBFC"></path>
            <path d="" id="Path-2" stroke="#979797"></path>
        </g>
    </g>
</svg>