<?xml version="1.0" encoding="UTF-8"?>
<svg width="25px" height="25px" viewBox="0 0 25 25" version="1.1" xmlns="http://www.w3.org/2000/svg" xmlns:xlink="http://www.w3.org/1999/xlink">
    <title>confused</title>
    <g id="Page-1" stroke="none" stroke-width="1" fill="none" fill-rule="evenodd">
        <g id="confused">
            <path d="M24.9311973,12.4679477 C24.9311973,19.5402444 19.4314115,24.8762595 12.5379847,24.8762595 C5.69321501,24.8762595 0.144259975,19.3207735 0.144259975,12.4679477 C0.144259975,5.61460908 5.69321501,0.059635866 12.5379847,0.059635866 C19.3827545,0.059635866 24.9311973,5.61460908 24.9311973,12.4679477" id="Fill-1" fill="#6BCD83"></path>
            <path d="M10.1817431,8.20237102 L6.93366279,8.1669187 C6.44833456,8.16185408 6.00068247,8.58576253 5.9664765,9.05069438 C5.95656172,9.11754732 5.95011712,9.18591965 5.94962138,9.25378552 C5.9421853,9.96181899 6.20492683,10.6308549 6.69174228,11.1378231 C7.17756625,11.6447912 7.82648827,11.9273969 8.51953104,11.9355003 C8.7198095,11.9370196 8.91909647,11.9157483 9.1139218,11.8711796 C10.295763,11.6007291 11.1310828,10.5472887 11.1444677,9.30949631 C11.1444677,9.24112398 11.1405018,9.1747775 11.13257,9.12463779 C11.1018342,8.61311146 10.6844221,8.20743564 10.1817431,8.20237102" id="Fill-2" fill="#126D2B"></path>
            <path d="M14.5819202,11.0998384 L17.8300004,11.1342778 C18.3158244,11.1398489 18.7629808,10.7164469 18.7976825,10.2515151 C18.8071015,10.1841557 18.8140419,10.1162898 18.8140419,10.0479175 C18.8219737,9.33937755 18.5592321,8.6708481 18.071921,8.16387993 C17.5865927,7.6564053 16.937175,7.37379967 16.2446279,7.3667092 C16.0443495,7.3641769 15.8450625,7.38544829 15.6502372,7.43052338 C14.4679003,7.70046747 13.6330762,8.75441428 13.6196913,9.99220669 C13.6191955,10.060579 13.6236572,10.1269255 13.6310933,10.1775717 C13.6618291,10.689098 14.0797368,11.0942674 14.5819202,11.0998384" id="Fill-3" fill="#126D2B"></path>
            <path d="M17.0283909,18.505828 C16.7760599,18.505828 16.5227374,18.4197295 16.3125441,18.2429744 C16.1910881,18.1432014 13.4947651,15.9735194 8.99742319,16.9808718 C8.38568158,17.11711 7.78682917,16.7230828 7.65347545,16.1011478 C7.52061747,15.4797193 7.90580647,14.8648748 8.51407792,14.7286366 C14.1421999,13.4700792 17.6054308,16.3442494 17.7501865,16.4668131 C18.2295659,16.8735019 18.2945076,17.6002744 17.8964294,18.0905294 C17.673347,18.3640187 17.3521083,18.505828 17.0283909,18.505828" id="Fill-4" fill="#126D2B"></path>
        </g>
    </g>
</svg>