<?xml version="1.0" encoding="UTF-8"?>
<svg width="25px" height="25px" viewBox="0 0 25 25" version="1.1" xmlns="http://www.w3.org/2000/svg" xmlns:xlink="http://www.w3.org/1999/xlink">
    <title>excited</title>
    <g id="Page-1" stroke="none" stroke-width="1" fill="none" fill-rule="evenodd">
        <g id="excited">
            <path d="M12.3934687,24.8166236 C5.54884038,24.8166236 -1.69619435e-13,19.2610228 -1.69619435e-13,12.4085682 C-1.69619435e-13,5.55560079 5.54884038,-9.8868282e-13 12.3934687,-9.8868282e-13 C19.238097,-9.8868282e-13 24.7869373,5.55560079 24.7869373,12.4085682 C24.7869373,19.2610228 19.238097,24.8166236 12.3934687,24.8166236 Z" id="Fill-1" fill="#F77D2C"></path>
            <path d="M10.7354704,8.88181895 C10.7354704,10.1636735 9.71771878,11.2034394 8.46250828,11.2034394 C7.20779351,11.2034394 6.1905376,10.1636735 6.1905376,8.88181895 C6.1905376,7.59945791 7.20779351,6.56019849 8.46250828,6.56019849 C9.71771878,6.56019849 10.7354704,7.59945791 10.7354704,8.88181895" id="Fill-2" fill="#891818"></path>
            <path d="M18.5963997,8.88181895 C18.5963997,10.1636735 17.5786481,11.2034394 16.3239333,11.2034394 C15.0687228,11.2034394 14.0514669,10.1636735 14.0514669,8.88181895 C14.0514669,7.59945791 15.0687228,6.56019849 16.3239333,6.56019849 C17.5786481,6.56019849 18.5963997,7.59945791 18.5963997,8.88181895" id="Fill-3" fill="#891818"></path>
            <path d="M19.2215263,13.2049761 C19.0093501,12.9790942 18.7163685,12.8519723 18.410002,12.8519723 L6.37693537,12.8519723 C6.07056882,12.8519723 5.77758722,12.9790942 5.56541104,13.2049761 C5.35323486,13.4303515 5.24020642,13.734735 5.25210415,14.0472219 C5.40479169,17.9819229 8.54133074,21.0642488 12.3937165,21.0642488 C16.2456066,21.0642488 19.3821456,17.9819229 19.5348332,14.0472219 C19.5467309,13.734735 19.4337025,13.4303515 19.2215263,13.2049761" id="Fill-4" fill="#891818"></path>
        </g>
    </g>
</svg>