<?xml version="1.0" encoding="UTF-8"?>
<svg width="25px" height="25px" viewBox="0 0 25 25" version="1.1" xmlns="http://www.w3.org/2000/svg" xmlns:xlink="http://www.w3.org/1999/xlink">
    <title>happy</title>
    <g id="Page-1" stroke="none" stroke-width="1" fill="none" fill-rule="evenodd">
        <g id="happy">
            <path d="M24.5473562,12.1994802 C24.5473562,18.9337891 19.0712018,24.3936037 12.3162334,24.3936037 C5.56126503,24.3936037 0.0856160903,18.9337891 0.0856160903,12.1994802 C0.0856160903,5.46466744 5.56126503,0.00485286368 12.3162334,0.00485286368 C19.0712018,0.00485286368 24.5473562,5.46466744 24.5473562,12.1994802" id="Fill-1" fill="#FFAC00"></path>
            <path d="M10.6805453,9.68220964 C10.6805453,10.942461 9.67614629,11.9638022 8.43740377,11.9638022 C7.19963972,11.9638022 6.19524067,10.942461 6.19524067,9.68220964 C6.19524067,8.42195827 7.19963972,7.40061711 8.43740377,7.40061711 C9.67614629,7.40061711 10.6805453,8.42195827 10.6805453,9.68220964" id="Fill-2" fill="#A04F18"></path>
            <path d="M18.4383416,9.68220964 C18.4383416,10.942461 17.4339425,11.9638022 16.1956893,11.9638022 C14.9569467,11.9638022 13.9530369,10.942461 13.9530369,9.68220964 C13.9530369,8.42195827 14.9569467,7.40061711 16.1956893,7.40061711 C17.4339425,7.40061711 18.4383416,8.42195827 18.4383416,9.68220964" id="Fill-3" fill="#A04F18"></path>
            <path d="M12.3165465,19.1022402 C9.85129235,19.1022402 7.54259332,18.09384 5.98291277,16.3363568 C5.51716124,15.8117498 5.55727849,15.0019437 6.07342121,14.5281051 C6.58907469,14.0542665 7.38554895,14.0955781 7.85130048,14.6201851 C8.93446633,15.8411158 10.5621505,16.5414214 12.3165465,16.5414214 C14.0709425,16.5414214 15.6991159,15.8411158 16.7822818,14.6201851 C17.2475441,14.0955781 18.0435291,14.0537688 18.5601611,14.5281051 C19.0753253,15.0019437 19.1159318,15.8117498 18.6501803,16.3363568 C17.0904997,18.09384 14.7818007,19.1022402 12.3165465,19.1022402" id="Fill-4" fill="#A04F18"></path>
        </g>
    </g>
</svg>