<?xml version="1.0" encoding="UTF-8"?>
<svg width="140px" height="37px" viewBox="0 0 140 37" version="1.1" xmlns="http://www.w3.org/2000/svg" xmlns:xlink="http://www.w3.org/1999/xlink">
    <title>logo</title>
    <defs>
        <path d="M9.40287146,4.88224274 C9.40287146,7.4731494 7.32433067,9.57098133 4.75911327,9.57098133 C2.19873218,9.57098133 0.122161739,7.4731494 0.122161739,4.88224274 C0.122161739,2.29369095 2.19873218,0.197851607 4.75911327,0.197851607 C7.32433067,0.197851607 9.40287146,2.29369095 9.40287146,4.88224274 Z" id="path-1"></path>
        <path d="M9.71241192,4.88224274 C9.71241192,7.4731494 7.63655797,9.57098133 5.07438565,9.57098133 C2.51095948,9.57098133 0.436180265,7.4731494 0.436180265,4.88224274 C0.436180265,2.29369095 2.51095948,0.197851607 5.07438565,0.197851607 C7.63655797,0.197851607 9.71241192,2.29369095 9.71241192,4.88224274 Z" id="path-3"></path>
        <path d="M9.40287146,4.72913377 C9.40287146,7.31587412 7.32433067,9.41461177 4.75911327,9.41461177 C2.19873218,9.41461177 0.122161739,7.31587412 0.122161739,4.72913377 C0.122161739,2.13768367 2.19873218,0.039851742 4.75911327,0.039851742 C7.32433067,0.039851742 9.40287146,2.13768367 9.40287146,4.72913377 Z" id="path-5"></path>
        <path d="M9.71581525,4.72913377 C9.71581525,7.31587412 7.63655797,9.41461177 5.07653513,9.41461177 C2.51095948,9.41461177 0.436180265,7.31587412 0.436180265,4.72913377 C0.436180265,2.13768367 2.51095948,0.039851742 5.07653513,0.039851742 C7.63655797,0.039851742 9.71581525,2.13768367 9.71581525,4.72913377 Z" id="path-7"></path>
        <path d="M9.55173878,4.72913377 C9.55173878,7.31587412 7.47695957,9.41461177 4.91210041,9.41461177 C2.34939073,9.41461177 0.273536776,7.31587412 0.273536776,4.72913377 C0.273536776,2.13768367 2.34939073,0.039851742 4.91210041,0.039851742 C7.47695957,0.039851742 9.55173878,2.13768367 9.55173878,4.72913377 Z" id="path-9"></path>
        <path d="M9.40287146,5.06682876 C9.40287146,7.65320682 7.32433067,9.7541182 4.75911327,9.7541182 C2.19873218,9.7541182 0.122161739,7.65320682 0.122161739,5.06682876 C0.122161739,2.47411065 2.19873218,0.375735292 4.75911327,0.375735292 C7.32433067,0.375735292 9.40287146,2.47411065 9.40287146,5.06682876 Z" id="path-11"></path>
        <path d="M9.69897771,5.06682876 C9.69897771,7.65320682 7.62115341,9.75357477 5.05898109,9.75357477 C2.49913738,9.75357477 0.420954828,7.65320682 0.420954828,5.06682876 C0.420954828,2.47411065 2.49913738,0.375735292 5.05898109,0.375735292 C7.62115341,0.375735292 9.69897771,2.47411065 9.69897771,5.06682876 Z" id="path-13"></path>
        <path d="M9.50050966,5.06682876 C9.50050966,7.73580861 7.4441801,9.7541182 4.86212515,9.7541182 C2.30084845,9.7541182 0.224994502,7.65320682 0.224994502,5.06682876 C0.224994502,2.47411065 2.30084845,0.375735292 4.86212515,0.375735292 C7.42608869,0.375735292 9.50050966,2.47411065 9.50050966,5.06682876 Z" id="path-15"></path>
        <polygon id="path-17" points="11.4115544 19.8496093 7.1665235 19.8496093 7.1665235 12.2614753 0.581790805 0.633099265 5.18041006 0.633099265 9.28966586 7.78105263 13.3974887 0.633099265 17.9970036 0.633099265 11.4115544 12.2614753"></polygon>
        <path d="M15.8815635,7.84631741 C15.8815635,9.9897977 15.1462644,11.7947193 13.6783532,13.2614446 C12.207576,14.7278075 10.3622531,15.4607173 8.13951846,15.4607173 C5.91803769,15.4607173 4.0714609,14.7278075 2.60265406,13.2614446 C1.13402635,11.7947193 0.398189951,9.9897977 0.398189951,7.84631741 C0.398189951,5.70084453 1.13402635,3.8913943 2.60265406,2.41561183 C4.0714609,0.94073509 5.91803769,0.20293443 8.13951846,0.20293443 C10.3622531,0.20293443 12.207576,0.94073509 13.6783532,2.41561183 C15.1462644,3.8913943 15.8815635,5.70084453 15.8815635,7.84631741 Z M4.50708751,7.84631741 C4.50708751,9.05545549 4.84777905,10.0397935 5.52737089,10.8002372 C6.20839572,11.5610432 7.07893245,11.9419896 8.13951846,11.9419896 C9.20082096,11.9419896 10.0717159,11.5610432 10.7514869,10.8002372 C11.4325117,10.0397935 11.7719494,9.05545549 11.7719494,7.84631741 C11.7719494,6.6362736 11.4325117,5.6463201 10.7514869,4.87663805 C10.0717159,4.10641256 9.20082096,3.72166211 8.13951846,3.72166211 C7.07893245,3.72166211 6.20839572,4.10641256 5.52737089,4.87663805 C4.84777905,5.6463201 4.50708751,6.6362736 4.50708751,7.84631741 Z" id="path-19"></path>
        <path d="M9.89525631,0.152203248 L14.005766,0.152203248 L14.005766,9.11540346 C14.005766,11.112338 13.4608745,12.6198207 12.3730618,13.6369459 C11.2832788,14.6547956 9.78849913,15.1636299 8.18391723,15.1636299 C7.88746902,15.1636299 7.50790784,15.1699699 7.14482595,15.1636299 C6.8519602,15.1699699 6.38982341,15.1636299 6.09337521,15.1636299 C4.48807681,15.1636299 2.98344542,14.6547956 1.89455801,13.6369459 C0.806566214,12.6198207 0.261853826,11.112338 0.261853826,9.11540346 L0.261853826,0.152203248 L4.37146788,0.152203248 L4.37146788,8.20805176 C4.37146788,10.439387 5.29215899,11.4201022 7.15772279,11.4594105 C9.09726431,11.4201022 9.89525631,10.439387 9.89525631,8.20805176 L9.89525631,0.152203248 Z" id="path-21"></path>
        <path d="M13.5232092,13.0964221 C11.8724136,14.6727397 9.93502157,15.4607173 7.71354079,15.4607173 C5.49098528,15.4607173 3.65354376,14.7689273 2.20282832,13.3853473 C0.751038151,12.0021295 0.0268447321,10.1454006 0.0268447321,7.81769661 C0.0268447321,5.49053602 0.76447236,3.63996604 2.24456393,2.26417521 C3.7223269,0.891101557 5.46859493,0.20293443 7.48229328,0.20293443 C9.49545426,0.20293443 11.2057186,0.81719469 12.6112951,2.04517178 C14.0170507,3.27278658 14.7199285,4.95923984 14.7199285,7.10326356 C14.7199285,7.10326356 14.6285759,9.30326087 12.5378548,9.30326087 L4.05280844,9.30326087 C4.18034386,10.1097152 4.59752083,10.7690804 5.30541408,11.2824433 C6.01276995,11.7947193 6.81040371,12.0515819 7.69956922,12.0515819 C9.13237237,12.0515819 10.3108212,11.5661152 11.236886,10.5933704 L13.5232092,13.0964221 Z M9.60400266,4.32686515 C9.04173624,3.85027455 8.35748721,3.61170753 7.54946432,3.61170753 C6.74305355,3.61170753 6.0029182,3.85896947 5.33210337,4.35421794 C4.66021381,4.84928526 4.27080087,5.51806995 4.16207334,6.36039086 L10.5843417,6.36039086 C10.4924517,5.48202224 10.1664482,4.80345576 9.60400266,4.32686515 Z" id="path-23"></path>
        <path d="M10.1054073,0.152203248 L14.2152005,0.152203248 L14.2152005,9.11540346 C14.2152005,11.112338 13.6699507,12.6198207 12.5823172,13.6369459 C11.4932506,14.6547956 9.99865013,15.1636299 8.39317261,15.1636299 C8.09708265,15.1636299 7.71805883,15.1699699 7.3546187,15.1636299 C7.06175295,15.1699699 6.5990788,15.1636299 6.30263059,15.1636299 C4.69715307,15.1636299 3.19377554,14.6547956 2.10363427,13.6369459 C1.01635896,12.6198207 0.470750962,11.112338 0.470750962,9.11540346 L0.470750962,0.152203248 L4.5810815,0.152203248 L4.5810815,8.20805176 C4.5810815,10.439387 5.50195174,11.4201022 7.3671573,11.4594105 C9.30669881,11.4201022 10.1054073,10.439387 10.1054073,8.20805176 L10.1054073,0.152203248 Z" id="path-25"></path>
        <polygon id="path-27" points="11.9973022 19.8193582 11.9973022 12.084135 4.25883961 12.084135 4.25883961 19.8193582 0.0628883813 19.8193582 0.0628883813 0.550135184 4.25883961 0.550135184 4.25883961 8.17540373 11.9973022 8.17540373 11.9973022 0.550135184 16.1932534 0.550135184 16.1932534 19.8193582"></polygon>
        <path d="M9.50050966,4.88224274 C9.50050966,7.4731494 7.42608869,9.57098133 4.86212515,9.57098133 C2.30084845,9.57098133 0.224994502,7.4731494 0.224994502,4.88224274 C0.224994502,2.29369095 2.30084845,0.197851607 4.86212515,0.197851607 C7.42608869,0.197851607 9.50050966,2.29369095 9.50050966,4.88224274 Z" id="path-29"></path>
    </defs>
    <g id="Page-1" stroke="none" stroke-width="1" fill="none" fill-rule="evenodd">
        <g id="Logo" transform="translate(0.000000, 0.195407)">
            <g id="Group-12" transform="translate(0.000000, 24.816362)">
                <mask id="mask-2" fill="white">
                    <use xlink:href="#path-1"></use>
                </mask>
                <g id="Clip-11"></g>
                <polygon id="Fill-10" fill="#DD89E0" mask="url(#mask-2)" points="-8.8339775 18.6281954 18.3590107 18.6281954 18.3590107 -8.85943495 -8.8339775 -8.85943495"></polygon>
            </g>
            <g id="Group-15" transform="translate(12.017510, 24.816362)">
                <mask id="mask-4" fill="white">
                    <use xlink:href="#path-3"></use>
                </mask>
                <g id="Clip-14"></g>
                <polygon id="Fill-13" fill="#2B90E2" mask="url(#mask-4)" points="-8.51995897 18.6281954 18.668587 18.6281954 18.668587 -8.85943495 -8.51995897 -8.85943495"></polygon>
            </g>
            <g id="Group-18">
                <mask id="mask-6" fill="white">
                    <use xlink:href="#path-5"></use>
                </mask>
                <g id="Clip-17"></g>
                <polygon id="Fill-16" fill="#FFAC00" mask="url(#mask-6)" points="-8.8339775 18.4718259 18.3590107 18.4718259 18.3590107 -9.01738047 -8.8339775 -9.01738047"></polygon>
            </g>
            <g id="Group-21" transform="translate(12.017510, 0.000000)">
                <mask id="mask-8" fill="white">
                    <use xlink:href="#path-7"></use>
                </mask>
                <g id="Clip-20"></g>
                <polygon id="Fill-19" fill="#F27C2B" mask="url(#mask-8)" points="-8.51995897 18.4718259 18.6719187 18.4718259 18.6719187 -9.01738047 -8.51995897 -9.01738047"></polygon>
            </g>
            <g id="Group-24" transform="translate(24.556105, 0.000000)">
                <mask id="mask-10" fill="white">
                    <use xlink:href="#path-9"></use>
                </mask>
                <g id="Clip-23"></g>
                <polygon id="Fill-22" fill="#EE659B" mask="url(#mask-10)" points="-8.68260246 18.4718259 18.5079497 18.4718259 18.5079497 -9.01738047 -8.68260246 -9.01738047"></polygon>
            </g>
            <g id="Group-27" transform="translate(0.000000, 12.136263)">
                <mask id="mask-12" fill="white">
                    <use xlink:href="#path-11"></use>
                </mask>
                <g id="Clip-26"></g>
                <polygon id="Fill-25" fill="#56C8E7" mask="url(#mask-12)" points="-8.8339775 18.8113323 18.3590107 18.8113323 18.3590107 -8.68144258 -8.8339775 -8.68144258"></polygon>
            </g>
            <g id="Group-30" transform="translate(12.017510, 12.136263)">
                <mask id="mask-14" fill="white">
                    <use xlink:href="#path-13"></use>
                </mask>
                <g id="Clip-29"></g>
                <polygon id="Fill-28" fill="#C2A5EF" mask="url(#mask-14)" points="-8.53518441 18.8107889 18.6551349 18.8107889 18.6551349 -8.68155126 -8.53518441 -8.68155126"></polygon>
            </g>
            <g id="Group-33" transform="translate(24.556105, 12.136263)">
                <mask id="mask-16" fill="white">
                    <use xlink:href="#path-15"></use>
                </mask>
                <g id="Clip-32"></g>
                <polygon id="Fill-31" fill="#70C284" mask="url(#mask-16)" points="-8.73114474 18.8113323 18.4567385 18.8113323 18.4567385 -8.68144258 -8.73114474 -8.68144258"></polygon>
            </g>
            <g id="Group-36" transform="translate(42.989468, 7.245771)">
                <mask id="mask-18" fill="white">
                    <use xlink:href="#path-17"></use>
                </mask>
                <use id="Clip-35" fill="#652C8F" xlink:href="#path-17"></use>
                <polygon id="Fill-34" fill="#6F3996" mask="url(#mask-18)" points="-8.37434843 28.9068234 26.9532144 28.9068234 26.9532144 -8.42409672 -8.37434843 -8.42409672"></polygon>
            </g>
            <g id="Group-39" transform="translate(57.319291, 11.854572)">
                <mask id="mask-20" fill="white">
                    <use xlink:href="#path-19"></use>
                </mask>
                <use id="Clip-38" fill="#652C8F" xlink:href="#path-19"></use>
                <polygon id="Fill-37" fill="#6F3996" mask="url(#mask-20)" points="-8.55794929 24.5179314 24.8376131 24.5179314 24.8376131 -8.85426155 -8.55794929 -8.85426155"></polygon>
            </g>
            <g id="Group-42" transform="translate(74.426257, 12.136263)">
                <mask id="mask-22" fill="white">
                    <use xlink:href="#path-21"></use>
                </mask>
                <use id="Clip-41" fill="#652C8F" xlink:href="#path-21"></use>
                <polygon id="Fill-40" fill="#6F3996" mask="url(#mask-22)" points="-8.69428541 24.2235612 22.9619231 24.2235612 22.9619231 -8.90506519 -8.69428541 -8.90506519"></polygon>
            </g>
            <g id="Group-45" transform="translate(124.580637, 11.854572)">
                <mask id="mask-24" fill="white">
                    <use xlink:href="#path-23"></use>
                </mask>
                <g id="Clip-44"></g>
                <polygon id="Fill-43" fill="#C2A5EF" mask="url(#mask-24)" points="-8.92929451 24.5179314 23.6761752 24.5179314 23.6761752 -8.85426155 -8.92929451 -8.85426155"></polygon>
            </g>
            <g id="Group-48" transform="translate(108.743814, 12.136263)">
                <mask id="mask-26" fill="white">
                    <use xlink:href="#path-25"></use>
                </mask>
                <g id="Clip-47"></g>
                <polygon id="Fill-46" fill="#C2A5EF" mask="url(#mask-26)" points="-8.48538828 24.2235612 23.1712681 24.2235612 23.1712681 -8.90506519 -8.48538828 -8.90506519"></polygon>
            </g>
            <g id="Group-51" transform="translate(90.831536, 7.245771)">
                <mask id="mask-28" fill="white">
                    <use xlink:href="#path-27"></use>
                </mask>
                <g id="Clip-50"></g>
                <polygon id="Fill-49" fill="#C2A5EF" mask="url(#mask-28)" points="-8.89325086 28.8765723 25.1494105 28.8765723 25.1494105 -8.50720571 -8.89325086 -8.50720571"></polygon>
            </g>
            <g id="Group-9" transform="translate(24.556105, 24.816362)">
                <mask id="mask-30" fill="white">
                    <use xlink:href="#path-29"></use>
                </mask>
                <g id="Clip-8"></g>
                <polygon id="Fill-7" fill="#E25674" mask="url(#mask-30)" points="-8.73114474 18.6281954 18.4567385 18.6281954 18.4567385 -8.85943495 -8.73114474 -8.85943495"></polygon>
            </g>
        </g>
    </g>
</svg>