<?xml version="1.0" encoding="UTF-8"?>
<svg width="25px" height="25px" viewBox="0 0 25 25" version="1.1" xmlns="http://www.w3.org/2000/svg" xmlns:xlink="http://www.w3.org/1999/xlink">
    <title>loved</title>
    <g id="Page-1" stroke="none" stroke-width="1" fill="none" fill-rule="evenodd">
        <g id="loved">
            <path d="M24.872427,12.4141637 C24.872427,19.26746 19.3234719,24.8228145 12.4787022,24.8228145 C5.63342032,24.8228145 0.085489641,19.26746 0.085489641,12.4141637 C0.085489641,5.56086748 5.63342032,0.00500011487 12.4787022,0.00500011487 C19.3234719,0.00500011487 24.872427,5.56086748 24.872427,12.4141637" id="Fill-1" fill="#EF659F"></path>
            <path d="M12.5301985,19.6818624 C9.98068495,19.6818624 7.59405698,18.6428642 5.98088263,16.8320533 C5.49930785,16.2915281 5.54129388,15.45715 6.07497182,14.9689336 C6.6081439,14.4807173 7.43117139,14.5232824 7.91274617,15.0638076 C9.03271106,16.3217852 10.7161994,17.0433403 12.5301985,17.0433403 C14.3441976,17.0433403 16.0276859,16.3217852 17.1476508,15.0638076 C17.6287198,14.5232824 18.4517472,14.4802044 18.985931,14.9689336 C19.5185973,15.45715 19.5605833,16.2915281 19.0790085,16.8320533 C17.46634,18.6428642 15.0792062,19.6818624 12.5301985,19.6818624" id="Fill-2" fill="#991C5B"></path>
            <path d="M9.4481229,7.47379383 C9.02016884,7.47379383 8.62206027,7.63841299 8.32057018,7.9291889 C8.01958594,7.63841299 7.62097152,7.47379383 7.19301746,7.47379383 C6.28348861,7.47379383 5.54342149,8.22406747 5.54342149,9.14613994 C5.54342149,9.60307351 5.72350617,10.0302628 6.04624221,10.3451418 L7.85063008,12.1749275 C7.91285035,12.2380058 8.0898999,12.4139073 8.31551162,12.4139073 L8.32411117,12.4139073 C8.52645352,12.4139073 8.71564361,12.2580063 8.77735802,12.1949279 L10.6363783,10.3025768 C10.9338216,9.9887234 11.0977189,9.57794473 11.0977189,9.14613994 C11.0977189,8.22406747 10.3576517,7.47379383 9.4481229,7.47379383" id="Fill-3" fill="#991C5B"></path>
            <path d="M17.7643933,7.47379383 C17.3369451,7.47379383 16.9383307,7.63841299 16.6373464,7.9291889 C16.3358563,7.63841299 15.9377478,7.47379383 15.5097937,7.47379383 C14.6002649,7.47379383 13.8601977,8.22406747 13.8601977,9.14613994 C13.8601977,9.60307351 14.0402824,10.0302628 14.3625126,10.3451418 L16.1674063,12.1749275 C16.2291208,12.2380058 16.4061703,12.4139073 16.6322879,12.4139073 L16.6408874,12.4139073 C16.8432298,12.4139073 17.031914,12.2580063 17.0941343,12.1949279 L18.9531546,10.3025768 C19.2505978,9.9887234 19.4144951,9.57794473 19.4144951,9.14613994 C19.4144951,8.22406747 18.6739221,7.47379383 17.7643933,7.47379383" id="Fill-4" fill="#991C5B"></path>
        </g>
    </g>
</svg>