<?xml version="1.0" encoding="UTF-8"?>
<svg width="38px" height="39px" viewBox="0 0 38 39" version="1.1" xmlns="http://www.w3.org/2000/svg" xmlns:xlink="http://www.w3.org/1999/xlink">
    <title>minibar</title>
    <g id="Page-1" stroke="none" stroke-width="1" fill="none" fill-rule="evenodd">
        <g id="minibar" transform="translate(0.000000, 0.750000)" fill="#652D90" fill-rule="nonzero">
            <rect id="Rectangle" x="23.152439" y="25.5984991" width="1.63133208" height="1"></rect>
            <rect id="Rectangle" x="25.5984991" y="24.7833021" width="1" height="1"></rect>
            <rect id="Rectangle" x="18.2603189" y="25.5984991" width="1.630394" height="1"></rect>
            <rect id="Rectangle" x="15.8137899" y="13.3677298" width="1" height="1.63086304"></rect>
            <polygon id="Path" points="19.0755159 23.9685741 20.706379 23.9685741 20.706379 22.337242 19.8902439 22.337242 19.8902439 23.1529081 18.2603189 23.1529081 18.2603189 23.9685741 17.4446529 23.9685741 17.4446529 24.7833021 19.0755159 24.7833021"></polygon>
            <polygon id="Path" points="22.3377111 18.2603189 22.3377111 19.0755159 21.521576 19.0755159 21.521576 19.8902439 23.152439 19.8902439 23.152439 18.2603189"></polygon>
            <polygon id="Path" points="23.9681051 19.8902439 23.152439 19.8902439 23.152439 20.706848 21.521576 20.706848 21.521576 21.521576 23.9681051 21.521576"></polygon>
            <polygon id="Path" points="14.1829268 18.2603189 14.1829268 17.445122 13.3677298 17.445122 13.3677298 16.6294559 12.5520638 16.6294559 12.5520638 17.445122 11.7363977 17.445122 11.7363977 18.2603189"></polygon>
            <rect id="Rectangle" x="14.9985929" y="15.8137899" width="1.63086304" height="1.63133208"></rect>
            <rect id="Rectangle" x="16.6294559" y="14.9985929" width="1" height="1"></rect>
            <rect id="Rectangle" x="20.706379" y="23.9685741" width="1" height="1.630394"></rect>
            <polygon id="Path" points="14.1829268 20.706848 13.3677298 20.706848 13.3677298 19.8902439 14.1829268 19.8902439 14.1829268 20.706848 16.6294559 20.706848 16.6294559 19.8902439 15.8137899 19.8902439 15.8137899 19.0755159 11.7363977 19.0755159 11.7363977 19.8902439 10.9212008 19.8902439 10.9212008 20.706848 12.5520638 20.706848 12.5520638 21.521576 14.1829268 21.521576"></polygon>
            <rect id="Rectangle" x="14.9985929" y="21.521576" width="2.44606004" height="1"></rect>
            <path d="M22.337242,24.7833021 L24.7833021,24.7833021 L24.7833021,22.337242 L22.337242,22.337242 L22.337242,24.7833021 L22.337242,24.7833021 Z M23.152439,23.1529081 L23.9681051,23.1529081 L23.9681051,23.9685741 L23.152439,23.9685741 L23.152439,23.1529081 Z" id="Shape"></path>
            <rect id="Rectangle" x="13.3677298" y="15.8137899" width="1" height="1"></rect>
            <path d="M9.29080675,13.3677298 L13.3677298,13.3677298 L13.3677298,9.29080675 L9.29080675,9.29080675 L9.29080675,13.3677298 Z M10.1060038,10.1060038 L12.5520638,10.1060038 L12.5520638,12.5520638 L10.1060038,12.5520638 L10.1060038,10.1060038 L10.1060038,10.1060038 Z" id="Shape"></path>
            <rect id="Rectangle" x="24.7833021" y="19.0755159" width="1" height="1"></rect>
            <rect id="Rectangle" x="23.9681051" y="18.2603189" width="1" height="1"></rect>
            <path d="M28.0450281,9.29080675 L23.9681051,9.29080675 L23.9681051,13.3677298 L28.0450281,13.3677298 L28.0450281,9.29080675 Z M27.2298311,12.5520638 L24.7833021,12.5520638 L24.7833021,10.1060038 L27.2298311,10.1060038 L27.2298311,12.5520638 Z" id="Shape"></path>
            <path d="M18.75,0 C8.39414063,0 0,8.39472656 0,18.75 C0,29.1058594 8.39414063,37.5 18.75,37.5 C29.1052734,37.5 37.5,29.1058594 37.5,18.75 C37.5,8.39472656 29.1052734,0 18.75,0 Z M16.6294559,8.47514071 L17.4446529,8.47514071 L17.4446529,9.29080675 L16.6294559,9.29080675 L16.6294559,8.47514071 Z M8.47514071,8.47514071 L14.1829268,8.47514071 L14.1829268,14.1833959 L8.47514071,14.1833959 L8.47514071,8.47514071 Z M14.1829268,28.8606942 L8.47514071,28.8606942 L8.47514071,23.152439 L14.1829268,23.152439 L14.1829268,28.8606942 L14.1829268,28.8606942 Z M21.521576,28.8606942 L19.8902439,28.8606942 L19.8902439,28.0450281 L21.521576,28.0450281 L21.521576,28.8606942 Z M28.8606942,15.8137899 L27.2293621,15.8137899 L27.2293621,16.6294559 L28.8606942,16.6294559 L28.8606942,19.0755159 L26.4141651,19.0755159 L26.4141651,19.8902439 L28.8606942,19.8902439 L28.8606942,22.337242 L28.0450281,22.337242 L28.0450281,23.152439 L28.8606942,23.152439 L28.8606942,23.9681051 L27.2293621,23.9681051 L27.2293621,22.336773 L26.4141651,22.336773 L26.4141651,23.15197 L25.5984991,23.15197 L25.5984991,23.967636 L26.4141651,23.967636 L26.4141651,24.782364 L27.2293621,24.782364 L27.2293621,25.597561 L26.4141651,25.597561 L26.4141651,26.413227 L27.2293621,26.413227 L27.2293621,27.2288931 L26.4141651,27.2288931 L26.4141651,26.413227 L24.782833,26.413227 L24.782833,27.2288931 L25.59803,27.2288931 L25.59803,28.043621 L28.0445591,28.043621 L28.0445591,25.5970919 L28.8602251,25.5970919 L28.8602251,28.8592871 L25.59803,28.8592871 L25.59803,28.043621 L23.9681051,28.043621 L23.9681051,28.8592871 L22.337242,28.8592871 L22.337242,28.043621 L23.15197,28.043621 L23.15197,26.412758 L22.337242,26.412758 L22.337242,27.228424 L21.521576,27.228424 L21.521576,26.412758 L19.8902439,26.412758 L19.8902439,27.228424 L18.2603189,27.228424 L18.2603189,28.0440901 L17.4446529,28.0440901 L17.4446529,27.228424 L18.2603189,27.228424 L18.2603189,26.412758 L17.4446529,26.412758 L17.4446529,24.7814259 L16.6294559,24.7814259 L16.6294559,26.412758 L15.8137899,26.412758 L15.8137899,27.228424 L14.9985929,27.228424 L14.9985929,24.7814259 L15.8137899,24.7814259 L15.8137899,23.9666979 L16.6294559,23.9666979 L16.6294559,23.1510319 L14.9985929,23.1510319 L14.9985929,22.3358349 L12.5520638,22.3358349 L12.5520638,21.5201689 L11.7363977,21.5201689 L11.7363977,22.3358349 L10.9212008,22.3358349 L10.9212008,21.5201689 L10.1060038,21.5201689 L10.1060038,19.8888368 L10.9212008,19.8888368 L10.9212008,17.4432458 L10.1060038,17.4432458 L10.1060038,19.0741088 L9.29080675,19.0741088 L9.29080675,22.3358349 L8.47514071,22.3358349 L8.47514071,17.445122 L10.1060038,17.445122 L10.1060038,16.629925 L10.9212008,16.629925 L10.9212008,17.445122 L11.7363977,17.445122 L11.7363977,15.8137899 L10.1055347,15.8137899 L10.1055347,14.9985929 L12.5515947,14.9985929 L12.5515947,15.8137899 L13.3677298,15.8137899 L13.3677298,14.9985929 L14.1829268,14.9985929 L14.1829268,15.8137899 L14.9981238,15.8137899 L14.9981238,12.5520638 L15.8133208,12.5520638 L15.8133208,10.9212008 L14.9981238,10.9212008 L14.9981238,8.47514071 L15.8133208,8.47514071 L15.8133208,10.9212008 L17.4441839,10.9212008 L17.4441839,10.1060038 L18.2598499,10.1060038 L18.2598499,8.47514071 L21.5211069,8.47514071 L21.5211069,11.7368668 L22.336773,11.7368668 L22.336773,12.5520638 L19.0750469,12.5520638 L19.0750469,11.7368668 L20.7059099,11.7368668 L20.7059099,10.1060038 L19.8902439,10.1060038 L19.8902439,9.29080675 L19.0755159,9.29080675 L19.0755159,10.1060038 L18.2603189,10.1060038 L18.2603189,10.9212008 L17.4446529,10.9212008 L17.4446529,11.7368668 L16.6294559,11.7368668 L16.6294559,12.5520638 L17.4446529,12.5520638 L17.4446529,14.1833959 L18.2603189,14.1833959 L18.2603189,13.3677298 L19.0755159,13.3677298 L19.0755159,14.1829268 L18.2603189,14.1829268 L18.2603189,15.8137899 L17.4446529,15.8137899 L17.4446529,16.6294559 L19.8902439,16.6294559 L19.8902439,17.4446529 L20.7059099,17.4446529 L20.7059099,18.2603189 L19.8902439,18.2603189 L19.8902439,19.8902439 L20.7059099,19.8902439 L20.7059099,19.0750469 L21.5211069,19.0750469 L21.5211069,18.2603189 L22.336773,18.2603189 L22.336773,17.445122 L21.5211069,17.445122 L21.5211069,16.629925 L20.7059099,16.629925 L20.7059099,14.9985929 L21.5211069,14.9985929 L21.5211069,16.629925 L22.337242,16.629925 L22.337242,17.445122 L23.1515009,17.445122 L23.1515009,16.629925 L23.9681051,16.629925 L23.9681051,15.8142589 L22.337242,15.8142589 L22.337242,14.9990619 L24.7833021,14.9990619 L24.7833021,16.630394 L23.9681051,16.630394 L23.9681051,17.445591 L25.5989681,17.445591 L25.5989681,16.630394 L26.4146341,16.630394 L26.4146341,14.9990619 L28.8611632,14.9990619 L28.8611632,15.8137899 L28.8606942,15.8137899 Z M22.3377111,13.3677298 L22.3377111,14.1829268 L21.521576,14.1829268 L21.521576,13.3677298 L22.3377111,13.3677298 Z M19.8902439,14.1829268 L19.8902439,13.3677298 L20.7059099,13.3677298 L20.7059099,14.1829268 L19.8902439,14.1829268 Z M19.8907129,14.9985929 L19.8907129,15.8137899 L19.0755159,15.8137899 L19.0755159,14.9985929 L19.8907129,14.9985929 Z M28.8606942,14.1829268 L23.152439,14.1829268 L23.152439,8.47467167 L28.8611632,8.47467167 L28.8611632,14.1829268 L28.8606942,14.1829268 Z" id="Shape"></path>
            <path d="M13.3677298,23.9685741 L9.29080675,23.9685741 L9.29080675,28.0450281 L13.3677298,28.0450281 L13.3677298,23.9685741 Z M12.5520638,27.2303002 L10.1060038,27.2303002 L10.1060038,24.7833021 L12.5520638,24.7833021 L12.5520638,27.2303002 Z" id="Shape"></path>
            <rect id="Rectangle" x="18.2598499" y="21.521576" width="1" height="1"></rect>
            <polygon id="Path" points="17.4446529 18.2603189 15.8137899 18.2603189 15.8137899 19.0750469 18.2603189 19.0750469 18.2603189 18.2603189 19.8902439 18.2603189 19.8902439 17.445122 17.4446529 17.445122"></polygon>
            <polygon id="Path" points="26.4146341 20.706848 26.4146341 19.891182 25.5984991 19.891182 25.5984991 21.521576 27.2298311 21.521576 27.2298311 22.337242 28.0450281 22.337242 28.0450281 20.706848"></polygon>
            <polygon id="Path" points="27.2298311 18.2603189 27.2298311 17.445122 25.5984991 17.445122 25.5984991 19.0755159 26.4146341 19.0755159 26.4146341 18.2603189"></polygon>
            <polygon id="Path" points="19.0755159 19.0755159 18.2603189 19.0755159 18.2603189 19.8902439 17.4446529 19.8902439 17.4446529 20.706848 18.2598499 20.706848 18.2598499 19.891182 19.0750469 19.891182 19.0750469 21.521576 19.8902439 21.521576 19.8902439 19.8902439 19.0755159 19.8902439"></polygon>
        </g>
    </g>
</svg>