<?xml version="1.0" encoding="UTF-8"?>
<svg width="38px" height="38px" viewBox="0 0 38 38" version="1.1" xmlns="http://www.w3.org/2000/svg" xmlns:xlink="http://www.w3.org/1999/xlink">
    <title>passcode</title>
    <g id="Page-1" stroke="none" stroke-width="1" fill="none" fill-rule="evenodd">
        <g id="passcode" fill="#652D90" fill-rule="nonzero">
            <path d="M18.75,0 C8.39475,0 0,8.39475 0,18.75 C0,29.10525 8.39475,37.5 18.75,37.5 C29.10525,37.5 37.5,29.10525 37.5,18.75 C37.5,8.39475 29.10525,0 18.75,0 Z M29.986125,26.592375 L7.513875,26.592375 C5.8665,26.592375 4.526625,25.2525 4.526625,23.605125 L4.526625,13.816125 C4.526625,12.16875 5.8665,10.8285 7.513875,10.8285 L29.9865,10.8285 C31.633875,10.8285 32.97375,12.16875 32.97375,13.816125 L32.97375,23.605125 C32.973375,25.2525 31.6335,26.592375 29.986125,26.592375 Z" id="Shape"></path>
            <path d="M29.986125,12.717 L7.513875,12.717 C6.907875,12.717 6.415125,13.210125 6.415125,13.816125 L6.415125,23.605125 C6.415125,24.211125 6.907875,24.703875 7.513875,24.703875 L29.9865,24.703875 C30.5925,24.703875 31.08525,24.211125 31.08525,23.605125 L31.08525,13.816125 C31.084875,13.210125 30.592125,12.717 29.986125,12.717 Z M12.226875,19.042875 L10.474875,18.736125 L10.464,18.769125 L11.658,20.116125 L10.683375,20.685375 L10.059375,18.988125 L10.03725,18.999 L9.402375,20.68575 L8.46,20.1165 L9.632625,18.74775 L9.632625,18.725625 L7.9125,19.043625 L7.9125,17.937375 L9.610125,18.27675 L9.621,18.255 L8.46,16.875 L9.435375,16.316625 L10.048125,17.992125 L10.07025,17.992125 L10.69425,16.316625 L11.658,16.864125 L10.474875,18.254625 L10.4865,18.287625 L12.22725,17.937375 L12.22725,19.042875 L12.226875,19.042875 Z M18.246375,19.042875 L16.494375,18.736125 L16.4835,18.769125 L17.6775,20.116125 L16.702875,20.685375 L16.0785,18.988125 L16.056375,18.999 L15.4215,20.68575 L14.479875,20.1165 L15.65175,18.74775 L15.65175,18.725625 L13.931625,19.043625 L13.931625,17.937375 L15.62925,18.27675 L15.640125,18.255 L14.479875,16.875 L15.4545,16.316625 L16.06725,17.992125 L16.089375,17.992125 L16.71375,16.316625 L17.6775,16.864125 L16.494375,18.254625 L16.506,18.287625 L18.24675,17.937375 L18.24675,19.042875 L18.246375,19.042875 Z M23.91675,19.042875 L22.164375,18.736125 L22.1535,18.769125 L23.3475,20.116125 L22.372875,20.685375 L21.7485,18.988125 L21.726375,18.999 L21.0915,20.68575 L20.149875,20.1165 L21.321375,18.74775 L21.321375,18.725625 L19.60125,19.043625 L19.60125,17.937375 L21.298875,18.27675 L21.30975,18.255 L20.1495,16.875 L21.124125,16.316625 L21.736875,17.992125 L21.759,17.992125 L22.383375,16.316625 L23.347125,16.864125 L22.164,18.254625 L22.175625,18.287625 L23.916375,17.937375 L23.916375,19.042875 L23.91675,19.042875 Z M29.587875,19.042875 L27.8355,18.736125 L27.825,18.76875 L29.019,20.11575 L28.044375,20.685 L27.42,18.98775 L27.397875,18.998625 L26.763,20.685375 L25.820625,20.116125 L26.99325,18.747375 L26.99325,18.72525 L25.273125,19.04325 L25.273125,17.937 L26.97075,18.276375 L26.981625,18.254625 L25.820625,16.874625 L26.796,16.31625 L27.40875,17.99175 L27.430875,17.99175 L28.05525,16.31625 L29.019,16.86375 L27.835875,18.25425 L27.8475,18.28725 L29.58825,17.937 L29.58825,19.042875 L29.587875,19.042875 Z" id="Shape"></path>
        </g>
    </g>
</svg>