<?xml version="1.0" encoding="UTF-8"?>
<svg width="90px" height="30px" viewBox="0 0 90 30" version="1.1" xmlns="http://www.w3.org/2000/svg" xmlns:xlink="http://www.w3.org/1999/xlink">
    <title>playstore</title>
    <defs>
        <linearGradient x1="61.0339412%" y1="4.9481245%" x2="26.5026568%" y2="71.9074222%" id="linearGradient-1">
            <stop stop-color="#00A0FF" offset="0%"></stop>
            <stop stop-color="#00A1FF" offset="1%"></stop>
            <stop stop-color="#00BEFF" offset="26%"></stop>
            <stop stop-color="#00D2FF" offset="51%"></stop>
            <stop stop-color="#00DFFF" offset="76%"></stop>
            <stop stop-color="#00E3FF" offset="100%"></stop>
        </linearGradient>
        <linearGradient x1="107.684729%" y1="50%" x2="-130.640394%" y2="50%" id="linearGradient-2">
            <stop stop-color="#FFE000" offset="0%"></stop>
            <stop stop-color="#FFBD00" offset="41%"></stop>
            <stop stop-color="#FFA500" offset="78%"></stop>
            <stop stop-color="#FF9C00" offset="100%"></stop>
        </linearGradient>
        <linearGradient x1="86.219293%" y1="30.9112842%" x2="-50.1497903%" y2="135.987548%" id="linearGradient-3">
            <stop stop-color="#FF3A44" offset="0%"></stop>
            <stop stop-color="#C31162" offset="100%"></stop>
        </linearGradient>
        <linearGradient x1="-18.7537448%" y1="-11.831554%" x2="42.1210306%" y2="35.0948125%" id="linearGradient-4">
            <stop stop-color="#32A071" offset="0%"></stop>
            <stop stop-color="#2DA771" offset="7%"></stop>
            <stop stop-color="#15CF74" offset="48%"></stop>
            <stop stop-color="#06E775" offset="80%"></stop>
            <stop stop-color="#00F076" offset="100%"></stop>
        </linearGradient>
    </defs>
    <g id="Page-1" stroke="none" stroke-width="1" fill="none" fill-rule="evenodd">
        <g id="playstore" fill-rule="nonzero">
            <rect id="Background-Black" fill="#000000" x="0" y="0" width="90" height="30" rx="4.083333"></rect>
            <path d="M86.6666667,0.6 C88.213064,0.6 89.4666667,2.01030304 89.4666667,3.75 L89.4666667,26.25 C89.4666667,27.989697 88.213064,29.4 86.6666667,29.4 L3.33333333,29.4 C1.78693603,29.4 0.533333333,27.989697 0.533333333,26.25 L0.533333333,3.75 C0.533333333,2.01030304 1.78693603,0.6 3.33333333,0.6 L86.6666667,0.6 L86.6666667,0.6 Z M86.6666667,0 L3.33333333,0 C1.49238417,0 0,1.67893219 0,3.75 L0,26.25 C0,28.3210678 1.49238417,30 3.33333333,30 L86.6666667,30 C88.5076158,30 90,28.3210678 90,26.25 L90,3.75 C90,1.67893219 88.5076158,0 86.6666667,0 Z" id="Border-Gray" fill="#A6A6A6"></path>
            <g id="Group-4" transform="translate(27.000000, 6.000000)" fill="#FFFFFF">
                <path d="M18.1780337,9.93064469 C16.6149837,9.9380003 15.3531496,11.2097655 15.3580334,12.7728251 C15.3629456,14.3358847 16.6327252,15.5997169 18.1957906,15.5972801 C19.758856,15.5948362 21.0246831,14.3270453 21.0247004,12.763978 C21.0356824,12.0068939 20.7388548,11.2777845 20.2022038,10.7436471 C19.6655528,10.2095097 18.935058,9.91610845 18.1780337,9.93064469 L18.1780337,9.93064469 Z M18.1780337,14.483978 C17.4735186,14.5332482 16.8104824,14.1468537 16.5060479,13.5096027 C16.2016135,12.8723518 16.3176576,12.1137666 16.7986776,11.59667 C17.2796977,11.0795735 18.0279256,10.9090663 18.6854923,11.1667001 C19.3430589,11.4243339 19.776313,12.0577443 19.7780337,12.763978 C19.7997289,13.2057593 19.6420555,13.6375732 19.3407939,13.9614294 C19.0395324,14.2852856 18.6202285,14.4737223 18.1780337,14.483978 L18.1780337,14.483978 Z M11.9713671,9.93064469 C10.4074334,9.93432454 9.14225207,11.2044759 9.14470031,12.768412 C9.14715566,14.3323481 10.4163132,15.5985264 11.9802507,15.5973035 C13.5441882,15.5960789 14.8113627,14.327916 14.8113671,12.763978 C14.822349,12.0068939 14.5255215,11.2777845 13.9888705,10.7436471 C13.4522195,10.2095097 12.7217246,9.91610845 11.9647004,9.93064469 L11.9713671,9.93064469 Z M11.9713671,14.483978 C11.2664842,14.5360267 10.6015147,14.1515589 10.2949349,13.5147091 C9.98835499,12.8778593 10.1025822,12.1182857 10.5829093,11.5997736 C11.0632364,11.0812615 11.8118721,10.9093764 12.4702696,11.1664398 C13.1286671,11.4235032 13.5627814,12.0571788 13.5647004,12.763978 C13.5863956,13.2057593 13.4287222,13.6375732 13.1274606,13.9614294 C12.826199,14.2852856 12.4068951,14.4737223 11.9647004,14.483978 L11.9713671,14.483978 Z M4.57803372,10.803978 L4.57803372,12.003978 L7.45803372,12.003978 C7.412876,12.5691806 7.17793014,13.1025077 6.79136705,13.5173114 C6.20871564,14.1107944 5.40239586,14.4304167 4.57136705,14.3973114 C2.80405585,14.3973114 1.37136705,12.9646226 1.37136705,11.1973114 C1.37136705,9.43000016 2.80405585,7.99731136 4.57136705,7.99731136 C5.38323088,7.98407058 6.16720836,8.29334609 6.75136705,8.85731136 L7.59803372,8.01064469 C6.80131344,7.20388344 5.711846,6.75414743 4.57803372,6.76397802 C2.96400756,6.70116404 1.44496275,7.52642588 0.619269752,8.91468273 C-0.206423251,10.3029396 -0.206423251,12.0316831 0.619269752,13.41994 C1.44496275,14.8081968 2.96400756,15.6334587 4.57803372,15.5706447 C5.73254374,15.6228142 6.85319421,15.1730955 7.65136705,14.3373114 C8.34981755,13.5699257 8.72272911,12.5611522 8.69136705,11.523978 C8.69351829,11.2713035 8.67119184,11.0190146 8.62470039,10.7706447 L4.57803372,10.803978 Z M34.7847004,11.7373114 C34.4287535,10.6901181 33.4633189,9.97134672 32.3580337,9.93063958 C31.6209427,9.92920356 30.9161304,10.2329164 30.4109533,10.7696671 C29.9057762,11.3064177 29.6452974,12.0283268 29.6913671,12.763978 C29.6749944,13.5168421 29.9654767,14.2439969 30.4960685,14.7783607 C31.0266603,15.3127246 31.7517392,15.6083505 32.5047004,15.5973114 C33.4519394,15.6024173 34.3384626,15.1316084 34.8647004,14.343978 L33.8980337,13.6773114 C33.6045311,14.1666061 33.0752712,14.4654227 32.5047004,14.463978 C31.9137613,14.4865014 31.3691279,14.1454446 31.1313671,13.603978 L34.9247004,12.0373114 L34.7847004,11.7373114 Z M30.9180337,12.683978 C30.890735,12.2674209 31.0322509,11.857408 31.3106782,11.5463721 C31.5891055,11.2353362 31.9810072,11.0494591 32.3980337,11.0306447 C32.8376136,11.0016791 33.252078,11.2377664 33.4513671,11.6306447 L30.9180337,12.683978 Z M27.8380337,15.4306447 L29.0847004,15.4306447 L29.0847004,7.09731136 L27.8380337,7.09731136 L27.8380337,15.4306447 Z M25.7980337,10.563978 L25.7513671,10.563978 C25.3713418,10.1390959 24.8280719,9.89656466 24.2580337,9.89730964 C22.7447983,9.97069246 21.5555918,11.2189644 21.5555918,12.733978 C21.5555918,14.2489916 22.7447983,15.4972636 24.2580337,15.5706447 C24.8299197,15.5802605 25.376711,15.3361572 25.7513671,14.903978 L25.7913671,14.903978 L25.7913671,15.3106447 C25.7913671,16.3973096 25.2113671,16.9773114 24.2780337,16.9773114 C23.6422357,16.9624296 23.0785191,16.564667 22.8513671,15.9706447 L21.7647004,16.423978 C22.1831548,17.441852 23.177521,18.1038836 24.2780337,18.0973598 C25.7380337,18.0973598 26.9447004,17.2373114 26.9447004,15.143978 L26.9447004,10.0973114 L25.7980337,10.0973114 L25.7980337,10.563978 Z M24.3713671,14.483978 C23.4799588,14.4054179 22.7962846,13.6588414 22.7962846,12.763978 C22.7962846,11.8691147 23.4799588,11.1225382 24.3713671,11.043978 C24.8021134,11.066083 25.205691,11.2611581 25.4906003,11.5849757 C25.7755095,11.9087932 25.9176157,12.3339226 25.8847004,12.763978 C25.9214569,13.196011 25.7798054,13.6242654 25.4926806,13.9491698 C25.2055558,14.2740742 24.797974,14.4673206 24.3647004,14.483978 L24.3713671,14.483978 Z M40.6247004,7.09731136 L37.6447004,7.09731136 L37.6447004,15.4306447 L38.8913671,15.4306447 L38.8913671,12.2706447 L40.6313671,12.2706447 C41.599823,12.3402206 42.5260164,11.862984 43.0314538,11.03396 C43.5368912,10.204936 43.5368912,9.16302003 43.0314538,8.33399604 C42.5260164,7.50497205 41.599823,7.02773548 40.6313671,7.09731136 L40.6247004,7.09731136 Z M40.6247004,11.0973114 L38.8847004,11.0973114 L38.8847004,8.25731136 L40.6513671,8.25731136 C41.4411342,8.25731136 42.0813671,8.89754416 42.0813671,9.68731136 C42.0813671,10.4770785 41.4411342,11.1173114 40.6513671,11.1173114 L40.6247004,11.0973114 Z M48.3113671,9.89731136 C47.3838422,9.84187065 46.5118249,10.3420367 46.0913671,11.1706447 L47.1980337,11.6306447 C47.4209709,11.2197568 47.8654502,10.9792151 48.3313671,11.0173114 C48.6510524,10.9799744 48.9723362,11.0726248 49.2230526,11.2744515 C49.473769,11.4762782 49.6328994,11.7703613 49.6647004,12.0906447 L49.6647004,12.1773114 C49.2642954,11.9653107 48.8177619,11.8553948 48.3647004,11.8573114 C47.1713671,11.8573114 45.9647004,12.523978 45.9647004,13.7306447 C45.9884921,14.2504506 46.2215273,14.738531 46.610788,15.0838429 C47.0000487,15.4291548 47.5124325,15.6023331 48.0313671,15.563978 C48.6708531,15.6099001 49.2844131,15.3031201 49.6313671,14.763978 L49.6713671,14.763978 L49.6713671,15.4306447 L50.8713671,15.4306447 L50.8713671,12.223978 C50.8713671,10.763978 49.7647004,9.91731136 48.3447004,9.91731136 L48.3113671,9.89731136 Z M48.1580337,14.463978 C47.7513671,14.463978 47.1847004,14.2573114 47.1847004,13.7573114 C47.1847004,13.0906447 47.8913671,12.8706447 48.5180337,12.8706447 C48.9140617,12.8608726 49.3054543,12.9575696 49.6513671,13.1506447 C49.5651644,13.8969214 48.9423828,14.4656717 48.1913671,14.483978 L48.1580337,14.463978 Z M55.2447004,10.0973114 L53.8180337,13.7106447 L53.7780337,13.7106447 L52.2980337,10.0973114 L50.9647004,10.0973114 L53.1847004,15.1506447 L51.9180337,17.9573114 L53.2180337,17.9573114 L56.6313671,10.0973114 L55.2447004,10.0973114 Z M44.0380337,15.4306447 L45.2847004,15.4306447 L45.2847004,7.09731136 L44.0380337,7.09731136 L44.0380337,15.4306447 Z" id="Google-Play"></path>
                <path d="M4.36470039,2.25731136 C4.38760276,2.75146539 4.2068788,3.23339595 3.86470039,3.59064469 C3.48233355,3.98784683 2.94902292,4.20359522 2.39803372,4.18397802 C1.55292722,4.17736386 0.794132523,3.66478881 0.472494938,2.88325314 C0.150857354,2.10171747 0.329057398,1.20352633 0.924700386,0.603978022 C1.31172238,0.208862 1.84508631,-0.00834502692 2.39803372,0.00397802214 C2.67987214,0.00303897673 2.95892433,0.0597569022 3.21803372,0.170644689 C3.45927004,0.267947063 3.67402309,0.421015726 3.84470039,0.617311355 L3.49136705,0.970644689 C3.22159826,0.64976232 2.81662362,0.474437933 2.39803372,0.497311355 C1.97726663,0.495247271 1.57381995,0.66470313 1.2807244,0.966604117 C0.987628862,1.26850511 0.830185939,1.67678962 0.844700386,2.09731136 C0.835768326,2.73277115 1.21001808,3.31120436 1.79332258,3.56348356 C2.37662707,3.81576275 3.05442876,3.69234179 3.51136705,3.25064469 C3.71650672,3.02833576 3.83482238,2.73964555 3.84470039,2.43731136 L2.39803372,2.43731136 L2.39803372,1.95731136 L4.33803372,1.95731136 C4.35581581,2.05632077 4.36473999,2.15671779 4.36470039,2.25731136 L4.36470039,2.25731136 Z M7.41803372,0.590644689 L5.61803372,0.590644689 L5.61803372,1.85731136 L7.25803372,1.85731136 L7.25803372,2.33731136 L5.61803372,2.33731136 L5.61803372,3.60397802 L7.41803372,3.60397802 L7.41803372,4.09731136 L5.08470039,4.09731136 L5.08470039,0.0973113555 L7.41803372,0.0973113555 L7.41803372,0.590644689 Z M9.60470039,4.09731136 L9.09136705,4.09731136 L9.09136705,0.590644689 L7.97136705,0.590644689 L7.97136705,0.0973113555 L10.7513671,0.0973113555 L10.7513671,0.590644689 L9.60470039,0.590644689 L9.60470039,4.09731136 Z M12.7113671,4.09731136 L12.7113671,0.0973113555 L13.2247004,0.0973113555 L13.2247004,4.09731136 L12.7113671,4.09731136 Z M15.5047004,4.09731136 L14.9913671,4.09731136 L14.9913671,0.590644689 L13.8713671,0.590644689 L13.8713671,0.0973113555 L16.6180337,0.0973113555 L16.6180337,0.590644689 L15.5047004,0.590644689 L15.5047004,4.09731136 Z M21.8247004,3.57731136 C21.0133603,4.38412994 19.7027072,4.38412994 18.8913671,3.57731136 C18.1048797,2.7448006 18.1048797,1.44315544 18.8913671,0.610644689 C19.279366,0.219809149 19.8073109,2.27373675e-13 20.3580337,2.27373675e-13 C20.9087565,2.27373675e-13 21.4367014,0.219809149 21.8247004,0.610644689 C22.6145441,1.44181792 22.6145441,2.74613813 21.8247004,3.57731136 L21.8247004,3.57731136 Z M19.2713671,3.24397802 C19.8722497,3.84235474 20.8438178,3.84235474 21.4447004,3.24397802 C22.0348326,2.59342545 22.0348326,1.60119726 21.4447004,0.950644689 C20.8438178,0.352267975 19.8722497,0.352267975 19.2713671,0.950644689 C18.6812348,1.60119726 18.6812348,2.59342545 19.2713671,3.24397802 L19.2713671,3.24397802 Z M23.1380337,4.09731136 L23.1380337,0.0973113555 L23.7647004,0.0973113555 L25.7113671,3.21064469 L25.7113671,0.0973113555 L26.2247004,0.0973113555 L26.2247004,4.09731136 L25.6913671,4.09731136 L23.6580337,0.837311355 L23.6580337,4.09731136 L23.1380337,4.09731136 Z" id="GET-IT-ON" stroke="#FFFFFF" stroke-width="0.5"></path>
            </g>
            <g id="Icon" transform="translate(6.000000, 6.750000)">
                <path d="M0.96,0.36 C0.742709971,0.62073889 0.633035767,0.954529947 0.653333333,1.29333333 L0.653333333,16.04 C0.633035767,16.3788034 0.742709971,16.7125944 0.96,16.9733333 L1.00666667,17.02 L9.26666667,8.76666667 L9.26666667,8.57333333 L1.00666667,0.313333333 L0.96,0.36 Z" id="Shape" fill="url(#linearGradient-1)"></path>
                <path d="M12,11.52 L9.26666667,8.76666667 L9.26666667,8.57333333 L12,5.81333333 L12.06,5.84666667 L15.3333333,7.70666667 C16.2666667,8.23333333 16.2666667,9.1 15.3333333,9.63333333 L12.0733333,11.4866667 L12,11.52 Z" id="Shape" fill="url(#linearGradient-2)"></path>
                <path d="M12.08,11.48 L9.26666667,8.66666667 L0.96,16.9733333 C1.35247849,17.3183483 1.93495264,17.3351504 2.34666667,17.0133333 L12.0866667,11.48" id="Shape" fill="url(#linearGradient-3)"></path>
                <path d="M12.08,5.85333333 L2.34,0.32 C1.92828597,-0.00181707273 1.34581182,0.0149850664 0.953333333,0.36 L9.26666667,8.66666667 L12.08,5.85333333 Z" id="Shape" fill="url(#linearGradient-4)"></path>
                <path d="M12,11.42 L2.34,16.92 C1.94469236,17.2155576 1.40197431,17.2155576 1.00666667,16.92 L0.96,16.9666667 L1.00666667,17.0133333 C1.40123052,17.3111195 1.94543614,17.3111195 2.34,17.0133333 L12.08,11.48 L12,11.42 Z" id="Shape" fill="#000000" opacity="0.2"></path>
                <path d="M0.96,16.88 C0.742709971,16.6192611 0.633035767,16.2854701 0.653333333,15.9466667 L0.653333333,16.0466667 C0.633035767,16.3854701 0.742709971,16.7192611 0.96,16.98 L1.00666667,16.9333333 L0.96,16.88 Z M15.3333333,9.53333333 L12,11.42 L12.06,11.48 L15.3333333,9.62666667 C15.7113801,9.44907546 15.9656456,9.08293311 16,8.66666667 C15.9240197,9.0432253 15.677804,9.36330569 15.3333333,9.53333333 Z" id="Shape" fill="#000000" opacity="0.12"></path>
                <path d="M2.34,0.413333333 L15.3333333,7.8 C15.677804,7.97002764 15.9240197,8.29010803 16,8.66666667 C15.9656456,8.25040022 15.7113801,7.88425787 15.3333333,7.70666667 L2.34,0.32 C1.40666667,-0.206666667 0.646666667,0.233333333 0.646666667,1.3 L0.646666667,1.4 C0.666666667,0.326666667 1.41333333,-0.113333333 2.34,0.413333333 L2.34,0.413333333 Z" id="Shape" fill="#FFFFFF" opacity="0.25"></path>
            </g>
        </g>
    </g>
</svg>