<?xml version="1.0" encoding="UTF-8"?>
<svg width="25px" height="25px" viewBox="0 0 25 25" version="1.1" xmlns="http://www.w3.org/2000/svg" xmlns:xlink="http://www.w3.org/1999/xlink">
    <title>sad</title>
    <g id="Page-1" stroke="none" stroke-width="1" fill="none" fill-rule="evenodd">
        <g id="sad">
            <path d="M24.9029402,12.4367971 C24.9029402,19.2897645 19.3544973,24.8453653 12.5097276,24.8453653 C5.66444573,24.8453653 0.116002867,19.2897645 0.116002867,12.4367971 C0.116002867,5.5838297 5.66444573,0.0287417019 12.5097276,0.0287417019 C19.3544973,0.0287417019 24.9029402,5.5838297 24.9029402,12.4367971" id="Fill-1" fill="#6599FE"></path>
            <path d="M12.5180307,13.9878393 C15.016554,13.9878393 17.3554494,15.0129178 18.9363603,16.8017405 C19.4083035,17.3355511 19.3671572,18.1595643 18.8446486,18.6417159 C18.3216442,19.123361 17.5150773,19.0813246 17.043134,18.5485269 C15.9455684,17.3061764 14.2957498,16.5930783 12.5180307,16.5930783 C10.7403116,16.5930783 9.09098875,17.3061764 7.99342316,18.5485269 C7.52147988,19.0818311 6.71491293,19.1243739 6.19190856,18.6417159 C5.66939992,18.1595643 5.62874934,17.3355511 6.10069263,16.8017405 C7.68061201,15.0129178 10.0200032,13.9878393 12.5180307,13.9878393" id="Fill-2" fill="#1D499D"></path>
            <path d="M10.5484607,8.74038952 C10.2995998,8.28356106 9.70768775,8.08604099 9.2426848,8.30837768 L6.16018128,9.77661017 C5.69765703,9.99692101 5.46118964,10.5910006 5.63767264,11.0574518 C5.65799793,11.1253177 5.68179339,11.1921706 5.71203345,11.2569977 C6.01790426,11.928566 6.56272114,12.4390794 7.24684061,12.6928167 C7.54824977,12.8057576 7.86205239,12.8624813 8.17982093,12.8624813 C8.57641193,12.8624813 8.96160093,12.7748635 9.32497744,12.6016536 C9.51534111,12.5109969 9.69479854,12.398056 9.85839233,12.2668824 C10.8553229,11.46566 11.1765617,10.0855518 10.6401723,8.90752188 C10.610428,8.84320124 10.5772135,8.7829323 10.5484607,8.74038952" id="Fill-3" fill="#1D499D"></path>
            <path d="M18.8615037,9.77661017 L15.7790002,8.30837768 C15.3149887,8.08654745 14.7181193,8.29014506 14.4821476,8.72418274 C14.4444715,8.7829323 14.411257,8.84320124 14.3805212,8.90954773 C13.8446276,10.0855518 14.1668578,11.46566 15.1637884,12.2668824 C15.3268864,12.3985624 15.5063439,12.5109969 15.6967075,12.6016536 C16.060084,12.7748635 16.4452731,12.8624813 16.8418641,12.8624813 C17.1596326,12.8624813 17.4734352,12.8057576 17.7748444,12.6928167 C18.4589638,12.4390794 19.0037807,11.928566 19.3091558,11.2580107 C19.3393959,11.1921706 19.3636871,11.1253177 19.3780635,11.0741651 C19.5604953,10.5910006 19.324028,9.99692101 18.8615037,9.77661017" id="Fill-4" fill="#1D499D"></path>
        </g>
    </g>
</svg>