<?xml version="1.0" encoding="UTF-8"?>
<svg width="144px" height="144px" viewBox="0 0 144 144" version="1.1" xmlns="http://www.w3.org/2000/svg" xmlns:xlink="http://www.w3.org/1999/xlink">
    <title>calm</title>
    <g id="Student-Web-Experience" stroke="none" stroke-width="1" fill="none" fill-rule="evenodd">
        <g id="1.04-Student-Home" transform="translate(-100.000000, -719.000000)">
            <g id="Group-2" transform="translate(99.000000, 473.000000)">
                <g id="Moods" transform="translate(0.600000, 0.600000)">
                    <g id="calm" transform="translate(0.000000, 245.145800)">
                        <path d="M143.615046,71.9010856 C143.615046,111.415911 111.578555,143.452402 72.0607724,143.452402 C32.5429895,143.452402 0.509455901,111.415911 0.509455901,71.9010856 C0.509455901,32.3803456 32.5429895,0.346812017 72.0607724,0.346812017 C111.578555,0.346812017 143.615046,32.3803456 143.615046,71.9010856" id="Fill-1" fill="#7DCDF8"></path>
                        <path d="M35.7731088,96.1720674 C33.0455163,93.0967575 33.2830716,88.3450678 36.3025995,85.5618101 C39.3192654,82.7814729 43.9759213,83.0238763 46.7006517,86.1021067 C53.0402293,93.2690683 62.5624753,97.3753226 72.8260082,97.3753226 C83.0895411,97.3753226 92.6146492,93.2690683 98.9513647,86.1021067 C101.673233,83.0209558 106.329889,82.7814729 109.349417,85.5618101 C112.366083,88.3450678 112.603638,93.0967575 109.878908,96.1720674 C100.754495,106.487352 87.2481896,112.398489 72.8260082,112.398489 C58.4009647,112.398489 44.8975213,106.487352 35.7731088,96.1720674 Z" id="Fill-2" fill="#3976C0"></path>
                        <path d="M63.3671553,58.4681252 C63.3671553,61.9289441 60.619528,64.7326455 57.2307876,64.7326455 L40.012323,64.7326455 C36.6207205,64.7326455 33.8730932,61.9289441 33.8730932,58.4681252 C33.8730932,55.0131474 36.6207205,52.2065255 40.012323,52.2065255 L57.2307876,52.2065255 C60.619528,52.2065255 63.3671553,55.0131474 63.3671553,58.4681252" id="Fill-3" fill="#3976C0"></path>
                        <path d="M110.251409,58.4681252 C110.251409,61.9289441 107.503781,64.7326455 104.115041,64.7326455 L86.8937143,64.7326455 C83.5049739,64.7326455 80.7573466,61.9289441 80.7573466,58.4681252 C80.7573466,55.0131474 83.5049739,52.2065255 86.8937143,52.2065255 L104.115041,52.2065255 C107.503781,52.2065255 110.251409,55.0131474 110.251409,58.4681252" id="Fill-4" fill="#3976C0"></path>
                    </g>
                </g>
            </g>
        </g>
    </g>
</svg>