<?xml version="1.0" encoding="UTF-8"?>
<svg width="144px" height="144px" viewBox="0 0 144 144" version="1.1" xmlns="http://www.w3.org/2000/svg" xmlns:xlink="http://www.w3.org/1999/xlink">
    <title>caring</title>
    <g id="Student-Web-Experience" stroke="none" stroke-width="1" fill="none" fill-rule="evenodd">
        <g id="1.04-Student-Home" transform="translate(-503.000000, -473.000000)">
            <g id="Group-2" transform="translate(99.000000, 473.000000)">
                <g id="Moods" transform="translate(0.600000, 0.600000)">
                    <g id="caring" transform="translate(403.200000, 0.145800)">
                        <path d="M143.599158,71.5865402 C143.599158,111.106219 111.562668,143.14129 72.0448848,143.14129 C32.5241448,143.14129 0.49356826,111.106219 0.49356826,71.5865402 C0.49356826,32.0668611 32.5241448,0.0288332692 72.0448848,0.0288332692 C111.562668,0.0288332692 143.599158,32.0668611 143.599158,71.5865402" id="Fill-1" fill="#EF659F"></path>
                        <path d="M72.3421948,113.49588 C57.6227627,113.49588 43.8437388,107.504474 34.5301933,97.0623951 C31.7498561,93.9454447 31.9922595,89.1339854 35.0734105,86.3186754 C38.1516409,83.5033654 42.9033306,83.7488179 45.6836678,86.8657682 C52.149704,94.119923 61.8692021,98.2807855 72.3421948,98.2807855 C82.8151876,98.2807855 92.5346856,94.119923 99.0007219,86.8657682 C101.778139,83.7488179 106.529828,83.5004082 109.6139,86.3186754 C112.68921,89.1339854 112.931613,93.9454447 110.151276,97.0623951 C100.840651,107.504474 87.0587064,113.49588 72.3421948,113.49588" id="Fill-2" fill="#991C5B"></path>
                        <path d="M54.5480543,43.0977917 C52.0772924,43.0977917 49.7788414,44.0470716 48.0382102,45.7238371 C46.3004994,44.0470716 43.9991279,43.0977917 41.5283661,43.0977917 C36.2772671,43.0977917 32.004543,47.4242607 32.004543,52.7414113 C32.004543,55.3763285 33.044249,57.8397247 34.9075421,59.6554813 L45.325045,70.2069792 C45.6842692,70.570722 46.706452,71.5850616 48.0090049,71.5850616 L48.0586538,71.5850616 C49.2268627,71.5850616 50.319138,70.6860551 50.6754418,70.3223123 L61.408361,59.4100289 C63.1256281,57.6001868 64.0718773,55.2314228 64.0718773,52.7414113 C64.0718773,47.4242607 59.7991533,43.0977917 54.5480543,43.0977917" id="Fill-3" fill="#991C5B"></path>
                        <path d="M102.56144,43.0977917 C100.093599,43.0977917 97.7922272,44.0470716 96.0545164,45.7238371 C94.3138852,44.0470716 92.0154341,43.0977917 89.5446723,43.0977917 C84.2935733,43.0977917 80.0208493,47.4242607 80.0208493,52.7414113 C80.0208493,55.3763285 81.0605552,57.8397247 82.9209279,59.6554813 L93.3413512,70.2069792 C93.697655,70.570722 94.7198377,71.5850616 96.0253112,71.5850616 L96.0749601,71.5850616 C97.243169,71.5850616 98.3325238,70.6860551 98.691748,70.3223123 L109.424667,59.4100289 C111.141934,57.6001868 112.088184,55.2314228 112.088184,52.7414113 C112.088184,47.4242607 107.812539,43.0977917 102.56144,43.0977917" id="Fill-4" fill="#991C5B"></path>
                    </g>
                </g>
            </g>
        </g>
    </g>
</svg>