<?xml version="1.0" encoding="UTF-8"?>
<svg width="144px" height="144px" viewBox="0 0 144 144" version="1.1" xmlns="http://www.w3.org/2000/svg" xmlns:xlink="http://www.w3.org/1999/xlink">
    <title>excited</title>
    <g id="Student-Web-Experience" stroke="none" stroke-width="1" fill="none" fill-rule="evenodd">
        <g id="1.04-Student-Home" transform="translate(-300.000000, -474.000000)">
            <g id="Group-2" transform="translate(99.000000, 473.000000)">
                <g id="Moods" transform="translate(0.600000, 0.600000)">
                    <g id="excited" transform="translate(199.800000, 1.045800)">
                        <path d="M72.2311155,143.134065 C32.7141491,143.134065 0.678320497,111.097575 0.678320497,71.5827486 C0.678320497,32.0649657 32.7141491,0.0284750919 72.2311155,0.0284750919 C111.748082,0.0284750919 143.783911,32.0649657 143.783911,71.5827486 C143.783911,111.097575 111.748082,143.134065 72.2311155,143.134065 Z" id="Fill-1" fill="#F77D2C"></path>
                        <path d="M62.6587826,51.2456737 C62.6587826,58.6375155 56.7828671,64.6333477 49.536,64.6333477 C42.291995,64.6333477 36.4189416,58.6375155 36.4189416,51.2456737 C36.4189416,43.8509114 42.291995,37.8579997 49.536,37.8579997 C56.7828671,37.8579997 62.6587826,43.8509114 62.6587826,51.2456737" id="Fill-2" fill="#891818"></path>
                        <path d="M108.043289,51.2456737 C108.043289,58.6375155 102.167374,64.6333477 94.9233689,64.6333477 C87.6765019,64.6333477 81.8034484,58.6375155 81.8034484,51.2456737 C81.8034484,43.8509114 87.6765019,37.8579997 94.9233689,37.8579997 C102.167374,37.8579997 108.043289,43.8509114 108.043289,51.2456737" id="Fill-3" fill="#891818"></path>
                        <path d="M111.652412,76.1752516 C110.427429,74.8726987 108.73592,74.1396476 106.967135,74.1396476 L37.4950957,74.1396476 C35.7263106,74.1396476 34.0348025,74.8726987 32.8098186,76.1752516 C31.5848348,77.474884 30.9322733,79.2301179 31.000964,81.0320801 C31.8824944,103.721617 49.9910758,121.495916 72.2325466,121.495916 C94.4711553,121.495916 112.579737,103.721617 113.461267,81.0320801 C113.529958,79.2301179 112.877396,77.474884 111.652412,76.1752516" id="Fill-4" fill="#891818"></path>
                    </g>
                </g>
            </g>
        </g>
    </g>
</svg>