<?xml version="1.0" encoding="UTF-8"?>
<svg width="144px" height="144px" viewBox="0 0 144 144" version="1.1" xmlns="http://www.w3.org/2000/svg" xmlns:xlink="http://www.w3.org/1999/xlink">
    <title>ok</title>
    <g id="Student-Web-Experience" stroke="none" stroke-width="1" fill="none" fill-rule="evenodd">
        <g id="1.04-Student-Home" transform="translate(-299.000000, -719.000000)">
            <g id="Group-2" transform="translate(99.000000, 473.000000)">
                <g id="Moods" transform="translate(0.600000, 0.600000)">
                    <g id="ok" transform="translate(199.800000, 245.145800)">
                        <path d="M143.577839,71.9025641 C143.577839,111.418207 111.544305,143.452402 72.026522,143.452402 C32.5087391,143.452402 0.472248447,111.418207 0.472248447,71.9025641 C0.472248447,32.3810075 32.5087391,0.346812017 72.026522,0.346812017 C111.544305,0.346812017 143.577839,32.3810075 143.577839,71.9025641" id="Fill-1" fill="#C2A5EF"></path>
                        <path d="M55.962872,103.835518 C51.7441193,103.835518 48.3267578,100.345494 48.3267578,96.046485 C48.3267578,91.7474762 51.7441193,88.2545316 55.962872,88.2545316 L88.090077,88.2545316 C92.3059677,88.2545316 95.7233292,91.7474762 95.7233292,96.046485 C95.7233292,100.345494 92.3059677,103.835518 88.090077,103.835518 L55.962872,103.835518 Z" id="Fill-2" fill="#652D90"></path>
                        <path d="M62.4527106,58.5119331 C62.4527106,65.9037749 56.576795,71.899607 49.329928,71.899607 C42.085923,71.899607 36.2128696,65.9037749 36.2128696,58.5119331 C36.2128696,51.1171707 42.085923,45.1242591 49.329928,45.1242591 C56.576795,45.1242591 62.4527106,51.1171707 62.4527106,58.5119331" id="Fill-3" fill="#652D90"></path>
                        <path d="M107.837217,58.5119331 C107.837217,65.9037749 101.961302,71.899607 94.7172969,71.899607 C87.4704298,71.899607 81.5973764,65.9037749 81.5973764,58.5119331 C81.5973764,51.1171707 87.4704298,45.1242591 94.7172969,45.1242591 C101.961302,45.1242591 107.837217,51.1171707 107.837217,58.5119331" id="Fill-4" fill="#652D90"></path>
                    </g>
                </g>
            </g>
        </g>
    </g>
</svg>