<svg width="22" height="22" viewBox="0 0 22 22" fill="none" xmlns="http://www.w3.org/2000/svg">
<path fill-rule="evenodd" clip-rule="evenodd" d="M11 20C15.9706 20 20 15.9706 20 11C20 6.02944 15.9706 2 11 2C6.02944 2 2 6.02944 2 11C2 15.9706 6.02944 20 11 20ZM22 11C22 17.0751 17.0751 22 11 22C4.92487 22 0 17.0751 0 11C0 4.92487 4.92487 0 11 0C17.0751 0 22 4.92487 22 11Z" fill="#0B907B"/>
<path fill-rule="evenodd" clip-rule="evenodd" d="M9.29289 14.7071C9.68342 15.0976 10.3166 15.0976 10.7071 14.7071L13.7071 11.7071C14.0976 11.3166 14.0976 10.6834 13.7071 10.2929L10.7071 7.29289C10.3166 6.90237 9.68342 6.90237 9.29289 7.29289C8.90237 7.68342 8.90237 8.31658 9.29289 8.70711L11.5858 11L9.29289 13.2929C8.90237 13.6834 8.90237 14.3166 9.29289 14.7071Z" fill="#0B907B"/>
</svg>
