<svg width="20" height="21" viewBox="0 0 20 21" fill="none" xmlns="http://www.w3.org/2000/svg">
<path fill-rule="evenodd" clip-rule="evenodd" d="M19.4148 7.62099C18.1021 3.96404 14.7194 1.29361 10.6794 1.02256L9.57023 0.945801L9.58505 1.0083C8.21485 1.06423 6.91574 1.39586 5.74171 1.9492L5.72755 1.93602L5.24815 2.1988C2.12732 3.88735 0.00609969 7.1874 1.3113e-05 10.9835C4.37101e-06 10.9889 0 10.9944 0 10.9998C0 11.1895 0.00528465 11.378 0.0157141 11.5651C0.196743 14.8138 1.92845 17.6486 4.48282 19.3415L4.89256 19.6156L4.90622 19.6071C6.39808 20.4919 8.13972 20.9998 10 20.9998C15.5228 20.9998 20 16.5227 20 10.9999C20 10.1077 19.8832 9.24284 19.664 8.41973L19.7035 8.40887L19.4148 7.62099ZM12.1171 2.93782C14.3351 3.51868 16.1925 4.99062 17.2837 6.94808L16.4572 6.82395C16.171 6.78098 15.8795 6.78801 15.5958 6.84474L14.178 7.12819C13.8953 7.18471 13.6035 7.0911 13.4064 6.88069L13.1244 6.57958C12.9855 6.43131 12.9182 6.22988 12.9399 6.02791L13.0041 5.43204C13.0804 4.7229 12.6782 4.05195 12.0237 3.7823L12.0325 3.75808C12.1298 3.49073 12.1563 3.20908 12.1171 2.93782ZM18.0216 8.73389C18.2247 9.45435 18.3333 10.2144 18.3333 10.9999C18.3333 15.6022 14.6024 19.3332 10 19.3332C8.75251 19.3332 7.56905 19.0591 6.50655 18.5678C7.24912 17.8993 7.533 16.8352 7.18646 15.8675L6.79244 14.7673C6.65768 14.391 6.43467 14.0525 6.1421 13.7802L5.80413 13.4656C5.68976 13.3592 5.60762 13.2227 5.56709 13.0718L5.45893 12.6692C5.37888 12.3711 5.47009 12.0532 5.69598 11.843L7.30495 10.3454C7.34447 10.3086 7.38747 10.2758 7.43334 10.2473L7.75118 10.0501C8.68085 9.47322 9.0814 8.32544 8.71251 7.29541C8.68716 7.22462 8.6742 7.14999 8.6742 7.0748V6.49345C8.6742 5.97129 8.5107 5.46222 8.20664 5.03771L7.56475 4.14153L7.22835 3.51531C7.17108 3.40869 7.10623 3.30656 7.0344 3.20965C7.95576 2.8587 8.95543 2.66652 10 2.66652C10.022 2.66652 10.044 2.6666 10.0659 2.66677C10.1412 2.79625 10.2311 2.91736 10.3344 3.02758L10.4612 3.16304C10.4675 3.16974 10.4695 3.1794 10.4663 3.18803C10.4663 3.18802 10.4663 3.18803 10.4663 3.18803L10.435 3.27419C10.1389 4.08757 10.544 4.98522 11.3414 5.30519L11.2828 5.84951C11.2091 6.53393 11.4374 7.21648 11.9079 7.7189L12.19 8.02C12.7812 8.65124 13.6566 8.93207 14.5047 8.76252L15.9225 8.47907C16.0171 8.46016 16.1143 8.45781 16.2097 8.47214L17.7966 8.71045C17.8713 8.72168 17.9464 8.72949 18.0216 8.73389ZM1.66667 10.9998C1.66667 11.1564 1.67098 11.312 1.67951 11.4665C1.818 13.9756 3.0665 16.1888 4.94219 17.6233L5.27222 17.4185C5.60601 17.2114 5.74983 16.7993 5.61738 16.4295L5.22336 15.3292C5.17844 15.2038 5.1041 15.091 5.00658 15.0002L4.66861 14.6856C4.32549 14.3663 4.07906 13.9569 3.95747 13.5041L3.84932 13.1015C3.60917 12.2074 3.88278 11.2538 4.56046 10.623L6.16943 9.12543C6.28798 9.01509 6.41697 8.91652 6.55458 8.83114L6.87242 8.63391C7.13451 8.47128 7.24743 8.14771 7.14343 7.85733C7.05351 7.60624 7.00754 7.34152 7.00754 7.0748V6.49345C7.00754 6.3194 6.95304 6.14971 6.85168 6.00821L6.1473 5.02478L5.76012 4.30403C5.71687 4.22352 5.66067 4.15067 5.59377 4.0884C5.59377 4.0884 5.59377 4.0884 5.59377 4.0884L5.48961 3.99145C3.18955 5.47476 1.66667 8.05945 1.66667 10.9998ZM12.0021 10.4582L12.8796 10.6576C13.1413 10.7171 13.3918 10.8184 13.6213 10.9575L14.2844 11.3593L14.3028 11.3719C15.3385 12.0781 15.4976 13.5429 14.6377 14.4549L13.9553 15.1787C13.9224 15.2136 13.8925 15.2513 13.8661 15.2913L13.3574 16.0621C13.0758 16.4888 12.6687 16.8176 12.1923 17.0032L11.2654 17.3644C10.4848 17.6685 9.60675 17.2722 9.31838 16.4857C9.23085 16.247 9.20562 15.9899 9.2451 15.7388L9.41329 14.6684C9.44081 14.4933 9.39734 14.3144 9.29251 14.1715C8.58679 13.2091 8.72138 11.8693 9.60441 11.0666L9.6796 10.9982C9.6796 10.9982 9.67959 10.9982 9.6796 10.9982C10.3081 10.4268 11.1875 10.2231 12.0021 10.4582ZM12.5102 12.2829L11.5782 12.071L11.55 12.0625C11.2879 11.9831 11.0034 12.0472 10.8007 12.2315L10.7255 12.2998C10.7255 12.2998 10.7255 12.2998 10.7255 12.2998C10.4735 12.5289 10.4351 12.9113 10.6365 13.1859C11.0038 13.6868 11.1562 14.3135 11.0598 14.9271L10.9378 15.7033L11.5873 15.4503C11.7423 15.3899 11.8747 15.2829 11.9664 15.144L12.4751 14.3733C12.5544 14.2531 12.6439 14.1401 12.7426 14.0353L13.425 13.3116C13.5783 13.149 13.5542 12.8903 13.377 12.7583L12.7575 12.3828C12.681 12.3364 12.5975 12.3027 12.5102 12.2829Z" fill="#576473"/>
</svg>
