<svg width="11" height="11" viewBox="0 0 11 11" fill="none" xmlns="http://www.w3.org/2000/svg">
<path fill-rule="evenodd" clip-rule="evenodd" d="M9.98745 0.528514C10.2478 0.788864 10.2478 1.21097 9.98745 1.47132L6.20078 5.25799L9.98745 9.04466C10.2478 9.30501 10.2478 9.72712 9.98745 9.98747C9.7271 10.2478 9.30499 10.2478 9.04464 9.98747L5.25798 6.2008L1.47132 9.98745C1.21097 10.2478 0.788864 10.2478 0.528514 9.98745C0.268165 9.7271 0.268165 9.30499 0.528514 9.04464L4.31517 5.25799L0.528514 1.47134C0.268165 1.21099 0.268165 0.78888 0.528514 0.52853C0.788864 0.268181 1.21097 0.268181 1.47132 0.52853L5.25798 4.31518L9.04464 0.528514C9.30499 0.268165 9.7271 0.268165 9.98745 0.528514Z" fill="#141F2B"/>
</svg>
