<svg width="18" height="20" viewBox="0 0 18 20" fill="none" xmlns="http://www.w3.org/2000/svg">
<path fill-rule="evenodd" clip-rule="evenodd" d="M15 0.659668V4.80391C16.4377 5.17394 17.5 6.47903 17.5 8.03222C17.5 9.58542 16.4377 10.8905 15 11.2605V15.4048L13.7114 14.5635L13.7055 14.5597L13.6825 14.5449C13.6615 14.5315 13.6294 14.5111 13.587 14.4847C13.5021 14.4317 13.3763 14.3544 13.2161 14.2597C12.8954 14.07 12.4392 13.8116 11.9006 13.539C11.5672 13.3701 11.2076 13.1986 10.8333 13.0356V17.6705C10.8333 19.3379 8.65576 19.972 7.76056 18.5653L3.5724 11.9839C1.61155 11.7422 0 10.111 0 8.03222C0 5.74148 1.95704 3.99411 4.18193 4.05097C5.60954 4.08745 7.1408 4.06178 8.18954 3.87806C9.43777 3.65939 10.8094 3.07801 11.9006 2.5255C12.4392 2.25284 12.8954 1.99448 13.2161 1.80477C13.3763 1.71004 13.5021 1.63276 13.587 1.57979C13.6294 1.55332 13.6615 1.53294 13.6825 1.51953L13.7055 1.50476L13.7105 1.5015L13.7113 1.50099L15 0.659668ZM13.3333 3.65476C13.1253 3.76833 12.8973 3.88899 12.6535 4.01244C11.5128 4.58998 9.96772 5.2586 8.47713 5.51973C7.25177 5.73439 5.57662 5.75382 4.13935 5.71709C2.78555 5.68249 1.66667 6.74311 1.66667 8.03222C1.66667 9.32134 2.78555 10.382 4.13935 10.3474C5.57662 10.3106 7.25177 10.3301 8.47713 10.5447C9.96772 10.8059 11.5128 11.4745 12.6535 12.052C12.8973 12.1755 13.1253 12.2961 13.3333 12.4097V3.65476ZM5.55857 12.0006L9.16667 17.6705V12.4194C8.83739 12.3223 8.50941 12.2424 8.18954 12.1864C7.47481 12.0612 6.53597 12.0094 5.55857 12.0006ZM15 9.47592C15.4982 9.18775 15.8333 8.64913 15.8333 8.03222C15.8333 7.41532 15.4982 6.8767 15 6.58853V9.47592Z" fill="#576473"/>
</svg>
