<svg width="200" height="56" viewBox="0 0 200 56" fill="none" xmlns="http://www.w3.org/2000/svg">
<g opacity="0.45">
<path opacity="0.45" fill-rule="evenodd" clip-rule="evenodd" d="M7.19338 10.8043C7.24865 10.4771 7.55792 10.2581 7.88416 10.3151L7.9821 10.3322C8.30833 10.3892 8.52799 10.7006 8.47272 11.0277C8.41745 11.3549 8.10817 11.574 7.78194 11.517L7.684 11.4999C7.35776 11.4429 7.1381 11.1315 7.19338 10.8043ZM11.2089 11.5056C11.2641 11.1785 11.5734 10.9594 11.8996 11.0164L12.0955 11.0506C12.4218 11.1076 12.6414 11.419 12.5861 11.7462C12.5309 12.0733 12.2216 12.2924 11.8954 12.2354L11.6995 12.2012C11.3732 12.1442 11.1536 11.8328 11.2089 11.5056ZM15.3223 12.2241C15.3776 11.8969 15.6868 11.6779 16.0131 11.7348L16.209 11.769C16.5352 11.826 16.7548 12.1374 16.6996 12.4646C16.6443 12.7918 16.335 13.0108 16.0088 12.9538L15.8129 12.9196C15.4867 12.8626 15.267 12.5512 15.3223 12.2241ZM19.4357 12.9425C19.491 12.6153 19.8003 12.3963 20.1265 12.4533L20.3224 12.4875C20.6486 12.5444 20.8683 12.8559 20.813 13.183C20.7577 13.5102 20.4484 13.7292 20.1222 13.6722L19.9263 13.638C19.6001 13.5811 19.3804 13.2696 19.4357 12.9425ZM23.5491 13.6609C23.6044 13.3337 23.9137 13.1147 24.2399 13.1717L24.4358 13.2059C24.762 13.2629 24.9817 13.5743 24.9264 13.9015C24.8711 14.2286 24.5619 14.4477 24.2356 14.3907L24.0398 14.3565C23.7135 14.2995 23.4939 13.9881 23.5491 13.6609ZM27.6626 14.3793C27.7178 14.0522 28.0271 13.8331 28.3533 13.8901L28.5492 13.9243C28.8755 13.9813 29.0951 14.2927 29.0398 14.6199C28.9846 14.947 28.6753 15.1661 28.3491 15.1091L28.1532 15.0749C27.8269 15.0179 27.6073 14.7065 27.6626 14.3793ZM31.776 15.0978C31.8313 14.7706 32.1405 14.5516 32.4668 14.6085L32.6627 14.6427C32.9889 14.6997 33.2085 15.0111 33.1533 15.3383C33.098 15.6655 32.7887 15.8845 32.4625 15.8275L32.2666 15.7933C31.9404 15.7363 31.7207 15.4249 31.776 15.0978ZM35.8894 15.8162C35.9447 15.489 36.254 15.27 36.5802 15.327L36.7761 15.3612C37.1023 15.4181 37.322 15.7296 37.2667 16.0567C37.2114 16.3839 36.9022 16.6029 36.5759 16.546L36.38 16.5117C36.0538 16.4548 35.8341 16.1434 35.8894 15.8162ZM40.0028 16.5346C40.0581 16.2074 40.3674 15.9884 40.6936 16.0454L40.8895 16.0796C41.2157 16.1366 41.4354 16.448 41.3801 16.7752C41.3249 17.1023 41.0156 17.3214 40.6893 17.2644L40.4935 17.2302C40.1672 17.1732 39.9476 16.8618 40.0028 16.5346ZM44.1163 17.253C44.1716 16.9259 44.4808 16.7068 44.8071 16.7638L44.905 16.7809C45.2312 16.8379 45.4509 17.1493 45.3956 17.4765C45.3403 17.8036 45.0311 18.0227 44.7048 17.9657L44.6069 17.9486C44.2807 17.8916 44.061 17.5802 44.1163 17.253Z" fill="#0B907B"/>
</g>
<g opacity="0.45">
<path opacity="0.45" fill-rule="evenodd" clip-rule="evenodd" d="M7.27242 9.39167C7.29321 9.0602 7.57784 8.80891 7.90816 8.83038L7.98891 8.83563C8.31924 8.8571 8.57017 9.14321 8.54938 9.47467C8.52859 9.80614 8.24396 10.0574 7.91363 10.036L7.83288 10.0307C7.50256 10.0092 7.25163 9.72313 7.27242 9.39167ZM10.5832 9.60688C10.604 9.27542 10.8886 9.02413 11.219 9.0456L11.3805 9.0561C11.7108 9.07757 11.9617 9.36368 11.9409 9.69513C11.9201 10.0266 11.6355 10.2779 11.3052 10.2564L11.1437 10.2459C10.8134 10.2245 10.5624 9.93835 10.5832 9.60688ZM13.9748 9.82734C13.9956 9.49589 14.2802 9.2446 14.6105 9.26607L14.772 9.27657C15.1024 9.29804 15.3533 9.58415 15.3325 9.91559C15.3117 10.2471 15.0271 10.4984 14.6967 10.4769L14.5352 10.4664C14.2049 10.4449 13.954 10.1588 13.9748 9.82734ZM17.3663 10.0478C17.3871 9.71636 17.6718 9.46507 18.0021 9.48654L18.1636 9.49704C18.4939 9.51851 18.7448 9.80462 18.7241 10.1361C18.7033 10.4675 18.4186 10.7188 18.0883 10.6974L17.9268 10.6869C17.5965 10.6654 17.3456 10.3793 17.3663 10.0478ZM20.7579 10.2683C20.7787 9.93683 21.0633 9.68554 21.3936 9.70701L21.5551 9.71751C21.8855 9.73898 22.1364 10.0251 22.1156 10.3565C22.0948 10.688 21.8102 10.9393 21.4799 10.9178L21.3184 10.9073C20.988 10.8859 20.7371 10.5998 20.7579 10.2683ZM24.1495 10.4887C24.1702 10.1573 24.4549 9.906 24.7852 9.92748L24.9467 9.93798C25.277 9.95945 25.528 10.2456 25.5072 10.577C25.4864 10.9085 25.2017 11.1598 24.8714 11.1383L24.7099 11.1278C24.3796 11.1063 24.1287 10.8202 24.1495 10.4887ZM27.541 10.7092C27.5618 10.3778 27.8464 10.1265 28.1768 10.1479L28.3383 10.1584C28.6686 10.1799 28.9195 10.466 28.8987 10.7974C28.8779 11.129 28.5933 11.3802 28.263 11.3588L28.1015 11.3483C27.7712 11.3268 27.5202 11.0407 27.541 10.7092ZM30.9326 10.9296C30.9534 10.5982 31.238 10.3469 31.5683 10.3684L31.7298 10.3789C32.0601 10.4004 32.3111 10.6865 32.2903 11.0179C32.2695 11.3494 31.9849 11.6007 31.6545 11.5792L31.493 11.5687C31.1627 11.5473 30.9118 11.2612 30.9326 10.9296ZM34.3241 11.1501C34.3449 10.8187 34.6295 10.5674 34.9599 10.5889L35.1214 10.5994C35.4517 10.6209 35.7026 10.907 35.6818 11.2383C35.661 11.5699 35.3764 11.8212 35.0461 11.7997L34.8846 11.7892C34.5543 11.7677 34.3033 11.4816 34.3241 11.1501ZM37.7157 11.3706C37.7365 11.0392 38.0211 10.7879 38.3514 10.8094L38.5129 10.8199C38.8433 10.8413 39.0942 11.1274 39.0734 11.4588C39.0526 11.7904 38.768 12.0417 38.4376 12.0202L38.2761 12.0097C37.9458 11.9882 37.6949 11.7021 37.7157 11.3706ZM41.1072 11.591C41.128 11.2596 41.4127 11.0083 41.743 11.0298L41.9045 11.0403C42.2348 11.0618 42.4857 11.3479 42.465 11.6793C42.4442 12.0108 42.1595 12.2621 41.8292 12.2406L41.6677 12.2302C41.3374 12.2087 41.0865 11.9226 41.1072 11.591ZM44.4988 11.8115C44.5196 11.4801 44.8042 11.2288 45.1345 11.2503L45.296 11.2608C45.6264 11.2823 45.8773 11.5684 45.8565 11.8997C45.8357 12.2313 45.5511 12.4826 45.2208 12.4611L45.0593 12.4506C44.7289 12.4291 44.478 12.143 44.4988 11.8115ZM47.8904 12.0319C47.9111 11.7006 48.1958 11.4493 48.5261 11.4708L48.6876 11.4813C49.0179 11.5027 49.2689 11.7888 49.2481 12.1202C49.2273 12.4518 48.9426 12.7031 48.6123 12.6816L48.4508 12.6711C48.1205 12.6496 47.8696 12.3635 47.8904 12.0319ZM51.2819 12.2524C51.3027 11.9211 51.5873 11.6698 51.9177 11.6912L52.0792 11.7017C52.4095 11.7232 52.6604 12.0093 52.6396 12.3406C52.6188 12.6722 52.3342 12.9235 52.0039 12.9021L51.8424 12.8916C51.512 12.8701 51.2611 12.584 51.2819 12.2524ZM54.6735 12.4729C54.6943 12.1415 54.9789 11.8902 55.3092 11.9117L55.4707 11.9222C55.801 11.9437 56.052 12.2298 56.0312 12.5611C56.0104 12.8927 55.7258 13.144 55.3954 13.1225L55.2339 13.112C54.9036 13.0906 54.6527 12.8044 54.6735 12.4729ZM58.065 12.6933C58.0858 12.362 58.3704 12.1107 58.7008 12.1322L58.8623 12.1427C59.1926 12.1641 59.4435 12.4502 59.4227 12.7816C59.4019 13.1132 59.1173 13.3645 58.787 13.343L58.6255 13.3325C58.2952 13.311 58.0442 13.0249 58.065 12.6933ZM61.4566 12.9138C61.4774 12.5825 61.762 12.3312 62.0923 12.3526L62.2538 12.3631C62.5842 12.3846 62.8351 12.6707 62.8143 13.002C62.7935 13.3336 62.5089 13.5849 62.1785 13.5635L62.017 13.553C61.6867 13.5315 61.4358 13.2454 61.4566 12.9138ZM64.8482 13.1342C64.8689 12.8029 65.1536 12.5516 65.4839 12.5731L65.6454 12.5836C65.9757 12.6051 66.2266 12.8912 66.2059 13.2225C66.1851 13.5541 65.9004 13.8054 65.5701 13.7839L65.4086 13.7734C65.0783 13.752 64.8274 13.4659 64.8482 13.1342ZM68.2397 13.3547C68.2605 13.0234 68.5451 12.7721 68.8754 12.7936L68.9562 12.7988C69.2865 12.8203 69.5375 13.1064 69.5167 13.4377C69.4959 13.7693 69.2112 14.0206 68.8809 13.9992L68.8002 13.9939C68.4698 13.9724 68.2189 13.6863 68.2397 13.3547Z" fill="#0B907B"/>
</g>
<g opacity="0.45">
<path opacity="0.45" fill-rule="evenodd" clip-rule="evenodd" d="M36.646 45.4812C36.5195 45.1742 36.6646 44.8201 36.97 44.6903L37.0517 44.6556C37.3571 44.5258 37.7072 44.6695 37.8337 44.9765C37.9602 45.2835 37.8151 45.6376 37.5097 45.7674L37.428 45.8021C37.1226 45.9319 36.7725 45.7882 36.646 45.4812ZM39.9962 44.0576C39.8697 43.7506 40.0148 43.3965 40.3202 43.2667L40.4836 43.1973C40.789 43.0675 41.1391 43.2112 41.2656 43.5182C41.3921 43.8252 41.247 44.1793 40.9416 44.3091L40.7782 44.3785C40.4728 44.5083 40.1227 44.3646 39.9962 44.0576ZM43.4281 42.5993C43.3017 42.2923 43.4467 41.9382 43.7521 41.8084L43.9155 41.739C44.221 41.6092 44.5711 41.7529 44.6975 42.0599C44.824 42.3669 44.679 42.721 44.3736 42.8508L44.2101 42.9202C43.9047 43.05 43.5546 42.9063 43.4281 42.5993ZM46.8601 41.141C46.7336 40.834 46.8786 40.4799 47.1841 40.3501L47.3475 40.2807C47.6529 40.1509 48.003 40.2946 48.1295 40.6016C48.2559 40.9086 48.1109 41.2627 47.8055 41.3925L47.6421 41.4619C47.3367 41.5917 46.9865 41.448 46.8601 41.141ZM50.292 39.6827C50.1655 39.3757 50.3106 39.0216 50.616 38.8918L50.7794 38.8224C51.0848 38.6926 51.4349 38.8363 51.5614 39.1433C51.6879 39.4503 51.5428 39.8044 51.2374 39.9341L51.074 40.0036C50.7686 40.1334 50.4185 39.9897 50.292 39.6827ZM53.7239 38.2244C53.5974 37.9173 53.7425 37.5633 54.0479 37.4335L54.2113 37.364C54.5167 37.2343 54.8669 37.3779 54.9933 37.685C55.1198 37.992 54.9748 38.3461 54.6693 38.4758L54.5059 38.5453C54.2005 38.6751 53.8504 38.5314 53.7239 38.2244ZM57.1559 36.766C57.0294 36.459 57.1744 36.1049 57.4798 35.9752L57.5615 35.9405C57.867 35.8107 58.2171 35.9544 58.3435 36.2614C58.47 36.5684 58.325 36.9225 58.0196 37.0522L57.9378 37.087C57.6324 37.2167 57.2823 37.0731 57.1559 36.766Z" fill="#0B907B"/>
</g>
<g opacity="0.45">
<path opacity="0.45" fill-rule="evenodd" clip-rule="evenodd" d="M70.761 17.2576C71.0467 17.4314 71.1405 17.8058 70.9705 18.0938L70.9352 18.1536C70.7652 18.4416 70.3958 18.5343 70.1101 18.3605C69.8244 18.1867 69.7306 17.8124 69.9006 17.5243L69.9359 17.4645C70.1059 17.1765 70.4753 17.0839 70.761 17.2576ZM69.3138 19.7097C69.5995 19.8834 69.6933 20.2578 69.5233 20.5458L69.4527 20.6654C69.2827 20.9535 68.9133 21.0461 68.6276 20.8723C68.3419 20.6986 68.2481 20.3242 68.4181 20.0362L68.4887 19.9166C68.6587 19.6286 69.0281 19.5359 69.3138 19.7097ZM67.8313 22.2215C68.117 22.3953 68.2108 22.7697 68.0408 23.0577L67.9702 23.1773C67.8002 23.4653 67.4308 23.558 67.1451 23.3842C66.8594 23.2104 66.7656 22.8361 66.9356 22.548L67.0062 22.4284C67.1762 22.1404 67.5456 22.0478 67.8313 22.2215ZM66.3488 24.7334C66.6345 24.9071 66.7283 25.2815 66.5583 25.5695L66.4877 25.6891C66.3177 25.9772 65.9483 26.0698 65.6626 25.896C65.3769 25.7223 65.2831 25.3479 65.4531 25.0599L65.5237 24.9403C65.6937 24.6522 66.0631 24.5596 66.3488 24.7334ZM64.8663 27.2452C65.152 27.419 65.2458 27.7933 65.0758 28.0814L65.0052 28.201C64.8352 28.489 64.4657 28.5817 64.18 28.4079C63.8943 28.2341 63.8006 27.8598 63.9706 27.5717L64.0411 27.4521C64.2111 27.1641 64.5806 27.0715 64.8663 27.2452ZM63.3837 29.7571C63.6694 29.9308 63.7632 30.3052 63.5932 30.5932L63.5226 30.7128C63.3526 31.0009 62.9832 31.0935 62.6975 30.9197C62.4118 30.746 62.318 30.3716 62.488 30.0836L62.5586 29.964C62.7286 29.6759 63.098 29.5833 63.3837 29.7571ZM61.9012 32.2689C62.1869 32.4427 62.2807 32.817 62.1107 33.1051L62.0754 33.1649C61.9054 33.4529 61.536 33.5455 61.2503 33.3718C60.9646 33.198 60.8708 32.8237 61.0408 32.5356L61.0761 32.4758C61.2461 32.1878 61.6155 32.0952 61.9012 32.2689Z" fill="#0B907B"/>
</g>
<g opacity="0.45">
<path opacity="0.45" fill-rule="evenodd" clip-rule="evenodd" d="M7.06273 11.7952C7.19393 11.4903 7.5462 11.3522 7.84954 11.4867L7.92701 11.5211C8.23035 11.6556 8.3699 12.0118 8.23869 12.3167C8.10749 12.6215 7.75522 12.7597 7.45188 12.6251L7.37441 12.5908C7.07107 12.4563 6.93152 12.1001 7.06273 11.7952ZM10.239 13.2036C10.3702 12.8988 10.7224 12.7607 11.0258 12.8952L11.1807 12.9639C11.4841 13.0984 11.6236 13.4546 11.4924 13.7595C11.3612 14.0643 11.0089 14.2024 10.7056 14.0679L10.5506 13.9992C10.2473 13.8647 10.1078 13.5085 10.239 13.2036ZM13.4927 14.6464C13.6239 14.3416 13.9761 14.2034 14.2795 14.338L14.4344 14.4067C14.7378 14.5412 14.8773 14.8974 14.7461 15.2023C14.6149 15.5071 14.2626 15.6452 13.9593 15.5107L13.8043 15.442C13.501 15.3075 13.3615 14.9513 13.4927 14.6464ZM16.7464 16.0892C16.8776 15.7844 17.2298 15.6462 17.5332 15.7808L17.6881 15.8495C17.9915 15.984 18.131 16.3402 17.9998 16.6451C17.8686 16.9499 17.5163 17.088 17.213 16.9535L17.0581 16.8848C16.7547 16.7503 16.6152 16.3941 16.7464 16.0892ZM20.0001 17.532C20.1313 17.2272 20.4835 17.089 20.7869 17.2236L20.9418 17.2923C21.2452 17.4268 21.3847 17.783 21.2535 18.0878C21.1223 18.3927 20.77 18.5308 20.4667 18.3963L20.3118 18.3276C20.0084 18.1931 19.8689 17.8369 20.0001 17.532ZM23.2538 18.9748C23.385 18.67 23.7372 18.5318 24.0406 18.6664L24.1955 18.7351C24.4989 18.8696 24.6384 19.2258 24.5072 19.5306C24.376 19.8355 24.0237 19.9736 23.7204 19.8391L23.5655 19.7704C23.2621 19.6359 23.1226 19.2797 23.2538 18.9748ZM26.5075 20.4176C26.6387 20.1127 26.9909 19.9746 27.2943 20.1091L27.4492 20.1779C27.7526 20.3124 27.8921 20.6686 27.7609 20.9734C27.6297 21.2783 27.2774 21.4164 26.9741 21.2819L26.8192 21.2132C26.5158 21.0787 26.3763 20.7225 26.5075 20.4176ZM29.7612 21.8604C29.8924 21.5555 30.2446 21.4174 30.548 21.5519L30.7029 21.6207C31.0063 21.7552 31.1458 22.1114 31.0146 22.4162C30.8834 22.7211 30.5311 22.8592 30.2278 22.7247L30.0729 22.656C29.7695 22.5215 29.63 22.1653 29.7612 21.8604ZM33.0149 23.3032C33.1461 22.9983 33.4983 22.8602 33.8017 22.9947L33.9566 23.0634C34.26 23.198 34.3995 23.5542 34.2683 23.859C34.1371 24.1639 33.7848 24.302 33.4815 24.1675L33.3266 24.0988C33.0232 23.9643 32.8837 23.6081 33.0149 23.3032ZM36.2686 24.746C36.3998 24.4411 36.7521 24.303 37.0554 24.4375L37.2103 24.5062C37.5137 24.6408 37.6532 24.997 37.522 25.3018C37.3908 25.6067 37.0385 25.7448 36.7352 25.6103L36.5803 25.5416C36.2769 25.4071 36.1374 25.0509 36.2686 24.746ZM39.5223 26.1888C39.6535 25.8839 40.0058 25.7458 40.3091 25.8803L40.464 25.949C40.7674 26.0836 40.9069 26.4398 40.7757 26.7446C40.6445 27.0495 40.2922 27.1876 39.9889 27.0531L39.834 26.9844C39.5306 26.8499 39.3911 26.4937 39.5223 26.1888ZM42.776 27.6316C42.9072 27.3267 43.2595 27.1886 43.5628 27.3231L43.7177 27.3918C44.0211 27.5264 44.1606 27.8825 44.0294 28.1874C43.8982 28.4923 43.5459 28.6304 43.2426 28.4959L43.0877 28.4272C42.7843 28.2927 42.6448 27.9365 42.776 27.6316ZM46.0297 29.0744C46.1609 28.7695 46.5132 28.6314 46.8165 28.7659L46.9714 28.8346C47.2748 28.9691 47.4143 29.3253 47.2831 29.6302C47.1519 29.9351 46.7997 30.0732 46.4963 29.9387L46.3414 29.87C46.038 29.7355 45.8985 29.3793 46.0297 29.0744ZM49.2834 30.5172C49.4146 30.2123 49.7669 30.0742 50.0702 30.2087L50.2251 30.2774C50.5285 30.4119 50.668 30.7681 50.5368 31.073C50.4056 31.3779 50.0534 31.516 49.75 31.3815L49.5951 31.3128C49.2917 31.1783 49.1522 30.8221 49.2834 30.5172ZM52.5371 31.96C52.6683 31.6551 53.0206 31.517 53.3239 31.6515L53.4788 31.7202C53.7822 31.8547 53.9217 32.2109 53.7905 32.5158C53.6593 32.8207 53.3071 32.9588 53.0037 32.8243L52.8488 32.7556C52.5454 32.6211 52.4059 32.2649 52.5371 31.96ZM55.7908 33.4028C55.922 33.0979 56.2743 32.9598 56.5776 33.0943L56.6551 33.1287C56.9584 33.2632 57.098 33.6194 56.9668 33.9243C56.8356 34.2291 56.4833 34.3673 56.18 34.2327L56.1025 34.1984C55.7991 34.0639 55.6596 33.7077 55.7908 33.4028Z" fill="#0B907B"/>
</g>
<path fill-rule="evenodd" clip-rule="evenodd" d="M35.6081 43.1715C35.3097 43.0261 35.184 42.6628 35.3273 42.36L45.7725 20.2938C45.9158 19.9911 46.2738 19.8635 46.5722 20.009C46.8705 20.1544 46.9962 20.5177 46.8529 20.8204L36.4078 42.8866C36.2645 43.1894 35.9065 43.3169 35.6081 43.1715Z" fill="#0B907B"/>
<path fill-rule="evenodd" clip-rule="evenodd" d="M57.9673 33.1237C57.7001 33.3218 57.3251 33.2626 57.1299 32.9914L48.3116 20.7421C48.1163 20.4709 48.1747 20.0904 48.442 19.8923C48.7093 19.6942 49.0842 19.7535 49.2794 20.0247L58.0978 32.2739C58.293 32.5451 58.2346 32.9256 57.9673 33.1237Z" fill="#0B907B"/>
<path fill-rule="evenodd" clip-rule="evenodd" d="M69.3445 15.4317C69.3694 15.7666 69.1221 16.0586 68.792 16.0839L50.125 17.5151C49.795 17.5404 49.5072 17.2894 49.4822 16.9545C49.4573 16.6196 49.7047 16.3276 50.0347 16.3023L68.7017 14.8711C69.0318 14.8458 69.3196 15.0968 69.3445 15.4317Z" fill="#0B907B"/>
<path fill-rule="evenodd" clip-rule="evenodd" d="M5.68576 12.6221C5.93832 12.405 6.31649 12.4368 6.53042 12.693L32.1295 43.3598C32.3435 43.6161 32.3121 43.9998 32.0596 44.2169C31.807 44.434 31.4289 44.4022 31.2149 44.1459L5.6158 13.4791C5.40187 13.2229 5.43319 12.8391 5.68576 12.6221Z" fill="#0B907B"/>
<path d="M4.65527 12.5525C3.56538 12.5525 2.68149 11.656 2.68149 10.5494C2.68149 9.44329 3.56538 8.54639 4.65527 8.54639C5.7455 8.54639 6.62906 9.44329 6.62906 10.5494C6.62906 11.656 5.7455 12.5525 4.65527 12.5525ZM4.65527 7.46828C2.97806 7.46828 1.61865 8.8482 1.61865 10.5494C1.61865 12.2516 2.97806 13.6313 4.65527 13.6313C6.33248 13.6313 7.69189 12.2516 7.69189 10.5494C7.69189 8.8482 6.33248 7.46828 4.65527 7.46828Z" fill="#0B907B"/>
<path fill-rule="evenodd" clip-rule="evenodd" d="M4.65544 13.5445C3.02553 13.5445 1.70443 12.2037 1.70443 10.5494C1.70443 8.8962 3.02552 7.55519 4.65544 7.55519C6.28536 7.55519 7.60644 8.8962 7.60644 10.5494C7.60644 12.2037 6.28535 13.5445 4.65544 13.5445ZM1.5332 10.5494C1.5332 12.2996 2.93092 13.7183 4.65544 13.7183C6.37995 13.7183 7.77767 12.2996 7.77767 10.5494C7.77767 8.80026 6.37994 7.38144 4.65544 7.38144C2.93094 7.38144 1.5332 8.80026 1.5332 10.5494ZM2.59604 10.5494C2.59604 11.704 3.51827 12.6394 4.65544 12.6394C5.79296 12.6394 6.71484 11.704 6.71484 10.5494C6.71484 9.39536 5.79297 8.45955 4.65544 8.45955C3.51826 8.45955 2.59604 9.39535 2.59604 10.5494ZM4.65544 12.4657C3.61283 12.4657 2.76727 11.608 2.76727 10.5494C2.76727 9.4913 3.61284 8.6333 4.65544 8.6333C5.69837 8.6333 6.54361 9.49129 6.54361 10.5494C6.54361 11.6081 5.69838 12.4657 4.65544 12.4657Z" fill="#0B907B"/>
<path d="M47.2352 19.8499C46.145 19.8499 45.2611 18.9534 45.2611 17.8467C45.2611 16.7406 46.145 15.8438 47.2352 15.8438C48.3251 15.8438 49.2087 16.7406 49.2087 17.8467C49.2087 18.9534 48.3251 19.8499 47.2352 19.8499ZM47.2352 14.7656C45.5577 14.7656 44.1982 16.1456 44.1982 17.8467C44.1982 19.549 45.5577 20.9287 47.2352 20.9287C48.9121 20.9287 50.2715 19.549 50.2715 17.8467C50.2715 16.1456 48.9121 14.7656 47.2352 14.7656Z" fill="#0B907B"/>
<path fill-rule="evenodd" clip-rule="evenodd" d="M47.2354 20.8419C45.6051 20.8419 44.284 19.501 44.284 17.8468C44.284 16.1936 45.6051 14.8525 47.2354 14.8525C48.8649 14.8525 50.186 16.1936 50.186 17.8468C50.186 19.501 48.8649 20.8419 47.2354 20.8419ZM44.1128 17.8468C44.1128 19.597 45.5105 21.0156 47.2354 21.0156C48.9596 21.0156 50.3573 19.597 50.3573 17.8468C50.3573 16.0976 48.9595 14.6788 47.2354 14.6788C45.5105 14.6788 44.1128 16.0976 44.1128 17.8468ZM45.1756 17.8468C45.1756 19.0014 46.0979 19.9368 47.2354 19.9368C48.3726 19.9368 49.2944 19.0013 49.2944 17.8468C49.2944 16.6927 48.3726 15.7569 47.2354 15.7569C46.0979 15.7569 45.1756 16.6927 45.1756 17.8468ZM47.2354 19.7631C46.1924 19.7631 45.3469 18.9054 45.3469 17.8468C45.3469 16.7887 46.1924 15.9307 47.2354 15.9307C48.278 15.9307 49.1232 16.7886 49.1232 17.8468C49.1232 18.9054 48.278 19.7631 47.2354 19.7631Z" fill="#0B907B"/>
<path d="M59.5638 36.8772C58.4736 36.8772 57.5897 35.9807 57.5897 34.8741C57.5897 33.768 58.4736 32.8711 59.5638 32.8711C60.6537 32.8711 61.5373 33.768 61.5373 34.8741C61.5373 35.9807 60.6537 36.8772 59.5638 36.8772ZM59.5638 31.793C57.8863 31.793 56.5269 33.1729 56.5269 34.8741C56.5269 36.5763 57.8863 37.9561 59.5638 37.9561C61.2407 37.9561 62.6001 36.5763 62.6001 34.8741C62.6001 33.1729 61.2407 31.793 59.5638 31.793Z" fill="#0B907B"/>
<path fill-rule="evenodd" clip-rule="evenodd" d="M59.5635 37.8692C57.9332 37.8692 56.6121 36.5284 56.6121 34.8741C56.6121 33.2209 57.9332 31.8799 59.5635 31.8799C61.1931 31.8799 62.5142 33.2209 62.5142 34.8741C62.5142 36.5284 61.1931 37.8692 59.5635 37.8692ZM56.4409 34.8741C56.4409 36.6243 57.8386 38.043 59.5635 38.043C61.2877 38.043 62.6854 36.6243 62.6854 34.8741C62.6854 33.125 61.2877 31.7061 59.5635 31.7061C57.8387 31.7061 56.4409 33.125 56.4409 34.8741ZM57.5038 34.8741C57.5038 36.0287 58.426 36.9642 59.5635 36.9642C60.7007 36.9642 61.6226 36.0287 61.6226 34.8741C61.6226 33.7201 60.7007 32.7843 59.5635 32.7843C58.426 32.7843 57.5038 33.72 57.5038 34.8741ZM59.5635 36.7904C58.5205 36.7904 57.675 35.9327 57.675 34.8741C57.675 33.816 58.5205 32.958 59.5635 32.958C60.6061 32.958 61.4513 33.816 61.4513 34.8741C61.4513 35.9328 60.6061 36.7904 59.5635 36.7904Z" fill="#0B907B"/>
<path d="M71.3968 16.6116C70.3066 16.6116 69.4227 15.7151 69.4227 14.6085C69.4227 13.5024 70.3066 12.6055 71.3968 12.6055C72.4867 12.6055 73.3703 13.5024 73.3703 14.6085C73.3703 15.7151 72.4867 16.6116 71.3968 16.6116ZM71.3968 11.5274C69.7193 11.5274 68.3599 12.9073 68.3599 14.6085C68.3599 16.3107 69.7193 17.6904 71.3968 17.6904C73.0737 17.6904 74.4331 16.3107 74.4331 14.6085C74.4331 12.9073 73.0737 11.5274 71.3968 11.5274Z" fill="#0B907B"/>
<path fill-rule="evenodd" clip-rule="evenodd" d="M71.397 17.6036C69.7667 17.6036 68.4456 16.2628 68.4456 14.6085C68.4456 12.9553 69.7667 11.6143 71.397 11.6143C73.0266 11.6143 74.3477 12.9553 74.3477 14.6085C74.3477 16.2628 73.0266 17.6036 71.397 17.6036ZM68.2744 14.6085C68.2744 16.3587 69.6721 17.7773 71.397 17.7773C73.1212 17.7773 74.5189 16.3587 74.5189 14.6085C74.5189 12.8593 73.1212 11.4405 71.397 11.4405C69.6722 11.4405 68.2744 12.8593 68.2744 14.6085ZM69.3372 14.6085C69.3372 15.7631 70.2595 16.6985 71.397 16.6985C72.5342 16.6985 73.456 15.7631 73.456 14.6085C73.456 13.4545 72.5342 12.5186 71.397 12.5186C70.2595 12.5186 69.3372 13.4544 69.3372 14.6085ZM71.397 16.5248C70.354 16.5248 69.5085 15.6671 69.5085 14.6085C69.5085 13.5504 70.354 12.6924 71.397 12.6924C72.4396 12.6924 73.2848 13.5504 73.2848 14.6085C73.2848 15.6671 72.4396 16.5248 71.397 16.5248Z" fill="#0B907B"/>
<path d="M34.1644 47.2444C33.0742 47.2444 32.1903 46.3479 32.1903 45.2413C32.1903 44.1352 33.0742 43.2383 34.1644 43.2383C35.2543 43.2383 36.1378 44.1352 36.1378 45.2413C36.1378 46.3479 35.2543 47.2444 34.1644 47.2444ZM34.1644 42.1602C32.4872 42.1602 31.1274 43.5401 31.1274 45.2413C31.1274 46.9435 32.4872 48.3232 34.1644 48.3232C35.8413 48.3232 37.201 46.9435 37.201 45.2413C37.201 43.5401 35.8413 42.1602 34.1644 42.1602Z" fill="#0B907B"/>
<path fill-rule="evenodd" clip-rule="evenodd" d="M34.1646 48.2364C32.5346 48.2364 31.2132 46.8956 31.2132 45.2413C31.2132 43.5881 32.5346 42.2471 34.1646 42.2471C35.7942 42.2471 37.1156 43.5881 37.1156 45.2413C37.1156 46.8956 35.7941 48.2364 34.1646 48.2364ZM31.042 45.2413C31.042 46.9915 32.4401 48.4102 34.1646 48.4102C35.8887 48.4102 37.2868 46.9915 37.2868 45.2413C37.2868 43.4921 35.8887 42.0733 34.1646 42.0733C32.4401 42.0733 31.042 43.4921 31.042 45.2413ZM32.1048 45.2413C32.1048 46.3959 33.0271 47.3313 34.1646 47.3313C35.3018 47.3313 36.2236 46.3959 36.2236 45.2413C36.2236 44.0873 35.3018 43.1514 34.1646 43.1514C33.0271 43.1514 32.1048 44.0872 32.1048 45.2413ZM34.1646 47.1576C33.1216 47.1576 32.2761 46.2999 32.2761 45.2413C32.2761 44.1832 33.1216 43.3252 34.1646 43.3252C35.2072 43.3252 36.0524 44.1832 36.0524 45.2413C36.0524 46.3 35.2072 47.1576 34.1646 47.1576Z" fill="#0B907B"/>
<path d="M79.2158 18.0684H80.8904C81.0706 18.0684 81.217 18.1089 81.3302 18.1895C81.4434 18.2702 81.528 18.3745 81.5846 18.5025L84.2084 24.7803C84.2956 24.9842 84.3792 25.2087 84.4592 25.4532C84.5386 25.6971 84.6145 25.9548 84.6866 26.2251C84.805 25.6797 84.9514 25.1982 85.1264 24.7803L87.7419 18.5025C87.7886 18.3934 87.8707 18.2939 87.989 18.2038C88.1074 18.1137 88.2539 18.0684 88.4288 18.0684H90.1029L85.5969 28.3605H83.7219L79.2158 18.0684Z" fill="#0B907B"/>
<path d="M101.576 23.2145C101.576 23.969 101.44 24.6676 101.167 25.3104C100.895 25.9538 100.511 26.5101 100.018 26.9796C99.5239 27.4496 98.9299 27.8163 98.2351 28.0792C97.5409 28.3426 96.7719 28.4744 95.9281 28.4744C95.0843 28.4744 94.3143 28.3426 93.6174 28.0792C92.9201 27.8163 92.3235 27.4496 91.8271 26.9796C91.3307 26.5101 90.9464 25.9538 90.6738 25.3104C90.4007 24.6676 90.2646 23.969 90.2646 23.2145C90.2646 22.46 90.4007 21.7613 90.6738 21.1185C90.9464 20.4752 91.3307 19.9188 91.8271 19.4494C92.3235 18.9794 92.9201 18.6127 93.6174 18.3498C94.3143 18.0863 95.0843 17.9546 95.9281 17.9546C96.7719 17.9546 97.5409 18.0874 98.2351 18.3529C98.9299 18.619 99.5239 18.9852 100.018 19.4531C100.511 19.9204 100.895 20.4752 101.167 21.1185C101.44 21.7613 101.576 22.46 101.576 23.2145ZM99.4465 23.2145C99.4465 22.6497 99.3655 22.1433 99.2035 21.6949C99.0415 21.2466 98.8089 20.8656 98.5051 20.5527C98.2019 20.2392 97.8327 19.9994 97.3981 19.8335C96.9635 19.6675 96.4733 19.5842 95.9281 19.5842C95.3829 19.5842 94.8917 19.6675 94.4545 19.8335C94.0172 19.9994 93.6455 20.2392 93.3396 20.5527C93.0333 20.8656 92.7981 21.2466 92.6335 21.6949C92.4689 22.1433 92.3863 22.6497 92.3863 23.2145C92.3863 23.7793 92.4689 24.2856 92.6335 24.734C92.7981 25.1824 93.0333 25.5623 93.3396 25.8731C93.6455 26.184 94.0172 26.4222 94.4545 26.5881C94.8917 26.7541 95.3829 26.8373 95.9281 26.8373C96.4733 26.8373 96.9635 26.7541 97.3981 26.5881C97.8327 26.4222 98.2019 26.184 98.5051 25.8731C98.8089 25.5623 99.0415 25.1824 99.2035 24.734C99.3655 24.2856 99.4465 23.7793 99.4465 23.2145Z" fill="#0B907B"/>
<path d="M107.61 24.3604V28.3605H105.535V24.3604L101.469 18.0684H103.297C103.477 18.0684 103.62 18.1089 103.725 18.1895C103.831 18.2702 103.92 18.3718 103.992 18.4957L106.037 21.9331C106.154 22.1375 106.258 22.3309 106.345 22.5132C106.432 22.696 106.512 22.8751 106.584 23.0506C106.651 22.8704 106.727 22.6891 106.812 22.5063C106.896 22.3235 106.998 22.1327 107.117 21.9331L109.146 18.4957C109.202 18.3908 109.288 18.2939 109.4 18.2038C109.513 18.1137 109.658 18.0684 109.833 18.0684H111.669L107.61 24.3604Z" fill="#0B907B"/>
<path d="M121.278 28.3605H119.673C119.493 28.3605 119.346 28.3189 119.23 28.2362C119.114 28.1529 119.03 28.0497 118.979 27.9264L118.146 25.8267H113.524L112.69 27.9264C112.649 28.0354 112.568 28.135 112.447 28.2251C112.326 28.3152 112.178 28.3605 112.003 28.3605H110.391L114.774 18.0684H116.896L121.278 28.3605ZM114.056 24.4742H117.613L116.255 21.0505C116.193 20.8988 116.125 20.7196 116.05 20.5131C115.976 20.3071 115.903 20.0826 115.831 19.8408C115.759 20.0826 115.688 20.3081 115.618 20.5168C115.549 20.7254 115.481 20.9083 115.414 21.0648L114.056 24.4742Z" fill="#0B907B"/>
<path d="M127.192 26.9511C127.66 26.9511 128.068 26.9122 128.415 26.8336C128.762 26.7557 129.093 26.6477 129.406 26.5101V24.6381H128.01C127.876 24.6381 127.771 24.6039 127.693 24.5349C127.616 24.4658 127.578 24.3815 127.578 24.2819V23.2003H131.289V27.3642C131.006 27.5539 130.712 27.7188 130.405 27.859C130.1 27.9986 129.773 28.114 129.426 28.2041C129.078 28.2942 128.707 28.3616 128.311 28.4069C127.915 28.4517 127.488 28.4744 127.03 28.4744C126.217 28.4744 125.468 28.3437 124.785 28.0829C124.1 27.8221 123.509 27.4591 123.01 26.9938C122.511 26.5291 122.121 25.9738 121.841 25.3283C121.561 24.6829 121.42 23.9785 121.42 23.2145C121.42 22.441 121.556 21.7318 121.83 21.0864C122.102 20.441 122.489 19.8856 122.991 19.4209C123.492 18.9557 124.1 18.5953 124.815 18.3387C125.53 18.0826 126.333 17.9546 127.223 17.9546C128.133 17.9546 128.921 18.0789 129.588 18.3282C130.254 18.5774 130.818 18.9014 131.281 19.2997L130.68 20.168C130.561 20.3435 130.404 20.4315 130.209 20.4315C130.086 20.4315 129.959 20.3935 129.831 20.3177C129.666 20.2276 129.498 20.1375 129.325 20.0474C129.153 19.9568 128.963 19.8788 128.754 19.8124C128.546 19.746 128.312 19.6912 128.052 19.6485C127.793 19.6058 127.493 19.5842 127.153 19.5842C126.603 19.5842 126.105 19.6701 125.66 19.8408C125.216 20.0115 124.836 20.256 124.522 20.5737C124.208 20.892 123.967 21.274 123.797 21.7197C123.627 22.166 123.542 22.6639 123.542 23.2145C123.542 23.8078 123.632 24.3357 123.813 24.7983C123.992 25.2609 124.245 25.6513 124.569 25.969C124.893 26.2867 125.278 26.5302 125.726 26.6988C126.174 26.8668 126.662 26.9511 127.192 26.9511Z" fill="#0B907B"/>
<path d="M140.261 18.0684V19.5916H135.316V22.4457H139.212V23.9189H135.316V26.8304H140.261V28.3605H133.225V18.0684H140.261Z" fill="#0B907B"/>
<path d="M84.7681 37.511C84.8185 37.511 84.8637 37.5299 84.9047 37.5679L85.263 37.9288C84.9862 38.2244 84.6508 38.4552 84.2561 38.6201C83.862 38.7855 83.3864 38.8682 82.8298 38.8682C82.3427 38.8682 81.9008 38.7908 81.5052 38.6354C81.109 38.4804 80.7709 38.2628 80.4911 37.9831C80.2112 37.7033 79.9947 37.3677 79.8404 36.9762C79.6862 36.5847 79.6094 36.1542 79.6094 35.6843C79.6094 35.2143 79.6919 34.7838 79.8571 34.3924C80.0222 34.0009 80.2538 33.6647 80.5523 33.3834C80.8509 33.102 81.2087 32.8839 81.6251 32.7284C82.0415 32.5735 82.5016 32.4961 83.0042 32.4961C83.5011 32.4961 83.9295 32.5672 84.2894 32.709C84.6492 32.8512 84.9691 33.0441 85.2489 33.2875L84.9519 33.6747C84.9296 33.7037 84.9047 33.7274 84.8766 33.7464C84.8481 33.7654 84.8071 33.7748 84.7536 33.7748C84.7131 33.7748 84.67 33.7611 84.6243 33.7332C84.5786 33.7058 84.5246 33.6716 84.4612 33.631C84.3984 33.5904 84.3247 33.5472 84.24 33.5009C84.1549 33.4545 84.0541 33.4108 83.9378 33.3702C83.8215 33.3296 83.6865 33.2954 83.5323 33.268C83.3786 33.2406 83.201 33.2269 82.9995 33.2269C82.6381 33.2269 82.3074 33.2838 82.0073 33.3986C81.7071 33.513 81.4486 33.6763 81.2315 33.8876C81.0145 34.0994 80.8457 34.3576 80.7247 34.6621C80.6037 34.9667 80.543 35.3075 80.543 35.6843C80.543 36.0726 80.6037 36.4193 80.7247 36.7238C80.8457 37.0284 81.0108 37.2855 81.2196 37.4957C81.4288 37.7059 81.6765 37.8661 81.9626 37.9767C82.2482 38.0869 82.5566 38.1417 82.8863 38.1417C83.0878 38.1417 83.2685 38.1311 83.429 38.109C83.5889 38.0874 83.7379 38.0531 83.8745 38.0068C84.011 37.9604 84.1383 37.9019 84.2561 37.8308C84.374 37.7597 84.4929 37.6748 84.6123 37.5763C84.6658 37.5331 84.7177 37.511 84.7681 37.511Z" fill="#0B907B"/>
<path d="M92.7416 35.6843C92.7416 36.1511 92.6611 36.5795 92.5012 36.9693C92.3407 37.3598 92.1144 37.6954 91.822 37.9768C91.5297 38.2576 91.1781 38.4762 90.7679 38.6311C90.3577 38.7866 89.9044 38.864 89.4075 38.864C88.9111 38.864 88.4583 38.7866 88.0497 38.6311C87.641 38.4762 87.2905 38.2576 86.9982 37.9768C86.7059 37.6954 86.4795 37.3598 86.319 36.9693C86.1591 36.5795 86.0786 36.1511 86.0786 35.6843C86.0786 35.2175 86.1591 34.7891 86.319 34.3992C86.4795 34.0088 86.7059 33.6726 86.9982 33.3897C87.2905 33.1073 87.641 32.8876 88.0497 32.7311C88.4583 32.5741 88.9111 32.4961 89.4075 32.4961C89.9044 32.4961 90.3577 32.5741 90.7679 32.7311C91.1781 32.8876 91.5297 33.1073 91.822 33.3897C92.1144 33.6726 92.3407 34.0088 92.5012 34.3992C92.6611 34.7891 92.7416 35.2175 92.7416 35.6843ZM91.8033 35.6843C91.8033 35.3018 91.7467 34.9577 91.6335 34.6532C91.5203 34.3491 91.3599 34.0915 91.1522 33.8813C90.945 33.671 90.6932 33.5093 90.3977 33.3965C90.1023 33.2833 89.7725 33.2269 89.4075 33.2269C89.0461 33.2269 88.718 33.2833 88.422 33.3965C88.1265 33.5093 87.8747 33.671 87.6654 33.8813C87.4562 34.0915 87.2952 34.3491 87.182 34.6532C87.0688 34.9577 87.0122 35.3018 87.0122 35.6843C87.0122 36.0668 87.0688 36.4098 87.182 36.7128C87.2952 37.0162 87.4562 37.2728 87.6654 37.4831C87.8747 37.6933 88.1265 37.854 88.422 37.9657C88.718 38.0774 89.0461 38.1332 89.4075 38.1332C89.7725 38.1332 90.1023 38.0774 90.3977 37.9657C90.6932 37.854 90.945 37.6933 91.1522 37.4831C91.3599 37.2728 91.5203 37.0162 91.6335 36.7128C91.7467 36.4098 91.8033 36.0668 91.8033 35.6843Z" fill="#0B907B"/>
<path d="M94.4627 32.5654C94.5447 32.5654 94.605 32.5749 94.6444 32.5939C94.6839 32.6123 94.7285 32.6508 94.7789 32.7087L98.6925 37.4064C98.6832 37.3311 98.6769 37.2579 98.6738 37.1867C98.6707 37.1156 98.6686 37.0471 98.6686 36.9802V32.5654H99.4703V38.7985H99.0082C98.936 38.7985 98.8758 38.7869 98.827 38.7637C98.7782 38.7405 98.7304 38.7015 98.6832 38.6462L94.7742 33.9527C94.7805 34.0254 94.7851 34.0966 94.7883 34.1661C94.7914 34.2357 94.7929 34.2994 94.7929 34.3574V38.7985H93.9912V32.5654H94.4627Z" fill="#0B907B"/>
<path d="M105.723 32.5654V33.2741H103.539V38.7985H102.624V33.2741H100.432V32.5654H105.723Z" fill="#0B907B"/>
<path d="M107.689 36.1972V38.7985H106.779V32.5654H108.689C109.116 32.5654 109.486 32.6055 109.797 32.685C110.108 32.7646 110.365 32.88 110.568 33.0307C110.771 33.1814 110.921 33.3637 111.018 33.5765C111.116 33.7899 111.164 34.0281 111.164 34.292C111.164 34.5128 111.126 34.7183 111.051 34.9101C110.976 35.1013 110.867 35.2731 110.724 35.4254C110.581 35.5776 110.406 35.7072 110.2 35.8147C109.994 35.9217 109.761 36.0028 109.5 36.0581C109.613 36.1193 109.714 36.2073 109.802 36.3237L111.773 38.7985H110.962C110.795 38.7985 110.673 38.7389 110.594 38.6199L108.84 36.3932C108.786 36.3237 108.728 36.2736 108.665 36.2431C108.602 36.2125 108.508 36.1972 108.382 36.1972H107.689ZM107.689 35.584H108.647C108.913 35.584 109.149 35.5544 109.351 35.4949C109.554 35.4354 109.724 35.3511 109.861 35.2425C109.998 35.134 110.1 35.0039 110.169 34.8532C110.239 34.7025 110.273 34.536 110.273 34.3532C110.273 33.9817 110.14 33.7019 109.875 33.5138C109.609 33.3252 109.214 33.2309 108.689 33.2309H107.689V35.584Z" fill="#0B907B"/>
<path d="M118.837 35.6843C118.837 36.1511 118.757 36.5795 118.596 36.9693C118.436 37.3598 118.21 37.6954 117.918 37.9768C117.625 38.2576 117.274 38.4762 116.864 38.6311C116.453 38.7866 116 38.864 115.503 38.864C115.007 38.864 114.554 38.7866 114.145 38.6311C113.737 38.4762 113.386 38.2576 113.094 37.9768C112.802 37.6954 112.575 37.3598 112.415 36.9693C112.255 36.5795 112.174 36.1511 112.174 35.6843C112.174 35.2175 112.255 34.7891 112.415 34.3992C112.575 34.0088 112.802 33.6726 113.094 33.3897C113.386 33.1073 113.737 32.8876 114.145 32.7311C114.554 32.5741 115.007 32.4961 115.503 32.4961C116 32.4961 116.453 32.5741 116.864 32.7311C117.274 32.8876 117.625 33.1073 117.918 33.3897C118.21 33.6726 118.436 34.0088 118.596 34.3992C118.757 34.7891 118.837 35.2175 118.837 35.6843ZM117.899 35.6843C117.899 35.3018 117.842 34.9577 117.729 34.6532C117.616 34.3491 117.456 34.0915 117.248 33.8813C117.041 33.671 116.789 33.5093 116.493 33.3965C116.198 33.2833 115.868 33.2269 115.503 33.2269C115.142 33.2269 114.813 33.2833 114.518 33.3965C114.222 33.5093 113.97 33.671 113.761 33.8813C113.552 34.0915 113.391 34.3491 113.278 34.6532C113.165 34.9577 113.108 35.3018 113.108 35.6843C113.108 36.0668 113.165 36.4098 113.278 36.7128C113.391 37.0162 113.552 37.2728 113.761 37.4831C113.97 37.6933 114.222 37.854 114.518 37.9657C114.813 38.0774 115.142 38.1332 115.503 38.1332C115.868 38.1332 116.198 38.0774 116.493 37.9657C116.789 37.854 117.041 37.6933 117.248 37.4831C117.456 37.2728 117.616 37.0162 117.729 36.7128C117.842 36.4098 117.899 36.0668 117.899 35.6843Z" fill="#0B907B"/>
<path d="M121.001 38.0893H123.925V38.7985H120.086V32.5654H121.001V38.0893Z" fill="#0B907B"/>
</svg>
