<svg width="190" height="64" viewBox="0 0 190 64" fill="none" xmlns="http://www.w3.org/2000/svg">
<g opacity="0.45">
<path opacity="0.45" fill-rule="evenodd" clip-rule="evenodd" d="M9.98263 9.07257C10.0563 8.63635 10.4687 8.3443 10.9037 8.42027L11.0343 8.44308C11.4692 8.51905 11.7621 8.93427 11.6884 9.37049C11.6147 9.80672 11.2024 10.0988 10.7674 10.0228L10.6368 9.99998C10.2018 9.92401 9.90893 9.5088 9.98263 9.07257ZM15.3366 10.0077C15.4103 9.57144 15.8227 9.2794 16.2577 9.35537L16.5188 9.40098C16.9538 9.47695 17.2467 9.89217 17.173 10.3284C17.0993 10.7646 16.6869 11.0567 16.2519 10.9807L15.9908 10.9351C15.5558 10.8591 15.2629 10.4439 15.3366 10.0077ZM20.8212 10.9656C20.8949 10.5293 21.3072 10.2373 21.7422 10.3133L22.0034 10.3589C22.4384 10.4349 22.7313 10.8501 22.6576 11.2863C22.5839 11.7225 22.1715 12.0146 21.7365 11.9386L21.4753 11.893C21.0404 11.817 20.7475 11.4018 20.8212 10.9656ZM26.3058 11.9235C26.3794 11.4872 26.7918 11.1952 27.2268 11.2712L27.488 11.3168C27.9229 11.3928 28.2158 11.808 28.1421 12.2442C28.0684 12.6804 27.6561 12.9725 27.2211 12.8965L26.9599 12.8509C26.5249 12.7749 26.2321 12.3597 26.3058 11.9235ZM31.7903 12.8814C31.864 12.4451 32.2764 12.1531 32.7114 12.2291L32.9725 12.2747C33.4075 12.3507 33.7004 12.7659 33.6267 13.2021C33.553 13.6383 33.1406 13.9304 32.7056 13.8544L32.4445 13.8088C32.0095 13.7328 31.7166 13.3176 31.7903 12.8814ZM37.2749 13.8393C37.3486 13.403 37.7609 13.111 38.1959 13.187L38.4571 13.2326C38.8921 13.3086 39.185 13.7238 39.1113 14.16C39.0376 14.5962 38.6252 14.8883 38.1902 14.8123L37.929 14.7667C37.4941 14.6907 37.2012 14.2755 37.2749 13.8393ZM42.7595 14.7972C42.8332 14.3609 43.2455 14.0689 43.6805 14.1449L43.9417 14.1905C44.3767 14.2665 44.6695 14.6817 44.5958 15.1179C44.5221 15.5541 44.1098 15.8462 43.6748 15.7702L43.4136 15.7246C42.9786 15.6486 42.6858 15.2334 42.7595 14.7972ZM48.244 15.7551C48.3177 15.3188 48.7301 15.0268 49.1651 15.1028L49.4262 15.1484C49.8612 15.2244 50.1541 15.6396 50.0804 16.0758C50.0067 16.512 49.5943 16.8041 49.1594 16.7281L48.8982 16.6825C48.4632 16.6065 48.1703 16.1913 48.244 15.7551ZM53.7286 16.713C53.8023 16.2767 54.2147 15.9847 54.6496 16.0607L54.9108 16.1063C55.3458 16.1823 55.6387 16.5975 55.565 17.0337C55.4913 17.4699 55.0789 17.762 54.6439 17.686L54.3828 17.6404C53.9478 17.5644 53.6549 17.1492 53.7286 16.713ZM59.2132 17.6709C59.2869 17.2347 59.6992 16.9426 60.1342 17.0186L60.2648 17.0414C60.6998 17.1174 60.9926 17.5326 60.9189 17.9688C60.8453 18.405 60.4329 18.6971 59.9979 18.6211L59.8673 18.5983C59.4323 18.5223 59.1395 18.1071 59.2132 17.6709Z" fill="white"/>
</g>
<g opacity="0.45">
<path opacity="0.45" fill-rule="evenodd" clip-rule="evenodd" d="M10.088 7.18913C10.1157 6.74718 10.4952 6.41212 10.9357 6.44075L11.0433 6.44775C11.4838 6.47638 11.8183 6.85786 11.7906 7.29981C11.7629 7.74176 11.3834 8.07682 10.943 8.04819L10.8353 8.04119C10.3949 8.01256 10.0603 7.63108 10.088 7.18913ZM14.5024 7.47608C14.5301 7.03414 14.9096 6.69908 15.3501 6.72771L15.5654 6.74171C16.0058 6.77034 16.3404 7.15182 16.3127 7.59375C16.285 8.03572 15.9055 8.37078 15.465 8.34215L15.2497 8.32815C14.8093 8.29952 14.4747 7.91804 14.5024 7.47608ZM19.0245 7.77003C19.0522 7.3281 19.4317 6.99304 19.8721 7.02167L20.0875 7.03567C20.5279 7.0643 20.8625 7.44578 20.8348 7.8877C20.807 8.32968 20.4275 8.66474 19.9871 8.63611L19.7718 8.62211C19.3313 8.59348 18.9968 8.212 19.0245 7.77003ZM23.5466 8.06397C23.5743 7.62206 23.9538 7.287 24.3942 7.31563L24.6096 7.32963C25.05 7.35826 25.3846 7.73974 25.3568 8.18165C25.3291 8.62364 24.9496 8.9587 24.5092 8.93007L24.2938 8.91607C23.8534 8.88744 23.5188 8.50596 23.5466 8.06397ZM28.0686 8.35792C28.0964 7.91602 28.4759 7.58096 28.9163 7.60959L29.1316 7.62359C29.5721 7.65222 29.9066 8.0337 29.8789 8.47559C29.8512 8.91759 29.4717 9.25265 29.0313 9.22402L28.8159 9.21003C28.3755 9.1814 28.0409 8.79992 28.0686 8.35792ZM32.5907 8.65187C32.6184 8.20998 32.9979 7.87492 33.4384 7.90355L33.6537 7.91755C34.0941 7.94618 34.4287 8.32766 34.401 8.76954C34.3733 9.21155 33.9938 9.54661 33.5533 9.51798L33.338 9.50398C32.8976 9.47535 32.563 9.09388 32.5907 8.65187ZM37.1128 8.94581C37.1405 8.50394 37.52 8.16888 37.9605 8.19751L38.1758 8.2115C38.6162 8.24013 38.9508 8.62161 38.9231 9.06348C38.8953 9.50551 38.5158 9.84057 38.0754 9.81194L37.8601 9.79794C37.4196 9.76931 37.0851 9.38783 37.1128 8.94581ZM41.6349 9.23976C41.6626 8.7979 42.0421 8.46283 42.4825 8.49146L42.6979 8.50546C43.1383 8.53409 43.4729 8.91557 43.4451 9.35743C43.4174 9.79947 43.0379 10.1345 42.5975 10.1059L42.3822 10.0919C41.9417 10.0633 41.6072 9.68179 41.6349 9.23976ZM46.1569 9.5337C46.1847 9.09185 46.5642 8.75679 47.0046 8.78542L47.2199 8.79942C47.6604 8.82805 47.9949 9.20953 47.9672 9.65138C47.9395 10.0934 47.56 10.4285 47.1196 10.3999L46.9042 10.3859C46.4638 10.3572 46.1292 9.97575 46.1569 9.5337ZM50.679 9.82765C50.7067 9.38581 51.0862 9.05075 51.5267 9.07938L51.742 9.09338C52.1824 9.12201 52.517 9.50349 52.4893 9.94532C52.4616 10.3874 52.0821 10.7224 51.6416 10.6938L51.4263 10.6798C50.9859 10.6512 50.6513 10.2697 50.679 9.82765ZM55.2011 10.1216C55.2288 9.67977 55.6083 9.34471 56.0488 9.37334L56.2641 9.38734C56.7045 9.41597 57.0391 9.79745 57.0114 10.2393C56.9837 10.6813 56.6041 11.0164 56.1637 10.9878L55.9484 10.9738C55.5079 10.9451 55.1734 10.5637 55.2011 10.1216ZM59.7232 10.4155C59.7509 9.97373 60.1304 9.63867 60.5708 9.6673L60.7862 9.6813C61.2266 9.70993 61.5612 10.0914 61.5335 10.5332C61.5057 10.9753 61.1262 11.3104 60.6858 11.2817L60.4705 11.2677C60.03 11.2391 59.6955 10.8576 59.7232 10.4155ZM64.2453 10.7095C64.273 10.2677 64.6525 9.93263 65.0929 9.96126L65.3083 9.97526C65.7487 10.0039 66.0832 10.3854 66.0555 10.8272C66.0278 11.2693 65.6483 11.6043 65.2079 11.5757L64.9925 11.5617C64.5521 11.5331 64.2175 11.1516 64.2453 10.7095ZM68.7673 11.0034C68.795 10.5616 69.1746 10.2266 69.615 10.2552L69.8303 10.2692C70.2707 10.2978 70.6053 10.6793 70.5776 11.1211C70.5499 11.5632 70.1704 11.8983 69.7299 11.8697L69.5146 11.8557C69.0742 11.827 68.7396 11.4455 68.7673 11.0034ZM73.2894 11.2974C73.3171 10.8556 73.6966 10.5205 74.1371 10.5492L74.3524 10.5632C74.7928 10.5918 75.1274 10.9733 75.0997 11.4151C75.072 11.8572 74.6924 12.1922 74.252 12.1636L74.0367 12.1496C73.5963 12.121 73.2617 11.7395 73.2894 11.2974ZM77.8115 11.5913C77.8392 11.1496 78.2187 10.8145 78.6591 10.8431L78.8745 10.8571C79.3149 10.8858 79.6495 11.2672 79.6218 11.709C79.594 12.1511 79.2145 12.4862 78.7741 12.4576L78.5588 12.4436C78.1183 12.4149 77.7838 12.0335 77.8115 11.5913ZM82.3336 11.8853C82.3613 11.4435 82.7408 11.1085 83.1812 11.1371L83.3966 11.1511C83.837 11.1797 84.1716 11.5612 84.1439 12.0029C84.1161 12.4451 83.7366 12.7802 83.2962 12.7515L83.0808 12.7375C82.6404 12.7089 82.3058 12.3274 82.3336 11.8853ZM86.8557 12.1792C86.8834 11.7375 87.2629 11.4024 87.7033 11.4311L87.9186 11.445C88.3591 11.4737 88.6936 11.8552 88.6659 12.2969C88.6382 12.7391 88.2587 13.0741 87.8183 13.0455L87.6029 13.0315C87.1625 13.0029 86.8279 12.6214 86.8557 12.1792ZM91.3777 12.4732C91.4054 12.0314 91.7849 11.6964 92.2254 11.725L92.3331 11.732C92.7735 11.7606 93.1081 12.1421 93.0804 12.5838C93.0526 13.026 92.6731 13.3611 92.2327 13.3324L92.125 13.3254C91.6846 13.2968 91.35 12.9153 91.3777 12.4732Z" fill="white"/>
</g>
<g opacity="0.45">
<path opacity="0.45" fill-rule="evenodd" clip-rule="evenodd" d="M49.2525 55.3086C49.0838 54.8992 49.2772 54.4271 49.6845 54.2541L49.7934 54.2078C50.2006 54.0347 50.6674 54.2263 50.8361 54.6357C51.0047 55.045 50.8113 55.5171 50.4041 55.6902L50.2951 55.7365C49.8879 55.9095 49.4211 55.7179 49.2525 55.3086ZM53.7194 53.4105C53.5508 53.0011 53.7442 52.529 54.1514 52.356L54.3693 52.2634C54.7765 52.0903 55.2433 52.2819 55.412 52.6913C55.5806 53.1006 55.3872 53.5727 54.98 53.7458L54.7621 53.8384C54.3549 54.0114 53.8881 53.8198 53.7194 53.4105ZM58.2953 51.466C58.1267 51.0567 58.3201 50.5846 58.7273 50.4115L58.9452 50.319C59.3524 50.1459 59.8192 50.3375 59.9879 50.7468C60.1565 51.1562 59.9631 51.6283 59.5559 51.8013L59.338 51.8939C58.9308 52.067 58.464 51.8754 58.2953 51.466ZM62.8712 49.5216C62.7026 49.1123 62.896 48.6402 63.3032 48.4671L63.5211 48.3745C63.9283 48.2015 64.3951 48.3931 64.5638 48.8024C64.7324 49.2118 64.539 49.6839 64.1318 49.8569L63.9139 49.9495C63.5067 50.1226 63.0399 49.931 62.8712 49.5216ZM67.4471 47.5772C67.2785 47.1679 67.4719 46.6957 67.8791 46.5227L68.097 46.4301C68.5042 46.2571 68.971 46.4487 69.1397 46.858C69.3083 47.2674 69.1149 47.7395 68.7077 47.9125L68.4898 48.0051C68.0826 48.1781 67.6158 47.9866 67.4471 47.5772ZM72.023 45.6328C71.8544 45.2235 72.0478 44.7513 72.455 44.5783L72.6729 44.4857C73.0801 44.3127 73.5469 44.5043 73.7156 44.9136C73.8842 45.323 73.6908 45.7951 73.2836 45.9681L73.0657 46.0607C72.6585 46.2337 72.1917 46.0422 72.023 45.6328ZM76.5989 43.6884C76.4303 43.279 76.6237 42.8069 77.0309 42.6339L77.1399 42.5876C77.5471 42.4146 78.0139 42.6061 78.1825 43.0155C78.3512 43.4248 78.1578 43.897 77.7506 44.07L77.6416 44.1163C77.2344 44.2893 76.7676 44.0977 76.5989 43.6884Z" fill="white"/>
</g>
<g opacity="0.45">
<path opacity="0.45" fill-rule="evenodd" clip-rule="evenodd" d="M94.7392 17.6769C95.1201 17.9086 95.2451 18.4078 95.0185 18.7918L94.9714 18.8715C94.7448 19.2556 94.2522 19.3791 93.8713 19.1474C93.4903 18.9157 93.3653 18.4166 93.5919 18.0325L93.639 17.9528C93.8657 17.5688 94.3582 17.4453 94.7392 17.6769ZM92.8095 20.9463C93.1905 21.178 93.3155 21.6772 93.0889 22.0612L92.9947 22.2207C92.7681 22.6047 92.2755 22.7282 91.8946 22.4965C91.5136 22.2649 91.3886 21.7657 91.6153 21.3817L91.7094 21.2222C91.936 20.8382 92.4286 20.7146 92.8095 20.9463ZM90.8328 24.2955C91.2138 24.5271 91.3388 25.0263 91.1122 25.4103L91.018 25.5698C90.7914 25.9538 90.2988 26.0774 89.9179 25.8457C89.537 25.614 89.4119 25.1148 89.6386 24.7308L89.7327 24.5713C89.9594 24.1873 90.4519 24.0638 90.8328 24.2955ZM88.8562 27.6446C89.2371 27.8763 89.3622 28.3754 89.1355 28.7595L89.0414 28.9189C88.8147 29.303 88.3221 29.4265 87.9412 29.1948C87.5603 28.9631 87.4352 28.464 87.6619 28.0799L87.756 27.9205C87.9827 27.5364 88.4752 27.4129 88.8562 27.6446ZM86.8795 30.9937C87.2604 31.2254 87.3855 31.7245 87.1588 32.1086L87.0647 32.2681C86.838 32.6521 86.3455 32.7756 85.9645 32.5439C85.5836 32.3123 85.4585 31.8131 85.6852 31.4291L85.7793 31.2696C86.006 30.8855 86.4985 30.762 86.8795 30.9937ZM84.9028 34.3428C85.2837 34.5745 85.4088 35.0737 85.1821 35.4577L85.088 35.6172C84.8613 36.0012 84.3688 36.1247 83.9878 35.8931C83.6069 35.6614 83.4818 35.1622 83.7085 34.7782L83.8026 34.6187C84.0293 34.2347 84.5219 34.1112 84.9028 34.3428ZM82.9261 37.692C83.307 37.9237 83.4321 38.4228 83.2054 38.8068L83.1584 38.8866C82.9317 39.2706 82.4392 39.3941 82.0582 39.1625C81.6773 38.9308 81.5522 38.4316 81.7789 38.0476L81.826 37.9678C82.0526 37.5838 82.5452 37.4603 82.9261 37.692Z" fill="white"/>
</g>
<g opacity="0.45">
<path opacity="0.45" fill-rule="evenodd" clip-rule="evenodd" d="M9.80841 10.3933C9.98335 9.98677 10.453 9.80262 10.8575 9.98197L10.9608 10.0278C11.3652 10.2071 11.5513 10.682 11.3764 11.0886C11.2014 11.4951 10.7317 11.6792 10.3273 11.4999L10.224 11.4541C9.81954 11.2747 9.63348 10.7998 9.80841 10.3933ZM14.0434 12.2712C14.2183 11.8647 14.688 11.6805 15.0925 11.8599L15.2991 11.9515C15.7035 12.1308 15.8896 12.6058 15.7146 13.0123C15.5397 13.4188 15.07 13.6029 14.6656 13.4236L14.459 13.332C14.0545 13.1526 13.8685 12.6777 14.0434 12.2712ZM18.3817 14.1949C18.5566 13.7884 19.0263 13.6043 19.4307 13.7836L19.6373 13.8752C20.0418 14.0546 20.2278 14.5295 20.0529 14.936C19.878 15.3425 19.4083 15.5267 19.0038 15.3473L18.7972 15.2557C18.3928 15.0764 18.2067 14.6014 18.3817 14.1949ZM22.7199 16.1187C22.8949 15.7122 23.3646 15.528 23.769 15.7074L23.9756 15.799C24.3801 15.9783 24.5661 16.4532 24.3912 16.8597C24.2162 17.2663 23.7466 17.4504 23.3421 17.271L23.1355 17.1794C22.7311 17.0001 22.545 16.5252 22.7199 16.1187ZM27.0582 18.0424C27.2331 17.6359 27.7028 17.4517 28.1073 17.6311L28.3139 17.7227C28.7183 17.902 28.9044 18.377 28.7295 18.7835C28.5545 19.19 28.0848 19.3741 27.6804 19.1948L27.4738 19.1032C27.0693 18.9238 26.8833 18.4489 27.0582 18.0424ZM31.3965 19.9661C31.5714 19.5596 32.0411 19.3755 32.4456 19.5548L32.6521 19.6464C33.0566 19.8258 33.2427 20.3007 33.0677 20.7072C32.8928 21.1137 32.4231 21.2979 32.0186 21.1185L31.8121 21.0269C31.4076 20.8476 31.2215 20.3726 31.3965 19.9661ZM35.7347 21.8898C35.9097 21.4833 36.3794 21.2992 36.7838 21.4785L36.9904 21.5701C37.3949 21.7495 37.5809 22.2244 37.406 22.6309C37.2311 23.0374 36.7614 23.2216 36.3569 23.0422L36.1503 22.9506C35.7459 22.7713 35.5598 22.2964 35.7347 21.8898ZM40.073 23.8136C40.248 23.4071 40.7176 23.2229 41.1221 23.4023L41.3287 23.4939C41.7331 23.6732 41.9192 24.1482 41.7443 24.5547C41.5693 24.9612 41.0996 25.1453 40.6952 24.966L40.4886 24.8744C40.0841 24.695 39.8981 24.2201 40.073 23.8136ZM44.4113 25.7373C44.5862 25.3308 45.0559 25.1467 45.4604 25.326L45.667 25.4176C46.0714 25.597 46.2575 26.0719 46.0825 26.4784C45.9076 26.8849 45.4379 27.069 45.0334 26.8897L44.8269 26.7981C44.4224 26.6187 44.2363 26.1438 44.4113 25.7373ZM48.7496 27.661C48.9245 27.2545 49.3942 27.0704 49.7986 27.2497L50.0052 27.3413C50.4097 27.5207 50.5957 27.9956 50.4208 28.4021C50.2459 28.8086 49.7762 28.9928 49.3717 28.8134L49.1651 28.7218C48.7607 28.5425 48.5746 28.0675 48.7496 27.661ZM53.0878 29.5848C53.2628 29.1783 53.7325 28.9941 54.1369 29.1735L54.3435 29.2651C54.7479 29.4444 54.934 29.9193 54.7591 30.3259C54.5841 30.7324 54.1144 30.9165 53.71 30.7372L53.5034 30.6455C53.0989 30.4662 52.9129 29.9913 53.0878 29.5848ZM57.4261 31.5085C57.601 31.102 58.0707 30.9178 58.4752 31.0972L58.6818 31.1888C59.0862 31.3681 59.2723 31.8431 59.0973 32.2496C58.9224 32.6561 58.4527 32.8402 58.0483 32.6609L57.8417 32.5693C57.4372 32.3899 57.2512 31.915 57.4261 31.5085ZM61.7644 33.4322C61.9393 33.0257 62.409 32.8416 62.8135 33.0209L63.02 33.1125C63.4245 33.2919 63.6105 33.7668 63.4356 34.1733C63.2607 34.5798 62.791 34.764 62.3865 34.5846L62.1799 34.493C61.7755 34.3137 61.5894 33.8387 61.7644 33.4322ZM66.1026 35.356C66.2776 34.9494 66.7473 34.7653 67.1517 34.9446L67.3583 35.0363C67.7628 35.2156 67.9488 35.6905 67.7739 36.097C67.5989 36.5035 67.1293 36.6877 66.7248 36.5083L66.5182 36.4167C66.1138 36.2374 65.9277 35.7625 66.1026 35.356ZM70.4409 37.2797C70.6158 36.8732 71.0855 36.689 71.49 36.8684L71.6966 36.96C72.101 37.1393 72.2871 37.6143 72.1122 38.0208C71.9372 38.4273 71.4675 38.6114 71.0631 38.4321L70.8565 38.3405C70.452 38.1611 70.266 37.6862 70.4409 37.2797ZM74.7792 39.2034C74.9541 38.7969 75.4238 38.6128 75.8283 38.7921L75.9316 38.8379C76.336 39.0173 76.5221 39.4922 76.3471 39.8987C76.1722 40.3052 75.7025 40.4894 75.2981 40.31L75.1948 40.2642C74.7903 40.0848 74.6042 39.6099 74.7792 39.2034Z" fill="white"/>
</g>
<path fill-rule="evenodd" clip-rule="evenodd" d="M47.869 52.229C47.4711 52.0351 47.3036 51.5507 47.4946 51.147L61.4215 21.7254C61.6125 21.3218 62.0899 21.1517 62.4877 21.3456C62.8855 21.5395 63.0531 22.0239 62.8621 22.4275L48.9352 51.8492C48.7442 52.2528 48.2668 52.4229 47.869 52.229Z" fill="white"/>
<path fill-rule="evenodd" clip-rule="evenodd" d="M77.681 38.832C77.3246 39.0962 76.8247 39.0172 76.5644 38.6556L64.8066 22.3232C64.5463 21.9616 64.6241 21.4543 64.9805 21.1902C65.3369 20.926 65.8368 21.005 66.0971 21.3666L77.8549 37.699C78.1152 38.0606 78.0373 38.5679 77.681 38.832Z" fill="white"/>
<path fill-rule="evenodd" clip-rule="evenodd" d="M92.8508 15.2423C92.884 15.6888 92.5542 16.0781 92.1142 16.1119L67.2248 18.0201C66.7847 18.0538 66.401 17.7192 66.3678 17.2727C66.3345 16.8261 66.6643 16.4368 67.1044 16.403L91.9938 14.4948C92.4338 14.4611 92.8175 14.7957 92.8508 15.2423Z" fill="white"/>
<path fill-rule="evenodd" clip-rule="evenodd" d="M7.97249 11.4962C8.30925 11.2068 8.81347 11.2492 9.09871 11.5909L43.2309 52.4799C43.5161 52.8216 43.4743 53.3333 43.1376 53.6227C42.8008 53.9121 42.2966 53.8697 42.0114 53.528L7.87922 12.639C7.59398 12.2973 7.63574 11.7857 7.97249 11.4962Z" fill="white"/>
<path d="M6.59844 11.4034C5.14526 11.4034 3.96673 10.208 3.96673 8.7325C3.96673 7.25772 5.14526 6.06186 6.59844 6.06186C8.05208 6.06186 9.23015 7.25772 9.23015 8.7325C9.23015 10.208 8.05208 11.4034 6.59844 11.4034ZM6.59844 4.62437C4.36216 4.62437 2.54961 6.46426 2.54961 8.7325C2.54961 11.0021 4.36216 12.8418 6.59844 12.8418C8.83472 12.8418 10.6473 11.0021 10.6473 8.7325C10.6473 6.46426 8.83472 4.62437 6.59844 4.62437Z" fill="white"/>
<path fill-rule="evenodd" clip-rule="evenodd" d="M6.59844 12.7261C4.42523 12.7261 2.66377 10.9383 2.66377 8.73264C2.66377 6.52835 4.42521 4.74033 6.59844 4.74033C8.77167 4.74033 10.5331 6.52835 10.5331 8.73264C10.5331 10.9383 8.77166 12.7261 6.59844 12.7261ZM2.43546 8.73264C2.43546 11.0662 4.29909 12.9578 6.59844 12.9578C8.8978 12.9578 10.7614 11.0662 10.7614 8.73264C10.7614 6.40043 8.89778 4.50866 6.59844 4.50866C4.29911 4.50866 2.43546 6.40043 2.43546 8.73264ZM3.85257 8.73264C3.85257 10.2721 5.08221 11.5193 6.59844 11.5193C8.11514 11.5193 9.34431 10.2721 9.34431 8.73264C9.34431 7.19389 8.11515 5.94615 6.59844 5.94615C5.08221 5.94615 3.85257 7.19388 3.85257 8.73264ZM6.59844 11.2877C5.2083 11.2877 4.08088 10.1441 4.08088 8.73264C4.08088 7.32181 5.20831 6.17782 6.59844 6.17782C7.98902 6.17782 9.116 7.3218 9.116 8.73264C9.116 10.1442 7.98903 11.2877 6.59844 11.2877Z" fill="white"/>
<path d="M63.3715 21.1334C61.9178 21.1334 60.7393 19.938 60.7393 18.4625C60.7393 16.9877 61.9178 15.7918 63.3715 15.7918C64.8247 15.7918 66.0027 16.9877 66.0027 18.4625C66.0027 19.938 64.8247 21.1334 63.3715 21.1334ZM63.3715 14.3543C61.1347 14.3543 59.3222 16.1942 59.3222 18.4625C59.3222 20.7321 61.1347 22.5718 63.3715 22.5718C65.6073 22.5718 67.4199 20.7321 67.4199 18.4625C67.4199 16.1942 65.6073 14.3543 63.3715 14.3543Z" fill="white"/>
<path fill-rule="evenodd" clip-rule="evenodd" d="M63.3715 22.4558C61.1978 22.4558 59.4364 20.668 59.4364 18.4624C59.4364 16.2581 61.1978 14.4701 63.3715 14.4701C65.5442 14.4701 67.3057 16.2581 67.3057 18.4624C67.3057 20.6681 65.5442 22.4558 63.3715 22.4558ZM59.208 18.4624C59.208 20.796 61.0717 22.6875 63.3715 22.6875C65.6704 22.6875 67.534 20.7959 67.534 18.4624C67.534 16.1302 65.6704 14.2384 63.3715 14.2384C61.0717 14.2384 59.208 16.1302 59.208 18.4624ZM60.6252 18.4624C60.6252 20.0018 61.8548 21.2491 63.3715 21.2491C64.8877 21.2491 66.1169 20.0018 66.1169 18.4624C66.1169 16.9236 64.8877 15.6759 63.3715 15.6759C61.8548 15.6759 60.6252 16.9236 60.6252 18.4624ZM63.3715 21.0174C61.9809 21.0174 60.8535 19.8739 60.8535 18.4624C60.8535 17.0516 61.9809 15.9076 63.3715 15.9076C64.7616 15.9076 65.8886 17.0515 65.8886 18.4624C65.8886 19.8739 64.7616 21.0174 63.3715 21.0174Z" fill="white"/>
<path d="M79.8095 43.8367C78.3559 43.8367 77.1773 42.6413 77.1773 41.1659C77.1773 39.6911 78.3559 38.4952 79.8095 38.4952C81.2627 38.4952 82.4408 39.6911 82.4408 41.1659C82.4408 42.6413 81.2627 43.8367 79.8095 43.8367ZM79.8095 37.0577C77.5728 37.0577 75.7602 38.8976 75.7602 41.1659C75.7602 43.4355 77.5728 45.2751 79.8095 45.2751C82.0453 45.2751 83.8579 43.4355 83.8579 41.1659C83.8579 38.8976 82.0453 37.0577 79.8095 37.0577Z" fill="white"/>
<path fill-rule="evenodd" clip-rule="evenodd" d="M79.8095 45.1592C77.6358 45.1592 75.8744 43.3714 75.8744 41.1657C75.8744 38.9615 77.6358 37.1734 79.8095 37.1734C81.9823 37.1734 83.7437 38.9614 83.7437 41.1657C83.7437 43.3714 81.9823 45.1592 79.8095 45.1592ZM75.6461 41.1657C75.6461 43.4993 77.5097 45.3909 79.8095 45.3909C82.1084 45.3909 83.972 43.4993 83.972 41.1657C83.972 38.8335 82.1084 36.9418 79.8095 36.9418C77.5097 36.9418 75.6461 38.8335 75.6461 41.1657ZM77.0632 41.1657C77.0632 42.7052 78.2928 43.9525 79.8095 43.9525C81.3258 43.9525 82.5549 42.7052 82.5549 41.1657C82.5549 39.627 81.3258 38.3793 79.8095 38.3793C78.2928 38.3793 77.0632 39.627 77.0632 41.1657ZM79.8095 43.7208C78.4189 43.7208 77.2915 42.5772 77.2915 41.1657C77.2915 39.7549 78.4189 38.6109 79.8095 38.6109C81.1996 38.6109 82.3266 39.7549 82.3266 41.1657C82.3266 42.5773 81.1996 43.7208 79.8095 43.7208Z" fill="white"/>
<path d="M95.587 16.8157C94.1334 16.8157 92.9549 15.6203 92.9549 14.1449C92.9549 12.6701 94.1334 11.4742 95.587 11.4742C97.0402 11.4742 98.2183 12.6701 98.2183 14.1449C98.2183 15.6203 97.0402 16.8157 95.587 16.8157ZM95.587 10.0367C93.3503 10.0367 91.5378 11.8766 91.5378 14.1449C91.5378 16.4145 93.3503 18.2542 95.587 18.2542C97.8229 18.2542 99.6354 16.4145 99.6354 14.1449C99.6354 11.8766 97.8229 10.0367 95.587 10.0367Z" fill="white"/>
<path fill-rule="evenodd" clip-rule="evenodd" d="M95.587 18.1385C93.4134 18.1385 91.6519 16.3507 91.6519 14.145C91.6519 11.9407 93.4134 10.1527 95.587 10.1527C97.7598 10.1527 99.5213 11.9407 99.5213 14.145C99.5213 16.3507 97.7598 18.1385 95.587 18.1385ZM91.4236 14.145C91.4236 16.4786 93.2872 18.3701 95.587 18.3701C97.8859 18.3701 99.7496 16.4786 99.7496 14.145C99.7496 11.8128 97.8859 9.92102 95.587 9.92102C93.2873 9.92102 91.4236 11.8128 91.4236 14.145ZM92.8407 14.145C92.8407 15.6845 94.0704 16.9317 95.587 16.9317C97.1033 16.9317 98.3325 15.6844 98.3325 14.145C98.3325 12.6063 97.1033 11.3585 95.587 11.3585C94.0704 11.3585 92.8407 12.6062 92.8407 14.145ZM95.587 16.7C94.1964 16.7 93.069 15.5565 93.069 14.145C93.069 12.7342 94.1964 11.5902 95.587 11.5902C96.9772 11.5902 98.1041 12.7341 98.1041 14.145C98.1041 15.5565 96.9772 16.7 95.587 16.7Z" fill="white"/>
<path d="M45.9438 57.6592C44.4902 57.6592 43.3117 56.4638 43.3117 54.9884C43.3117 53.5136 44.4902 52.3177 45.9438 52.3177C47.397 52.3177 48.5751 53.5136 48.5751 54.9884C48.5751 56.4638 47.397 57.6592 45.9438 57.6592ZM45.9438 50.8802C43.7075 50.8802 41.8946 52.7201 41.8946 54.9884C41.8946 57.258 43.7075 59.0977 45.9438 59.0977C48.1797 59.0977 49.9927 57.258 49.9927 54.9884C49.9927 52.7201 48.1797 50.8802 45.9438 50.8802Z" fill="white"/>
<path fill-rule="evenodd" clip-rule="evenodd" d="M45.9438 58.982C43.7706 58.982 42.0087 57.1942 42.0087 54.9885C42.0087 52.7842 43.7706 50.9962 45.9438 50.9962C48.1166 50.9962 49.8785 52.7842 49.8785 54.9885C49.8785 57.1942 48.1166 58.982 45.9438 58.982ZM41.7804 54.9885C41.7804 57.3221 43.6445 59.2136 45.9438 59.2136C48.2427 59.2136 50.1068 57.3221 50.1068 54.9885C50.1068 52.6563 48.2427 50.7645 45.9438 50.7645C43.6445 50.7645 41.7804 52.6563 41.7804 54.9885ZM43.1975 54.9885C43.1975 56.528 44.4272 57.7752 45.9438 57.7752C47.4601 57.7752 48.6892 56.5279 48.6892 54.9885C48.6892 53.4498 47.4601 52.202 45.9438 52.202C44.4272 52.202 43.1975 53.4497 43.1975 54.9885ZM45.9438 57.5435C44.5532 57.5435 43.4258 56.4 43.4258 54.9885C43.4258 53.5777 44.5532 52.4337 45.9438 52.4337C47.3339 52.4337 48.4609 53.5776 48.4609 54.9885C48.4609 56.4 47.334 57.5435 45.9438 57.5435Z" fill="white"/>
<path d="M106.012 18.7578H108.245C108.485 18.7578 108.68 18.8119 108.831 18.9194C108.982 19.0269 109.095 19.166 109.171 19.3367L112.669 27.7071C112.785 27.979 112.897 28.2783 113.003 28.6042C113.109 28.9295 113.21 29.273 113.307 29.6334C113.464 28.9063 113.66 28.2642 113.893 27.7071L117.38 19.3367C117.443 19.1913 117.552 19.0585 117.71 18.9384C117.868 18.8182 118.063 18.7578 118.296 18.7578H120.528L114.52 32.4807H112.02L106.012 18.7578Z" fill="white"/>
<path d="M135.825 25.6191C135.825 26.6251 135.644 27.5567 135.28 28.4137C134.917 29.2715 134.406 30.0134 133.748 30.6393C133.089 31.2659 132.297 31.7549 131.371 32.1054C130.445 32.4567 129.42 32.6323 128.295 32.6323C127.17 32.6323 126.143 32.4567 125.214 32.1054C124.284 31.7549 123.489 31.2659 122.827 30.6393C122.165 30.0134 121.653 29.2715 121.289 28.4137C120.925 27.5567 120.744 26.6251 120.744 25.6191C120.744 24.6131 120.925 23.6816 121.289 22.8245C121.653 21.9668 122.165 21.2249 122.827 20.599C123.489 19.9723 124.284 19.4834 125.214 19.1328C126.143 18.7816 127.17 18.606 128.295 18.606C129.42 18.606 130.445 18.783 131.371 19.1371C132.297 19.4918 133.089 19.9801 133.748 20.6039C134.406 21.227 134.917 21.9668 135.28 22.8245C135.644 23.6816 135.825 24.6131 135.825 25.6191ZM132.986 25.6191C132.986 24.866 132.878 24.1909 132.662 23.5931C132.446 22.9953 132.136 22.4873 131.731 22.07C131.327 21.6521 130.834 21.3324 130.255 21.1111C129.675 20.8898 129.022 20.7788 128.295 20.7788C127.568 20.7788 126.913 20.8898 126.33 21.1111C125.747 21.3324 125.251 21.6521 124.844 22.07C124.435 22.4873 124.121 22.9953 123.902 23.5931C123.683 24.1909 123.572 24.866 123.572 25.6191C123.572 26.3722 123.683 27.0473 123.902 27.6452C124.121 28.243 124.435 28.7495 124.844 29.164C125.251 29.5785 125.747 29.896 126.33 30.1173C126.913 30.3386 127.568 30.4496 128.295 30.4496C129.022 30.4496 129.675 30.3386 130.255 30.1173C130.834 29.896 131.327 29.5785 131.731 29.164C132.136 28.7495 132.446 28.243 132.662 27.6452C132.878 27.0473 132.986 26.3722 132.986 25.6191Z" fill="white"/>
<path d="M143.872 27.1472V32.4807H141.104V27.1472L135.683 18.7578H138.12C138.361 18.7578 138.551 18.8119 138.692 18.9194C138.832 19.0269 138.95 19.1625 139.047 19.3276L141.773 23.9107C141.93 24.1833 142.068 24.4411 142.184 24.6842C142.301 24.928 142.407 25.1668 142.504 25.4008C142.592 25.1605 142.694 24.9188 142.807 24.6751C142.92 24.4313 143.055 24.177 143.213 23.9107L145.919 19.3276C145.994 19.1878 146.108 19.0585 146.258 18.9384C146.409 18.8182 146.601 18.7578 146.835 18.7578H149.283L143.872 27.1472Z" fill="white"/>
<path d="M162.095 32.4807H159.955C159.715 32.4807 159.518 32.4252 159.364 32.3149C159.209 32.2039 159.098 32.0662 159.029 31.9018L157.918 29.1023H151.756L150.645 31.9018C150.59 32.0472 150.482 32.18 150.321 32.3001C150.159 32.4203 149.962 32.4807 149.729 32.4807H147.579L153.422 18.7578H156.252L162.095 32.4807ZM152.465 27.299H157.209L155.398 22.734C155.315 22.5317 155.224 22.2929 155.125 22.0175C155.026 21.7428 154.928 21.4435 154.832 21.1211C154.736 21.4435 154.641 21.7442 154.549 22.0224C154.457 22.3006 154.365 22.5444 154.276 22.753L152.465 27.299Z" fill="white"/>
<path d="M169.98 30.6014C170.605 30.6014 171.148 30.5494 171.611 30.4447C172.074 30.3407 172.515 30.1967 172.933 30.0134V27.5173H171.071C170.893 27.5173 170.752 27.4717 170.649 27.3796C170.546 27.2876 170.494 27.1752 170.494 27.0424V25.6002H175.443V31.1521C175.066 31.405 174.673 31.6249 174.265 31.8118C173.857 31.998 173.422 32.1518 172.959 32.2719C172.495 32.3921 172 32.482 171.472 32.5424C170.944 32.6021 170.375 32.6323 169.764 32.6323C168.681 32.6323 167.682 32.4581 166.77 32.1104C165.858 31.7626 165.069 31.2786 164.404 30.6583C163.739 30.0386 163.219 29.2982 162.846 28.4376C162.472 27.577 162.285 26.6378 162.285 25.6191C162.285 24.5879 162.466 23.6423 162.83 22.7817C163.194 21.9211 163.71 21.1807 164.378 20.5611C165.047 19.9407 165.858 19.4602 166.811 19.1181C167.765 18.7767 168.835 18.606 170.022 18.606C171.235 18.606 172.286 18.7717 173.175 19.104C174.063 19.4363 174.815 19.8684 175.433 20.3995L174.63 21.5572C174.473 21.7911 174.264 21.9085 174.003 21.9085C173.838 21.9085 173.67 21.8579 173.499 21.7567C173.279 21.6366 173.055 21.5165 172.825 21.3963C172.595 21.2755 172.341 21.1715 172.063 21.083C171.786 20.9945 171.473 20.9214 171.127 20.8645C170.781 20.8076 170.382 20.7788 169.929 20.7788C169.195 20.7788 168.531 20.8933 167.938 21.121C167.345 21.3486 166.839 21.6745 166.421 22.0981C166.002 22.5225 165.68 23.0318 165.454 23.6261C165.227 24.2211 165.114 24.885 165.114 25.6191C165.114 26.4102 165.234 27.1141 165.474 27.7309C165.714 28.3477 166.05 28.8683 166.482 29.2919C166.914 29.7155 167.429 30.0401 168.026 30.2649C168.622 30.489 169.274 30.6014 169.98 30.6014Z" fill="white"/>
<path d="M187.406 18.7578V20.7888H180.812V24.5943H186.007V26.5585H180.812V30.4406H187.406V32.4807H178.024V18.7578H187.406Z" fill="white"/>
<path d="M113.415 44.6811C113.482 44.6811 113.543 44.7064 113.597 44.757L114.075 45.2382C113.706 45.6323 113.259 45.94 112.733 46.1599C112.207 46.3805 111.573 46.4908 110.831 46.4908C110.181 46.4908 109.592 46.3875 109.065 46.1803C108.536 45.9738 108.086 45.6836 107.713 45.3106C107.339 44.9376 107.051 44.4901 106.845 43.9681C106.639 43.4461 106.537 42.8722 106.537 42.2455C106.537 41.6189 106.647 41.0449 106.867 40.523C107.087 40.001 107.396 39.5528 107.794 39.1777C108.192 38.8025 108.669 38.5117 109.225 38.3044C109.78 38.0979 110.393 37.9946 111.063 37.9946C111.726 37.9946 112.297 38.0895 112.777 38.2784C113.257 38.4681 113.683 38.7252 114.056 39.0498L113.66 39.5661C113.631 39.6048 113.597 39.6364 113.56 39.6617C113.522 39.687 113.467 39.6996 113.396 39.6996C113.342 39.6996 113.284 39.6814 113.223 39.6441C113.163 39.6076 113.091 39.5619 113.006 39.5078C112.922 39.4537 112.824 39.3961 112.711 39.3343C112.598 39.2725 112.463 39.2142 112.308 39.1601C112.153 39.106 111.973 39.0603 111.767 39.0238C111.563 38.9873 111.326 38.969 111.057 38.969C110.575 38.969 110.134 39.0449 109.734 39.198C109.334 39.3505 108.989 39.5683 108.7 39.85C108.41 40.1324 108.185 40.4766 108.024 40.8827C107.863 41.2887 107.782 41.7432 107.782 42.2455C107.782 42.7633 107.863 43.2255 108.024 43.6316C108.185 44.0376 108.406 44.3805 108.684 44.6608C108.963 44.9411 109.293 45.1546 109.675 45.3022C110.055 45.449 110.467 45.522 110.906 45.522C111.175 45.522 111.416 45.508 111.63 45.4785C111.843 45.4497 112.042 45.404 112.224 45.3422C112.406 45.2804 112.575 45.2024 112.733 45.1076C112.89 45.0127 113.048 44.8996 113.208 44.7682C113.279 44.7106 113.348 44.6811 113.415 44.6811Z" fill="white"/>
<path d="M124.047 42.2455C124.047 42.868 123.939 43.4391 123.726 43.959C123.512 44.4795 123.21 44.927 122.821 45.3022C122.431 45.6766 121.962 45.9681 121.415 46.1747C120.868 46.3819 120.264 46.4852 119.601 46.4852C118.939 46.4852 118.336 46.3819 117.791 46.1747C117.246 45.9681 116.779 45.6766 116.389 45.3022C115.999 44.927 115.697 44.4795 115.483 43.959C115.27 43.4391 115.163 42.868 115.163 42.2455C115.163 41.6231 115.27 41.052 115.483 40.5321C115.697 40.0115 115.999 39.5633 116.389 39.1861C116.779 38.8095 117.246 38.5166 117.791 38.3079C118.336 38.0986 118.939 37.9946 119.601 37.9946C120.264 37.9946 120.868 38.0986 121.415 38.3079C121.962 38.5166 122.431 38.8095 122.821 39.1861C123.21 39.5633 123.512 40.0115 123.726 40.5321C123.939 41.052 124.047 41.6231 124.047 42.2455ZM122.796 42.2455C122.796 41.7355 122.72 41.2768 122.569 40.8707C122.418 40.4654 122.204 40.1218 121.927 39.8415C121.651 39.5612 121.315 39.3456 120.921 39.1952C120.528 39.0442 120.088 38.969 119.601 38.969C119.119 38.969 118.682 39.0442 118.287 39.1952C117.893 39.3456 117.557 39.5612 117.278 39.8415C116.999 40.1218 116.785 40.4654 116.634 40.8707C116.483 41.2768 116.408 41.7355 116.408 42.2455C116.408 42.7556 116.483 43.2129 116.634 43.6168C116.785 44.0215 116.999 44.3636 117.278 44.6439C117.557 44.9242 117.893 45.1385 118.287 45.2874C118.682 45.4363 119.119 45.5108 119.601 45.5108C120.088 45.5108 120.528 45.4363 120.921 45.2874C121.315 45.1385 121.651 44.9242 121.927 44.6439C122.204 44.3636 122.418 44.0215 122.569 43.6168C122.72 43.2129 122.796 42.7556 122.796 42.2455Z" fill="white"/>
<path d="M126.341 38.0874C126.45 38.0874 126.531 38.1 126.583 38.1253C126.636 38.1499 126.696 38.2012 126.763 38.2785L131.981 44.5421C131.968 44.4416 131.96 44.344 131.956 44.2491C131.952 44.1543 131.949 44.063 131.949 43.9738V38.0874H133.018V46.3981H132.402C132.305 46.3981 132.225 46.3827 132.16 46.3518C132.095 46.3209 132.031 46.2689 131.968 46.1951L126.756 39.9371C126.765 40.0341 126.771 40.1289 126.775 40.2216C126.779 40.3144 126.781 40.3994 126.781 40.4766V46.3981H125.712V38.0874H126.341Z" fill="white"/>
<path d="M141.355 38.0874V39.0323H138.444V46.3981H137.224V39.0323H134.301V38.0874H141.355Z" fill="white"/>
<path d="M143.976 42.9298V46.3981H142.763V38.0874H145.31C145.879 38.0874 146.372 38.1408 146.787 38.2469C147.202 38.353 147.544 38.5068 147.814 38.7077C148.085 38.9086 148.285 39.1517 148.415 39.4355C148.545 39.72 148.61 40.0376 148.61 40.3895C148.61 40.6839 148.559 40.9579 148.459 41.2136C148.359 41.4686 148.213 41.6976 148.022 41.9006C147.832 42.1037 147.599 42.2765 147.324 42.4198C147.05 42.5624 146.739 42.6706 146.391 42.7444C146.541 42.8259 146.676 42.9432 146.793 43.0984L149.421 46.3981H148.34C148.118 46.3981 147.954 46.3187 147.849 46.16L145.51 43.1912C145.439 43.0984 145.361 43.0317 145.278 42.9909C145.194 42.9502 145.069 42.9298 144.9 42.9298H143.976ZM143.976 42.1121H145.253C145.609 42.1121 145.922 42.0728 146.192 41.9934C146.463 41.914 146.689 41.8016 146.871 41.6569C147.054 41.5122 147.191 41.3386 147.283 41.1377C147.375 40.9368 147.422 40.7148 147.422 40.471C147.422 39.9758 147.245 39.6027 146.89 39.3519C146.536 39.1004 146.01 38.9747 145.31 38.9747H143.976V42.1121Z" fill="white"/>
<path d="M158.84 42.2455C158.84 42.868 158.733 43.4391 158.519 43.959C158.306 44.4795 158.004 44.927 157.614 45.3022C157.225 45.6766 156.756 45.9681 156.209 46.1747C155.662 46.3819 155.058 46.4852 154.395 46.4852C153.733 46.4852 153.129 46.3819 152.585 46.1747C152.04 45.9681 151.572 45.6766 151.183 45.3022C150.793 44.927 150.491 44.4795 150.277 43.959C150.064 43.4391 149.956 42.868 149.956 42.2455C149.956 41.6231 150.064 41.052 150.277 40.5321C150.491 40.0115 150.793 39.5633 151.183 39.1861C151.572 38.8095 152.04 38.5166 152.585 38.3079C153.129 38.0986 153.733 37.9946 154.395 37.9946C155.058 37.9946 155.662 38.0986 156.209 38.3079C156.756 38.5166 157.225 38.8095 157.614 39.1861C158.004 39.5633 158.306 40.0115 158.519 40.5321C158.733 41.052 158.84 41.6231 158.84 42.2455ZM157.589 42.2455C157.589 41.7355 157.513 41.2768 157.363 40.8707C157.212 40.4654 156.998 40.1218 156.721 39.8415C156.445 39.5612 156.109 39.3456 155.715 39.1952C155.321 39.0442 154.882 38.969 154.395 38.969C153.913 38.969 153.475 39.0442 153.081 39.1952C152.687 39.3456 152.351 39.5612 152.072 39.8415C151.793 40.1218 151.579 40.4654 151.428 40.8707C151.277 41.2768 151.201 41.7355 151.201 42.2455C151.201 42.7556 151.277 43.2129 151.428 43.6168C151.579 44.0215 151.793 44.3636 152.072 44.6439C152.351 44.9242 152.687 45.1385 153.081 45.2874C153.475 45.4363 153.913 45.5108 154.395 45.5108C154.882 45.5108 155.321 45.4363 155.715 45.2874C156.109 45.1385 156.445 44.9242 156.721 44.6439C156.998 44.3636 157.212 44.0215 157.363 43.6168C157.513 43.2129 157.589 42.7556 157.589 42.2455Z" fill="white"/>
<path d="M161.726 45.4525H165.624V46.3981H160.506V38.0874H161.726V45.4525Z" fill="white"/>
</svg>
