<svg width="17" height="20" viewBox="0 0 17 20" fill="none" xmlns="http://www.w3.org/2000/svg">
<path fill-rule="evenodd" clip-rule="evenodd" d="M6.93672 17.0476C7.37832 16.918 7.8414 17.1709 7.97103 17.6125C8.02322 17.7903 8.13159 17.9464 8.27992 18.0574C8.42825 18.1685 8.60855 18.2285 8.79384 18.2285C8.97912 18.2285 9.15943 18.1685 9.30775 18.0574C9.45608 17.9464 9.56445 17.7903 9.61664 17.6125C9.74628 17.1709 10.2094 16.918 10.651 17.0476C11.0926 17.1773 11.3455 17.6403 11.2158 18.0819C11.0622 18.6053 10.7432 19.0648 10.3066 19.3916C9.86998 19.7185 9.33924 19.8951 8.79384 19.8951C8.24843 19.8951 7.71769 19.7185 7.28108 19.3916C6.84447 19.0648 6.52547 18.6053 6.37185 18.0819C6.24221 17.6403 6.49511 17.1773 6.93672 17.0476Z" fill="#576473"/>
<path fill-rule="evenodd" clip-rule="evenodd" d="M8.79232 0C9.25255 0 9.62565 0.373096 9.62565 0.833333V2.65625C9.62565 3.11649 9.25255 3.48958 8.79232 3.48958C8.33208 3.48958 7.95898 3.11649 7.95898 2.65625V0.833333C7.95898 0.373096 8.33208 0 8.79232 0Z" fill="#576473"/>
<path fill-rule="evenodd" clip-rule="evenodd" d="M8.792 3.48942C7.40145 3.48942 6.06786 4.04181 5.0846 5.02508C4.10134 6.00834 3.54894 7.34193 3.54894 8.73248C3.54894 11.3631 3.23755 13.1154 2.90723 14.2347C2.8707 14.3585 2.83394 14.4746 2.79735 14.5832H14.7195C14.7069 14.5454 14.6943 14.5068 14.6817 14.4673C14.3437 13.402 14.0351 11.6394 14.0351 8.73248C14.0351 7.34193 13.4827 6.00834 12.4994 5.02508C11.5161 4.04181 10.1825 3.48942 8.792 3.48942ZM8.792 1.82275C6.95943 1.82275 5.20191 2.55074 3.90609 3.84656C2.61026 5.14239 1.88228 6.8999 1.88228 8.73248C1.88228 11.2335 1.58603 12.8233 1.30871 13.763C1.17014 14.2326 1.03628 14.54 0.946288 14.7183C0.901264 14.8075 0.867075 14.8646 0.848535 14.8939C0.841097 14.9056 0.836155 14.9129 0.834016 14.916C0.646463 15.1657 0.614004 15.4999 0.751157 15.7814C0.890748 16.068 1.18158 16.2498 1.50033 16.2498H16.0837C16.4373 16.2498 16.7525 16.0266 16.8698 15.693C16.9802 15.3792 16.8929 15.0319 16.6526 14.8076C16.6441 14.7971 16.6253 14.7726 16.5986 14.7303C16.5285 14.6192 16.4044 14.3857 16.2703 13.9631C16.0007 13.1136 15.7017 11.5341 15.7017 8.73248C15.7017 6.8999 14.9737 5.14239 13.6779 3.84656C12.3821 2.55074 10.6246 1.82275 8.792 1.82275Z" fill="#576473"/>
</svg>
