<svg width="16" height="12" viewBox="0 0 16 12" fill="none" xmlns="http://www.w3.org/2000/svg">
<path fill-rule="evenodd" clip-rule="evenodd" d="M8 1.33333C7.26362 1.33333 6.66667 1.93029 6.66667 2.66667C6.66667 3.40305 7.26362 4 8 4C8.73638 4 9.33333 3.40305 9.33333 2.66667C9.33333 1.93029 8.73638 1.33333 8 1.33333ZM5.33333 2.66667C5.33333 1.19391 6.52724 0 8 0C9.47276 0 10.6667 1.19391 10.6667 2.66667C10.6667 4.13943 9.47276 5.33333 8 5.33333C6.52724 5.33333 5.33333 4.13943 5.33333 2.66667ZM2.66667 4C2.29848 4 2 4.29848 2 4.66667C2 5.03486 2.29848 5.33333 2.66667 5.33333C3.03486 5.33333 3.33333 5.03486 3.33333 4.66667C3.33333 4.29848 3.03486 4 2.66667 4ZM0.666667 4.66667C0.666667 3.5621 1.5621 2.66667 2.66667 2.66667C3.77124 2.66667 4.66667 3.5621 4.66667 4.66667C4.66667 5.77124 3.77124 6.66667 2.66667 6.66667C1.5621 6.66667 0.666667 5.77124 0.666667 4.66667ZM13.3333 4C12.9651 4 12.6667 4.29848 12.6667 4.66667C12.6667 5.03486 12.9651 5.33333 13.3333 5.33333C13.7015 5.33333 14 5.03486 14 4.66667C14 4.29848 13.7015 4 13.3333 4ZM11.3333 4.66667C11.3333 3.5621 12.2288 2.66667 13.3333 2.66667C14.4379 2.66667 15.3333 3.5621 15.3333 4.66667C15.3333 5.77124 14.4379 6.66667 13.3333 6.66667C12.2288 6.66667 11.3333 5.77124 11.3333 4.66667ZM4.64353 7.82333C5.35672 6.72583 6.5936 6 8 6C9.4064 6 10.6433 6.72583 11.3565 7.82333C11.8283 7.51381 12.3932 7.33333 13 7.33333C14.6569 7.33333 16 8.67648 16 10.3333V12H0V10.3333C0 8.67648 1.34315 7.33333 3 7.33333C3.60685 7.33333 4.17166 7.51381 4.64353 7.82333ZM5.3342 9.93117C5.33362 9.95404 5.33333 9.97699 5.33333 10V10.6667H10.6667V10C10.6667 9.97555 10.6663 9.95118 10.6657 9.92689C10.627 8.48793 9.44831 7.33333 8 7.33333C6.55025 7.33333 5.37071 8.49022 5.3342 9.93117ZM12 10V10.6667H14.6667V10.3333C14.6667 9.41286 13.9205 8.66667 13 8.66667C12.5763 8.66667 12.1896 8.82433 11.895 9.08554C11.9561 9.34701 11.9916 9.61835 11.9987 9.89676C11.9996 9.93107 12 9.96548 12 10ZM4 10.6667V10C4 9.96253 4.00051 9.92518 4.00154 9.88795C4.00911 9.61263 4.04451 9.34426 4.10501 9.08554C3.81044 8.82433 3.42372 8.66667 3 8.66667C2.07953 8.66667 1.33333 9.41286 1.33333 10.3333V10.6667H4Z" fill="#141F2B"/>
</svg>
