<svg width="20" height="17" viewBox="0 0 20 17" fill="none" xmlns="http://www.w3.org/2000/svg">
<path fill-rule="evenodd" clip-rule="evenodd" d="M5.83333 2.33317C4.91286 2.33317 4.16667 3.07936 4.16667 3.99984C4.16667 4.92031 4.91286 5.6665 5.83333 5.6665C6.75381 5.6665 7.5 4.92031 7.5 3.99984C7.5 3.07936 6.75381 2.33317 5.83333 2.33317ZM2.5 3.99984C2.5 2.15889 3.99238 0.666504 5.83333 0.666504C7.67428 0.666504 9.16667 2.15889 9.16667 3.99984C9.16667 5.84079 7.67428 7.33317 5.83333 7.33317C3.99238 7.33317 2.5 5.84079 2.5 3.99984ZM13.75 4.83317C13.0596 4.83317 12.5 5.39281 12.5 6.08317C12.5 6.77353 13.0596 7.33317 13.75 7.33317C14.4404 7.33317 15 6.77353 15 6.08317C15 5.39281 14.4404 4.83317 13.75 4.83317ZM10.8333 6.08317C10.8333 4.47234 12.1392 3.1665 13.75 3.1665C15.3608 3.1665 16.6667 4.47234 16.6667 6.08317C16.6667 7.694 15.3608 8.99984 13.75 8.99984C12.1392 8.99984 10.8333 7.694 10.8333 6.08317ZM0 13.9998C0 10.7782 2.61167 8.1665 5.83333 8.1665C7.8631 8.1665 9.65073 9.2032 10.6956 10.776C11.565 10.1815 12.6172 9.83317 13.75 9.83317C16.7415 9.83317 19.1667 12.2583 19.1667 15.2498V16.4998H0V13.9998ZM11.6648 13.8493C11.6513 13.3161 11.5662 12.8006 11.4188 12.3122C12.0593 11.8031 12.8687 11.4998 13.75 11.4998C15.6802 11.4998 17.2698 12.9582 17.4771 14.8332H11.6667V13.9998C11.6667 13.9495 11.666 13.8993 11.6648 13.8493ZM10 13.9998C10 13.9606 9.99946 13.9214 9.99838 13.8824C9.93618 11.6355 8.09523 9.83317 5.83333 9.83317C3.53215 9.83317 1.66667 11.6987 1.66667 13.9998V14.8332H10V13.9998Z" fill="#576473"/>
</svg>
