<svg width="16" height="18" viewBox="0 0 16 18" fill="none" xmlns="http://www.w3.org/2000/svg">
<path d="M7.99967 8.25C6.35795 8.25 5.01384 6.90651 5.01384 5.26417H3.51384C3.51384 7.73516 5.52974 9.75 7.99967 9.75V8.25ZM5.01384 5.26417C5.01384 3.61444 6.36529 2.25 7.99967 2.25V0.75C5.52239 0.75 3.51384 2.80056 3.51384 5.26417H5.01384ZM7.99967 2.25C9.6414 2.25 10.9855 3.59349 10.9855 5.23583H12.4855C12.4855 2.76484 10.4696 0.75 7.99967 0.75V2.25ZM10.9855 5.23583C10.9855 6.88556 9.63406 8.25 7.99967 8.25V9.75C10.477 9.75 12.4855 7.69944 12.4855 5.23583H10.9855ZM13.833 15.75H2.16634V17.25H13.833V15.75ZM2.16634 15.75C2.14576 15.75 2.12551 15.7423 2.10813 15.7249C2.09075 15.7075 2.08301 15.6873 2.08301 15.6667H0.583008C0.583008 16.5392 1.29379 17.25 2.16634 17.25V15.75ZM2.08301 15.6667V14.8333H0.583008V15.6667H2.08301ZM2.08301 14.8333C2.08301 13.4142 3.24722 12.25 4.66634 12.25V10.75C2.41879 10.75 0.583008 12.5858 0.583008 14.8333H2.08301ZM4.66634 12.25H11.333V10.75H4.66634V12.25ZM11.333 12.25C12.7521 12.25 13.9163 13.4142 13.9163 14.8333H15.4163C15.4163 12.5858 13.5806 10.75 11.333 10.75V12.25ZM13.9163 14.8333V15.6667H15.4163V14.8333H13.9163ZM13.9163 15.6667C13.9163 15.6873 13.9086 15.7075 13.8912 15.7249C13.8738 15.7423 13.8536 15.75 13.833 15.75V17.25C14.7056 17.25 15.4163 16.5392 15.4163 15.6667H13.9163Z" fill="#576473"/>
</svg>
