<?xml version="1.0" encoding="UTF-8"?>
<svg width="283px" height="283px" viewBox="0 0 283 283" version="1.1" xmlns="http://www.w3.org/2000/svg" xmlns:xlink="http://www.w3.org/1999/xlink">
    <title>Artboard Copy 26</title>
    <g id="Artboard-Copy-26" stroke="none" stroke-width="1" fill="none" fill-rule="evenodd">
        <path d="M151.376892,5.11349001 C152.915313,7.50939021 155.563413,6.47537012 157.681893,6.96716017 C209.836857,19.2114712 238.02021,70.7485456 221.211078,123.74838 C211.854457,153.230563 195.776706,179.232385 178.337075,204.452387 C175.701584,208.235387 172.927384,211.917507 170.228844,215.650068 C168.513884,218.172068 165.966664,220.101398 165.348774,223.216068 C162.506558,224.734309 160.613067,227.574547 160.304773,230.782069 C154.390683,233.947179 151.805632,240.26479 147.152542,244.65307 C140.923201,250.541941 136.686241,249.911441 131.074791,243.39207 C127.29179,238.95335 124.99677,232.774449 118.64133,230.782069 C119.38532,227.150389 115.955399,225.662409 114.694399,223.039528 C113.105539,221.021928 112.298499,218.386438 109.940429,216.974118 C96.5359977,197.655596 82.9802466,178.475785 72.4256757,157.429693 C64.128295,140.910591 56.7136144,124.06363 54.0781241,105.526928 C47.5066613,60.5347906 76.331416,17.9566195 120.54544,7.3454602 C122.84046,6.77801015 125.58944,7.3454602 127.41789,5.11349001 L151.376892,5.11349001 Z" id="Path" fill="#5D5D5D" fill-rule="nonzero"></path>
        <g id="search-(8)" transform="translate(98.000000, 56.000000)" stroke="#FFFFFF" stroke-linecap="round" stroke-linejoin="round" stroke-width="9.39999962">
            <circle id="Oval" cx="37.5999985" cy="37.5999985" r="37.5999985"></circle>
            <line x1="84.5999966" y1="84.5999966" x2="64.1549974" y2="64.1549974" id="Path"></line>
        </g>
    </g>
</svg>