<?xml version="1.0" encoding="UTF-8"?>
<svg width="144px" height="144px" viewBox="0 0 144 144" version="1.1" xmlns="http://www.w3.org/2000/svg" xmlns:xlink="http://www.w3.org/1999/xlink">
    <title>angry</title>
    <g id="Student-Web-Experience" stroke="none" stroke-width="1" fill="none" fill-rule="evenodd">
        <g id="1.04-Student-Home" transform="translate(-502.000000, -969.000000)">
            <g id="Group-2" transform="translate(99.000000, 473.000000)">
                <g id="Moods" transform="translate(0.600000, 0.600000)">
                    <g id="angry" transform="translate(402.300000, 495.550024)">
                        <path d="M143.938465,71.7185347 C143.938465,111.237134 111.904931,143.27133 72.3871481,143.27133 C32.8634511,143.27133 0.832874534,111.237134 0.832874534,71.7185347 C0.832874534,32.1999351 32.8634511,0.165739637 72.3871481,0.165739637 C111.904931,0.165739637 143.938465,32.1999351 143.938465,71.7185347" id="Fill-1" fill="#E25674"></path>
                        <path d="M72.3842385,75.2726618 C86.809282,75.2726618 100.312725,81.1837988 109.44,91.4990834 C112.16473,94.5802344 111.927175,99.3290035 108.910509,102.112261 C105.890981,104.889678 101.234325,104.650195 98.509595,101.571965 C92.1728795,94.4079235 82.6477714,90.2987487 72.3842385,90.2987487 C62.1207056,90.2987487 52.5955975,94.4079235 46.2617441,101.571965 C43.5370137,104.653116 38.8803578,104.895519 35.8608298,102.112261 C32.844164,99.3290035 32.6066087,94.5802344 35.3313391,91.4990834 C44.4557516,81.1837988 57.9620571,75.2726618 72.3842385,75.2726618" id="Fill-2" fill="#841238"></path>
                        <path d="M60.4263354,47.6834767 L41.3074286,43.1040978 C38.4539031,42.4206956 35.2683727,44.313194 34.4641193,47.0059155 C34.3181516,47.3885039 34.1922186,47.7798539 34.1034932,48.1799654 C33.1418236,52.3446302 33.8287304,56.6377979 36.044005,60.2826096 C38.2564174,63.9245009 41.7195727,66.4624347 45.7952199,67.4408096 C46.9715478,67.7241003 48.179359,67.8672059 49.3843081,67.8672059 C56.7084522,67.8672059 62.9936497,62.7796561 64.6708472,55.5046352 C64.7595727,55.1016032 64.819677,54.7073327 64.8425739,54.3977573 C65.3205466,51.342891 63.3800348,48.3931636 60.4263354,47.6834767" id="Fill-3" fill="#841238"></path>
                        <path d="M110.201322,48.25199 C110.10401,47.8285142 109.972353,47.4284027 109.9008,47.2648534 C109.027856,44.3969006 105.833739,42.4956406 102.991662,43.1761223 L83.8756174,47.7555012 C80.9190559,48.4622676 78.975682,51.3740282 79.436482,54.29163 C79.4851379,54.7939598 79.5423801,55.1823893 79.6339677,55.5766598 C81.305441,62.8546012 87.5935006,67.9363099 94.9205068,67.9363099 C96.1225938,67.9363099 97.330405,67.7961248 98.5067329,67.5128342 C102.58238,66.5344592 106.045535,63.9936049 108.257948,60.3546342 C110.467498,56.7127429 111.160129,52.4166547 110.201322,48.25199" id="Fill-4" fill="#841238"></path>
                    </g>
                </g>
            </g>
        </g>
    </g>
</svg>