<?xml version="1.0" encoding="UTF-8"?>
<svg width="144px" height="144px" viewBox="0 0 144 144" version="1.1" xmlns="http://www.w3.org/2000/svg" xmlns:xlink="http://www.w3.org/1999/xlink">
    <title>confused</title>
    <g id="Student-Web-Experience" stroke="none" stroke-width="1" fill="none" fill-rule="evenodd">
        <g id="1.04-Student-Home" transform="translate(-503.000000, -719.000000)">
            <g id="Group-2" transform="translate(99.000000, 473.000000)">
                <g id="Moods" transform="translate(0.600000, 0.600000)">
                    <g id="confused" transform="translate(403.200000, 245.145800)">
                        <path d="M143.938465,71.8966865 C143.938465,112.679237 112.185849,143.449482 72.3871481,143.449482 C32.8693651,143.449482 0.832874534,111.413653 0.832874534,71.8966865 C0.832874534,32.3767632 32.8693651,0.343891494 72.3871481,0.343891494 C111.904931,0.343891494 143.938465,32.3767632 143.938465,71.8966865" id="Fill-1" fill="#6BCD83"></path>
                        <path d="M58.7835572,47.2991476 L40.0310007,47.0947111 C37.2289932,47.0655059 34.6445063,49.509983 34.4470205,52.1910224 C34.3897783,52.5765313 34.3525709,52.9708018 34.3497087,53.3621518 C34.3067771,57.4450419 35.8236963,61.3030518 38.6342901,64.2264946 C41.4391597,67.1499373 45.185664,68.7795888 49.1868963,68.8263171 C50.3431895,68.8350787 51.4937584,68.7124168 52.6185684,68.4554108 C59.4418429,66.8958519 64.2645013,60.8211656 64.3417783,53.6834093 C64.3417783,53.2891388 64.3188814,52.9065504 64.2730876,52.6174187 C64.0956367,49.6676912 61.6857386,47.3283529 58.7835572,47.2991476" id="Fill-2" fill="#126D2B"></path>
                        <path d="M84.1876615,64.0074554 L102.940218,64.2060509 C105.745088,64.2381767 108.326712,61.7966201 108.52706,59.1155806 C108.58144,58.7271512 108.62151,58.3358012 108.62151,57.9415307 C108.667304,53.8557201 107.150385,50.0006307 104.336929,47.077188 C101.534921,44.1508247 97.7855547,42.5211732 93.7871845,42.4802859 C92.6308914,42.4656833 91.4803224,42.5883453 90.3555125,42.8482717 C83.5293758,44.4049101 78.7095796,50.4825169 78.6323025,57.6202733 C78.6294404,58.0145438 78.6551994,58.3971322 78.6981311,58.6891844 C78.875582,61.6389119 81.2883423,63.9753297 84.1876615,64.0074554" id="Fill-3" fill="#126D2B"></path>
                        <path d="M98.3121833,106.714252 C96.8553684,106.714252 95.3928292,106.217763 94.1792938,105.198501 C93.4780764,104.623158 77.9110504,92.111641 51.9459721,97.9205597 C48.4141261,98.7061802 44.9566951,96.4340139 44.186787,92.8476126 C43.419741,89.2641318 45.6436019,85.7186178 49.1554131,84.9329973 C81.6489684,77.6754995 101.643681,94.2494633 102.479418,94.9562297 C105.24708,97.301409 105.622017,101.492358 103.323741,104.319424 C102.035791,105.896506 100.181142,106.714252 98.3121833,106.714252" id="Fill-4" fill="#126D2B"></path>
                    </g>
                </g>
            </g>
        </g>
    </g>
</svg>