<?xml version="1.0" encoding="UTF-8"?>
<svg width="144px" height="144px" viewBox="0 0 144 144" version="1.1" xmlns="http://www.w3.org/2000/svg" xmlns:xlink="http://www.w3.org/1999/xlink">
    <title>happy</title>
    <g id="Student-Web-Experience" stroke="none" stroke-width="1" fill="none" fill-rule="evenodd">
        <g id="1.04-Student-Home" transform="translate(-101.000000, -473.000000)">
            <g id="Group-2" transform="translate(99.000000, 473.000000)">
                <g id="Moods" transform="translate(0.600000, 0.600000)">
                    <g id="happy" transform="translate(0.900000, 0.145800)">
                        <path d="M143.60646,71.5827486 C143.60646,111.097575 111.569969,143.134065 72.0521861,143.134065 C32.5344031,143.134065 0.500869565,111.097575 0.500869565,71.5827486 C0.500869565,32.0649657 32.5344031,0.0284750919 72.0521861,0.0284750919 C111.569969,0.0284750919 143.60646,32.0649657 143.60646,71.5827486" id="Fill-1" fill="#FFAC00"></path>
                        <path d="M62.483116,56.8121891 C62.483116,64.2069515 56.6072004,70.1998631 49.3603334,70.1998631 C42.1191905,70.1998631 36.243275,64.2069515 36.243275,56.8121891 C36.243275,49.4174268 42.1191905,43.4245151 49.3603334,43.4245151 C56.6072004,43.4245151 62.483116,49.4174268 62.483116,56.8121891" id="Fill-2" fill="#A04F18"></path>
                        <path d="M107.867623,56.8121891 C107.867623,64.2069515 101.991707,70.1998631 94.7477023,70.1998631 C87.5008352,70.1998631 81.6277818,64.2069515 81.6277818,56.8121891 C81.6277818,49.4174268 87.5008352,43.4245151 94.7477023,43.4245151 C101.991707,43.4245151 107.867623,49.4174268 107.867623,56.8121891" id="Fill-3" fill="#A04F18"></path>
                        <path d="M72.0540178,112.085993 C57.6318365,112.085993 44.1255309,106.169015 35.0011184,95.856651 C32.276388,92.7784206 32.5110812,88.0267309 35.5306091,85.2463937 C38.547275,82.4660565 43.206793,82.7084599 45.9315234,85.7866903 C52.2682389,92.9507314 61.7904849,97.0599062 72.0540178,97.0599062 C82.3175507,97.0599062 91.8426588,92.9507314 98.1793743,85.7866903 C100.901243,82.7084599 105.557899,82.463136 108.580289,85.2463937 C111.594092,88.0267309 111.831648,92.7784206 109.106917,95.856651 C99.9825048,106.169015 86.4761992,112.085993 72.0540178,112.085993" id="Fill-4" fill="#A04F18"></path>
                    </g>
                </g>
            </g>
        </g>
    </g>
</svg>