<?xml version="1.0" encoding="UTF-8"?>
<svg width="144px" height="144px" viewBox="0 0 144 144" version="1.1" xmlns="http://www.w3.org/2000/svg" xmlns:xlink="http://www.w3.org/1999/xlink">
    <title>sad</title>
    <g id="Student-Web-Experience" stroke="none" stroke-width="1" fill="none" fill-rule="evenodd">
        <g id="1.04-Student-Home" transform="translate(-300.000000, -969.000000)">
            <g id="Group-2" transform="translate(99.000000, 473.000000)">
                <g id="Moods" transform="translate(0.600000, 0.600000)">
                    <g id="sad" transform="translate(199.800000, 495.550024)">
                        <path d="M143.775324,71.7170562 C143.775324,111.234839 111.741791,143.27133 72.2240077,143.27133 C32.7032677,143.27133 0.669734161,111.234839 0.669734161,71.7170562 C0.669734161,32.1992732 32.7032677,0.165739637 72.2240077,0.165739637 C111.741791,0.165739637 143.775324,32.1992732 143.775324,71.7170562" id="Fill-1" fill="#6599FE"></path>
                        <path d="M72.2719449,80.6611738 C86.6969884,80.6611738 100.200432,86.5723108 109.327706,96.8875954 C112.052437,99.9658258 111.814882,104.717516 108.798216,107.497853 C105.778688,110.275269 101.122032,110.032866 98.3973015,106.960477 C92.0605859,99.7964355 82.5354779,95.6843402 72.2719449,95.6843402 C62.008412,95.6843402 52.4861661,99.7964355 46.1494505,106.960477 C43.4247201,110.035787 38.7680642,110.28111 35.7485362,107.497853 C32.7318704,104.717516 32.4971772,99.9658258 35.2219077,96.8875954 C44.343458,86.5723108 57.8497636,80.6611738 72.2719449,80.6611738" id="Fill-2" fill="#1D499D"></path>
                        <path d="M60.9007748,50.4016428 C59.4639946,47.7673317 56.0466331,46.6283281 53.3619723,47.9104373 L35.5653611,56.3770313 C32.8950108,57.6474585 31.5297834,61.0732311 32.5486952,63.7630321 C32.6660418,64.1543821 32.8034232,64.539891 32.978012,64.9137178 C34.743935,68.7863303 37.8893959,71.7302168 41.8391102,73.1933984 C43.5792741,73.8446749 45.3909909,74.1717734 47.2256046,74.1717734 C49.515294,74.1717734 51.7391549,73.666523 53.8370828,72.6677044 C54.9361338,72.1449309 55.9722182,71.4936545 56.9167151,70.7372392 C62.672422,66.116973 64.5270704,58.1585499 61.4302654,51.3654151 C61.2585387,50.9945088 61.0667772,50.6469667 60.9007748,50.4016428" id="Fill-3" fill="#1D499D"></path>
                        <path d="M108.895528,56.3770313 L91.0989164,47.9104373 C88.4199797,46.6312486 84.9739971,47.8052985 83.6116319,50.3081861 C83.3941114,50.6469667 83.2023499,50.9945088 83.024899,51.3770972 C79.9309561,58.1585499 81.7913288,66.116973 87.5470356,70.7372392 C88.4886704,71.496575 89.5247549,72.1449309 90.6238058,72.6677044 C92.7217338,73.666523 94.9455946,74.1717734 97.2352841,74.1717734 C99.0698977,74.1717734 100.881615,73.8446749 102.621778,73.1933984 C106.571493,71.7302168 109.716954,68.7863303 111.480015,64.9195589 C111.654603,64.539891 111.794847,64.1543821 111.877848,63.8594093 C112.931105,61.0732311 111.565878,57.6474585 108.895528,56.3770313" id="Fill-4" fill="#1D499D"></path>
                    </g>
                </g>
            </g>
        </g>
    </g>
</svg>