<?xml version="1.0" encoding="UTF-8"?>
<svg width="78px" height="65px" viewBox="0 0 78 65" version="1.1" xmlns="http://www.w3.org/2000/svg" xmlns:xlink="http://www.w3.org/1999/xlink">
    <title>Group 2</title>
    <g id="Educator---Admin-Dashboard" stroke="none" stroke-width="1" fill="none" fill-rule="evenodd">
        <g id="Group-2" transform="translate(1.000000, 1.000000)">
            <path d="M36.3325037,4.6457715 L36.3325037,26.9334876 C24.46843,32.5104683 32.2738936,27.0460664 34.6842346,25.6316148" id="Path" stroke="#000000" stroke-width="1.09692166" stroke-linecap="round"></path>
            <path d="M44.9115857,3.87792634 L44.9115857,26.2002821 C57.0354567,32.4527356 46.6204742,24.6501586 46.6204742,24.6501586" id="Path" stroke="#000000" stroke-width="1.09692166" stroke-linecap="round" stroke-linejoin="round"></path>
            <line x1="9.87359863" y1="60.2741328" x2="65.6001055" y2="60.2741328" id="Path" stroke="#C1A5EF" stroke-width="6.58152995" opacity="0.3" stroke-linecap="round"></line>
            <g id="Group" transform="translate(0.437186, 0.434170)" stroke="#6D2995">
                <g transform="translate(16.453825, 28.866359)" fill-rule="nonzero" id="Path">
                    <g>
                        <line x1="2.49982673" y1="0.207837788" x2="2.49982673" y2="27.7319115" stroke-width="2.19384332" fill="#FFFFFF"></line>
                        <path d="M3.24746544,26.7937548 L1.75507465,26.7937548 C1.19895316,26.7941474 0.722118788,27.1909027 0.620626728,27.7376848 L0.277117051,29.6139982 C0.216539151,29.9498462 0.307631604,30.2952887 0.525941439,30.5575947 C0.744251273,30.8199006 1.06741361,30.9721979 1.40867834,30.9736037 L3.59386175,30.9736037 C3.93512648,30.9721979 4.25828882,30.8199006 4.47659865,30.5575947 C4.69490849,30.2952887 4.78600094,29.9498462 4.72542304,29.6139982 L4.38191336,27.7376848 C4.2804213,27.1909027 3.80358694,26.7941474 3.24746544,26.7937548 Z" stroke-width="1.64538249" fill="#6D2995"></path>
                    </g>
                    <g transform="translate(36.948940, 0.000000)">
                        <line x1="2.24291613" y1="0.207837788" x2="2.24291613" y2="27.7319115" stroke-width="2.19384332" fill="#FFFFFF"></line>
                        <path d="M2.99055484,26.7937548 L1.49816406,26.7937548 C0.942042557,26.7941474 0.465208189,27.1909027 0.363716129,27.7376848 L0.0202064516,29.6139982 C-0.040371448,29.9498462 0.0507210053,30.2952887 0.26903084,30.5575947 C0.487340674,30.8199006 0.810503008,30.9721979 1.15176774,30.9736037 L3.33695115,30.9736037 C3.67821589,30.9721979 4.00137822,30.8199006 4.21968805,30.5575947 C4.43799789,30.2952887 4.52909034,29.9498462 4.46851244,29.6139982 L4.12500276,27.7376848 C4.0235107,27.1909027 3.54667634,26.7941474 2.99055484,26.7937548 Z" stroke-width="1.64538249" fill="#6D2995"></path>
                    </g>
                </g>
                <path d="M58.7026286,31.9521733 L15.8995908,31.9521733 C11.3084925,31.9521733 7.15362274,29.2320581 5.31718341,25.024247 L2.19672995,17.8682765 L72.4054894,17.8682765 L69.2792627,25.0213604 C67.4445352,29.2283811 63.2923171,31.949308 58.7026286,31.9521733 L58.7026286,31.9521733 Z" id="Path" stroke-width="2.19384332" fill="#C1A5EF" fill-rule="nonzero"></path>
                <path d="M3.66602765,4.87264147 L70.9246452,4.87264147 C72.797883,4.87264147 74.3164424,6.39120082 74.3164424,8.26443871 L74.3164424,18.9449917 C74.3164424,21.7014413 72.0818985,23.9359853 69.3254488,23.9359853 L5.2681106,23.9359853 C2.51166098,23.9359853 0.277117051,21.7014413 0.277117051,18.9449917 L0.277117051,8.26443871 C0.277117051,6.39232754 1.79391716,4.87423476 3.66602765,4.87264147 Z" id="Path" stroke-width="2.19384332" fill="#EDE4FB" fill-rule="nonzero"></path>
                <path d="M0.288663594,15.9515502 L0.288663594,3.65736774 C0.288663594,1.78525658 1.80546371,0.267163793 3.67757419,0.265570507 L70.9361917,0.265570507 C72.8094296,0.265570507 74.3279889,1.78412985 74.3279889,3.65736774 L74.3279889,15.9515502" id="Path" stroke-width="2.19384332" fill="#EDE4FB" fill-rule="nonzero"></path>
                <path d="M74.3251023,15.9515502 C74.3251023,17.8247881 72.806543,19.3433475 70.9333051,19.3433475 L3.67468756,19.3433475 C1.80257707,19.3417542 0.285776959,17.8236614 0.285776959,15.9515502" id="Path" stroke-width="1.09692166"></path>
            </g>
            <g id="Group" transform="translate(21.220965, 3.898133)" fill="#FFFFFF" fill-rule="nonzero" stroke="#6D2995" stroke-linejoin="round" stroke-width="1.09692166">
                <rect id="Rectangle" x="1.33073917" y="4.45985253" width="30.5406083" height="9.14197604"></rect>
                <path d="M32.4804276,11.8871668 L32.4804276,11.8871668 C27.2165096,11.5923715 21.9381045,12.0866443 16.8204276,13.3535779 L16.5981567,13.408424 L16.3787724,13.3535779 C11.2610955,12.0866443 5.98269038,11.5923715 0.71877235,11.8871668 L0.71877235,11.8871668 L0.71877235,2.38147465 L0.71877235,2.38147465 C5.98257349,2.08425713 11.2611965,2.57757729 16.3787724,3.84499908 L16.5981567,3.89984516 L16.8204276,3.84499908 C21.9380035,2.57757729 27.2166265,2.08425713 32.4804276,2.38147465 L32.4804276,2.38147465 L32.4804276,11.8871668 Z" id="Path"></path>
                <path d="M32.9711558,10.1032258 L32.699812,10.085906 C27.4723294,9.79172113 22.2372391,10.5101861 17.2822894,12.2018101 L16.5981567,12.4356276 L15.914024,12.2018101 C10.9601185,10.5099882 5.72593315,9.79151293 0.499388018,10.085906 L0.22804424,10.1032258 L0.22804424,0.288663594 L0.499388018,0.288663594 C5.72593315,-0.00572946845 10.9601185,0.71274578 15.914024,2.40456774 L16.5981567,2.63838525 L17.2822894,2.40456774 C22.2372391,0.712943666 27.4723294,-0.00552126583 32.699812,0.288663594 L32.9711558,0.288663594 L32.9711558,10.1032258 Z" id="Path"></path>
                <line x1="16.5981567" y1="2.62683871" x2="16.5981567" y2="13.408424" id="Path"></line>
            </g>
            <g id="Group" transform="translate(57.881241, 9.960068)" stroke="#6D2995" stroke-linecap="round">
                <line x1="2.52869309" y1="0.262683871" x2="0.0230930876" y2="7.15308387" id="Path" stroke-width="1.09692166"></line>
                <line x1="2.52869309" y1="0.262683871" x2="1.14888111" y2="4.05861014" id="Path" stroke-width="1.64538249"></line>
            </g>
        </g>
    </g>
</svg>