<?xml version="1.0" encoding="UTF-8"?>
<svg width="18px" height="5px" viewBox="0 0 18 5" version="1.1" xmlns="http://www.w3.org/2000/svg" xmlns:xlink="http://www.w3.org/1999/xlink">
    <title>…</title>
    <g id="Page-1" stroke="none" stroke-width="1" fill="none" fill-rule="evenodd">
        <g id="Open-menu" transform="translate(-1368.000000, -100.000000)" fill="#652D90" fill-rule="nonzero">
            <path d="M1383.83,104.21 C1384.94,104.21 1385.51,103.64 1385.51,102.59 L1385.51,102.23 C1385.51,101.18 1384.94,100.58 1383.83,100.58 L1383.44,100.58 C1382.39,100.58 1381.82,101.18 1381.82,102.23 L1381.82,102.59 C1381.82,103.64 1382.39,104.21 1383.44,104.21 L1383.83,104.21 Z M1377.17,104.21 C1378.28,104.21 1378.82,103.64 1378.82,102.59 L1378.82,102.23 C1378.82,101.18 1378.28,100.58 1377.17,100.58 L1376.78,100.58 C1375.73,100.58 1375.16,101.18 1375.16,102.23 L1375.16,102.59 C1375.16,103.64 1375.73,104.21 1376.78,104.21 L1377.17,104.21 Z M1370.51,104.21 C1371.59,104.21 1372.16,103.64 1372.16,102.59 L1372.16,102.23 C1372.16,101.18 1371.62,100.58 1370.51,100.58 L1370.12,100.58 C1369.04,100.58 1368.5,101.18 1368.5,102.23 L1368.5,102.59 C1368.5,103.64 1369.07,104.21 1370.12,104.21 L1370.51,104.21 Z" id="…"></path>
        </g>
    </g>
</svg>