<?xml version="1.0" encoding="UTF-8"?>
<svg width="223px" height="186px" viewBox="0 0 223 186" version="1.1" xmlns="http://www.w3.org/2000/svg" xmlns:xlink="http://www.w3.org/1999/xlink">
    <title>Group 2</title>
    <g id="Student---iOS/Android" stroke="none" stroke-width="1" fill="none" fill-rule="evenodd">
        <g id="1.10c-Student-Journal---Empty-State" transform="translate(-241.000000, -516.000000)">
            <g id="Group-3" transform="translate(137.000000, 519.000000)">
                <g id="Group-2" transform="translate(106.000000, 0.000000)">
                    <g id="Group" transform="translate(101.604918, 0.000000)" fill-rule="nonzero" stroke="#6D2995">
                        <path d="M60.0160035,62.8104409 L0,62.8104409 L0,6.14223312 L0,6.14223312 C19.1699525,-2.04741104 40.846051,-2.04741104 60.0160035,6.14223312 L60.0160035,6.14223312 L60.0160035,62.8104409 Z" id="Path" stroke-width="5.11901071" fill="#C1A5EF"></path>
                        <rect id="Rectangle" stroke-width="2.55950536" fill="#FFFFFF" x="19.0669179" y="11.4380121" width="21.8821676" height="6.61129091" rx="3.3004148"></rect>
                    </g>
                    <line x1="66.6028794" y1="174.662689" x2="196.622961" y2="174.662689" id="Path" stroke="#C1A5EF" stroke-width="15.3570321" opacity="0.3" stroke-linecap="round"></line>
                    <g id="Group" transform="translate(45.232575, 35.434300)" stroke="#6D2995">
                        <g transform="translate(38.346963, 67.327228)" fill-rule="nonzero" id="Path">
                            <g>
                                <line x1="5.2287906" y1="0" x2="5.2287906" y2="64.3251621" stroke-width="5.11901071" fill="#FFFFFF"></line>
                                <path d="M6.97316776,62.1326421 L3.49114848,62.1326421 C2.19361583,62.1335596 1.08107447,63.060797 0.844275028,64.3386545 L0.0428044398,68.7236944 C-0.0985348237,69.5085884 0.114000447,70.3159051 0.623357018,70.9289275 C1.13271359,71.5419499 1.88671012,71.8978764 2.68294285,71.9011618 L7.77463835,71.9011618 C8.57205049,71.8998674 9.32791976,71.544791 9.83879473,70.9315057 C10.3496697,70.3182204 10.5630537,69.5097464 10.4215118,68.7236944 L9.61330617,64.3386545 C9.37697538,63.0632906 8.26816082,62.1368018 6.97316776,62.1326421 Z" stroke-width="3.83925803" fill="#6D2995"></path>
                            </g>
                            <g transform="translate(85.609182, 0.000000)">
                                <line x1="5.2287906" y1="0" x2="5.2287906" y2="64.3251621" stroke-width="5.11901071" fill="#FFFFFF"></line>
                                <path d="M6.97316776,62.1326421 L3.49114848,62.1326421 C2.19361583,62.1335596 1.08107447,63.060797 0.844275028,64.3386545 L0.0428044398,68.7236944 C-0.0985348237,69.5085884 0.114000447,70.3159051 0.623357018,70.9289275 C1.13271359,71.5419499 1.88671012,71.8978764 2.68294285,71.9011618 L7.77463835,71.9011618 C8.57205049,71.8998674 9.32791976,71.544791 9.83879473,70.9315057 C10.3496697,70.3182204 10.5630537,69.5097464 10.4215118,68.7236944 L9.61330617,64.3386545 C9.37697538,63.0632906 8.26816082,62.1368018 6.97316776,62.1326421 Z" stroke-width="3.83925803" fill="#6D2995"></path>
                            </g>
                        </g>
                        <path d="M136.31735,74.0532044 L36.4500741,74.0532044 C25.7382063,74.0532044 16.0441391,67.6961568 11.759392,57.8622879 L4.47880623,41.1384204 L168.288618,41.1384204 L161.008033,57.8622879 C156.723285,67.6961568 147.029218,74.0532044 136.31735,74.0532044 Z" id="Path" stroke-width="5.11901071" fill="#C1A5EF" fill-rule="nonzero"></path>
                        <path d="M7.90694513,10.7669595 L164.833539,10.7669595 C169.204144,10.7669595 172.747219,14.31591 172.747219,18.6937624 L172.747219,43.6547587 C172.747219,50.0967218 167.533622,55.3189648 161.102323,55.3189648 L11.6448962,55.3189648 C5.21359761,55.3189648 0,50.0967218 0,43.6547587 L0,18.6937624 C0,14.3185432 3.53897068,10.7706831 7.90694513,10.7669595 Z" id="Path" stroke-width="5.11901071" fill="#EDE4FB" fill-rule="nonzero"></path>
                        <path d="M0,36.6589335 L0,7.92680288 C0,3.55158374 3.53897068,0.00372359075 7.90694513,0 L164.833539,0 C169.204144,0 172.747219,3.54895053 172.747219,7.92680288 L172.747219,36.6589335" id="Path" stroke-width="5.11901071" fill="#EDE4FB" fill-rule="nonzero"></path>
                        <path d="M172.767425,36.6589335 C172.767425,41.0367858 169.224349,44.5857364 164.853744,44.5857364 L7.92715027,44.5857364 C3.55917583,44.5820128 0.0202051409,41.0341526 0.0202051409,36.6589335" id="Path" stroke-width="2.55950536"></path>
                    </g>
                    <g id="Group" transform="translate(0.000000, 126.728973)" fill="#FFFFFF" fill-rule="nonzero" stroke="#6D2995" stroke-linejoin="round" stroke-width="2.55950536">
                        <rect id="Rectangle" x="2.57278794" y="9.91879323" width="71.2567968" height="21.3652636"></rect>
                        <path d="M75.2506797,27.276805 L75.2506797,27.276805 C62.9690067,26.5881578 50.6535722,27.7432942 38.7130499,30.7038823 L38.2011864,30.8320604 L37.6825877,30.7038823 C25.7421671,27.7426938 13.4266423,26.5875489 1.14495798,27.276805 L1.14495798,27.276805 L1.14495798,5.06151828 L1.14495798,5.06151828 C13.4263695,4.36660016 25.742403,5.51951875 37.6825877,8.48184939 L38.2011864,8.61002748 L38.7130499,8.48184939 C50.6533367,5.52012138 62.9692793,4.3672113 75.2506797,5.06151828 L75.2506797,5.06151828 L75.2506797,27.276805 Z" id="Path"></path>
                        <path d="M76.3956377,23.0874053 L75.7625433,23.046928 C63.5680828,22.3594271 51.3558732,24.038527 39.7973925,27.9919038 L38.2011864,28.5383472 L36.6049802,27.9919038 C25.0442985,24.0379951 12.8297829,22.3588926 0.633094414,23.046928 L0,23.0874053 L0,0.150273599 L0.633094414,0.150273599 C12.8297829,-0.537761853 25.0442985,1.14134064 36.6049802,5.09524935 L38.2011864,5.64169279 L39.7973925,5.09524935 C51.3558732,1.14187253 63.5680828,-0.537227351 75.7625433,0.150273599 L76.3956377,0.150273599 L76.3956377,23.0874053 Z" id="Path"></path>
                        <line x1="38.2011864" y1="5.63494657" x2="38.2011864" y2="30.8320604" id="Path"></line>
                    </g>
                    <g id="Group" transform="translate(76.840151, 49.945409)" stroke="#6D2995" stroke-linecap="round">
                        <line x1="5.85275581" y1="0" x2="0" y2="16.0964695" id="Path" stroke-width="2.55950536"></line>
                        <line x1="5.85275581" y1="0" x2="2.62666831" y2="8.87127301" id="Path" stroke-width="3.83925803"></line>
                    </g>
                </g>
            </g>
        </g>
    </g>
</svg>