<?xml version="1.0" encoding="UTF-8"?>
<svg width="137px" height="137px" viewBox="0 0 137 137" version="1.1" xmlns="http://www.w3.org/2000/svg" xmlns:xlink="http://www.w3.org/1999/xlink">
    <title>Group</title>
    <defs>
        <path d="M8.228,19.288 C11.372,19.288 13.676,17.08 13.676,14.104 L13.676,13.984 C13.676,11.128 11.588,9.28 8.372,9.28 C6.572,9.28 4.844,10.144 3.788,11.152 L3.788,10.36 C3.788,6.664 5.516,4.576 8.348,4.576 C10.148,4.576 11.324,5.392 12.14,6.616 C12.188,6.688 13.028,6.304 13.028,5.728 C13.028,4.768 11.468,3.184 8.348,3.184 C4.58,3.184 2.18,5.92 2.18,10.456 L2.18,12.208 C2.18,16.408 4.22,19.288 8.228,19.288 Z M8.132,17.896 C5.468,17.896 3.98,15.976 3.812,12.808 C4.748,11.608 6.476,10.648 8.228,10.648 C10.724,10.648 12.092,11.896 12.092,14.104 L12.092,14.248 C12.092,16.408 10.46,17.896 8.132,17.896 Z M22.148,19.288 C25.988,19.288 28.388,16.48 28.388,12.016 L28.388,10.408 C28.388,5.944 26.012,3.184 22.172,3.184 C18.356,3.184 15.98,5.968 15.98,10.456 L15.98,12.064 C15.98,16.552 18.308,19.288 22.148,19.288 Z M22.172,17.872 C19.316,17.872 17.612,15.664 17.612,11.968 L17.612,10.456 C17.612,6.76 19.292,4.576 22.148,4.576 C25.028,4.576 26.756,6.808 26.756,10.504 L26.756,12.016 C26.756,15.712 25.076,17.872 22.172,17.872 Z" id="path-1"></path>
    </defs>
    <g id="Educator-Insight-Dashboard---Updates" stroke="none" stroke-width="1" fill="none" fill-rule="evenodd">
        <g id="Group" transform="translate(1.000000, 1.000000)">
            <g id="Page-1">
                <path d="M67.6078373,67.4490904 L55.9303373,1.22508434 C59.7705181,0.547644578 63.7074759,0.202825301 67.6078373,0.202825301 L67.6078373,67.4490904 Z" id="Fill-1" fill="#FF4798" fill-rule="nonzero"></path>
                <path d="M67.6078373,67.4490904 L55.9303373,1.22508434 C59.7705181,0.547644578 63.7074759,0.202825301 67.6078373,0.202825301 L67.6078373,67.4490904 Z" id="Stroke-3" stroke="#FFFFFF" stroke-width="1.5"></path>
                <path d="M67.6078373,67.4490904 L26.206753,14.4583373 C35.4257892,7.25616867 44.4097952,3.25659036 55.9303373,1.22508434 L67.6078373,67.4490904 Z" id="Fill-5" fill="#FF7100" fill-rule="nonzero"></path>
                <path d="M67.6078373,67.4490904 L26.206753,14.4583373 C35.4257892,7.25616867 44.4097952,3.25659036 55.9303373,1.22508434 L67.6078373,67.4490904 Z" id="Stroke-7" stroke="#FFFFFF" stroke-width="1.5"></path>
                <path d="M67.6078373,67.4490904 L3.65280723,88.2293313 C-5.27589759,60.749512 3.43810843,32.2474337 26.206753,14.4583373 L67.6078373,67.4490904 Z" id="Fill-9" fill="#FFAC00" fill-rule="nonzero"></path>
                <path d="M67.6078373,67.4490904 L3.65280723,88.2293313 C-5.27589759,60.749512 3.43810843,32.2474337 26.206753,14.4583373 L67.6078373,67.4490904 Z" id="Stroke-11" stroke="#FFFFFF" stroke-width="1.5"></path>
                <path d="M67.6078373,67.4490904 L27.1379277,121.15388 C15.9264217,112.704994 7.9906988,101.580506 3.65280723,88.2293313 L67.6078373,67.4490904 Z" id="Fill-13" fill="#61CEFC" fill-rule="nonzero"></path>
                <path d="M67.6078373,67.4490904 L27.1379277,121.15388 C15.9264217,112.704994 7.9906988,101.580506 3.65280723,88.2293313 L67.6078373,67.4490904 Z" id="Stroke-15" stroke="#FFFFFF" stroke-width="1.5"></path>
                <path d="M67.6078373,67.4490904 L67.6078373,134.695355 C51.9714217,134.695355 39.6254277,130.56403 27.1379277,121.15388 L67.6078373,67.4490904 Z" id="Fill-17" fill="#C99AF3" fill-rule="nonzero"></path>
                <path d="M67.6078373,67.4490904 L67.6078373,134.695355 C51.9714217,134.695355 39.6254277,130.56403 27.1379277,121.15388 L67.6078373,67.4490904 Z" id="Stroke-19" stroke="#FFFFFF" stroke-width="1.5"></path>
                <path d="M67.6078373,67.4490904 L109.008108,120.439843 C96.6873253,130.066319 83.2434398,134.695355 67.6078373,134.695355 L67.6078373,67.4490904 Z" id="Fill-21" fill="#DF65E3" fill-rule="nonzero"></path>
                <path d="M67.6078373,67.4490904 L109.008108,120.439843 C96.6873253,130.066319 83.2434398,134.695355 67.6078373,134.695355 L67.6078373,67.4490904 Z" id="Stroke-23" stroke="#FFFFFF" stroke-width="1.5" fill="#DD89E0" fill-rule="nonzero"></path>
                <path d="M67.6078373,67.4490904 L124.005307,104.07394 C119.756873,110.614934 115.153861,115.637584 109.008108,120.439843 L67.6078373,67.4490904 Z" id="Fill-25" fill="#2B90E2" fill-rule="nonzero"></path>
                <path d="M67.6078373,67.4490904 L124.005307,104.07394 C119.756873,110.614934 115.153861,115.637584 109.008108,120.439843 L67.6078373,67.4490904 Z" id="Stroke-27" stroke="#FFFFFF" stroke-width="1.5"></path>
                <path d="M67.6078373,67.4490904 L129.507777,93.7244819 C127.983741,97.3141807 126.128711,100.803849 124.005307,104.07394 L67.6078373,67.4490904 Z" id="Fill-29" fill="#DC5371" fill-rule="nonzero"></path>
                <path d="M67.6078373,67.4490904 L129.507777,93.7244819 C127.983741,97.3141807 126.128711,100.803849 124.005307,104.07394 L67.6078373,67.4490904 Z" id="Stroke-31" stroke="#FFFFFF" stroke-width="1.5"></path>
                <path d="M67.6078373,67.4478968 L67.6078373,0.202825301 C104.746663,0.202825301 134.854102,30.3097307 134.854102,67.4478968 C134.854102,77.2157053 133.324373,84.7316562 129.507777,93.7228219 L67.6078373,67.4478968 Z" id="Fill-33" fill="#6BCD83" fill-rule="nonzero"></path>
                <path d="M67.6078373,67.4490904 L67.6078373,0.202825301 C104.746663,0.202825301 134.854102,30.3102651 134.854102,67.4490904 C134.854102,77.2170723 133.324373,84.7331566 129.507777,93.7244819 L67.6078373,67.4490904 Z" id="Stroke-35" stroke="#FFFFFF" stroke-width="1.5"></path>
                <path d="M66.4661928,114.228949 C40.4453494,114.228949 19.3511928,93.1347922 19.3511928,67.1131355 C19.3511928,41.0922922 40.4453494,19.9973223 66.4661928,19.9973223 C92.4878494,19.9973223 113.582006,41.0922922 113.582006,67.1131355 C113.582006,93.1347922 92.4878494,114.228949 66.4661928,114.228949 Z" id="Fill-37" fill="#F3EEFB" fill-rule="nonzero"></path>
                <path d="M66.115,114.231627 C40.0941566,114.231627 19,93.1374699 19,67.1158133 C19,41.0949699 40.0941566,20 66.115,20 C92.1366566,20 113.230813,41.0949699 113.230813,67.1158133 C113.230813,93.1374699 92.1366566,114.231627 66.115,114.231627 Z" id="Fill-37" fill="#FEFEFE" fill-rule="nonzero"></path>
            </g>
            <g id="160-logs" transform="translate(51.000000, 55.000000)" fill-rule="nonzero">
                <g id="60">
                    <use fill="#000000" xlink:href="#path-1"></use>
                    <use fill="#652C8F" xlink:href="#path-1"></use>
                </g>
            </g>
        </g>
    </g>
</svg>