<?xml version="1.0" encoding="UTF-8"?>
<svg width="144px" height="142px" viewBox="0 0 144 142" version="1.1" xmlns="http://www.w3.org/2000/svg" xmlns:xlink="http://www.w3.org/1999/xlink">
    <title>graph-round-hover</title>
    <g id="Educator-Insight-Dashboard---Updates" stroke="none" stroke-width="1" fill="none" fill-rule="evenodd">
        <g id="graph-round-hover" transform="translate(1.000000, 1.000000)">
            <g id="Mood-Stats" transform="translate(0.000000, 5.000000)">
                <g id="Page-1">
                    <path d="M67.6078373,67.4490904 L55.9303373,1.22508434 C59.7705181,0.547644578 63.7074759,0.202825301 67.6078373,0.202825301 L67.6078373,67.4490904 Z" id="Fill-1" fill="#EF659F"></path>
                    <path d="M67.6078373,67.4490904 L55.9303373,1.22508434 C59.7705181,0.547644578 63.7074759,0.202825301 67.6078373,0.202825301 L67.6078373,67.4490904 Z" id="Stroke-3" stroke="#FFFFFF" stroke-width="1.5"></path>
                    <path d="M67.6078373,67.4490904 L26.206753,14.4583373 C35.4257892,7.25616867 44.4097952,3.25659036 55.9303373,1.22508434 L67.6078373,67.4490904 Z" id="Fill-5" fill="#F77D2C"></path>
                    <path d="M67.6078373,67.4490904 L26.206753,14.4583373 C35.4257892,7.25616867 44.4097952,3.25659036 55.9303373,1.22508434 L67.6078373,67.4490904 Z" id="Stroke-7" stroke="#FFFFFF" stroke-width="1.5"></path>
                    <path d="M67.6078373,67.4490904 L3.65280723,88.2293313 C-5.27589759,60.749512 3.43810843,32.2474337 26.206753,14.4583373 L67.6078373,67.4490904 Z" id="Fill-9" fill="#FFAC00"></path>
                    <path d="M67.6078373,67.4490904 L3.65280723,88.2293313 C-5.27589759,60.749512 3.43810843,32.2474337 26.206753,14.4583373 L67.6078373,67.4490904 Z" id="Stroke-11" stroke="#FFFFFF" stroke-width="1.5"></path>
                    <path d="M67.6078373,67.4490904 L27.1379277,121.15388 C15.9264217,112.704994 7.9906988,101.580506 3.65280723,88.2293313 L67.6078373,67.4490904 Z" id="Fill-13" fill="#7DCDF8"></path>
                    <path d="M67.6078373,67.4490904 L27.1379277,121.15388 C15.9264217,112.704994 7.9906988,101.580506 3.65280723,88.2293313 L67.6078373,67.4490904 Z" id="Stroke-15" stroke="#FFFFFF" stroke-width="1.5"></path>
                    <path d="M67.6078373,67.4490904 L67.6078373,134.695355 C51.9714217,134.695355 39.6254277,130.56403 27.1379277,121.15388 L67.6078373,67.4490904 Z" id="Fill-17" fill="#C2A5EF"></path>
                    <path d="M67.6078373,67.4490904 L67.6078373,134.695355 C51.9714217,134.695355 39.6254277,130.56403 27.1379277,121.15388 L67.6078373,67.4490904 Z" id="Stroke-19" stroke="#FFFFFF" stroke-width="1.5"></path>
                    <path d="M67.6078373,67.4490904 L109.008108,120.439843 C96.6873253,130.066319 83.2434398,134.695355 67.6078373,134.695355 L67.6078373,67.4490904 Z" id="Fill-21" fill="#DF65E3"></path>
                    <path d="M67.6078373,67.4490904 L109.008108,120.439843 C96.6873253,130.066319 83.2434398,134.695355 67.6078373,134.695355 L67.6078373,67.4490904 Z" id="Stroke-23" stroke="#FFFFFF" stroke-width="1.5" fill="#DD89E0"></path>
                    <path d="M67.6078373,67.4490904 L124.005307,104.07394 C119.756873,110.614934 115.153861,115.637584 109.008108,120.439843 L67.6078373,67.4490904 Z" id="Fill-25" fill="#6599FE"></path>
                    <path d="M67.6078373,67.4490904 L124.005307,104.07394 C119.756873,110.614934 115.153861,115.637584 109.008108,120.439843 L67.6078373,67.4490904 Z" id="Stroke-27" stroke="#FFFFFF" stroke-width="1.5"></path>
                    <path d="M67.6078373,67.4490904 L129.507777,93.7244819 C127.983741,97.3141807 126.128711,100.803849 124.005307,104.07394 L67.6078373,67.4490904 Z" id="Fill-29" fill="#E25674"></path>
                    <path d="M67.6078373,67.4490904 L129.507777,93.7244819 C127.983741,97.3141807 126.128711,100.803849 124.005307,104.07394 L67.6078373,67.4490904 Z" id="Stroke-31" stroke="#FFFFFF" stroke-width="1.5"></path>
                    <path d="M67.6078373,67.4478968 L67.6078373,0.202825301 C104.746663,0.202825301 134.854102,30.3097307 134.854102,67.4478968 C134.854102,77.2157053 133.324373,84.7316562 129.507777,93.7228219 L67.6078373,67.4478968 Z" id="Fill-33" fill="#6BCD83"></path>
                    <path d="M67.6078373,67.4490904 L67.6078373,0.202825301 C104.746663,0.202825301 134.854102,30.3102651 134.854102,67.4490904 C134.854102,77.2170723 133.324373,84.7331566 129.507777,93.7244819 L67.6078373,67.4490904 Z" id="Stroke-35" stroke="#FFFFFF" stroke-width="1.5"></path>
                    <path d="M66.4661928,114.228949 C40.4453494,114.228949 19.3511928,93.1347922 19.3511928,67.1131355 C19.3511928,41.0922922 40.4453494,19.9973223 66.4661928,19.9973223 C92.4878494,19.9973223 113.582006,41.0922922 113.582006,67.1131355 C113.582006,93.1347922 92.4878494,114.228949 66.4661928,114.228949 Z" id="Fill-37" fill="#F3EEFB"></path>
                    <path d="M66.4661928,114.228949 C40.4453494,114.228949 19.3511928,93.1347922 19.3511928,67.1131355 C19.3511928,41.0922922 40.4453494,19.9973223 66.4661928,19.9973223 C92.4878494,19.9973223 113.582006,41.0922922 113.582006,67.1131355 C113.582006,93.1347922 92.4878494,114.228949 66.4661928,114.228949 Z" id="Fill-37" fill="#FEFEFE"></path>
                    <path d="M66.4661928,114.228949 C40.4453494,114.228949 19.3511928,93.1347922 19.3511928,67.1131355 C19.3511928,41.0922922 40.4453494,19.9973223 66.4661928,19.9973223 C92.4878494,19.9973223 113.582006,41.0922922 113.582006,67.1131355 C113.582006,93.1347922 92.4878494,114.228949 66.4661928,114.228949 Z" id="Fill-37" stroke="#FFFFFF" stroke-width="2" fill="#FBFBFC"></path>
                    <path d="" id="Path-2" stroke="#979797"></path>
                </g>
                <g id="160-logs" transform="translate(48.000000, 53.000000)" fill="#652D90" fill-rule="nonzero">
                    <path d="M12.348,19.312 C15.708,19.312 18.108,17.08 18.108,14.008 L18.108,13.888 C18.108,10.984 16.02,9.208 12.852,9.208 C11.052,9.208 9.444,9.976 8.436,10.912 L8.436,10.432 C8.436,7.048 9.948,5.2 12.636,5.2 C14.388,5.2 15.492,6.016 16.212,7.12 C16.26,7.192 17.46,6.856 17.46,5.92 C17.46,4.696 15.78,3.16 12.516,3.16 C8.508,3.16 5.988,5.944 5.988,10.528 L5.988,12.112 C5.988,16.408 8.22,19.312 12.348,19.312 Z M12.252,17.344 C9.924,17.344 8.604,15.664 8.46,12.832 C9.372,11.824 10.836,11.056 12.324,11.056 C14.508,11.056 15.732,12.136 15.732,14.056 L15.732,14.2 C15.732,16.072 14.292,17.344 12.252,17.344 Z M26.532,19.312 C30.54,19.312 33.012,16.48 33.012,11.992 L33.012,10.432 C33.012,5.944 30.564,3.16 26.532,3.16 C22.548,3.16 20.076,5.968 20.076,10.456 L20.076,12.04 C20.076,16.528 22.5,19.312 26.532,19.312 Z M26.532,17.224 C24.036,17.224 22.572,15.352 22.572,12.088 L22.572,10.336 C22.572,7.072 24.012,5.2 26.532,5.2 C29.052,5.2 30.54,7.12 30.54,10.384 L30.54,12.112 C30.54,15.376 29.1,17.224 26.532,17.224 Z" id="60"></path>
                </g>
            </g>
            <g id="Group-13" transform="translate(83.000000, 0.000000)">
                <rect id="Rectangle" stroke="#126D2B" stroke-width="2" fill="#FFFFFF" x="0" y="0" width="59" height="23" rx="4"></rect>
                <path d="M14.78,15.048 C15.02,15.048 15.14,14.928 15.14,14.676 L15.14,7.56 C15.14,7.32 15.02,7.188 14.78,7.188 L14.432,7.188 C14.408,7.704 14.012,8.124 13.496,8.124 C13.184,8.124 12.968,8.004 12.812,7.824 C12.8,7.812 12.56,7.992 12.56,8.268 C12.56,8.676 12.92,8.952 13.436,8.952 C13.808,8.952 14.132,8.784 14.324,8.508 L14.324,14.676 C14.324,14.928 14.444,15.048 14.672,15.048 L14.78,15.048 Z M19.88,15.144 C21.608,15.144 22.784,14.22 22.784,12.96 C22.784,12.048 22.256,11.316 21.2,10.992 C22.1,10.692 22.556,10.032 22.556,9.204 C22.556,7.92 21.56,7.092 19.892,7.092 C18.26,7.092 17.204,7.968 17.204,9.228 C17.204,10.068 17.636,10.704 18.56,11.004 C17.528,11.34 16.976,12.072 16.976,12.972 C16.976,14.268 18.092,15.144 19.88,15.144 Z M19.892,10.656 C18.704,10.656 18.02,10.092 18.02,9.252 C18.02,8.34 18.632,7.776 19.88,7.776 C21.08,7.776 21.74,8.376 21.74,9.252 C21.74,10.128 21.092,10.656 19.892,10.656 Z M19.892,14.448 C18.56,14.448 17.792,13.812 17.792,12.924 C17.792,11.976 18.536,11.364 19.88,11.364 C21.2,11.364 21.968,11.988 21.968,12.924 C21.968,13.872 21.272,14.448 19.892,14.448 Z M26.636,15.048 C26.84,15.048 26.984,14.964 26.984,14.676 L26.984,7.584 C26.984,6.96 26.732,6.828 26.468,6.828 C26.324,6.828 26.204,6.888 26.204,6.912 L26.204,14.676 C26.204,14.964 26.348,15.048 26.552,15.048 L26.636,15.048 Z M31.22,15.144 C32.924,15.144 34.16,13.884 34.16,12.156 C34.16,10.416 32.924,9.144 31.22,9.144 C29.504,9.144 28.268,10.404 28.268,12.132 C28.268,13.872 29.504,15.144 31.22,15.144 Z M31.22,14.46 C29.984,14.46 29.06,13.464 29.06,12.132 C29.06,10.8 29.984,9.828 31.22,9.828 C32.456,9.828 33.368,10.824 33.368,12.156 C33.368,13.488 32.444,14.46 31.22,14.46 Z M37.292,17.532 C39.128,17.532 40.208,16.896 40.208,15.828 C40.208,14.916 39.344,14.532 38.528,14.328 C37.484,14.064 36.944,14.028 36.944,13.632 C36.944,13.536 36.956,13.452 37.028,13.344 C37.124,13.356 37.232,13.356 37.34,13.356 C38.684,13.356 39.692,12.432 39.692,11.256 C39.692,10.788 39.512,10.344 39.224,9.996 L40.172,8.94 C40.196,8.916 40.052,8.592 39.728,8.592 C39.476,8.592 39.344,8.712 39.176,8.952 L38.78,9.588 C38.384,9.312 37.88,9.144 37.34,9.144 C36.008,9.144 35.024,10.116 35.024,11.304 C35.024,12.18 35.588,12.912 36.452,13.212 C36.308,13.368 36.2,13.572 36.2,13.776 C36.2,14.04 36.308,14.208 36.452,14.328 C35.408,14.532 34.604,15.108 34.604,15.972 C34.604,17.028 35.468,17.532 37.292,17.532 Z M37.352,12.744 C36.452,12.744 35.816,12.144 35.816,11.28 C35.816,10.392 36.44,9.792 37.328,9.792 C38.264,9.792 38.888,10.416 38.888,11.28 C38.888,12.144 38.264,12.744 37.352,12.744 Z M37.316,16.896 C36.032,16.896 35.36,16.572 35.36,15.972 C35.36,15.252 36.344,14.844 37.436,14.784 C38.348,15.012 39.428,15.156 39.428,15.852 C39.428,16.524 38.624,16.896 37.316,16.896 Z M42.968,15.144 C44.36,15.144 45.224,14.46 45.224,13.404 C45.224,12.228 44.048,11.976 43.124,11.772 C42.068,11.544 41.528,11.376 41.528,10.764 C41.528,10.2 42.032,9.804 42.968,9.804 C43.748,9.804 44.324,10.152 44.648,10.644 C44.672,10.68 45.08,10.536 45.08,10.236 C45.08,9.804 44.36,9.144 42.968,9.144 C41.648,9.144 40.784,9.852 40.784,10.872 C40.784,12.024 41.9,12.276 42.788,12.468 C43.868,12.696 44.468,12.84 44.468,13.524 C44.468,14.1 43.94,14.484 42.992,14.484 C42.044,14.484 41.42,14.088 41.036,13.56 C41.012,13.536 40.616,13.656 40.616,13.98 C40.616,14.412 41.444,15.144 42.968,15.144 Z" id="18logs" fill="#3F3F44" fill-rule="nonzero"></path>
                <path d="M31.5968,25.9209723 L26.4768,23.0409723 C26.3776,22.9852923 26.25664,22.9865723 26.15872,23.0435323 C26.06016,23.1011323 26,23.2060923 26,23.3200123 L26,29.0800123 C26,29.1939323 26.06016,29.2988923 26.15872,29.3564923 C26.20864,29.3852923 26.26432,29.4000123 26.32,29.4000123 C26.37376,29.4000123 26.42816,29.3865723 26.4768,29.3590523 L31.5968,26.4790523 C31.69728,26.4220923 31.76,26.3158523 31.76,26.2000123 C31.76,26.0841723 31.69728,25.9779323 31.5968,25.9209723 Z" id="Path" fill="#126D2B" fill-rule="nonzero" transform="translate(28.880000, 26.200006) scale(1, -1) rotate(-90.000000) translate(-28.880000, -26.200006) "></path>
            </g>
        </g>
    </g>
</svg>