<?xml version="1.0" encoding="UTF-8"?>
<svg width="400px" height="99px" viewBox="0 0 400 99" version="1.1" xmlns="http://www.w3.org/2000/svg" xmlns:xlink="http://www.w3.org/1999/xlink">
    <title>Logo 4</title>
    <defs>
        <path d="M26.6728443,13.5018511 C26.6728443,20.9696383 20.6990991,27.016233 13.3266409,27.016233 C5.96808237,27.016233 0,20.9696383 0,13.5018511 C0,6.04085141 5.96808237,-1.99364691e-13 13.3266409,-1.99364691e-13 C20.6990991,-1.99364691e-13 26.6728443,6.04085141 26.6728443,13.5018511 Z" id="path-1"></path>
        <path d="M26.6599743,13.5018511 C26.6599743,20.9696383 20.6939511,27.016233 13.3302445,27.016233 C5.96293436,27.016233 0,20.9696383 0,13.5018511 C0,6.04085141 5.96293436,-1.24305922e-13 13.3302445,-1.24305922e-13 C20.6939511,-1.24305922e-13 26.6599743,6.04085141 26.6599743,13.5018511 Z" id="path-3"></path>
        <path d="M26.6728443,13.5159482 C26.6728443,20.9717268 20.6990991,27.020932 13.3266409,27.020932 C5.96808237,27.020932 0,20.9717268 0,13.5159482 C0,6.04659466 5.96808237,0 13.3266409,0 C20.6990991,0 26.6728443,6.04659466 26.6728443,13.5159482 Z" id="path-5"></path>
        <path d="M26.6697555,13.5159482 C26.6697555,20.9717268 20.6939511,27.020932 13.3364221,27.020932 C5.96293436,27.020932 0,20.9717268 0,13.5159482 C0,6.04659466 5.96293436,0 13.3364221,0 C20.6939511,0 26.6697555,6.04659466 26.6697555,13.5159482 Z" id="path-7"></path>
        <path d="M26.6656371,13.5159482 C26.6656371,20.9717268 20.7027027,27.020932 13.3312741,27.020932 C5.96602317,27.020932 0,20.9717268 0,13.5159482 C0,6.04659466 5.96602317,0 13.3312741,0 C20.7027027,0 26.6656371,6.04659466 26.6656371,13.5159482 Z" id="path-9"></path>
        <path d="M26.6728443,13.5211693 C26.6728443,20.9759037 20.6990991,27.0313743 13.3266409,27.0313743 C5.96808237,27.0313743 0,20.9759037 0,13.5211693 C0,6.048161 5.96808237,0 13.3266409,0 C20.6990991,0 26.6728443,6.048161 26.6728443,13.5211693 Z" id="path-11"></path>
        <path d="M26.6651223,13.5211693 C26.6651223,20.9759037 20.6934363,27.0298079 13.3297297,27.0298079 C5.97271557,27.0298079 0,20.9759037 0,13.5211693 C0,6.048161 5.97271557,0 13.3297297,0 C20.6934363,0 26.6651223,6.048161 26.6651223,13.5211693 Z" id="path-13"></path>
        <path d="M26.6579151,13.5211693 C26.6579151,21.2139874 20.7480051,27.0313743 13.3271557,27.0313743 C5.96602317,27.0313743 0,20.9759037 0,13.5211693 C0,6.048161 5.96602317,0 13.3271557,0 C20.6960103,0 26.6579151,6.048161 26.6579151,13.5211693 Z" id="path-15"></path>
        <polygon id="path-17" points="31.1248391 55.3878722 18.9245817 55.3878722 18.9245817 33.5165441 0 0 13.2164736 0 25.0265122 20.6025926 36.8324324 0 50.0514801 0 31.1248391 33.5165441"></polygon>
        <path d="M44.4993565,22.0305726 C44.4993565,28.2087399 42.3861004,33.4110772 38.1673102,37.638629 C33.9402831,41.8651365 28.6368082,43.9776071 22.2486486,43.9776071 C15.8640927,43.9776071 10.5570142,41.8651365 6.33564994,37.638629 C2.11480051,33.4110772 0,28.2087399 0,22.0305726 C0,15.8466622 2.11480051,10.631272 6.33564994,6.37761452 C10.5570142,2.12656766 15.8640927,0 22.2486486,0 C28.6368082,0 33.9402831,2.12656766 38.1673102,6.37761452 C42.3861004,10.631272 44.4993565,15.8466622 44.4993565,22.0305726 Z M11.809009,22.0305726 C11.809009,25.5156792 12.7881596,28.3528431 14.7413127,30.544675 C16.6985843,32.737551 19.2005148,33.8355554 22.2486486,33.8355554 C25.2988417,33.8355554 27.8018018,32.737551 29.7554698,30.544675 C31.7127413,28.3528431 32.6882883,25.5156792 32.6882883,22.0305726 C32.6882883,18.5428555 31.7127413,15.689506 29.7554698,13.4710464 C27.8018018,11.2510205 25.2988417,10.1420517 22.2486486,10.1420517 C19.2005148,10.1420517 16.6985843,11.2510205 14.7413127,13.4710464 C12.7881596,15.689506 11.809009,18.5428555 11.809009,22.0305726 Z" id="path-19"></path>
        <path d="M27.6864865,0 L39.5001287,0 L39.5001287,25.8346905 C39.5001287,31.590468 37.9341055,35.9354953 34.807722,38.8671617 C31.6756757,41.8009166 27.3796654,43.267533 22.7680824,43.267533 C21.9160875,43.267533 20.8252252,43.285807 19.7817246,43.267533 C18.9400257,43.285807 17.6118404,43.267533 16.7598456,43.267533 C12.1462033,43.267533 7.82187902,41.8009166 4.69240669,38.8671617 C1.56550837,35.9354953 0,31.590468 0,25.8346905 L0,0 L11.8110682,0 L11.8110682,23.2194247 C11.8110682,29.6508169 14.4571429,32.4775386 19.8187902,32.5908372 C25.3930502,32.4775386 27.6864865,29.6508169 27.6864865,23.2194247 L27.6864865,0 Z" id="path-21"></path>
        <path d="M38.7886744,37.1629837 C34.0442728,41.7064141 28.4761905,43.9776071 22.0916345,43.9776071 C15.7039897,43.9776071 10.423166,41.9836563 6.25379665,37.9957545 C2.08133848,34.008897 -1.59089802e-12,28.6572352 -1.59089802e-12,21.9480787 C-1.59089802e-12,15.2404886 2.11994852,9.90657863 6.37374517,5.94112776 C10.6208494,1.9835086 15.6396396,0 21.427027,0 C27.21287,0 32.1281853,1.77048636 36.167825,5.30989273 C40.2079794,8.84825488 42.2280566,13.7091301 42.2280566,19.8888637 C42.2280566,19.8888637 41.9655084,26.2299303 35.9567568,26.2299303 L11.5706564,26.2299303 C11.9371943,28.5543789 13.1361647,30.4548715 15.1706564,31.9345407 C17.2036036,33.4110772 19.4960103,34.151434 22.0514801,34.151434 C26.1693694,34.151434 29.556242,32.7521702 32.2177606,29.9484215 L38.7886744,37.1629837 Z M27.5248391,11.8864324 C25.9088803,10.5127522 23.9423423,9.82512895 21.6200772,9.82512895 C19.3024453,9.82512895 17.1752896,10.5378137 15.2473616,11.9652716 C13.3163449,13.3922073 12.1971686,15.3198498 11.8846847,17.7476769 L30.3423423,17.7476769 C30.0782497,15.2159492 29.1413127,13.2601126 27.5248391,11.8864324 Z" id="path-23"></path>
        <path d="M27.6900901,0 L39.5016731,0 L39.5016731,25.8346905 C39.5016731,31.590468 37.9346203,35.9354953 34.8087516,38.8671617 C31.6787645,41.8009166 27.383269,43.267533 22.769112,43.267533 C21.9181467,43.267533 20.8288288,43.285807 19.7842986,43.267533 C18.9425997,43.285807 17.61287,43.267533 16.7608752,43.267533 C12.1467181,43.267533 7.82599743,41.8009166 4.69292149,38.8671617 C1.56808237,35.9354953 0,31.590468 0,25.8346905 L0,0 L11.8131274,0 L11.8131274,23.2194247 C11.8131274,29.6508169 14.4597169,32.4775386 19.8203346,32.5908372 C25.3945946,32.4775386 27.6900901,29.6508169 27.6900901,23.2194247 L27.6900901,0 Z" id="path-25"></path>
        <polygon id="path-27" points="34.2996139 55.5398072 34.2996139 33.2445231 12.0592021 33.2445231 12.0592021 55.5398072 0 55.5398072 0 0 12.0592021 0 12.0592021 21.9783613 34.2996139 21.9783613 34.2996139 0 46.358816 0 46.358816 55.5398072"></polygon>
        <path d="M26.6579151,13.5018511 C26.6579151,20.9696383 20.6960103,27.016233 13.3271557,27.016233 C5.96602317,27.016233 0,20.9696383 0,13.5018511 C0,6.04085141 5.96602317,-1.99364691e-13 13.3271557,-1.99364691e-13 C20.6960103,-1.99364691e-13 26.6579151,6.04085141 26.6579151,13.5018511 Z" id="path-29"></path>
    </defs>
    <g id="Educator---Admin-Dashboard" stroke="none" stroke-width="1" fill="none" fill-rule="evenodd">
        <g id="Artboard" transform="translate(-1.000000, -1.000000)">
            <g id="Logo-4" transform="translate(1.000000, 1.000000)">
                <g id="Logo" transform="translate(-0.000000, 0.000000)">
                    <g id="Group-12" transform="translate(0.000000, 71.983767)">
                        <mask id="mask-2" fill="white">
                            <use xlink:href="#path-1"></use>
                        </mask>
                        <g id="Clip-11"></g>
                        <polygon id="Fill-10" fill="#DD89E0" mask="url(#mask-2)" points="-25.7400257 53.1219003 52.41287 53.1219003 52.41287 -26.1058761 -25.7400257 -26.1058761"></polygon>
                    </g>
                    <g id="Group-15" transform="translate(35.440927, 71.983767)">
                        <mask id="mask-4" fill="white">
                            <use xlink:href="#path-3"></use>
                        </mask>
                        <g id="Clip-14"></g>
                        <polygon id="Fill-13" fill="#6599FE" mask="url(#mask-4)" points="-25.7400257 53.1219003 52.400103 53.1219003 52.400103 -26.1058761 -25.7400257 -26.1058761"></polygon>
                    </g>
                    <g id="Group-18" transform="translate(0.000000, 0.000000)">
                        <mask id="mask-6" fill="white">
                            <use xlink:href="#path-5"></use>
                        </mask>
                        <g id="Clip-17"></g>
                        <polygon id="Fill-16" fill="#FFAC00" mask="url(#mask-6)" points="-25.7400257 53.1265993 52.41287 53.1265993 52.41287 -26.1057195 -25.7400257 -26.1057195"></polygon>
                    </g>
                    <g id="Group-21" transform="translate(35.440927, 0.000000)">
                        <mask id="mask-8" fill="white">
                            <use xlink:href="#path-7"></use>
                        </mask>
                        <g id="Clip-20"></g>
                        <polygon id="Fill-19" fill="#F77D2C" mask="url(#mask-8)" points="-25.7400257 53.1265993 52.4096782 53.1265993 52.4096782 -26.1057195 -25.7400257 -26.1057195"></polygon>
                    </g>
                    <g id="Group-24" transform="translate(71.009524, 0.000000)">
                        <mask id="mask-10" fill="white">
                            <use xlink:href="#path-9"></use>
                        </mask>
                        <g id="Clip-23"></g>
                        <polygon id="Fill-22" fill="#EF659F" mask="url(#mask-10)" points="-25.7400257 53.1265993 52.4058687 53.1265993 52.4058687 -26.1057195 -25.7400257 -26.1057195"></polygon>
                    </g>
                    <g id="Group-27" transform="translate(0.000000, 35.948548)">
                        <mask id="mask-12" fill="white">
                            <use xlink:href="#path-11"></use>
                        </mask>
                        <g id="Clip-26"></g>
                        <polygon id="Fill-25" fill="#7DCDF8" mask="url(#mask-12)" points="-25.7400257 53.1370416 52.41287 53.1370416 52.41287 -26.1055629 -25.7400257 -26.1055629"></polygon>
                    </g>
                    <g id="Group-30" transform="translate(35.397169, 35.948548)">
                        <mask id="mask-14" fill="white">
                            <use xlink:href="#path-13"></use>
                        </mask>
                        <g id="Clip-29"></g>
                        <polygon id="Fill-28" fill="#C2A5EF" mask="url(#mask-14)" points="-25.7400257 53.1354752 52.4051995 53.1354752 52.4051995 -26.1058761 -25.7400257 -26.1058761"></polygon>
                    </g>
                    <g id="Group-33" transform="translate(70.870013, 35.948548)">
                        <mask id="mask-16" fill="white">
                            <use xlink:href="#path-15"></use>
                        </mask>
                        <g id="Clip-32"></g>
                        <polygon id="Fill-31" fill="#6BCD83" mask="url(#mask-16)" points="-25.7400257 53.1370416 52.3981982 53.1370416 52.3981982 -26.1055629 -25.7400257 -26.1055629"></polygon>
                    </g>
                    <g id="Group-5" transform="translate(124.873102, 22.355327)">
                        <g id="Group-36" transform="translate(0.000000, 0.239128)">
                            <mask id="mask-18" fill="white">
                                <use xlink:href="#path-17"></use>
                            </mask>
                            <use id="Clip-35" fill="#6F3996" xlink:href="#path-17"></use>
                            <polygon id="Fill-34" fill="#652D90" mask="url(#mask-18)" points="-25.7400257 81.4935395 75.7917117 81.4935395 75.7917117 -26.1056151 -25.7400257 -26.1056151"></polygon>
                        </g>
                        <g id="Group-39" transform="translate(40.656371, 12.283239)">
                            <mask id="mask-20" fill="white">
                                <use xlink:href="#path-19"></use>
                            </mask>
                            <use id="Clip-38" fill="#6F3996" xlink:href="#path-19"></use>
                            <polygon id="Fill-37" fill="#652D90" mask="url(#mask-20)" points="-25.7400257 70.0832744 70.2391248 70.0832744 70.2391248 -26.1056151 -25.7400257 -26.1056151"></polygon>
                        </g>
                        <g id="Group-42" transform="translate(89.430116, 12.948933)">
                            <mask id="mask-22" fill="white">
                                <use xlink:href="#path-21"></use>
                            </mask>
                            <use id="Clip-41" fill="#6F3996" xlink:href="#path-21"></use>
                            <polygon id="Fill-40" fill="#652D90" mask="url(#mask-22)" points="-25.7400257 69.381032 65.2402059 69.381032 65.2402059 -26.1058239 -25.7400257 -26.1058239"></polygon>
                        </g>
                        <g id="Group-45" transform="translate(232.898842, 12.283239)">
                            <mask id="mask-24" fill="white">
                                <use xlink:href="#path-23"></use>
                            </mask>
                            <g id="Clip-44"></g>
                            <polygon id="Fill-43" fill="#C2A5EF" mask="url(#mask-24)" points="-25.7400257 70.0832744 67.9683912 70.0832744 67.9683912 -26.1056151 -25.7400257 -26.1056151"></polygon>
                        </g>
                        <g id="Group-48" transform="translate(188.659459, 12.948933)">
                            <mask id="mask-26" fill="white">
                                <use xlink:href="#path-25"></use>
                            </mask>
                            <g id="Clip-47"></g>
                            <polygon id="Fill-46" fill="#C2A5EF" mask="url(#mask-26)" points="-25.7400257 69.381032 65.2414929 69.381032 65.2414929 -26.1058239 -25.7400257 -26.1058239"></polygon>
                        </g>
                        <g id="Group-51" transform="translate(136.007207, 0.000000)">
                            <mask id="mask-28" fill="white">
                                <use xlink:href="#path-27"></use>
                            </mask>
                            <g id="Clip-50"></g>
                            <polygon id="Fill-49" fill="#C2A5EF" mask="url(#mask-28)" points="-25.7400257 81.6454745 72.0988932 81.6454745 72.0988932 -26.1060328 -25.7400257 -26.1060328"></polygon>
                        </g>
                    </g>
                    <g id="Group-9" transform="translate(70.870013, 71.983767)">
                        <mask id="mask-30" fill="white">
                            <use xlink:href="#path-29"></use>
                        </mask>
                        <g id="Clip-8"></g>
                        <polygon id="Fill-7" fill="#E25674" mask="url(#mask-30)" points="-25.7400257 53.1219003 52.3981982 53.1219003 52.3981982 -26.1058761 -25.7400257 -26.1058761"></polygon>
                    </g>
                </g>
            </g>
        </g>
    </g>
</svg>