<?xml version="1.0" encoding="UTF-8"?>
<svg width="184px" height="46px" viewBox="0 0 184 46" version="1.1" xmlns="http://www.w3.org/2000/svg" xmlns:xlink="http://www.w3.org/1999/xlink">
    <title>Logo</title>
    <defs>
        <path d="M12.3685972,6.4349904 C12.3685972,9.84990859 9.63447134,12.6149346 6.26016799,12.6149346 C2.89222635,12.6149346 0.160692332,9.84990859 0.160692332,6.4349904 C0.160692332,3.02317603 2.89222635,0.260776299 6.26016799,0.260776299 C9.63447134,0.260776299 12.3685972,3.02317603 12.3685972,6.4349904 Z" id="path-1"></path>
        <path d="M12.7757687,6.4349904 C12.7757687,9.84990859 10.0451771,12.6149346 6.67487929,12.6149346 C3.30293214,12.6149346 0.573754306,9.84990859 0.573754306,6.4349904 C0.573754306,3.02317603 3.30293214,0.260776299 6.67487929,0.260776299 C10.0451771,0.260776299 12.7757687,3.02317603 12.7757687,6.4349904 Z" id="path-3"></path>
        <path d="M12.3685972,6.23318668 C12.3685972,9.64261349 9.63447134,12.4088333 6.26016799,12.4088333 C2.89222635,12.4088333 0.160692332,9.64261349 0.160692332,6.23318668 C0.160692332,2.81755223 2.89222635,0.0525261834 6.26016799,0.0525261834 C9.63447134,0.0525261834 12.3685972,2.81755223 12.3685972,6.23318668 Z" id="path-5"></path>
        <path d="M12.7802454,6.23318668 C12.7802454,9.64261349 10.0451771,12.4088333 6.67770672,12.4088333 C3.30293214,12.4088333 0.573754306,9.64261349 0.573754306,6.23318668 C0.573754306,2.81755223 3.30293214,0.0525261834 6.67770672,0.0525261834 C10.0451771,0.0525261834 12.7802454,2.81755223 12.7802454,6.23318668 Z" id="path-7"></path>
        <path d="M12.5644182,6.23318668 C12.5644182,9.64261349 9.83524036,12.4088333 6.46140825,12.4088333 C3.09040357,12.4088333 0.359812022,9.64261349 0.359812022,6.23318668 C0.359812022,2.81755223 3.09040357,0.0525261834 6.46140825,0.0525261834 C9.83524036,0.0525261834 12.5644182,2.81755223 12.5644182,6.23318668 Z" id="path-9"></path>
        <path d="M12.3685972,6.67828213 C12.3685972,10.0872314 9.63447134,12.8563163 6.26016799,12.8563163 C2.89222635,12.8563163 0.160692332,10.0872314 0.160692332,6.67828213 C0.160692332,3.26097639 2.89222635,0.495234081 6.26016799,0.495234081 C9.63447134,0.495234081 12.3685972,3.26097639 12.3685972,6.67828213 Z" id="path-11"></path>
        <path d="M12.7580972,6.67828213 C12.7580972,10.0872314 10.0249139,12.8556001 6.65461604,12.8556001 C3.28738127,12.8556001 0.553726669,10.0872314 0.553726669,6.67828213 C0.553726669,3.26097639 3.28738127,0.495234081 6.65461604,0.495234081 C10.0249139,0.495234081 12.7580972,3.26097639 12.7580972,6.67828213 Z" id="path-13"></path>
        <path d="M12.2010719,6.18304805 C12.2010719,9.7008698 9.49616283,12.3610822 6.09971127,12.3610822 C2.73059155,12.3610822 0,9.59199735 0,6.18304805 C0,2.76574231 2.73059155,0 6.09971127,0 C9.47236529,0 12.2010719,2.76574231 12.2010719,6.18304805 Z" id="path-15"></path>
        <path d="M12.4970311,6.4349904 C12.4970311,9.84990859 9.76832449,12.6149346 6.39567048,12.6149346 C3.02655075,12.6149346 0.295959204,9.84990859 0.295959204,6.4349904 C0.295959204,3.02317603 3.02655075,0.260776299 6.39567048,0.260776299 C9.76832449,0.260776299 12.4970311,3.02317603 12.4970311,6.4349904 Z" id="path-17"></path>
        <polygon id="path-19" points="14.2513975 25.4031417 8.66745681 25.4031417 8.66745681 15.4016789 0.00585737784 0.0750160874 6.05491051 0.0750160874 11.4602518 9.49630334 16.8637082 0.0750160874 22.9139394 0.0750160874 14.2513975 15.4016789"></polygon>
        <path d="M20.89071,10.1223668 C20.89071,12.9475592 19.923493,15.3265178 17.9925932,17.2597201 C16.0579235,19.1924449 13.6305739,20.1584492 10.7067746,20.1584492 C7.78462456,20.1584492 5.35562567,19.1924449 3.42354777,17.2597201 C1.4917055,15.3265178 0.523781604,12.9475592 0.523781604,10.1223668 C0.523781604,7.29454814 1.4917055,4.90962066 3.42354777,2.96448058 C5.35562567,1.02053429 7.78462456,0.0480836279 10.7067746,0.0480836279 C13.6305739,0.0480836279 16.0579235,1.02053429 17.9925932,2.96448058 C19.923493,4.90962066 20.89071,7.29454814 20.89071,10.1223668 Z M5.92865169,10.1223668 C5.92865169,11.716059 6.37679952,13.0134557 7.27073897,14.0157508 C8.16656338,15.0185234 9.31167296,15.520626 10.7067746,15.520626 C12.1028187,15.520626 13.2483995,15.0185234 14.1425745,14.0157508 C15.0383989,13.0134557 15.4848974,11.716059 15.4848974,10.1223668 C15.4848974,8.52748091 15.0383989,7.22268277 14.1425745,6.20821116 C13.2483995,5.19302329 12.1028187,4.68590687 10.7067746,4.68590687 C9.31167296,4.68590687 8.16656338,5.19302329 7.27073897,6.20821116 C6.37679952,7.22268277 5.92865169,8.52748091 5.92865169,10.1223668 Z" id="path-21"></path>
        <path d="M12.794295,0.200609944 L18.2012856,0.200609944 L18.2012856,12.0144649 C18.2012856,14.6465042 17.4845318,16.6334264 16.0536161,17.9740379 C14.6201086,19.3156043 12.6538659,19.9862682 10.5431886,19.9862682 C10.1532387,19.9862682 9.65396153,19.9946246 9.1763613,19.9862682 C8.79112381,19.9946246 8.18322614,19.9862682 7.79327627,19.9862682 C5.68165651,19.9862682 3.70245477,19.3156043 2.27012531,17.9740379 C0.83897396,16.6334264 0.122455806,14.6465042 0.122455806,12.0144649 L0.122455806,0.200609944 L5.52826837,0.200609944 L5.52826837,10.8185392 C5.52826837,13.7595279 6.73935134,15.0521495 9.19332588,15.1039595 C11.7446112,15.0521495 12.794295,13.7595279 12.794295,10.8185392 L12.794295,0.200609944 Z" id="path-23"></path>
        <path d="M18.3259613,17.042214 C16.1544943,19.1198633 13.6060364,20.1584492 10.6838864,20.1584492 C7.76032268,20.1584492 5.34334036,19.2466424 3.43506001,17.4230288 C1.52536595,15.5998928 0.572757305,13.1526501 0.572757305,10.0846435 C0.572757305,7.01735314 1.5430374,4.57822819 3.4899593,2.76488109 C5.43381815,0.955115313 7.73087027,0.0480836279 10.3797019,0.0480836279 C13.0278267,0.0480836279 15.2775194,0.857703118 17.1264237,2.47622583 C18.9755636,4.09427104 19.9001336,6.31708361 19.9001336,9.14299228 C19.9001336,9.14299228 19.7799677,12.0426764 17.0298198,12.0426764 L5.86853568,12.0426764 C6.03629659,13.1056153 6.58505383,13.9746849 7.51622113,14.6513176 C8.44668157,15.3265178 9.49589411,15.665073 10.6655081,15.665073 C12.5502265,15.665073 14.1003656,15.0252086 15.3185171,13.7430922 L18.3259613,17.042214 Z M13.170612,5.48358859 C12.4310032,4.85542318 11.5309376,4.54098235 10.4680592,4.54098235 C9.40730127,4.54098235 8.43372251,4.86688344 7.5513284,5.51964065 C6.66752057,6.1721591 6.15528431,7.05364396 6.01226343,8.16385647 L14.4601562,8.16385647 C14.3392835,7.00613164 13.9104565,6.11175399 13.170612,5.48358859 Z" id="path-25"></path>
        <path d="M13.2927173,0.200609944 L18.6987655,0.200609944 L18.6987655,12.0144649 C18.6987655,14.6465042 17.9815405,16.6334264 16.5508604,17.9740379 C15.1182953,19.3156043 13.1522882,19.9862682 11.0404328,19.9862682 C10.6509542,19.9862682 10.1523839,19.9946246 9.67431241,19.9862682 C9.28907493,19.9946246 8.68047039,19.9862682 8.29052052,19.9862682 C6.17866514,19.9862682 4.20111274,19.3156043 2.76713395,17.9740379 C1.33692507,16.6334264 0.619228822,14.6465042 0.619228822,12.0144649 L0.619228822,0.200609944 L6.02598387,0.200609944 L6.02598387,10.8185392 C6.02598387,13.7595279 7.23730246,15.0521495 9.69080576,15.1039595 C12.242091,15.0521495 13.2927173,13.7595279 13.2927173,10.8185392 L13.2927173,0.200609944 Z" id="path-27"></path>
        <polygon id="path-29" points="15.7813279 26.1227035 15.7813279 15.9273713 5.60210483 15.9273713 5.60210483 26.1227035 0.0827237784 26.1227035 0.0827237784 0.725100086 5.60210483 0.725100086 5.60210483 10.7755078 15.7813279 10.7755078 15.7813279 0.725100086 21.3007089 0.725100086 21.3007089 26.1227035"></polygon>
    </defs>
    <g id="Educator---Insights-Dashboard" stroke="none" stroke-width="1" fill="none" fill-rule="evenodd">
        <g id="1.00a-Home-View---Expanded-sub-moods" transform="translate(-22.000000, -22.000000)">
            <g id="Logo" transform="translate(22.000000, 22.000000)">
                <g id="Group-2">
                    <g id="Group-12" transform="translate(0.000000, 32.708954)">
                        <mask id="mask-2" fill="white">
                            <use xlink:href="#path-1"></use>
                        </mask>
                        <g id="Clip-11"></g>
                        <polygon id="Fill-10" fill="#DD89E0" mask="url(#mask-2)" points="-11.6202704 24.5527036 24.1495599 24.5527036 24.1495599 -11.6770882 -11.6202704 -11.6770882"></polygon>
                    </g>
                    <g id="Group-15" transform="translate(15.807910, 32.708954)">
                        <mask id="mask-4" fill="white">
                            <use xlink:href="#path-3"></use>
                        </mask>
                        <g id="Clip-14"></g>
                        <polygon id="Fill-13" fill="#6599FE" mask="url(#mask-4)" points="-11.2072084 24.5527036 24.5567785 24.5527036 24.5567785 -11.6770882 -11.2072084 -11.6770882"></polygon>
                    </g>
                    <g id="Group-18">
                        <mask id="mask-6" fill="white">
                            <use xlink:href="#path-5"></use>
                        </mask>
                        <g id="Clip-17"></g>
                        <polygon id="Fill-16" fill="#FFAC00" mask="url(#mask-6)" points="-11.6202704 24.3466023 24.1495599 24.3466023 24.1495599 -11.8852666 -11.6202704 -11.8852666"></polygon>
                    </g>
                    <g id="Group-21" transform="translate(15.807910, 0.000000)">
                        <mask id="mask-8" fill="white">
                            <use xlink:href="#path-7"></use>
                        </mask>
                        <g id="Clip-20"></g>
                        <polygon id="Fill-19" fill="#F77D2C" mask="url(#mask-8)" points="-11.2072084 24.3466023 24.5611611 24.3466023 24.5611611 -11.8852666 -11.2072084 -11.8852666"></polygon>
                    </g>
                    <g id="Group-24" transform="translate(32.301258, 0.000000)">
                        <mask id="mask-10" fill="white">
                            <use xlink:href="#path-9"></use>
                        </mask>
                        <g id="Clip-23"></g>
                        <polygon id="Fill-22" fill="#EF659F" mask="url(#mask-10)" points="-11.4211507 24.3466023 24.3454752 24.3466023 24.3454752 -11.8852666 -11.4211507 -11.8852666"></polygon>
                    </g>
                    <g id="Group-27" transform="translate(0.000000, 15.996077)">
                        <mask id="mask-12" fill="white">
                            <use xlink:href="#path-11"></use>
                        </mask>
                        <g id="Clip-26"></g>
                        <polygon id="Fill-25" fill="#7DCDF8" mask="url(#mask-12)" points="-11.6202704 24.7940853 24.1495599 24.7940853 24.1495599 -11.4424871 -11.6202704 -11.4424871"></polygon>
                    </g>
                    <g id="Group-30" transform="translate(15.807910, 15.996077)">
                        <mask id="mask-14" fill="white">
                            <use xlink:href="#path-13"></use>
                        </mask>
                        <g id="Clip-29"></g>
                        <polygon id="Fill-28" fill="#C2A5EF" mask="url(#mask-14)" points="-11.2272361 24.793369 24.5390835 24.793369 24.5390835 -11.4426304 -11.2272361 -11.4426304"></polygon>
                    </g>
                    <g id="Group-33" transform="translate(32.597217, 16.491312)">
                        <mask id="mask-16" fill="white">
                            <use xlink:href="#path-15"></use>
                        </mask>
                        <g id="Clip-32"></g>
                        <polygon id="Fill-31" fill="#6BCD83" mask="url(#mask-16)" points="-11.7809627 24.2988512 23.9821524 24.2988512 23.9821524 -11.9377212 -11.7809627 -11.9377212"></polygon>
                    </g>
                    <g id="Group-9" transform="translate(32.301258, 32.708954)">
                        <mask id="mask-18" fill="white">
                            <use xlink:href="#path-17"></use>
                        </mask>
                        <g id="Clip-8"></g>
                        <polygon id="Fill-7" fill="#E25674" mask="url(#mask-18)" points="-11.4850035 24.5527036 24.2781116 24.5527036 24.2781116 -11.6770882 -11.4850035 -11.6770882"></polygon>
                    </g>
                </g>
                <g id="Group-36" transform="translate(57.308055, 10.309649)">
                    <mask id="mask-20" fill="white">
                        <use xlink:href="#path-19"></use>
                    </mask>
                    <use id="Clip-35" fill="#6F3996" xlink:href="#path-19"></use>
                    <polygon id="Fill-34" fill="#652D90" mask="url(#mask-20)" points="-11.7751054 37.3409107 34.6949964 37.3409107 34.6949964 -11.862729 -11.7751054 -11.862729"></polygon>
                </g>
                <g id="Group-39" transform="translate(75.398162, 15.844191)">
                    <mask id="mask-22" fill="white">
                        <use xlink:href="#path-21"></use>
                    </mask>
                    <use id="Clip-38" fill="#6F3996" xlink:href="#path-21"></use>
                    <polygon id="Fill-37" fill="#652D90" mask="url(#mask-22)" points="-11.2571811 32.0962182 32.6715549 32.0962182 32.6715549 -11.8896614 -11.2571811 -11.8896614"></polygon>
                </g>
                <g id="Group-42" transform="translate(98.122762, 15.996077)">
                    <mask id="mask-24" fill="white">
                        <use xlink:href="#path-23"></use>
                    </mask>
                    <use id="Clip-41" fill="#6F3996" xlink:href="#path-23"></use>
                    <polygon id="Fill-40" fill="#652D90" mask="url(#mask-24)" points="-11.6585069 31.9276185 29.9822719 31.9276185 29.9822719 -11.7372306 -11.6585069 -11.7372306"></polygon>
                </g>
                <g id="Group-45" transform="translate(163.336720, 15.844191)">
                    <mask id="mask-26" fill="white">
                        <use xlink:href="#path-25"></use>
                    </mask>
                    <g id="Clip-44"></g>
                    <polygon id="Fill-43" fill="#C2A5EF" mask="url(#mask-26)" points="-11.2082054 32.0962182 31.6812377 32.0962182 31.6812377 -11.8896614 -11.2082054 -11.8896614"></polygon>
                </g>
                <g id="Group-48" transform="translate(143.042308, 15.996077)">
                    <mask id="mask-28" fill="white">
                        <use xlink:href="#path-27"></use>
                    </mask>
                    <g id="Clip-47"></g>
                    <polygon id="Fill-46" fill="#C2A5EF" mask="url(#mask-28)" points="-11.1617339 31.9276185 30.479634 31.9276185 30.479634 -11.7372306 -11.1617339 -11.7372306"></polygon>
                </g>
                <g id="Group-51" transform="translate(119.480382, 9.550215)">
                    <mask id="mask-30" fill="white">
                        <use xlink:href="#path-29"></use>
                    </mask>
                    <g id="Clip-50"></g>
                    <polygon id="Fill-49" fill="#C2A5EF" mask="url(#mask-30)" points="-11.698239 38.0604725 33.0816952 38.0604725 33.0816952 -11.212836 -11.698239 -11.212836"></polygon>
                </g>
            </g>
        </g>
    </g>
</svg>