<?xml version="1.0" encoding="UTF-8"?>
<svg width="22px" height="23px" viewBox="0 0 22 23" version="1.1" xmlns="http://www.w3.org/2000/svg" xmlns:xlink="http://www.w3.org/1999/xlink">
    <title>logo-icon</title>
    <defs>
        <rect id="path-1" x="0" y="0" width="22" height="23"></rect>
        <path d="M5.53265382,2.87846502 C5.53265382,4.4060077 4.30963948,5.64284416 2.8002644,5.64284416 C1.29373501,5.64284416 0.0718800226,4.4060077 0.0718800226,2.87846502 C0.0718800226,1.35231071 1.29373501,0.11664904 2.8002644,0.11664904 C4.30963948,0.11664904 5.53265382,1.35231071 5.53265382,2.87846502 Z" id="path-3"></path>
        <path d="M5.71478757,2.87846502 C5.71478757,4.4060077 4.49335416,5.64284416 2.98577081,5.64284416 C1.47744969,5.64284416 0.256648665,4.4060077 0.256648665,2.87846502 C0.256648665,1.35231071 1.47744969,0.11664904 2.98577081,0.11664904 C4.49335416,0.11664904 5.71478757,1.35231071 5.71478757,2.87846502 Z" id="path-5"></path>
        <path d="M5.53265382,2.78819527 C5.53265382,4.31328159 4.30963948,5.55065204 2.8002644,5.55065204 C1.29373501,5.55065204 0.0718800226,4.31328159 0.0718800226,2.78819527 C0.0718800226,1.26033219 1.29373501,0.0234957276 2.8002644,0.0234957276 C4.30963948,0.0234957276 5.53265382,1.26033219 5.53265382,2.78819527 Z" id="path-7"></path>
        <path d="M5.71679009,2.78819527 C5.71679009,4.31328159 4.49335416,5.55065204 2.98703557,5.55065204 C1.47744969,5.55065204 0.256648665,4.31328159 0.256648665,2.78819527 C0.256648665,1.26033219 1.47744969,0.0234957276 2.98703557,0.0234957276 C4.49335416,0.0234957276 5.71679009,1.26033219 5.71679009,2.78819527 Z" id="path-9"></path>
        <path d="M5.62024742,2.78819527 C5.62024742,4.31328159 4.39944639,5.55065204 2.8902821,5.55065204 C1.38238257,5.55065204 0.160949163,4.31328159 0.160949163,2.78819527 C0.160949163,1.26033219 1.38238257,0.0234957276 2.8902821,0.0234957276 C4.39944639,0.0234957276 5.62024742,1.26033219 5.62024742,2.78819527 Z" id="path-11"></path>
        <path d="M5.53265382,2.98729295 C5.53265382,4.51216567 4.30963948,5.75081771 2.8002644,5.75081771 C1.29373501,5.75081771 0.0718800226,4.51216567 0.0718800226,2.98729295 C0.0718800226,1.45868228 1.29373501,0.221525424 2.8002644,0.221525424 C4.30963948,0.221525424 5.53265382,1.45868228 5.53265382,2.98729295 Z" id="path-13"></path>
        <path d="M5.70688287,2.98729295 C5.70688287,4.51216567 4.48429011,5.75049731 2.97670676,5.75049731 C1.47049356,5.75049731 0.247690011,4.51216567 0.247690011,2.98729295 C0.247690011,1.45868228 1.47049356,0.221525424 2.97670676,0.221525424 C4.48429011,0.221525424 5.70688287,1.45868228 5.70688287,2.98729295 Z" id="path-15"></path>
        <path d="M5.59010419,2.98729295 C5.59010419,4.56086591 4.38015894,5.75081771 2.86087664,5.75081771 C1.35382027,5.75081771 0.132386867,4.51216567 0.132386867,2.98729295 C0.132386867,1.45868228 1.35382027,0.221525424 2.86087664,0.221525424 C4.36951395,0.221525424 5.59010419,1.45868228 5.59010419,2.98729295 Z" id="path-17"></path>
        <path d="M5.59010419,2.87846502 C5.59010419,4.4060077 4.36951395,5.64284416 2.86087664,5.64284416 C1.35382027,5.64284416 0.132386867,4.4060077 0.132386867,2.87846502 C0.132386867,1.35231071 1.35382027,0.11664904 2.86087664,0.11664904 C4.36951395,0.11664904 5.59010419,1.35231071 5.59010419,2.87846502 Z" id="path-19"></path>
    </defs>
    <g id="Educator---Admin-Dashboard" stroke="none" stroke-width="1" fill="none" fill-rule="evenodd">
        <g id="logo-icon">
            <mask id="mask-2" fill="white">
                <use xlink:href="#path-1"></use>
            </mask>
            <g id="Mask"></g>
            <g mask="url(#mask-2)">
                <g transform="translate(1.000000, 1.500000)">
                    <g id="Group-12" transform="translate(0.000000, 14.631192)">
                        <mask id="mask-4" fill="white">
                            <use xlink:href="#path-3"></use>
                        </mask>
                        <g id="Clip-11"></g>
                        <polygon id="Fill-10" fill="#DD89E0" mask="url(#mask-4)" points="-5.19791636 10.9827822 10.8024502 10.9827822 10.8024502 -5.22333176 -5.19791636 -5.22333176"></polygon>
                    </g>
                    <g id="Group-15" transform="translate(7.071109, 14.631192)">
                        <mask id="mask-6" fill="white">
                            <use xlink:href="#path-5"></use>
                        </mask>
                        <g id="Clip-14"></g>
                        <polygon id="Fill-13" fill="#6599FE" mask="url(#mask-6)" points="-5.01314771 10.9827822 10.984605 10.9827822 10.984605 -5.22333176 -5.01314771 -5.22333176"></polygon>
                    </g>
                    <g id="Group-18">
                        <mask id="mask-8" fill="white">
                            <use xlink:href="#path-7"></use>
                        </mask>
                        <g id="Clip-17"></g>
                        <polygon id="Fill-16" fill="#FFAC00" mask="url(#mask-8)" points="-5.19791636 10.8905901 10.8024502 10.8905901 10.8024502 -5.31645303 -5.19791636 -5.31645303"></polygon>
                    </g>
                    <g id="Group-21" transform="translate(7.071109, 0.000000)">
                        <mask id="mask-10" fill="white">
                            <use xlink:href="#path-9"></use>
                        </mask>
                        <g id="Clip-20"></g>
                        <polygon id="Fill-19" fill="#F77D2C" mask="url(#mask-10)" points="-5.01314771 10.8905901 10.9865654 10.8905901 10.9865654 -5.31645303 -5.01314771 -5.31645303"></polygon>
                    </g>
                    <g id="Group-24" transform="translate(14.448824, 0.000000)">
                        <mask id="mask-12" fill="white">
                            <use xlink:href="#path-11"></use>
                        </mask>
                        <g id="Clip-23"></g>
                        <polygon id="Fill-22" fill="#EF659F" mask="url(#mask-12)" points="-5.10884722 10.8905901 10.890086 10.8905901 10.890086 -5.31645303 -5.10884722 -5.31645303"></polygon>
                    </g>
                    <g id="Group-27" transform="translate(0.000000, 7.155279)">
                        <mask id="mask-14" fill="white">
                            <use xlink:href="#path-13"></use>
                        </mask>
                        <g id="Clip-26"></g>
                        <polygon id="Fill-25" fill="#7DCDF8" mask="url(#mask-14)" points="-5.19791636 11.0907558 10.8024502 11.0907558 10.8024502 -5.1183913 -5.19791636 -5.1183913"></polygon>
                    </g>
                    <g id="Group-30" transform="translate(7.071109, 7.155279)">
                        <mask id="mask-16" fill="white">
                            <use xlink:href="#path-15"></use>
                        </mask>
                        <g id="Clip-29"></g>
                        <polygon id="Fill-28" fill="#C2A5EF" mask="url(#mask-16)" points="-5.02210637 11.0904354 10.9766898 11.0904354 10.9766898 -5.11845538 -5.02210637 -5.11845538"></polygon>
                    </g>
                    <g id="Group-33" transform="translate(14.448824, 7.155279)">
                        <mask id="mask-18" fill="white">
                            <use xlink:href="#path-17"></use>
                        </mask>
                        <g id="Clip-32"></g>
                        <polygon id="Fill-31" fill="#6BCD83" mask="url(#mask-18)" points="-5.13740951 11.0907558 10.8599533 11.0907558 10.8599533 -5.1183913 -5.13740951 -5.1183913"></polygon>
                    </g>
                    <g id="Group-9" transform="translate(14.448824, 14.631192)">
                        <mask id="mask-20" fill="white">
                            <use xlink:href="#path-19"></use>
                        </mask>
                        <g id="Clip-8"></g>
                        <polygon id="Fill-7" fill="#E25674" mask="url(#mask-20)" points="-5.13740951 10.9827822 10.8599533 10.9827822 10.8599533 -5.22333176 -5.13740951 -5.22333176"></polygon>
                    </g>
                </g>
            </g>
        </g>
    </g>
</svg>