<?xml version="1.0" encoding="UTF-8"?>
<svg width="310px" height="76px" viewBox="0 0 310 76" version="1.1" xmlns="http://www.w3.org/2000/svg" xmlns:xlink="http://www.w3.org/1999/xlink">
    <title>logo-white</title>
    <g id="Educator-Login/Sign-Up" stroke="none" stroke-width="1" fill="none" fill-rule="evenodd">
        <g id="1.01-Login" transform="translate(-82.000000, -80.000000)">
            <g id="logo-white" transform="translate(82.000000, 80.000000)">
                <path d="M75.5646067,65.5798372 C75.5646067,71.301246 70.9616216,75.9336633 65.2730639,75.9336633 C59.5899168,75.9336633 54.9839804,71.301246 54.9839804,65.5798372 C54.9839804,59.8638684 59.5899168,55.2359019 65.2730639,55.2359019 C70.9616216,55.2359019 75.5646067,59.8638684 75.5646067,65.5798372" id="Fill-1" fill="#E25674"></path>
                <path d="M20.8629637,65.5798372 C20.8629637,71.301246 16.2511248,75.9336633 10.5596158,75.9336633 C4.87843625,75.9336633 0.271024236,71.301246 0.271024236,65.5798372 C0.271024236,59.8638684 4.87843625,55.2359019 10.5596158,55.2359019 C16.2511248,55.2359019 20.8629637,59.8638684 20.8629637,65.5798372" id="Fill-2" fill="#DD89E0"></path>
                <path d="M48.214277,65.5798372 C48.214277,71.301246 43.6083407,75.9336633 37.9232261,75.9336633 C32.2356522,75.9336633 27.6321752,71.301246 27.6321752,65.5798372 C27.6321752,59.8638684 32.2356522,55.2359019 37.9232261,55.2359019 C43.6083407,55.2359019 48.214277,59.8638684 48.214277,65.5798372" id="Fill-3" fill="#2B90E2"></path>
                <path d="M20.8629637,10.4428445 C20.8629637,16.154857 16.2511248,20.7892525 10.5596158,20.7892525 C4.87843625,20.7892525 0.271024236,16.154857 0.271024236,10.4428445 C0.271024236,4.72044663 4.87843625,0.0880292824 10.5596158,0.0880292824 C16.2511248,0.0880292824 20.8629637,4.72044663 20.8629637,10.4428445" id="Fill-4" fill="#FFAC00"></path>
                <path d="M48.2216552,10.4428445 C48.2216552,16.154857 43.6083407,20.7892525 37.9281449,20.7892525 C32.2356522,20.7892525 27.6321752,16.154857 27.6321752,10.4428445 C27.6321752,4.72044663 32.2356522,0.0880292824 37.9281449,0.0880292824 C43.6083407,0.0880292824 48.2216552,4.72044663 48.2216552,10.4428445" id="Fill-5" fill="#F27C2B"></path>
                <path d="M75.6782303,10.4428445 C75.6782303,16.154857 71.0747533,20.7892525 65.3837362,20.7892525 C59.6976379,20.7892525 55.0917015,16.154857 55.0917015,10.4428445 C55.0917015,4.72044663 59.6976379,0.0880292824 65.3837362,0.0880292824 C71.0747533,0.0880292824 75.6782303,4.72044663 75.6782303,10.4428445" id="Fill-6" fill="#EE659B"></path>
                <path d="M20.8629637,37.9876026 C20.8629637,43.6986259 16.2511248,48.3379669 10.5596158,48.3379669 C4.87843625,48.3379669 0.271024236,43.6986259 0.271024236,37.9876026 C0.271024236,32.2622374 4.87843625,27.628831 10.5596158,27.628831 C16.2511248,27.628831 20.8629637,32.2622374 20.8629637,37.9876026" id="Fill-7" fill="#56C8E7"></path>
                <path d="M48.1842725,37.9876026 C48.1842725,43.6986259 43.5739093,48.3369779 37.8892866,48.3369779 C32.2095827,48.3369779 27.5982356,43.6986259 27.5982356,37.9876026 C27.5982356,32.2622374 32.2095827,27.628831 37.8892866,27.628831 C43.5739093,27.628831 48.1842725,32.2622374 48.1842725,37.9876026" id="Fill-8" fill="#C2A5EF"></path>
                <path d="M75.5646067,37.9876026 C75.5646067,43.8811136 71.0019555,48.3379669 65.2730639,48.3379669 C59.5899168,48.3379669 54.9839804,43.6986259 54.9839804,37.9876026 C54.9839804,32.2622374 59.5899168,27.628831 65.2730639,27.628831 C70.9616216,27.628831 75.5646067,32.2622374 75.5646067,37.9876026" id="Fill-9" fill="#70C284"></path>
                <polyline id="Fill-10" fill="#FFFFFF" points="120.704652 59.8317229 111.285699 59.8317229 111.285699 43.0754973 96.6754763 17.3981469 106.878973 17.3981469 115.996406 33.182094 125.110887 17.3981469 135.316351 17.3981469 120.704652 43.0754973 120.704652 59.8317229"></polyline>
                <path d="M162.417299,43.5032801 C162.417299,48.2365849 160.785743,52.2221354 157.529025,55.4609206 C154.265421,58.6987168 150.171037,60.3173675 145.239478,60.3173675 C140.310378,60.3173675 136.213043,58.6987168 132.954358,55.4609206 C129.695672,52.2221354 128.063133,48.2365849 128.063133,43.5032801 C128.063133,38.7655243 129.695672,34.7700829 132.954358,31.5110213 C136.213043,28.2544324 140.310378,26.6253961 145.239478,26.6253961 C150.171037,26.6253961 154.265421,28.2544324 157.529025,31.5110213 C160.785743,34.7700829 162.417299,38.7655243 162.417299,43.5032801 L162.417299,43.5032801 Z M137.179581,43.5032801 C137.179581,46.1733368 137.935596,48.3468688 139.443691,50.0258543 C140.954737,51.7058288 142.886338,52.5470525 145.239478,52.5470525 C147.594093,52.5470525 149.526678,51.7058288 151.034773,50.0258543 C152.545819,48.3468688 153.298883,46.1733368 153.298883,43.5032801 C153.298883,40.8312452 152.545819,38.6453495 151.034773,36.9455931 C149.526678,35.2448476 147.594093,34.3952166 145.239478,34.3952166 C142.886338,34.3952166 140.954737,35.2448476 139.443691,36.9455931 C137.935596,38.6453495 137.179581,40.8312452 137.179581,43.5032801 L137.179581,43.5032801 Z" id="Fill-11" fill="#FFFFFF"></path>
                <path d="M187.091818,27.1352736 L187.091818,44.9241122 C187.091818,49.8512793 185.32106,52.0168986 181.017628,52.1034442 C176.878483,52.0168986 174.835718,49.8512793 174.835718,44.9241122 L174.835718,27.1352736 L165.717302,27.1352736 L165.717302,46.9275202 C165.717302,51.3373917 166.925844,54.6661843 169.339976,56.9119201 C171.756076,59.1596341 175.094445,60.2832438 178.656127,60.2832438 C179.313766,60.2832438 180.33933,60.2970911 180.9891,60.2832438 C181.794794,60.2970911 182.636888,60.2832438 183.294527,60.2832438 C186.854733,60.2832438 190.17146,59.1596341 192.589527,56.9119201 C195.003168,54.6661843 196.212201,51.3373917 196.212201,46.9275202 L196.212201,27.1352736 L187.091818,27.1352736" id="Fill-12" fill="#FFFFFF"></path>
                <path d="M306.423641,55.0964398 C302.760633,58.5770583 298.46212,60.3173675 293.53302,60.3173675 C288.601461,60.3173675 284.524785,58.7897133 281.305941,55.7344049 C278.084639,52.6800855 276.477677,48.5798002 276.477677,43.4399781 C276.477677,38.3011451 278.114643,34.2147071 281.398414,31.1767078 C284.677266,28.144643 288.551782,26.6253961 293.019993,26.6253961 C297.486728,26.6253961 301.281559,27.9814427 304.400059,30.6930413 C307.519051,33.4041454 309.078793,37.1280807 309.078793,41.8623747 C309.078793,41.8623747 308.87614,46.7203052 304.237248,46.7203052 L285.410655,46.7203052 C285.693484,48.5011673 286.619197,49.9571123 288.18976,51.0906129 C289.75934,52.2221354 291.529113,52.7893803 293.502032,52.7893803 C296.681033,52.7893803 299.295851,51.7172034 301.350422,49.5693878 L306.423641,55.0964398 L306.423641,55.0964398 Z M297.727747,35.7314813 C296.479855,34.6790863 294.961923,34.1523943 293.169031,34.1523943 C291.379583,34.1523943 289.737697,34.6983736 288.249277,35.791816 C286.758398,36.8852584 285.89417,38.3619743 285.65315,40.2219638 L299.902828,40.2219638 C299.698699,38.2823523 298.975639,36.7838764 297.727747,35.7314813 L297.727747,35.7314813 Z" id="Fill-13" fill="#C2A5EF"></path>
                <path d="M263.701663,27.1352736 L263.701663,44.9241122 C263.701663,49.8512793 261.92943,52.0168986 257.625998,52.1034442 C253.487345,52.0168986 251.444088,49.8512793 251.444088,44.9241122 L251.444088,27.1352736 L242.324196,27.1352736 L242.324196,46.9275202 C242.324196,51.3373917 243.534705,54.6661843 245.947362,56.9119201 C248.365921,59.1596341 251.701831,60.2832438 255.264005,60.2832438 C255.921644,60.2832438 256.948192,60.2970911 257.597961,60.2832438 C258.404639,60.2970911 259.245257,60.2832438 259.902405,60.2832438 C263.464578,60.2832438 266.780813,59.1596341 269.197405,56.9119201 C271.610554,54.6661843 272.820079,51.3373917 272.820079,46.9275202 L272.820079,27.1352736 L263.701663,27.1352736" id="Fill-14" fill="#C2A5EF"></path>
                <polyline id="Fill-15" fill="#C2A5EF" points="228.155679 59.7649591 228.155679 42.6838165 210.985727 42.6838165 210.985727 59.7649591 201.675479 59.7649591 201.675479 17.2146702 210.985727 17.2146702 210.985727 34.0529904 228.155679 34.0529904 228.155679 17.2146702 237.465435 17.2146702 237.465435 59.7649591 228.155679 59.7649591"></polyline>
            </g>
        </g>
    </g>
</svg>