<?xml version="1.0" encoding="UTF-8"?>
<svg width="29px" height="30px" viewBox="0 0 29 30" version="1.1" xmlns="http://www.w3.org/2000/svg" xmlns:xlink="http://www.w3.org/1999/xlink">
    <title>Artboard</title>
    <defs>
        <path d="M8,3.99814471 C8,6.20949289 6.20829152,8 3.99706632,8 C1.79001004,8 0,6.20949289 0,3.99814471 C0,1.78880643 1.79001004,0 3.99706632,0 C6.20829152,0 8,1.78880643 8,3.99814471 Z" id="path-1"></path>
        <path d="M8,3.99814471 C8,6.20949289 6.20974376,8 4.00007724,8 C1.78932937,8 0,6.20949289 0,3.99814471 C0,1.78880643 1.78932937,0 4.00007724,0 C6.20974376,0 8,1.78880643 8,3.99814471 Z" id="path-3"></path>
        <path d="M8,4.00162309 C8,6.20903136 6.20829152,8 3.99706632,8 C1.79001004,8 0,6.20903136 0,4.00162309 C0,1.79019574 1.79001004,0 3.99706632,0 C6.20829152,0 8,1.79019574 8,4.00162309 Z" id="path-5"></path>
        <path d="M8,4.00162309 C8,6.20903136 6.20746632,8 4.00046327,8 C1.78867313,8 0,6.20903136 0,4.00162309 C0,1.79019574 1.78867313,0 4.00046327,0 C6.20746632,0 8,1.79019574 8,4.00162309 Z" id="path-7"></path>
        <path d="M8,4.00162309 C8,6.20903136 6.21105062,8 3.99953666,8 C1.78987606,8 9.39540236e-16,6.20903136 9.39540236e-16,4.00162309 C9.39540236e-16,1.79019574 1.78987606,0 3.99953666,0 C6.21105062,0 8,1.79019574 8,4.00162309 Z" id="path-9"></path>
        <path d="M8,4.00162247 C8,6.20786897 6.20829152,8 3.99706632,8 C1.79001004,8 0,6.20786897 0,4.00162247 C0,1.78996774 1.79001004,0 3.99706632,0 C6.20829152,0 8,1.78996774 8,4.00162247 Z" id="path-11"></path>
        <path d="M8,4.00185436 C8,6.2082287 6.20839045,8 3.99915053,8 C1.79191845,8 4.69779187e-16,6.2082287 4.69779187e-16,4.00185436 C4.69779187e-16,1.79007147 1.79191845,0 3.99915053,0 C6.20839045,0 8,1.79007147 8,4.00185436 Z" id="path-13"></path>
        <path d="M8,4.00162247 C8,6.2783304 6.22644497,8 3.99945928,8 C1.79039453,8 9.39812393e-16,6.20786897 9.39812393e-16,4.00162247 C9.39812393e-16,1.78996774 1.79039453,0 3.99945928,0 C6.2108414,0 8,1.78996774 8,4.00162247 Z" id="path-15"></path>
        <path d="M8,3.99814471 C8,6.20949289 6.2108414,8 3.99945928,8 C1.79039453,8 9.39812393e-16,6.20949289 9.39812393e-16,3.99814471 C9.39812393e-16,1.78880643 1.79039453,0 3.99945928,0 C6.2108414,0 8,1.78880643 8,3.99814471 Z" id="path-17"></path>
    </defs>
    <g id="Artboard" stroke="none" stroke-width="1" fill="none" fill-rule="evenodd">
        <g id="Group">
            <g id="Group-12" transform="translate(0.000000, 22.000000)">
                <mask id="mask-2" fill="white">
                    <use xlink:href="#path-1"></use>
                </mask>
                <g id="Clip-11"></g>
                <polygon id="Fill-10" fill="#DD89E0" mask="url(#mask-2)" points="-7.72021925 15.7303649 15.7202193 15.7303649 15.7202193 -7.73042672 -7.72021925 -7.73042672"></polygon>
            </g>
            <g id="Group-15" transform="translate(11.000000, 22.000000)">
                <mask id="mask-4" fill="white">
                    <use xlink:href="#path-3"></use>
                </mask>
                <g id="Clip-14"></g>
                <polygon id="Fill-13" fill="#2B90E2" mask="url(#mask-4)" points="-7.72394616 15.7303649 15.7239771 15.7303649 15.7239771 -7.73042672 -7.72394616 -7.73042672"></polygon>
            </g>
            <g id="Group-18">
                <mask id="mask-6" fill="white">
                    <use xlink:href="#path-5"></use>
                </mask>
                <g id="Clip-17"></g>
                <polygon id="Fill-16" fill="#FFAC00" mask="url(#mask-6)" points="-7.72021925 15.7290205 15.7202193 15.7290205 15.7202193 -7.729036 -7.72021925 -7.729036"></polygon>
            </g>
            <g id="Group-21" transform="translate(11.000000, 0.000000)">
                <mask id="mask-8" fill="white">
                    <use xlink:href="#path-7"></use>
                </mask>
                <g id="Clip-20"></g>
                <polygon id="Fill-19" fill="#F27C2B" mask="url(#mask-8)" points="-7.72111338 15.7290205 15.7210825 15.7290205 15.7210825 -7.729036 -7.72111338 -7.729036"></polygon>
            </g>
            <g id="Group-24" transform="translate(21.000000, 0.000000)">
                <mask id="mask-10" fill="white">
                    <use xlink:href="#path-9"></use>
                </mask>
                <g id="Clip-23"></g>
                <polygon id="Fill-22" fill="#EE659B" mask="url(#mask-10)" points="-7.72230588 15.7290205 15.7223677 15.7290205 15.7223677 -7.729036 -7.72230588 -7.729036"></polygon>
            </g>
            <g id="Group-27" transform="translate(0.000000, 11.000000)">
                <mask id="mask-12" fill="white">
                    <use xlink:href="#path-11"></use>
                </mask>
                <g id="Clip-26"></g>
                <polygon id="Fill-25" fill="#56C8E7" mask="url(#mask-12)" points="-7.72021925 15.7260348 15.7202193 15.7260348 15.7202193 -7.7260039 -7.72021925 -7.7260039"></polygon>
            </g>
            <g id="Group-30" transform="translate(11.000000, 11.000000)">
                <mask id="mask-14" fill="white">
                    <use xlink:href="#path-13"></use>
                </mask>
                <g id="Clip-29"></g>
                <polygon id="Fill-28" fill="#C2A5EF" mask="url(#mask-14)" points="-7.72245497 15.7264825 15.7224704 15.7264825 15.7224704 -7.72654433 -7.72245497 -7.72654433"></polygon>
            </g>
            <g id="Group-33" transform="translate(21.000000, 11.000000)">
                <mask id="mask-16" fill="white">
                    <use xlink:href="#path-15"></use>
                </mask>
                <g id="Clip-32"></g>
                <polygon id="Fill-31" fill="#70C284" mask="url(#mask-16)" points="-7.7245428 15.7260348 15.72462 15.7260348 15.72462 -7.7260039 -7.7245428 -7.7260039"></polygon>
            </g>
            <g id="Group-9" transform="translate(21.000000, 22.000000)">
                <mask id="mask-18" fill="white">
                    <use xlink:href="#path-17"></use>
                </mask>
                <g id="Clip-8"></g>
                <polygon id="Fill-7" fill="#E25674" mask="url(#mask-18)" points="-7.7245428 15.7303649 15.72462 15.7303649 15.72462 -7.73042672 -7.7245428 -7.73042672"></polygon>
            </g>
        </g>
    </g>
</svg>