<?xml version="1.0" encoding="UTF-8"?>
<svg width="517px" height="268px" viewBox="0 0 517 268" version="1.1" xmlns="http://www.w3.org/2000/svg" xmlns:xlink="http://www.w3.org/1999/xlink">
    <title>moods-by-day</title>
    <g id="Educator-Insight-Dashboard---Updates" stroke="none" stroke-width="1" fill="none" fill-rule="evenodd">
        <g id="moods-by-day">
            <g id="Group">
                <rect id="Rectangle-3" fill="#FFAC00" x="90" y="0" width="16" height="15"></rect>
                <rect id="Rectangle-3" fill="#FF7100" x="108" y="0" width="16" height="15"></rect>
                <rect id="Rectangle-3" fill="#FF4798" x="126" y="0" width="16" height="15"></rect>
                <rect id="Rectangle-3" fill="#61CEFC" x="144" y="0" width="16" height="15"></rect>
                <rect id="Rectangle-3" fill="#C99AF3" x="162" y="0" width="16" height="15"></rect>
                <rect id="Rectangle-3" fill="#6BCD83" x="180" y="0" width="16" height="15"></rect>
                <rect id="Rectangle-3" fill="#DC5371" x="198" y="0" width="16" height="15"></rect>
                <rect id="Rectangle-3" fill="#2B90E2" x="216" y="0" width="16" height="15"></rect>
                <rect id="Rectangle-3" fill="#DD89E0" x="234" y="0" width="16" height="15"></rect>
                <rect id="Rectangle-3" fill="#FFAC00" x="90" y="30" width="52" height="15"></rect>
                <rect id="Rectangle-3" fill="#61CEFC" x="144" y="30" width="34" height="15"></rect>
                <rect id="Rectangle-3" fill="#6BCD83" x="180" y="30" width="16" height="15"></rect>
                <rect id="Rectangle-3" fill="#DC5371" x="198" y="30" width="16" height="15"></rect>
                <rect id="Rectangle-3" fill="#DD89E0" x="216" y="30" width="8" height="15"></rect>
                <rect id="Rectangle-3" fill="#FF4798" x="144" y="60" width="34" height="15"></rect>
                <rect id="Rectangle-3" fill="#C99AF3" x="90" y="60" width="52" height="15"></rect>
                <rect id="Rectangle-3" fill="#6BCD83" x="180" y="60" width="16" height="15"></rect>
                <rect id="Rectangle-3" fill="#DD89E0" x="198" y="60" width="16" height="15"></rect>
                <rect id="Rectangle-3" fill="#FF7100" x="90" y="90" width="52" height="15"></rect>
                <rect id="Rectangle-3" fill="#61CEFC" x="144" y="90" width="34" height="15"></rect>
                <rect id="Rectangle-3" fill="#DC5371" x="180" y="90" width="16" height="15"></rect>
                <rect id="Rectangle-3" fill="#2B90E2" x="198" y="90" width="8" height="15"></rect>
                <rect id="Rectangle-3" fill="#FFAC00" x="90" y="120" width="34" height="15"></rect>
                <rect id="Rectangle-3" fill="#FF7100" x="162" y="120" width="16" height="15"></rect>
                <rect id="Rectangle-3" fill="#FF4798" x="180" y="120" width="16" height="15"></rect>
                <rect id="Rectangle-3" fill="#61CEFC" x="126" y="120" width="34" height="15"></rect>
                <rect id="Rectangle-3" fill="#C99AF3" x="198" y="120" width="16" height="15"></rect>
                <rect id="Rectangle-3" fill="#6BCD83" x="216" y="120" width="16" height="15"></rect>
                <rect id="Rectangle-3" fill="#FFAC00" x="90" y="180" width="16" height="15"></rect>
                <rect id="Rectangle-3" fill="#C99AF3" x="357" y="0" width="88" height="15"></rect>
                <rect id="Rectangle-3" fill="#6BCD83" x="447" y="0" width="16" height="15"></rect>
                <rect id="Rectangle-3" fill="#DD89E0" x="465" y="0" width="16" height="15"></rect>
                <rect id="Rectangle-3" fill="#FFAC00" x="357" y="30" width="52" height="15"></rect>
                <rect id="Rectangle-3" fill="#FF7100" x="411" y="30" width="34" height="15"></rect>
                <rect id="Rectangle-3" fill="#61CEFC" x="447" y="30" width="8" height="15"></rect>
                <rect id="Rectangle-3" fill="#C99AF3" x="457" y="30" width="8" height="15"></rect>
                <rect id="Rectangle-3" fill="#6BCD83" x="467" y="30" width="8" height="15"></rect>
                <rect id="Rectangle-3" fill="#FF4798" x="357" y="60" width="52" height="15"></rect>
                <rect id="Rectangle-3" fill="#61CEFC" x="411" y="60" width="34" height="15"></rect>
                <rect id="Rectangle-3" fill="#DC5371" x="447" y="60" width="8" height="15"></rect>
                <rect id="Rectangle-3" fill="#2B90E2" x="457" y="60" width="8" height="15"></rect>
                <rect id="Rectangle-3" fill="#DD89E0" x="467" y="60" width="8" height="15"></rect>
                <rect id="Rectangle-3" fill="#61CEFC" x="357" y="90" width="68" height="15"></rect>
                <rect id="Rectangle-3" fill="#C99AF3" x="429" y="90" width="52" height="15"></rect>
                <rect id="Rectangle-3" fill="#DD89E0" x="483" y="90" width="16" height="15"></rect>
                <rect id="Rectangle-3" fill="#FFAC00" x="357" y="120" width="34" height="15"></rect>
                <rect id="Rectangle-3" fill="#FF7100" x="393" y="120" width="16" height="15"></rect>
                <rect id="Rectangle-3" fill="#61CEFC" x="411" y="120" width="16" height="15"></rect>
                <rect id="Rectangle-3" fill="#C99AF3" x="429" y="120" width="16" height="15"></rect>
                <rect id="Rectangle-3" fill="#6BCD83" x="447" y="120" width="16" height="15"></rect>
                <rect id="Rectangle-3" fill="#DC5371" x="465" y="120" width="16" height="15"></rect>
                <rect id="Rectangle-3" fill="#2B90E2" x="483" y="120" width="16" height="15"></rect>
                <rect id="Rectangle-3" fill="#DD89E0" x="501" y="120" width="16" height="15"></rect>
                <rect id="Rectangle-3" fill="#2B90E2" x="357" y="150" width="8" height="15"></rect>
                <path d="M3.368,11.048 C3.608,11.048 3.704,10.928 3.704,10.676 L3.704,4.124 L5.732,8.552 C5.876,8.876 6.032,9.068 6.44,9.068 C6.836,9.068 7.004,8.876 7.148,8.552 L9.188,4.124 L9.188,10.676 C9.188,10.928 9.296,11.048 9.524,11.048 L9.62,11.048 C9.86,11.048 9.968,10.928 9.968,10.676 L9.968,3.704 C9.968,3.404 9.728,3.188 9.38,3.188 L9.212,3.188 C8.792,3.188 8.684,3.38 8.504,3.8 L6.452,8.324 L4.412,3.8 C4.232,3.38 4.124,3.188 3.704,3.188 L3.512,3.188 C3.164,3.188 2.924,3.404 2.924,3.704 L2.924,10.676 C2.924,10.928 3.02,11.048 3.248,11.048 L3.368,11.048 Z M14.264,11.144 C15.968,11.144 17.204,9.884 17.204,8.156 C17.204,6.416 15.968,5.144 14.264,5.144 C12.548,5.144 11.312,6.404 11.312,8.132 C11.312,9.872 12.548,11.144 14.264,11.144 Z M14.264,10.46 C13.028,10.46 12.104,9.464 12.104,8.132 C12.104,6.8 13.028,5.828 14.264,5.828 C15.5,5.828 16.412,6.824 16.412,8.156 C16.412,9.488 15.488,10.46 14.264,10.46 Z M18.872,11.048 C19.076,11.048 19.22,10.964 19.22,10.676 L19.22,7.088 C19.556,6.368 20.216,5.876 21.104,5.876 C22.076,5.876 22.64,6.572 22.64,7.712 L22.64,10.676 C22.64,10.964 22.784,11.048 22.988,11.048 L23.072,11.048 C23.276,11.048 23.42,10.964 23.42,10.676 L23.42,7.664 C23.42,6.152 22.664,5.144 21.152,5.144 C20.264,5.144 19.604,5.576 19.208,6.188 L19.208,5.996 C19.208,5.372 18.968,5.24 18.704,5.24 C18.56,5.24 18.44,5.3 18.44,5.324 L18.44,10.676 C18.44,10.964 18.584,11.048 18.788,11.048 L18.872,11.048 Z M24.752,12.572 L25.772,10.868 C25.952,10.592 25.964,10.424 25.964,10.292 L25.964,10.244 C25.964,9.968 25.796,9.824 25.604,9.824 L25.544,9.824 C25.244,9.824 25.184,9.968 25.076,10.244 L24.356,12.392 C24.26,12.644 24.68,12.704 24.752,12.572 Z M30.08,11.048 C30.32,11.048 30.416,10.928 30.416,10.676 L30.416,4.268 L34.892,10.736 C35.048,10.952 35.12,11.048 35.42,11.048 L35.48,11.048 C35.744,11.048 35.9,10.82 35.9,10.496 L35.9,3.56 C35.9,3.308 35.804,3.188 35.576,3.188 L35.468,3.188 C35.228,3.188 35.132,3.308 35.132,3.56 L35.132,9.728 L30.92,3.62 C30.728,3.344 30.596,3.188 30.296,3.188 L30.092,3.188 C29.804,3.188 29.648,3.44 29.648,3.74 L29.648,10.676 C29.648,10.928 29.744,11.048 29.972,11.048 L30.08,11.048 Z M40.196,11.144 C41.9,11.144 43.136,9.884 43.136,8.156 C43.136,6.416 41.9,5.144 40.196,5.144 C38.48,5.144 37.244,6.404 37.244,8.132 C37.244,9.872 38.48,11.144 40.196,11.144 Z M40.196,10.46 C38.96,10.46 38.036,9.464 38.036,8.132 C38.036,6.8 38.96,5.828 40.196,5.828 C41.432,5.828 42.344,6.824 42.344,8.156 C42.344,9.488 41.42,10.46 40.196,10.46 Z M46.28,11.072 C46.676,11.072 46.76,10.964 46.844,10.76 L48.944,5.468 C48.956,5.432 48.836,5.24 48.56,5.24 C48.32,5.24 48.176,5.348 47.996,5.816 L46.28,10.304 L44.6,5.816 C44.42,5.348 44.288,5.24 44.012,5.24 C43.736,5.24 43.616,5.42 43.628,5.468 L45.752,10.784 C45.836,10.988 45.872,11.072 46.28,11.072 Z M53.636,11.048 C53.876,11.048 53.996,10.928 53.996,10.676 L53.996,3.56 C53.996,3.32 53.876,3.188 53.636,3.188 L53.288,3.188 C53.264,3.704 52.868,4.124 52.352,4.124 C52.04,4.124 51.824,4.004 51.668,3.824 C51.656,3.812 51.416,3.992 51.416,4.268 C51.416,4.676 51.776,4.952 52.292,4.952 C52.664,4.952 52.988,4.784 53.18,4.508 L53.18,10.676 C53.18,10.928 53.3,11.048 53.528,11.048 L53.636,11.048 Z M58.292,11.144 C60.068,11.144 61.148,10.268 61.148,8.852 C61.148,7.88 60.608,7.172 59.624,6.836 C60.488,6.584 60.92,6.02 60.92,5.156 C60.92,3.848 59.948,3.092 58.304,3.092 C56.78,3.092 55.796,4.028 55.796,4.568 C55.796,4.916 56.24,5.06 56.264,5.012 C56.612,4.292 57.32,3.788 58.304,3.788 C59.42,3.788 60.092,4.304 60.092,5.168 C60.092,6.032 59.504,6.548 58.364,6.548 L57.536,6.548 C57.296,6.548 57.164,6.632 57.164,6.872 L57.164,6.92 C57.164,7.1 57.26,7.244 57.56,7.244 L58.232,7.244 C59.588,7.244 60.32,7.808 60.32,8.864 C60.32,9.824 59.528,10.436 58.304,10.436 C57.212,10.436 56.336,9.92 56,8.972 C55.988,8.924 55.532,9.008 55.532,9.44 C55.532,10.028 56.432,11.144 58.292,11.144 Z" id="Mon,Nov13" fill="#000000" fill-rule="nonzero"></path>
                <path d="M5.552,41.048 C5.792,41.048 5.912,40.928 5.912,40.676 L5.912,33.98 L8.348,33.98 C8.588,33.98 8.72,33.86 8.72,33.644 L8.72,33.584 C8.72,33.356 8.588,33.236 8.348,33.236 L2.66,33.236 C2.42,33.236 2.288,33.356 2.288,33.584 L2.288,33.644 C2.288,33.86 2.42,33.98 2.66,33.98 L5.096,33.98 L5.096,40.676 C5.096,40.928 5.216,41.048 5.444,41.048 L5.552,41.048 Z M11.072,41.144 C11.948,41.144 12.608,40.724 13.016,40.112 L13.016,40.292 C13.016,40.916 13.256,41.048 13.52,41.048 C13.664,41.048 13.784,40.988 13.784,40.964 L13.784,35.612 C13.784,35.324 13.64,35.24 13.436,35.24 L13.352,35.24 C13.148,35.24 13.004,35.324 13.004,35.612 L13.004,39.2 C12.668,39.92 12.008,40.412 11.18,40.412 C10.16,40.412 9.584,39.728 9.584,38.576 L9.584,35.612 C9.584,35.324 9.44,35.24 9.236,35.24 L9.152,35.24 C8.948,35.24 8.804,35.324 8.804,35.612 L8.804,38.624 C8.804,40.136 9.56,41.144 11.072,41.144 Z M17.96,41.144 C19.508,41.144 20.372,40.268 20.372,39.872 C20.372,39.5 19.94,39.392 19.916,39.428 C19.58,39.968 19.076,40.448 17.96,40.448 C16.736,40.448 15.848,39.584 15.788,38.36 L20.228,38.36 C20.468,38.36 20.552,38.312 20.552,38.096 L20.552,38.024 C20.552,36.284 19.496,35.144 17.888,35.144 C16.232,35.144 15.008,36.428 15.008,38.168 C15.008,39.92 16.22,41.144 17.96,41.144 Z M19.724,37.688 L15.812,37.688 C15.98,36.596 16.808,35.828 17.888,35.828 C18.956,35.828 19.652,36.56 19.724,37.688 Z M21.536,42.572 L22.556,40.868 C22.736,40.592 22.748,40.424 22.748,40.292 L22.748,40.244 C22.748,39.968 22.58,39.824 22.388,39.824 L22.328,39.824 C22.028,39.824 21.968,39.968 21.86,40.244 L21.14,42.392 C21.044,42.644 21.464,42.704 21.536,42.572 Z M26.864,41.048 C27.104,41.048 27.2,40.928 27.2,40.676 L27.2,34.268 L31.676,40.736 C31.832,40.952 31.904,41.048 32.204,41.048 L32.264,41.048 C32.528,41.048 32.684,40.82 32.684,40.496 L32.684,33.56 C32.684,33.308 32.588,33.188 32.36,33.188 L32.252,33.188 C32.012,33.188 31.916,33.308 31.916,33.56 L31.916,39.728 L27.704,33.62 C27.512,33.344 27.38,33.188 27.08,33.188 L26.876,33.188 C26.588,33.188 26.432,33.44 26.432,33.74 L26.432,40.676 C26.432,40.928 26.528,41.048 26.756,41.048 L26.864,41.048 Z M36.98,41.144 C38.684,41.144 39.92,39.884 39.92,38.156 C39.92,36.416 38.684,35.144 36.98,35.144 C35.264,35.144 34.028,36.404 34.028,38.132 C34.028,39.872 35.264,41.144 36.98,41.144 Z M36.98,40.46 C35.744,40.46 34.82,39.464 34.82,38.132 C34.82,36.8 35.744,35.828 36.98,35.828 C38.216,35.828 39.128,36.824 39.128,38.156 C39.128,39.488 38.204,40.46 36.98,40.46 Z M43.064,41.072 C43.46,41.072 43.544,40.964 43.628,40.76 L45.728,35.468 C45.74,35.432 45.62,35.24 45.344,35.24 C45.104,35.24 44.96,35.348 44.78,35.816 L43.064,40.304 L41.384,35.816 C41.204,35.348 41.072,35.24 40.796,35.24 C40.52,35.24 40.4,35.42 40.412,35.468 L42.536,40.784 C42.62,40.988 42.656,41.072 43.064,41.072 Z M50.42,41.048 C50.66,41.048 50.78,40.928 50.78,40.676 L50.78,33.56 C50.78,33.32 50.66,33.188 50.42,33.188 L50.072,33.188 C50.048,33.704 49.652,34.124 49.136,34.124 C48.824,34.124 48.608,34.004 48.452,33.824 C48.44,33.812 48.2,33.992 48.2,34.268 C48.2,34.676 48.56,34.952 49.076,34.952 C49.448,34.952 49.772,34.784 49.964,34.508 L49.964,40.676 C49.964,40.928 50.084,41.048 50.312,41.048 L50.42,41.048 Z M57.032,41.048 C57.272,41.048 57.38,40.928 57.38,40.676 L57.38,38.792 L58.436,38.792 C58.676,38.792 58.808,38.672 58.808,38.456 L58.808,38.396 C58.808,38.168 58.676,38.048 58.436,38.048 L57.38,38.048 L57.38,33.716 C57.38,33.368 57.224,33.188 56.744,33.188 C56.384,33.188 56.288,33.308 56.012,33.656 L52.928,37.46 C52.712,37.724 52.592,37.892 52.592,38.12 L52.592,38.36 C52.592,38.6 52.808,38.792 53.168,38.792 L56.588,38.792 L56.588,40.676 C56.588,40.868 56.732,41.048 56.924,41.048 L57.032,41.048 Z M56.612,38.06 L53.324,38.06 L56.612,33.98 L56.612,38.06 Z" id="Tue,Nov14" fill="#000000" fill-rule="nonzero"></path>
                <path d="M9.752,71.084 C10.196,71.084 10.34,71 10.388,70.748 L12.188,63.368 C12.2,63.32 12.02,63.188 11.744,63.188 C11.468,63.188 11.372,63.344 11.288,63.692 L9.764,70.244 L8.084,64.712 C7.976,64.412 7.868,64.256 7.448,64.256 C7.028,64.256 6.896,64.424 6.8,64.712 L5.096,70.268 L3.608,63.692 C3.524,63.344 3.38,63.188 3.104,63.188 C2.828,63.188 2.648,63.32 2.66,63.368 L4.46,70.748 C4.508,71 4.652,71.084 5.096,71.084 C5.492,71.084 5.576,70.976 5.648,70.736 L7.46,65.06 L9.164,70.736 C9.236,70.976 9.356,71.084 9.752,71.084 Z M15.68,71.144 C17.228,71.144 18.092,70.268 18.092,69.872 C18.092,69.5 17.66,69.392 17.636,69.428 C17.3,69.968 16.796,70.448 15.68,70.448 C14.456,70.448 13.568,69.584 13.508,68.36 L17.948,68.36 C18.188,68.36 18.272,68.312 18.272,68.096 L18.272,68.024 C18.272,66.284 17.216,65.144 15.608,65.144 C13.952,65.144 12.728,66.428 12.728,68.168 C12.728,69.92 13.94,71.144 15.68,71.144 Z M17.444,67.688 L13.532,67.688 C13.7,66.596 14.528,65.828 15.608,65.828 C16.676,65.828 17.372,66.56 17.444,67.688 Z M21.8,71.144 C22.748,71.144 23.42,70.748 23.936,70.052 L23.936,70.676 C23.936,70.964 24.068,71.048 24.272,71.048 L24.356,71.048 C24.56,71.048 24.704,70.964 24.704,70.676 L24.704,63.584 C24.704,62.96 24.452,62.828 24.188,62.828 C24.044,62.828 23.924,62.888 23.924,62.912 L23.924,66.152 C23.588,65.624 22.856,65.144 21.848,65.144 C20.264,65.144 19.1,66.356 19.1,68.156 C19.1,69.968 20.288,71.144 21.8,71.144 Z M21.884,70.46 C20.732,70.46 19.892,69.488 19.892,68.144 C19.892,66.764 20.696,65.828 21.908,65.828 C22.916,65.828 23.576,66.344 23.936,67.172 L23.936,68.624 C23.888,69.68 22.928,70.46 21.884,70.46 Z M26.084,72.572 L27.104,70.868 C27.284,70.592 27.296,70.424 27.296,70.292 L27.296,70.244 C27.296,69.968 27.128,69.824 26.936,69.824 L26.876,69.824 C26.576,69.824 26.516,69.968 26.408,70.244 L25.688,72.392 C25.592,72.644 26.012,72.704 26.084,72.572 Z M31.412,71.048 C31.652,71.048 31.748,70.928 31.748,70.676 L31.748,64.268 L36.224,70.736 C36.38,70.952 36.452,71.048 36.752,71.048 L36.812,71.048 C37.076,71.048 37.232,70.82 37.232,70.496 L37.232,63.56 C37.232,63.308 37.136,63.188 36.908,63.188 L36.8,63.188 C36.56,63.188 36.464,63.308 36.464,63.56 L36.464,69.728 L32.252,63.62 C32.06,63.344 31.928,63.188 31.628,63.188 L31.424,63.188 C31.136,63.188 30.98,63.44 30.98,63.74 L30.98,70.676 C30.98,70.928 31.076,71.048 31.304,71.048 L31.412,71.048 Z M41.528,71.144 C43.232,71.144 44.468,69.884 44.468,68.156 C44.468,66.416 43.232,65.144 41.528,65.144 C39.812,65.144 38.576,66.404 38.576,68.132 C38.576,69.872 39.812,71.144 41.528,71.144 Z M41.528,70.46 C40.292,70.46 39.368,69.464 39.368,68.132 C39.368,66.8 40.292,65.828 41.528,65.828 C42.764,65.828 43.676,66.824 43.676,68.156 C43.676,69.488 42.752,70.46 41.528,70.46 Z M47.612,71.072 C48.008,71.072 48.092,70.964 48.176,70.76 L50.276,65.468 C50.288,65.432 50.168,65.24 49.892,65.24 C49.652,65.24 49.508,65.348 49.328,65.816 L47.612,70.304 L45.932,65.816 C45.752,65.348 45.62,65.24 45.344,65.24 C45.068,65.24 44.948,65.42 44.96,65.468 L47.084,70.784 C47.168,70.988 47.204,71.072 47.612,71.072 Z M54.968,71.048 C55.208,71.048 55.328,70.928 55.328,70.676 L55.328,63.56 C55.328,63.32 55.208,63.188 54.968,63.188 L54.62,63.188 C54.596,63.704 54.2,64.124 53.684,64.124 C53.372,64.124 53.156,64.004 53,63.824 C52.988,63.812 52.748,63.992 52.748,64.268 C52.748,64.676 53.108,64.952 53.624,64.952 C53.996,64.952 54.32,64.784 54.512,64.508 L54.512,70.676 C54.512,70.928 54.632,71.048 54.86,71.048 L54.968,71.048 Z M59.696,71.144 C61.484,71.144 62.6,70.172 62.6,68.624 C62.6,67.148 61.508,66.188 59.876,66.188 C59.192,66.188 58.628,66.356 58.148,66.596 L58.148,63.98 L61.832,63.98 C62.072,63.98 62.204,63.86 62.204,63.644 L62.204,63.584 C62.204,63.356 62.072,63.236 61.832,63.236 L57.824,63.236 C57.572,63.236 57.368,63.44 57.368,63.692 L57.368,66.956 C57.368,67.268 57.512,67.472 57.884,67.52 C58.364,67.172 58.964,66.944 59.864,66.944 C61.04,66.944 61.784,67.604 61.784,68.66 C61.784,69.728 60.968,70.412 59.72,70.412 C58.64,70.412 57.884,69.92 57.512,69.164 C57.488,69.116 57.032,69.26 57.032,69.608 C57.032,70.232 58.112,71.144 59.696,71.144 Z" id="Wed,Nov15" fill="#000000" fill-rule="nonzero"></path>
                <path d="M5.552,101.048 C5.792,101.048 5.912,100.928 5.912,100.676 L5.912,93.98 L8.348,93.98 C8.588,93.98 8.72,93.86 8.72,93.644 L8.72,93.584 C8.72,93.356 8.588,93.236 8.348,93.236 L2.66,93.236 C2.42,93.236 2.288,93.356 2.288,93.584 L2.288,93.644 C2.288,93.86 2.42,93.98 2.66,93.98 L5.096,93.98 L5.096,100.676 C5.096,100.928 5.216,101.048 5.444,101.048 L5.552,101.048 Z M10.244,101.048 C10.448,101.048 10.592,100.964 10.592,100.676 L10.592,97.832 C10.592,96.644 11.348,95.876 12.476,95.876 C13.436,95.876 14.012,96.56 14.012,97.712 L14.012,100.676 C14.012,100.964 14.156,101.048 14.36,101.048 L14.444,101.048 C14.648,101.048 14.792,100.964 14.792,100.676 L14.792,97.664 C14.792,96.152 14.036,95.144 12.524,95.144 C11.624,95.144 10.988,95.588 10.592,96.2 L10.592,93.584 C10.592,92.96 10.34,92.828 10.076,92.828 C9.932,92.828 9.812,92.888 9.812,92.912 L9.812,100.676 C9.812,100.964 9.956,101.048 10.16,101.048 L10.244,101.048 Z M18.572,101.144 C19.448,101.144 20.108,100.724 20.516,100.112 L20.516,100.292 C20.516,100.916 20.756,101.048 21.02,101.048 C21.164,101.048 21.284,100.988 21.284,100.964 L21.284,95.612 C21.284,95.324 21.14,95.24 20.936,95.24 L20.852,95.24 C20.648,95.24 20.504,95.324 20.504,95.612 L20.504,99.2 C20.168,99.92 19.508,100.412 18.68,100.412 C17.66,100.412 17.084,99.728 17.084,98.576 L17.084,95.612 C17.084,95.324 16.94,95.24 16.736,95.24 L16.652,95.24 C16.448,95.24 16.304,95.324 16.304,95.612 L16.304,98.624 C16.304,100.136 17.06,101.144 18.572,101.144 Z M23.324,101.048 C23.528,101.048 23.672,100.964 23.672,100.676 L23.672,98.432 C23.672,96.968 24.068,95.9 25.088,95.9 C25.412,95.9 25.616,95.996 25.784,96.14 C25.808,96.164 26,96.02 26,95.732 C26,95.36 25.7,95.144 25.172,95.144 C24.404,95.144 23.9,95.552 23.66,96.332 L23.66,95.996 C23.66,95.372 23.42,95.24 23.156,95.24 C23.012,95.24 22.892,95.3 22.892,95.324 L22.892,100.676 C22.892,100.964 23.036,101.048 23.24,101.048 L23.324,101.048 Z M26.12,102.572 L27.14,100.868 C27.32,100.592 27.332,100.424 27.332,100.292 L27.332,100.244 C27.332,99.968 27.164,99.824 26.972,99.824 L26.912,99.824 C26.612,99.824 26.552,99.968 26.444,100.244 L25.724,102.392 C25.628,102.644 26.048,102.704 26.12,102.572 Z M31.448,101.048 C31.688,101.048 31.784,100.928 31.784,100.676 L31.784,94.268 L36.26,100.736 C36.416,100.952 36.488,101.048 36.788,101.048 L36.848,101.048 C37.112,101.048 37.268,100.82 37.268,100.496 L37.268,93.56 C37.268,93.308 37.172,93.188 36.944,93.188 L36.836,93.188 C36.596,93.188 36.5,93.308 36.5,93.56 L36.5,99.728 L32.288,93.62 C32.096,93.344 31.964,93.188 31.664,93.188 L31.46,93.188 C31.172,93.188 31.016,93.44 31.016,93.74 L31.016,100.676 C31.016,100.928 31.112,101.048 31.34,101.048 L31.448,101.048 Z M41.564,101.144 C43.268,101.144 44.504,99.884 44.504,98.156 C44.504,96.416 43.268,95.144 41.564,95.144 C39.848,95.144 38.612,96.404 38.612,98.132 C38.612,99.872 39.848,101.144 41.564,101.144 Z M41.564,100.46 C40.328,100.46 39.404,99.464 39.404,98.132 C39.404,96.8 40.328,95.828 41.564,95.828 C42.8,95.828 43.712,96.824 43.712,98.156 C43.712,99.488 42.788,100.46 41.564,100.46 Z M47.648,101.072 C48.044,101.072 48.128,100.964 48.212,100.76 L50.312,95.468 C50.324,95.432 50.204,95.24 49.928,95.24 C49.688,95.24 49.544,95.348 49.364,95.816 L47.648,100.304 L45.968,95.816 C45.788,95.348 45.656,95.24 45.38,95.24 C45.104,95.24 44.984,95.42 44.996,95.468 L47.12,100.784 C47.204,100.988 47.24,101.072 47.648,101.072 Z M55.004,101.048 C55.244,101.048 55.364,100.928 55.364,100.676 L55.364,93.56 C55.364,93.32 55.244,93.188 55.004,93.188 L54.656,93.188 C54.632,93.704 54.236,94.124 53.72,94.124 C53.408,94.124 53.192,94.004 53.036,93.824 C53.024,93.812 52.784,93.992 52.784,94.268 C52.784,94.676 53.144,94.952 53.66,94.952 C54.032,94.952 54.356,94.784 54.548,94.508 L54.548,100.676 C54.548,100.928 54.668,101.048 54.896,101.048 L55.004,101.048 Z M60.392,101.144 C61.964,101.144 63.116,100.04 63.116,98.552 L63.116,98.492 C63.116,97.064 62.072,96.14 60.464,96.14 C59.564,96.14 58.7,96.572 58.172,97.076 L58.172,96.68 C58.172,94.832 59.036,93.788 60.452,93.788 C61.352,93.788 61.94,94.196 62.348,94.808 C62.372,94.844 62.792,94.652 62.792,94.364 C62.792,93.884 62.012,93.092 60.452,93.092 C58.568,93.092 57.368,94.46 57.368,96.728 L57.368,97.604 C57.368,99.704 58.388,101.144 60.392,101.144 Z M60.344,100.448 C59.012,100.448 58.268,99.488 58.184,97.904 C58.652,97.304 59.516,96.824 60.392,96.824 C61.64,96.824 62.324,97.448 62.324,98.552 L62.324,98.624 C62.324,99.704 61.508,100.448 60.344,100.448 Z" id="Thur,Nov16" fill="#000000" fill-rule="nonzero"></path>
                <path d="M3.38,131.048 C3.62,131.048 3.74,130.928 3.74,130.676 L3.74,127.628 L6.752,127.628 C6.992,127.628 7.124,127.52 7.124,127.292 L7.124,127.244 C7.124,127.028 6.992,126.908 6.752,126.908 L3.74,126.908 L3.74,123.98 L7.724,123.98 C7.964,123.98 8.096,123.872 8.096,123.644 L8.096,123.572 C8.096,123.356 7.964,123.236 7.724,123.236 L3.38,123.236 C3.128,123.236 2.924,123.44 2.924,123.692 L2.924,130.676 C2.924,130.928 3.044,131.048 3.272,131.048 L3.38,131.048 Z M9.152,131.048 C9.356,131.048 9.5,130.964 9.5,130.676 L9.5,128.432 C9.5,126.968 9.896,125.9 10.916,125.9 C11.24,125.9 11.444,125.996 11.612,126.14 C11.636,126.164 11.828,126.02 11.828,125.732 C11.828,125.36 11.528,125.144 11,125.144 C10.232,125.144 9.728,125.552 9.488,126.332 L9.488,125.996 C9.488,125.372 9.248,125.24 8.984,125.24 C8.84,125.24 8.72,125.3 8.72,125.324 L8.72,130.676 C8.72,130.964 8.864,131.048 9.068,131.048 L9.152,131.048 Z M13.22,123.86 C13.568,123.86 13.748,123.692 13.748,123.344 C13.748,122.996 13.58,122.828 13.244,122.828 C12.896,122.828 12.716,122.996 12.716,123.344 C12.716,123.68 12.896,123.86 13.22,123.86 Z M13.268,131.048 C13.472,131.048 13.616,130.964 13.616,130.676 L13.616,125.612 C13.616,125.324 13.472,125.24 13.268,125.24 L13.184,125.24 C12.98,125.24 12.836,125.324 12.836,125.612 L12.836,130.676 C12.836,130.964 12.98,131.048 13.184,131.048 L13.268,131.048 Z M15.056,132.572 L16.076,130.868 C16.256,130.592 16.268,130.424 16.268,130.292 L16.268,130.244 C16.268,129.968 16.1,129.824 15.908,129.824 L15.848,129.824 C15.548,129.824 15.488,129.968 15.38,130.244 L14.66,132.392 C14.564,132.644 14.984,132.704 15.056,132.572 Z M20.384,131.048 C20.624,131.048 20.72,130.928 20.72,130.676 L20.72,124.268 L25.196,130.736 C25.352,130.952 25.424,131.048 25.724,131.048 L25.784,131.048 C26.048,131.048 26.204,130.82 26.204,130.496 L26.204,123.56 C26.204,123.308 26.108,123.188 25.88,123.188 L25.772,123.188 C25.532,123.188 25.436,123.308 25.436,123.56 L25.436,129.728 L21.224,123.62 C21.032,123.344 20.9,123.188 20.6,123.188 L20.396,123.188 C20.108,123.188 19.952,123.44 19.952,123.74 L19.952,130.676 C19.952,130.928 20.048,131.048 20.276,131.048 L20.384,131.048 Z M30.5,131.144 C32.204,131.144 33.44,129.884 33.44,128.156 C33.44,126.416 32.204,125.144 30.5,125.144 C28.784,125.144 27.548,126.404 27.548,128.132 C27.548,129.872 28.784,131.144 30.5,131.144 Z M30.5,130.46 C29.264,130.46 28.34,129.464 28.34,128.132 C28.34,126.8 29.264,125.828 30.5,125.828 C31.736,125.828 32.648,126.824 32.648,128.156 C32.648,129.488 31.724,130.46 30.5,130.46 Z M36.584,131.072 C36.98,131.072 37.064,130.964 37.148,130.76 L39.248,125.468 C39.26,125.432 39.14,125.24 38.864,125.24 C38.624,125.24 38.48,125.348 38.3,125.816 L36.584,130.304 L34.904,125.816 C34.724,125.348 34.592,125.24 34.316,125.24 C34.04,125.24 33.92,125.42 33.932,125.468 L36.056,130.784 C36.14,130.988 36.176,131.072 36.584,131.072 Z M43.94,131.048 C44.18,131.048 44.3,130.928 44.3,130.676 L44.3,123.56 C44.3,123.32 44.18,123.188 43.94,123.188 L43.592,123.188 C43.568,123.704 43.172,124.124 42.656,124.124 C42.344,124.124 42.128,124.004 41.972,123.824 C41.96,123.812 41.72,123.992 41.72,124.268 C41.72,124.676 42.08,124.952 42.596,124.952 C42.968,124.952 43.292,124.784 43.484,124.508 L43.484,130.676 C43.484,130.928 43.604,131.048 43.832,131.048 L43.94,131.048 Z M47.48,131.048 C47.636,131.048 47.792,130.988 47.912,130.76 L51.392,124.232 C51.536,123.956 51.608,123.788 51.608,123.668 L51.608,123.596 C51.608,123.392 51.512,123.236 51.14,123.236 L46.316,123.236 C46.076,123.236 45.944,123.392 45.944,123.62 L45.944,123.68 C45.944,123.896 46.076,124.04 46.316,124.04 L50.66,124.04 L47.036,130.712 C47,130.772 47.204,131.048 47.48,131.048 Z" id="Fri,Nov17" fill="#000000" fill-rule="nonzero"></path>
                <path d="M5.288,161.144 C6.92,161.144 7.988,160.28 7.988,158.96 C7.988,157.424 6.68,156.968 5.444,156.68 C4.268,156.404 3.452,156.2 3.452,155.204 C3.452,154.364 4.196,153.8 5.276,153.8 C6.236,153.8 6.992,154.292 7.352,154.928 C7.376,154.964 7.832,154.784 7.832,154.436 C7.832,153.932 6.872,153.092 5.264,153.092 C3.776,153.092 2.66,154.004 2.66,155.228 C2.66,156.776 3.872,157.16 5.048,157.436 C6.164,157.7 7.184,157.976 7.184,158.996 C7.184,159.896 6.476,160.436 5.276,160.436 C4.124,160.436 3.344,159.848 2.924,159.128 C2.9,159.092 2.444,159.272 2.444,159.62 C2.444,160.184 3.56,161.144 5.288,161.144 Z M10.904,161.132 C11.816,161.132 12.584,160.736 13.04,160.076 L13.04,160.292 C13.04,160.916 13.268,161.048 13.532,161.048 C13.676,161.048 13.796,160.988 13.796,160.964 L13.796,157.364 C13.796,155.984 12.932,155.144 11.48,155.144 C9.968,155.144 9.152,156.056 9.152,156.464 C9.152,156.884 9.596,156.932 9.596,156.92 C9.908,156.332 10.496,155.864 11.42,155.864 C12.452,155.864 13.028,156.404 13.028,157.388 L13.028,157.592 L12.908,157.592 C10.268,157.652 8.936,158.204 8.936,159.536 C8.936,160.496 9.656,161.132 10.904,161.132 Z M10.976,160.484 C10.196,160.484 9.728,160.112 9.728,159.536 C9.728,158.636 10.736,158.288 12.692,158.216 L13.028,158.204 L13.028,158.732 C13.028,159.752 12.152,160.484 10.976,160.484 Z M17.192,161.144 C17.948,161.144 18.368,160.76 18.368,160.436 C18.368,160.136 18.128,160.028 18.104,160.052 C17.9,160.304 17.612,160.472 17.216,160.472 C16.58,160.472 16.364,160.076 16.364,159.236 L16.364,155.984 L17.888,155.984 C18.176,155.984 18.26,155.876 18.26,155.672 L18.26,155.6 C18.26,155.396 18.176,155.288 17.888,155.288 L16.364,155.288 L16.364,154.292 C16.364,154.004 16.232,153.92 16.028,153.92 L15.944,153.92 C15.74,153.92 15.596,154.004 15.596,154.292 L15.596,155.288 L15.068,155.288 C14.78,155.288 14.696,155.396 14.696,155.6 L14.696,155.672 C14.696,155.876 14.78,155.984 15.068,155.984 L15.596,155.984 L15.596,159.32 C15.596,160.508 16.076,161.144 17.192,161.144 Z M19.28,162.572 L20.3,160.868 C20.48,160.592 20.492,160.424 20.492,160.292 L20.492,160.244 C20.492,159.968 20.324,159.824 20.132,159.824 L20.072,159.824 C19.772,159.824 19.712,159.968 19.604,160.244 L18.884,162.392 C18.788,162.644 19.208,162.704 19.28,162.572 Z M24.608,161.048 C24.848,161.048 24.944,160.928 24.944,160.676 L24.944,154.268 L29.42,160.736 C29.576,160.952 29.648,161.048 29.948,161.048 L30.008,161.048 C30.272,161.048 30.428,160.82 30.428,160.496 L30.428,153.56 C30.428,153.308 30.332,153.188 30.104,153.188 L29.996,153.188 C29.756,153.188 29.66,153.308 29.66,153.56 L29.66,159.728 L25.448,153.62 C25.256,153.344 25.124,153.188 24.824,153.188 L24.62,153.188 C24.332,153.188 24.176,153.44 24.176,153.74 L24.176,160.676 C24.176,160.928 24.272,161.048 24.5,161.048 L24.608,161.048 Z M34.724,161.144 C36.428,161.144 37.664,159.884 37.664,158.156 C37.664,156.416 36.428,155.144 34.724,155.144 C33.008,155.144 31.772,156.404 31.772,158.132 C31.772,159.872 33.008,161.144 34.724,161.144 Z M34.724,160.46 C33.488,160.46 32.564,159.464 32.564,158.132 C32.564,156.8 33.488,155.828 34.724,155.828 C35.96,155.828 36.872,156.824 36.872,158.156 C36.872,159.488 35.948,160.46 34.724,160.46 Z M40.808,161.072 C41.204,161.072 41.288,160.964 41.372,160.76 L43.472,155.468 C43.484,155.432 43.364,155.24 43.088,155.24 C42.848,155.24 42.704,155.348 42.524,155.816 L40.808,160.304 L39.128,155.816 C38.948,155.348 38.816,155.24 38.54,155.24 C38.264,155.24 38.144,155.42 38.156,155.468 L40.28,160.784 C40.364,160.988 40.4,161.072 40.808,161.072 Z M48.164,161.048 C48.404,161.048 48.524,160.928 48.524,160.676 L48.524,153.56 C48.524,153.32 48.404,153.188 48.164,153.188 L47.816,153.188 C47.792,153.704 47.396,154.124 46.88,154.124 C46.568,154.124 46.352,154.004 46.196,153.824 C46.184,153.812 45.944,153.992 45.944,154.268 C45.944,154.676 46.304,154.952 46.82,154.952 C47.192,154.952 47.516,154.784 47.708,154.508 L47.708,160.676 C47.708,160.928 47.828,161.048 48.056,161.048 L48.164,161.048 Z M53.264,161.144 C54.992,161.144 56.168,160.22 56.168,158.96 C56.168,158.048 55.64,157.316 54.584,156.992 C55.484,156.692 55.94,156.032 55.94,155.204 C55.94,153.92 54.944,153.092 53.276,153.092 C51.644,153.092 50.588,153.968 50.588,155.228 C50.588,156.068 51.02,156.704 51.944,157.004 C50.912,157.34 50.36,158.072 50.36,158.972 C50.36,160.268 51.476,161.144 53.264,161.144 Z M53.276,156.656 C52.088,156.656 51.404,156.092 51.404,155.252 C51.404,154.34 52.016,153.776 53.264,153.776 C54.464,153.776 55.124,154.376 55.124,155.252 C55.124,156.128 54.476,156.656 53.276,156.656 Z M53.276,160.448 C51.944,160.448 51.176,159.812 51.176,158.924 C51.176,157.976 51.92,157.364 53.264,157.364 C54.584,157.364 55.352,157.988 55.352,158.924 C55.352,159.872 54.656,160.448 53.276,160.448 Z" id="Sat,Nov18" fill="#000000" fill-rule="nonzero"></path>
                <path d="M3.288,191.144 C4.92,191.144 5.988,190.28 5.988,188.96 C5.988,187.424 4.68,186.968 3.444,186.68 C2.268,186.404 1.452,186.2 1.452,185.204 C1.452,184.364 2.196,183.8 3.276,183.8 C4.236,183.8 4.992,184.292 5.352,184.928 C5.376,184.964 5.832,184.784 5.832,184.436 C5.832,183.932 4.872,183.092 3.264,183.092 C1.776,183.092 0.66,184.004 0.66,185.228 C0.66,186.776 1.872,187.16 3.048,187.436 C4.164,187.7 5.184,187.976 5.184,188.996 C5.184,189.896 4.476,190.436 3.276,190.436 C2.124,190.436 1.344,189.848 0.924,189.128 C0.9,189.092 0.444,189.272 0.444,189.62 C0.444,190.184 1.56,191.144 3.288,191.144 Z M9.516,191.144 C10.392,191.144 11.052,190.724 11.46,190.112 L11.46,190.292 C11.46,190.916 11.7,191.048 11.964,191.048 C12.108,191.048 12.228,190.988 12.228,190.964 L12.228,185.612 C12.228,185.324 12.084,185.24 11.88,185.24 L11.796,185.24 C11.592,185.24 11.448,185.324 11.448,185.612 L11.448,189.2 C11.112,189.92 10.452,190.412 9.624,190.412 C8.604,190.412 8.028,189.728 8.028,188.576 L8.028,185.612 C8.028,185.324 7.884,185.24 7.68,185.24 L7.596,185.24 C7.392,185.24 7.248,185.324 7.248,185.612 L7.248,188.624 C7.248,190.136 8.004,191.144 9.516,191.144 Z M14.268,191.048 C14.472,191.048 14.616,190.964 14.616,190.676 L14.616,187.088 C14.952,186.368 15.612,185.876 16.5,185.876 C17.472,185.876 18.036,186.572 18.036,187.712 L18.036,190.676 C18.036,190.964 18.18,191.048 18.384,191.048 L18.468,191.048 C18.672,191.048 18.816,190.964 18.816,190.676 L18.816,187.664 C18.816,186.152 18.06,185.144 16.548,185.144 C15.66,185.144 15,185.576 14.604,186.188 L14.604,185.996 C14.604,185.372 14.364,185.24 14.1,185.24 C13.956,185.24 13.836,185.3 13.836,185.324 L13.836,190.676 C13.836,190.964 13.98,191.048 14.184,191.048 L14.268,191.048 Z M20.148,192.572 L21.168,190.868 C21.348,190.592 21.36,190.424 21.36,190.292 L21.36,190.244 C21.36,189.968 21.192,189.824 21,189.824 L20.94,189.824 C20.64,189.824 20.58,189.968 20.472,190.244 L19.752,192.392 C19.656,192.644 20.076,192.704 20.148,192.572 Z M25.476,191.048 C25.716,191.048 25.812,190.928 25.812,190.676 L25.812,184.268 L30.288,190.736 C30.444,190.952 30.516,191.048 30.816,191.048 L30.876,191.048 C31.14,191.048 31.296,190.82 31.296,190.496 L31.296,183.56 C31.296,183.308 31.2,183.188 30.972,183.188 L30.864,183.188 C30.624,183.188 30.528,183.308 30.528,183.56 L30.528,189.728 L26.316,183.62 C26.124,183.344 25.992,183.188 25.692,183.188 L25.488,183.188 C25.2,183.188 25.044,183.44 25.044,183.74 L25.044,190.676 C25.044,190.928 25.14,191.048 25.368,191.048 L25.476,191.048 Z M35.592,191.144 C37.296,191.144 38.532,189.884 38.532,188.156 C38.532,186.416 37.296,185.144 35.592,185.144 C33.876,185.144 32.64,186.404 32.64,188.132 C32.64,189.872 33.876,191.144 35.592,191.144 Z M35.592,190.46 C34.356,190.46 33.432,189.464 33.432,188.132 C33.432,186.8 34.356,185.828 35.592,185.828 C36.828,185.828 37.74,186.824 37.74,188.156 C37.74,189.488 36.816,190.46 35.592,190.46 Z M41.676,191.072 C42.072,191.072 42.156,190.964 42.24,190.76 L44.34,185.468 C44.352,185.432 44.232,185.24 43.956,185.24 C43.716,185.24 43.572,185.348 43.392,185.816 L41.676,190.304 L39.996,185.816 C39.816,185.348 39.684,185.24 39.408,185.24 C39.132,185.24 39.012,185.42 39.024,185.468 L41.148,190.784 C41.232,190.988 41.268,191.072 41.676,191.072 Z M49.032,191.048 C49.272,191.048 49.392,190.928 49.392,190.676 L49.392,183.56 C49.392,183.32 49.272,183.188 49.032,183.188 L48.684,183.188 C48.66,183.704 48.264,184.124 47.748,184.124 C47.436,184.124 47.22,184.004 47.064,183.824 C47.052,183.812 46.812,183.992 46.812,184.268 C46.812,184.676 47.172,184.952 47.688,184.952 C48.06,184.952 48.384,184.784 48.576,184.508 L48.576,190.676 C48.576,190.928 48.696,191.048 48.924,191.048 L49.032,191.048 Z M53.808,191.144 C55.848,191.144 56.952,189.92 56.952,187.508 L56.952,186.632 C56.952,184.412 55.824,183.092 53.928,183.092 C52.356,183.092 51.204,184.316 51.204,185.804 L51.204,185.864 C51.204,187.292 52.248,188.216 53.856,188.216 C54.756,188.216 55.62,187.796 56.148,187.292 L56.148,187.556 C56.148,189.536 55.368,190.448 53.808,190.448 C52.908,190.448 52.32,190.04 51.912,189.428 C51.888,189.392 51.468,189.584 51.468,189.872 C51.468,190.352 52.248,191.144 53.808,191.144 Z M53.928,187.532 C52.68,187.532 51.996,186.908 51.996,185.804 L51.996,185.732 C51.996,184.652 52.812,183.788 53.976,183.788 C55.332,183.788 56.076,184.796 56.136,186.452 C55.668,187.052 54.792,187.532 53.928,187.532 Z" id="Sun,Nov19" fill="#000000" fill-rule="nonzero"></path>
            </g>
            <g id="Group-5" transform="translate(268.000000, 3.000000)" fill="#000000" fill-rule="nonzero">
                <path d="M1.368,8.048 C1.608,8.048 1.704,7.928 1.704,7.676 L1.704,1.124 L3.732,5.552 C3.876,5.876 4.032,6.068 4.44,6.068 C4.836,6.068 5.004,5.876 5.148,5.552 L7.188,1.124 L7.188,7.676 C7.188,7.928 7.296,8.048 7.524,8.048 L7.62,8.048 C7.86,8.048 7.968,7.928 7.968,7.676 L7.968,0.704 C7.968,0.404 7.728,0.188 7.38,0.188 L7.212,0.188 C6.792,0.188 6.684,0.38 6.504,0.8 L4.452,5.324 L2.412,0.8 C2.232,0.38 2.124,0.188 1.704,0.188 L1.512,0.188 C1.164,0.188 0.924,0.404 0.924,0.704 L0.924,7.676 C0.924,7.928 1.02,8.048 1.248,8.048 L1.368,8.048 Z M12.264,8.144 C13.968,8.144 15.204,6.884 15.204,5.156 C15.204,3.416 13.968,2.144 12.264,2.144 C10.548,2.144 9.312,3.404 9.312,5.132 C9.312,6.872 10.548,8.144 12.264,8.144 Z M12.264,7.46 C11.028,7.46 10.104,6.464 10.104,5.132 C10.104,3.8 11.028,2.828 12.264,2.828 C13.5,2.828 14.412,3.824 14.412,5.156 C14.412,6.488 13.488,7.46 12.264,7.46 Z M16.872,8.048 C17.076,8.048 17.22,7.964 17.22,7.676 L17.22,4.088 C17.556,3.368 18.216,2.876 19.104,2.876 C20.076,2.876 20.64,3.572 20.64,4.712 L20.64,7.676 C20.64,7.964 20.784,8.048 20.988,8.048 L21.072,8.048 C21.276,8.048 21.42,7.964 21.42,7.676 L21.42,4.664 C21.42,3.152 20.664,2.144 19.152,2.144 C18.264,2.144 17.604,2.576 17.208,3.188 L17.208,2.996 C17.208,2.372 16.968,2.24 16.704,2.24 C16.56,2.24 16.44,2.3 16.44,2.324 L16.44,7.676 C16.44,7.964 16.584,8.048 16.788,8.048 L16.872,8.048 Z M22.752,9.572 L23.772,7.868 C23.952,7.592 23.964,7.424 23.964,7.292 L23.964,7.244 C23.964,6.968 23.796,6.824 23.604,6.824 L23.544,6.824 C23.244,6.824 23.184,6.968 23.076,7.244 L22.356,9.392 C22.26,9.644 22.68,9.704 22.752,9.572 Z M28.08,8.048 C28.32,8.048 28.416,7.928 28.416,7.676 L28.416,1.268 L32.892,7.736 C33.048,7.952 33.12,8.048 33.42,8.048 L33.48,8.048 C33.744,8.048 33.9,7.82 33.9,7.496 L33.9,0.56 C33.9,0.308 33.804,0.188 33.576,0.188 L33.468,0.188 C33.228,0.188 33.132,0.308 33.132,0.56 L33.132,6.728 L28.92,0.62 C28.728,0.344 28.596,0.188 28.296,0.188 L28.092,0.188 C27.804,0.188 27.648,0.44 27.648,0.74 L27.648,7.676 C27.648,7.928 27.744,8.048 27.972,8.048 L28.08,8.048 Z M38.196,8.144 C39.9,8.144 41.136,6.884 41.136,5.156 C41.136,3.416 39.9,2.144 38.196,2.144 C36.48,2.144 35.244,3.404 35.244,5.132 C35.244,6.872 36.48,8.144 38.196,8.144 Z M38.196,7.46 C36.96,7.46 36.036,6.464 36.036,5.132 C36.036,3.8 36.96,2.828 38.196,2.828 C39.432,2.828 40.344,3.824 40.344,5.156 C40.344,6.488 39.42,7.46 38.196,7.46 Z M44.28,8.072 C44.676,8.072 44.76,7.964 44.844,7.76 L46.944,2.468 C46.956,2.432 46.836,2.24 46.56,2.24 C46.32,2.24 46.176,2.348 45.996,2.816 L44.28,7.304 L42.6,2.816 C42.42,2.348 42.288,2.24 42.012,2.24 C41.736,2.24 41.616,2.42 41.628,2.468 L43.752,7.784 C43.836,7.988 43.872,8.072 44.28,8.072 Z M54.696,8 C54.948,8 55.08,7.88 55.08,7.652 L55.08,7.592 C55.08,7.376 54.948,7.256 54.696,7.256 L50.46,7.256 L50.46,7.124 C50.46,5.936 51.456,5.408 52.584,4.856 C53.796,4.268 54.924,3.692 54.924,2.336 C54.924,0.944 53.952,0.08 52.38,0.08 C50.604,0.08 49.704,1.328 49.704,2 C49.704,2.468 50.244,2.48 50.256,2.432 C50.508,1.58 51.06,0.836 52.32,0.836 C53.436,0.836 54.12,1.4 54.12,2.324 C54.12,3.296 53.124,3.74 52.068,4.28 C50.856,4.892 49.668,5.588 49.668,7.268 L49.668,7.508 C49.668,7.82 49.86,8 50.184,8 L54.696,8 Z M59.16,8.144 C61.08,8.144 62.28,6.74 62.28,4.508 L62.28,3.704 C62.28,1.472 61.092,0.092 59.172,0.092 C57.264,0.092 56.076,1.484 56.076,3.728 L56.076,4.532 C56.076,6.776 57.24,8.144 59.16,8.144 Z M59.172,7.436 C57.744,7.436 56.892,6.332 56.892,4.484 L56.892,3.728 C56.892,1.88 57.732,0.788 59.16,0.788 C60.6,0.788 61.464,1.904 61.464,3.752 L61.464,4.508 C61.464,6.356 60.624,7.436 59.172,7.436 Z" id="Mon,Nov20"></path>
                <path d="M3.552,38.048 C3.792,38.048 3.912,37.928 3.912,37.676 L3.912,30.98 L6.348,30.98 C6.588,30.98 6.72,30.86 6.72,30.644 L6.72,30.584 C6.72,30.356 6.588,30.236 6.348,30.236 L0.66,30.236 C0.42,30.236 0.288,30.356 0.288,30.584 L0.288,30.644 C0.288,30.86 0.42,30.98 0.66,30.98 L3.096,30.98 L3.096,37.676 C3.096,37.928 3.216,38.048 3.444,38.048 L3.552,38.048 Z M9.072,38.144 C9.948,38.144 10.608,37.724 11.016,37.112 L11.016,37.292 C11.016,37.916 11.256,38.048 11.52,38.048 C11.664,38.048 11.784,37.988 11.784,37.964 L11.784,32.612 C11.784,32.324 11.64,32.24 11.436,32.24 L11.352,32.24 C11.148,32.24 11.004,32.324 11.004,32.612 L11.004,36.2 C10.668,36.92 10.008,37.412 9.18,37.412 C8.16,37.412 7.584,36.728 7.584,35.576 L7.584,32.612 C7.584,32.324 7.44,32.24 7.236,32.24 L7.152,32.24 C6.948,32.24 6.804,32.324 6.804,32.612 L6.804,35.624 C6.804,37.136 7.56,38.144 9.072,38.144 Z M15.96,38.144 C17.508,38.144 18.372,37.268 18.372,36.872 C18.372,36.5 17.94,36.392 17.916,36.428 C17.58,36.968 17.076,37.448 15.96,37.448 C14.736,37.448 13.848,36.584 13.788,35.36 L18.228,35.36 C18.468,35.36 18.552,35.312 18.552,35.096 L18.552,35.024 C18.552,33.284 17.496,32.144 15.888,32.144 C14.232,32.144 13.008,33.428 13.008,35.168 C13.008,36.92 14.22,38.144 15.96,38.144 Z M17.724,34.688 L13.812,34.688 C13.98,33.596 14.808,32.828 15.888,32.828 C16.956,32.828 17.652,33.56 17.724,34.688 Z M19.536,39.572 L20.556,37.868 C20.736,37.592 20.748,37.424 20.748,37.292 L20.748,37.244 C20.748,36.968 20.58,36.824 20.388,36.824 L20.328,36.824 C20.028,36.824 19.968,36.968 19.86,37.244 L19.14,39.392 C19.044,39.644 19.464,39.704 19.536,39.572 Z M24.864,38.048 C25.104,38.048 25.2,37.928 25.2,37.676 L25.2,31.268 L29.676,37.736 C29.832,37.952 29.904,38.048 30.204,38.048 L30.264,38.048 C30.528,38.048 30.684,37.82 30.684,37.496 L30.684,30.56 C30.684,30.308 30.588,30.188 30.36,30.188 L30.252,30.188 C30.012,30.188 29.916,30.308 29.916,30.56 L29.916,36.728 L25.704,30.62 C25.512,30.344 25.38,30.188 25.08,30.188 L24.876,30.188 C24.588,30.188 24.432,30.44 24.432,30.74 L24.432,37.676 C24.432,37.928 24.528,38.048 24.756,38.048 L24.864,38.048 Z M34.98,38.144 C36.684,38.144 37.92,36.884 37.92,35.156 C37.92,33.416 36.684,32.144 34.98,32.144 C33.264,32.144 32.028,33.404 32.028,35.132 C32.028,36.872 33.264,38.144 34.98,38.144 Z M34.98,37.46 C33.744,37.46 32.82,36.464 32.82,35.132 C32.82,33.8 33.744,32.828 34.98,32.828 C36.216,32.828 37.128,33.824 37.128,35.156 C37.128,36.488 36.204,37.46 34.98,37.46 Z M41.064,38.072 C41.46,38.072 41.544,37.964 41.628,37.76 L43.728,32.468 C43.74,32.432 43.62,32.24 43.344,32.24 C43.104,32.24 42.96,32.348 42.78,32.816 L41.064,37.304 L39.384,32.816 C39.204,32.348 39.072,32.24 38.796,32.24 C38.52,32.24 38.4,32.42 38.412,32.468 L40.536,37.784 C40.62,37.988 40.656,38.072 41.064,38.072 Z M51.48,38 C51.732,38 51.864,37.88 51.864,37.652 L51.864,37.592 C51.864,37.376 51.732,37.256 51.48,37.256 L47.244,37.256 L47.244,37.124 C47.244,35.936 48.24,35.408 49.368,34.856 C50.58,34.268 51.708,33.692 51.708,32.336 C51.708,30.944 50.736,30.08 49.164,30.08 C47.388,30.08 46.488,31.328 46.488,32 C46.488,32.468 47.028,32.48 47.04,32.432 C47.292,31.58 47.844,30.836 49.104,30.836 C50.22,30.836 50.904,31.4 50.904,32.324 C50.904,33.296 49.908,33.74 48.852,34.28 C47.64,34.892 46.452,35.588 46.452,37.268 L46.452,37.508 C46.452,37.82 46.644,38 46.968,38 L51.48,38 Z M54.66,38.048 C54.9,38.048 55.02,37.928 55.02,37.676 L55.02,30.56 C55.02,30.32 54.9,30.188 54.66,30.188 L54.312,30.188 C54.288,30.704 53.892,31.124 53.376,31.124 C53.064,31.124 52.848,31.004 52.692,30.824 C52.68,30.812 52.44,30.992 52.44,31.268 C52.44,31.676 52.8,31.952 53.316,31.952 C53.688,31.952 54.012,31.784 54.204,31.508 L54.204,37.676 C54.204,37.928 54.324,38.048 54.552,38.048 L54.66,38.048 Z" id="Tue,Nov21"></path>
                <path d="M7.752,68.084 C8.196,68.084 8.34,68 8.388,67.748 L10.188,60.368 C10.2,60.32 10.02,60.188 9.744,60.188 C9.468,60.188 9.372,60.344 9.288,60.692 L7.764,67.244 L6.084,61.712 C5.976,61.412 5.868,61.256 5.448,61.256 C5.028,61.256 4.896,61.424 4.8,61.712 L3.096,67.268 L1.608,60.692 C1.524,60.344 1.38,60.188 1.104,60.188 C0.828,60.188 0.648,60.32 0.66,60.368 L2.46,67.748 C2.508,68 2.652,68.084 3.096,68.084 C3.492,68.084 3.576,67.976 3.648,67.736 L5.46,62.06 L7.164,67.736 C7.236,67.976 7.356,68.084 7.752,68.084 Z M13.68,68.144 C15.228,68.144 16.092,67.268 16.092,66.872 C16.092,66.5 15.66,66.392 15.636,66.428 C15.3,66.968 14.796,67.448 13.68,67.448 C12.456,67.448 11.568,66.584 11.508,65.36 L15.948,65.36 C16.188,65.36 16.272,65.312 16.272,65.096 L16.272,65.024 C16.272,63.284 15.216,62.144 13.608,62.144 C11.952,62.144 10.728,63.428 10.728,65.168 C10.728,66.92 11.94,68.144 13.68,68.144 Z M15.444,64.688 L11.532,64.688 C11.7,63.596 12.528,62.828 13.608,62.828 C14.676,62.828 15.372,63.56 15.444,64.688 Z M19.8,68.144 C20.748,68.144 21.42,67.748 21.936,67.052 L21.936,67.676 C21.936,67.964 22.068,68.048 22.272,68.048 L22.356,68.048 C22.56,68.048 22.704,67.964 22.704,67.676 L22.704,60.584 C22.704,59.96 22.452,59.828 22.188,59.828 C22.044,59.828 21.924,59.888 21.924,59.912 L21.924,63.152 C21.588,62.624 20.856,62.144 19.848,62.144 C18.264,62.144 17.1,63.356 17.1,65.156 C17.1,66.968 18.288,68.144 19.8,68.144 Z M19.884,67.46 C18.732,67.46 17.892,66.488 17.892,65.144 C17.892,63.764 18.696,62.828 19.908,62.828 C20.916,62.828 21.576,63.344 21.936,64.172 L21.936,65.624 C21.888,66.68 20.928,67.46 19.884,67.46 Z M24.084,69.572 L25.104,67.868 C25.284,67.592 25.296,67.424 25.296,67.292 L25.296,67.244 C25.296,66.968 25.128,66.824 24.936,66.824 L24.876,66.824 C24.576,66.824 24.516,66.968 24.408,67.244 L23.688,69.392 C23.592,69.644 24.012,69.704 24.084,69.572 Z M29.412,68.048 C29.652,68.048 29.748,67.928 29.748,67.676 L29.748,61.268 L34.224,67.736 C34.38,67.952 34.452,68.048 34.752,68.048 L34.812,68.048 C35.076,68.048 35.232,67.82 35.232,67.496 L35.232,60.56 C35.232,60.308 35.136,60.188 34.908,60.188 L34.8,60.188 C34.56,60.188 34.464,60.308 34.464,60.56 L34.464,66.728 L30.252,60.62 C30.06,60.344 29.928,60.188 29.628,60.188 L29.424,60.188 C29.136,60.188 28.98,60.44 28.98,60.74 L28.98,67.676 C28.98,67.928 29.076,68.048 29.304,68.048 L29.412,68.048 Z M39.528,68.144 C41.232,68.144 42.468,66.884 42.468,65.156 C42.468,63.416 41.232,62.144 39.528,62.144 C37.812,62.144 36.576,63.404 36.576,65.132 C36.576,66.872 37.812,68.144 39.528,68.144 Z M39.528,67.46 C38.292,67.46 37.368,66.464 37.368,65.132 C37.368,63.8 38.292,62.828 39.528,62.828 C40.764,62.828 41.676,63.824 41.676,65.156 C41.676,66.488 40.752,67.46 39.528,67.46 Z M45.612,68.072 C46.008,68.072 46.092,67.964 46.176,67.76 L48.276,62.468 C48.288,62.432 48.168,62.24 47.892,62.24 C47.652,62.24 47.508,62.348 47.328,62.816 L45.612,67.304 L43.932,62.816 C43.752,62.348 43.62,62.24 43.344,62.24 C43.068,62.24 42.948,62.42 42.96,62.468 L45.084,67.784 C45.168,67.988 45.204,68.072 45.612,68.072 Z M56.028,68 C56.28,68 56.412,67.88 56.412,67.652 L56.412,67.592 C56.412,67.376 56.28,67.256 56.028,67.256 L51.792,67.256 L51.792,67.124 C51.792,65.936 52.788,65.408 53.916,64.856 C55.128,64.268 56.256,63.692 56.256,62.336 C56.256,60.944 55.284,60.08 53.712,60.08 C51.936,60.08 51.036,61.328 51.036,62 C51.036,62.468 51.576,62.48 51.588,62.432 C51.84,61.58 52.392,60.836 53.652,60.836 C54.768,60.836 55.452,61.4 55.452,62.324 C55.452,63.296 54.456,63.74 53.4,64.28 C52.188,64.892 51,65.588 51,67.268 L51,67.508 C51,67.82 51.192,68 51.516,68 L56.028,68 Z M62.268,68 C62.52,68 62.652,67.88 62.652,67.652 L62.652,67.592 C62.652,67.376 62.52,67.256 62.268,67.256 L58.032,67.256 L58.032,67.124 C58.032,65.936 59.028,65.408 60.156,64.856 C61.368,64.268 62.496,63.692 62.496,62.336 C62.496,60.944 61.524,60.08 59.952,60.08 C58.176,60.08 57.276,61.328 57.276,62 C57.276,62.468 57.816,62.48 57.828,62.432 C58.08,61.58 58.632,60.836 59.892,60.836 C61.008,60.836 61.692,61.4 61.692,62.324 C61.692,63.296 60.696,63.74 59.64,64.28 C58.428,64.892 57.24,65.588 57.24,67.268 L57.24,67.508 C57.24,67.82 57.432,68 57.756,68 L62.268,68 Z" id="Wed,Nov22"></path>
                <path d="M3.552,98.048 C3.792,98.048 3.912,97.928 3.912,97.676 L3.912,90.98 L6.348,90.98 C6.588,90.98 6.72,90.86 6.72,90.644 L6.72,90.584 C6.72,90.356 6.588,90.236 6.348,90.236 L0.66,90.236 C0.42,90.236 0.288,90.356 0.288,90.584 L0.288,90.644 C0.288,90.86 0.42,90.98 0.66,90.98 L3.096,90.98 L3.096,97.676 C3.096,97.928 3.216,98.048 3.444,98.048 L3.552,98.048 Z M8.244,98.048 C8.448,98.048 8.592,97.964 8.592,97.676 L8.592,94.832 C8.592,93.644 9.348,92.876 10.476,92.876 C11.436,92.876 12.012,93.56 12.012,94.712 L12.012,97.676 C12.012,97.964 12.156,98.048 12.36,98.048 L12.444,98.048 C12.648,98.048 12.792,97.964 12.792,97.676 L12.792,94.664 C12.792,93.152 12.036,92.144 10.524,92.144 C9.624,92.144 8.988,92.588 8.592,93.2 L8.592,90.584 C8.592,89.96 8.34,89.828 8.076,89.828 C7.932,89.828 7.812,89.888 7.812,89.912 L7.812,97.676 C7.812,97.964 7.956,98.048 8.16,98.048 L8.244,98.048 Z M16.572,98.144 C17.448,98.144 18.108,97.724 18.516,97.112 L18.516,97.292 C18.516,97.916 18.756,98.048 19.02,98.048 C19.164,98.048 19.284,97.988 19.284,97.964 L19.284,92.612 C19.284,92.324 19.14,92.24 18.936,92.24 L18.852,92.24 C18.648,92.24 18.504,92.324 18.504,92.612 L18.504,96.2 C18.168,96.92 17.508,97.412 16.68,97.412 C15.66,97.412 15.084,96.728 15.084,95.576 L15.084,92.612 C15.084,92.324 14.94,92.24 14.736,92.24 L14.652,92.24 C14.448,92.24 14.304,92.324 14.304,92.612 L14.304,95.624 C14.304,97.136 15.06,98.144 16.572,98.144 Z M21.324,98.048 C21.528,98.048 21.672,97.964 21.672,97.676 L21.672,95.432 C21.672,93.968 22.068,92.9 23.088,92.9 C23.412,92.9 23.616,92.996 23.784,93.14 C23.808,93.164 24,93.02 24,92.732 C24,92.36 23.7,92.144 23.172,92.144 C22.404,92.144 21.9,92.552 21.66,93.332 L21.66,92.996 C21.66,92.372 21.42,92.24 21.156,92.24 C21.012,92.24 20.892,92.3 20.892,92.324 L20.892,97.676 C20.892,97.964 21.036,98.048 21.24,98.048 L21.324,98.048 Z M24.12,99.572 L25.14,97.868 C25.32,97.592 25.332,97.424 25.332,97.292 L25.332,97.244 C25.332,96.968 25.164,96.824 24.972,96.824 L24.912,96.824 C24.612,96.824 24.552,96.968 24.444,97.244 L23.724,99.392 C23.628,99.644 24.048,99.704 24.12,99.572 Z M29.448,98.048 C29.688,98.048 29.784,97.928 29.784,97.676 L29.784,91.268 L34.26,97.736 C34.416,97.952 34.488,98.048 34.788,98.048 L34.848,98.048 C35.112,98.048 35.268,97.82 35.268,97.496 L35.268,90.56 C35.268,90.308 35.172,90.188 34.944,90.188 L34.836,90.188 C34.596,90.188 34.5,90.308 34.5,90.56 L34.5,96.728 L30.288,90.62 C30.096,90.344 29.964,90.188 29.664,90.188 L29.46,90.188 C29.172,90.188 29.016,90.44 29.016,90.74 L29.016,97.676 C29.016,97.928 29.112,98.048 29.34,98.048 L29.448,98.048 Z M39.564,98.144 C41.268,98.144 42.504,96.884 42.504,95.156 C42.504,93.416 41.268,92.144 39.564,92.144 C37.848,92.144 36.612,93.404 36.612,95.132 C36.612,96.872 37.848,98.144 39.564,98.144 Z M39.564,97.46 C38.328,97.46 37.404,96.464 37.404,95.132 C37.404,93.8 38.328,92.828 39.564,92.828 C40.8,92.828 41.712,93.824 41.712,95.156 C41.712,96.488 40.788,97.46 39.564,97.46 Z M45.648,98.072 C46.044,98.072 46.128,97.964 46.212,97.76 L48.312,92.468 C48.324,92.432 48.204,92.24 47.928,92.24 C47.688,92.24 47.544,92.348 47.364,92.816 L45.648,97.304 L43.968,92.816 C43.788,92.348 43.656,92.24 43.38,92.24 C43.104,92.24 42.984,92.42 42.996,92.468 L45.12,97.784 C45.204,97.988 45.24,98.072 45.648,98.072 Z M56.064,98 C56.316,98 56.448,97.88 56.448,97.652 L56.448,97.592 C56.448,97.376 56.316,97.256 56.064,97.256 L51.828,97.256 L51.828,97.124 C51.828,95.936 52.824,95.408 53.952,94.856 C55.164,94.268 56.292,93.692 56.292,92.336 C56.292,90.944 55.32,90.08 53.748,90.08 C51.972,90.08 51.072,91.328 51.072,92 C51.072,92.468 51.612,92.48 51.624,92.432 C51.876,91.58 52.428,90.836 53.688,90.836 C54.804,90.836 55.488,91.4 55.488,92.324 C55.488,93.296 54.492,93.74 53.436,94.28 C52.224,94.892 51.036,95.588 51.036,97.268 L51.036,97.508 C51.036,97.82 51.228,98 51.552,98 L56.064,98 Z M59.736,98.144 C61.512,98.144 62.592,97.268 62.592,95.852 C62.592,94.88 62.052,94.172 61.068,93.836 C61.932,93.584 62.364,93.02 62.364,92.156 C62.364,90.848 61.392,90.092 59.748,90.092 C58.224,90.092 57.24,91.028 57.24,91.568 C57.24,91.916 57.684,92.06 57.708,92.012 C58.056,91.292 58.764,90.788 59.748,90.788 C60.864,90.788 61.536,91.304 61.536,92.168 C61.536,93.032 60.948,93.548 59.808,93.548 L58.98,93.548 C58.74,93.548 58.608,93.632 58.608,93.872 L58.608,93.92 C58.608,94.1 58.704,94.244 59.004,94.244 L59.676,94.244 C61.032,94.244 61.764,94.808 61.764,95.864 C61.764,96.824 60.972,97.436 59.748,97.436 C58.656,97.436 57.78,96.92 57.444,95.972 C57.432,95.924 56.976,96.008 56.976,96.44 C56.976,97.028 57.876,98.144 59.736,98.144 Z" id="Thur,Nov23"></path>
                <path d="M1.38,128.048 C1.62,128.048 1.74,127.928 1.74,127.676 L1.74,124.628 L4.752,124.628 C4.992,124.628 5.124,124.52 5.124,124.292 L5.124,124.244 C5.124,124.028 4.992,123.908 4.752,123.908 L1.74,123.908 L1.74,120.98 L5.724,120.98 C5.964,120.98 6.096,120.872 6.096,120.644 L6.096,120.572 C6.096,120.356 5.964,120.236 5.724,120.236 L1.38,120.236 C1.128,120.236 0.924,120.44 0.924,120.692 L0.924,127.676 C0.924,127.928 1.044,128.048 1.272,128.048 L1.38,128.048 Z M7.152,128.048 C7.356,128.048 7.5,127.964 7.5,127.676 L7.5,125.432 C7.5,123.968 7.896,122.9 8.916,122.9 C9.24,122.9 9.444,122.996 9.612,123.14 C9.636,123.164 9.828,123.02 9.828,122.732 C9.828,122.36 9.528,122.144 9,122.144 C8.232,122.144 7.728,122.552 7.488,123.332 L7.488,122.996 C7.488,122.372 7.248,122.24 6.984,122.24 C6.84,122.24 6.72,122.3 6.72,122.324 L6.72,127.676 C6.72,127.964 6.864,128.048 7.068,128.048 L7.152,128.048 Z M11.22,120.86 C11.568,120.86 11.748,120.692 11.748,120.344 C11.748,119.996 11.58,119.828 11.244,119.828 C10.896,119.828 10.716,119.996 10.716,120.344 C10.716,120.68 10.896,120.86 11.22,120.86 Z M11.268,128.048 C11.472,128.048 11.616,127.964 11.616,127.676 L11.616,122.612 C11.616,122.324 11.472,122.24 11.268,122.24 L11.184,122.24 C10.98,122.24 10.836,122.324 10.836,122.612 L10.836,127.676 C10.836,127.964 10.98,128.048 11.184,128.048 L11.268,128.048 Z M13.056,129.572 L14.076,127.868 C14.256,127.592 14.268,127.424 14.268,127.292 L14.268,127.244 C14.268,126.968 14.1,126.824 13.908,126.824 L13.848,126.824 C13.548,126.824 13.488,126.968 13.38,127.244 L12.66,129.392 C12.564,129.644 12.984,129.704 13.056,129.572 Z M18.384,128.048 C18.624,128.048 18.72,127.928 18.72,127.676 L18.72,121.268 L23.196,127.736 C23.352,127.952 23.424,128.048 23.724,128.048 L23.784,128.048 C24.048,128.048 24.204,127.82 24.204,127.496 L24.204,120.56 C24.204,120.308 24.108,120.188 23.88,120.188 L23.772,120.188 C23.532,120.188 23.436,120.308 23.436,120.56 L23.436,126.728 L19.224,120.62 C19.032,120.344 18.9,120.188 18.6,120.188 L18.396,120.188 C18.108,120.188 17.952,120.44 17.952,120.74 L17.952,127.676 C17.952,127.928 18.048,128.048 18.276,128.048 L18.384,128.048 Z M28.5,128.144 C30.204,128.144 31.44,126.884 31.44,125.156 C31.44,123.416 30.204,122.144 28.5,122.144 C26.784,122.144 25.548,123.404 25.548,125.132 C25.548,126.872 26.784,128.144 28.5,128.144 Z M28.5,127.46 C27.264,127.46 26.34,126.464 26.34,125.132 C26.34,123.8 27.264,122.828 28.5,122.828 C29.736,122.828 30.648,123.824 30.648,125.156 C30.648,126.488 29.724,127.46 28.5,127.46 Z M34.584,128.072 C34.98,128.072 35.064,127.964 35.148,127.76 L37.248,122.468 C37.26,122.432 37.14,122.24 36.864,122.24 C36.624,122.24 36.48,122.348 36.3,122.816 L34.584,127.304 L32.904,122.816 C32.724,122.348 32.592,122.24 32.316,122.24 C32.04,122.24 31.92,122.42 31.932,122.468 L34.056,127.784 C34.14,127.988 34.176,128.072 34.584,128.072 Z M45,128 C45.252,128 45.384,127.88 45.384,127.652 L45.384,127.592 C45.384,127.376 45.252,127.256 45,127.256 L40.764,127.256 L40.764,127.124 C40.764,125.936 41.76,125.408 42.888,124.856 C44.1,124.268 45.228,123.692 45.228,122.336 C45.228,120.944 44.256,120.08 42.684,120.08 C40.908,120.08 40.008,121.328 40.008,122 C40.008,122.468 40.548,122.48 40.56,122.432 C40.812,121.58 41.364,120.836 42.624,120.836 C43.74,120.836 44.424,121.4 44.424,122.324 C44.424,123.296 43.428,123.74 42.372,124.28 C41.16,124.892 39.972,125.588 39.972,127.268 L39.972,127.508 C39.972,127.82 40.164,128 40.488,128 L45,128 Z M50.268,128.048 C50.508,128.048 50.616,127.928 50.616,127.676 L50.616,125.792 L51.672,125.792 C51.912,125.792 52.044,125.672 52.044,125.456 L52.044,125.396 C52.044,125.168 51.912,125.048 51.672,125.048 L50.616,125.048 L50.616,120.716 C50.616,120.368 50.46,120.188 49.98,120.188 C49.62,120.188 49.524,120.308 49.248,120.656 L46.164,124.46 C45.948,124.724 45.828,124.892 45.828,125.12 L45.828,125.36 C45.828,125.6 46.044,125.792 46.404,125.792 L49.824,125.792 L49.824,127.676 C49.824,127.868 49.968,128.048 50.16,128.048 L50.268,128.048 Z M49.848,125.06 L46.56,125.06 L49.848,120.98 L49.848,125.06 Z" id="Fri,Nov24"></path>
                <path d="M3.288,158.144 C4.92,158.144 5.988,157.28 5.988,155.96 C5.988,154.424 4.68,153.968 3.444,153.68 C2.268,153.404 1.452,153.2 1.452,152.204 C1.452,151.364 2.196,150.8 3.276,150.8 C4.236,150.8 4.992,151.292 5.352,151.928 C5.376,151.964 5.832,151.784 5.832,151.436 C5.832,150.932 4.872,150.092 3.264,150.092 C1.776,150.092 0.66,151.004 0.66,152.228 C0.66,153.776 1.872,154.16 3.048,154.436 C4.164,154.7 5.184,154.976 5.184,155.996 C5.184,156.896 4.476,157.436 3.276,157.436 C2.124,157.436 1.344,156.848 0.924,156.128 C0.9,156.092 0.444,156.272 0.444,156.62 C0.444,157.184 1.56,158.144 3.288,158.144 Z M8.904,158.132 C9.816,158.132 10.584,157.736 11.04,157.076 L11.04,157.292 C11.04,157.916 11.268,158.048 11.532,158.048 C11.676,158.048 11.796,157.988 11.796,157.964 L11.796,154.364 C11.796,152.984 10.932,152.144 9.48,152.144 C7.968,152.144 7.152,153.056 7.152,153.464 C7.152,153.884 7.596,153.932 7.596,153.92 C7.908,153.332 8.496,152.864 9.42,152.864 C10.452,152.864 11.028,153.404 11.028,154.388 L11.028,154.592 L10.908,154.592 C8.268,154.652 6.936,155.204 6.936,156.536 C6.936,157.496 7.656,158.132 8.904,158.132 Z M8.976,157.484 C8.196,157.484 7.728,157.112 7.728,156.536 C7.728,155.636 8.736,155.288 10.692,155.216 L11.028,155.204 L11.028,155.732 C11.028,156.752 10.152,157.484 8.976,157.484 Z M15.192,158.144 C15.948,158.144 16.368,157.76 16.368,157.436 C16.368,157.136 16.128,157.028 16.104,157.052 C15.9,157.304 15.612,157.472 15.216,157.472 C14.58,157.472 14.364,157.076 14.364,156.236 L14.364,152.984 L15.888,152.984 C16.176,152.984 16.26,152.876 16.26,152.672 L16.26,152.6 C16.26,152.396 16.176,152.288 15.888,152.288 L14.364,152.288 L14.364,151.292 C14.364,151.004 14.232,150.92 14.028,150.92 L13.944,150.92 C13.74,150.92 13.596,151.004 13.596,151.292 L13.596,152.288 L13.068,152.288 C12.78,152.288 12.696,152.396 12.696,152.6 L12.696,152.672 C12.696,152.876 12.78,152.984 13.068,152.984 L13.596,152.984 L13.596,156.32 C13.596,157.508 14.076,158.144 15.192,158.144 Z M17.28,159.572 L18.3,157.868 C18.48,157.592 18.492,157.424 18.492,157.292 L18.492,157.244 C18.492,156.968 18.324,156.824 18.132,156.824 L18.072,156.824 C17.772,156.824 17.712,156.968 17.604,157.244 L16.884,159.392 C16.788,159.644 17.208,159.704 17.28,159.572 Z M22.608,158.048 C22.848,158.048 22.944,157.928 22.944,157.676 L22.944,151.268 L27.42,157.736 C27.576,157.952 27.648,158.048 27.948,158.048 L28.008,158.048 C28.272,158.048 28.428,157.82 28.428,157.496 L28.428,150.56 C28.428,150.308 28.332,150.188 28.104,150.188 L27.996,150.188 C27.756,150.188 27.66,150.308 27.66,150.56 L27.66,156.728 L23.448,150.62 C23.256,150.344 23.124,150.188 22.824,150.188 L22.62,150.188 C22.332,150.188 22.176,150.44 22.176,150.74 L22.176,157.676 C22.176,157.928 22.272,158.048 22.5,158.048 L22.608,158.048 Z M32.724,158.144 C34.428,158.144 35.664,156.884 35.664,155.156 C35.664,153.416 34.428,152.144 32.724,152.144 C31.008,152.144 29.772,153.404 29.772,155.132 C29.772,156.872 31.008,158.144 32.724,158.144 Z M32.724,157.46 C31.488,157.46 30.564,156.464 30.564,155.132 C30.564,153.8 31.488,152.828 32.724,152.828 C33.96,152.828 34.872,153.824 34.872,155.156 C34.872,156.488 33.948,157.46 32.724,157.46 Z M38.808,158.072 C39.204,158.072 39.288,157.964 39.372,157.76 L41.472,152.468 C41.484,152.432 41.364,152.24 41.088,152.24 C40.848,152.24 40.704,152.348 40.524,152.816 L38.808,157.304 L37.128,152.816 C36.948,152.348 36.816,152.24 36.54,152.24 C36.264,152.24 36.144,152.42 36.156,152.468 L38.28,157.784 C38.364,157.988 38.4,158.072 38.808,158.072 Z M49.224,158 C49.476,158 49.608,157.88 49.608,157.652 L49.608,157.592 C49.608,157.376 49.476,157.256 49.224,157.256 L44.988,157.256 L44.988,157.124 C44.988,155.936 45.984,155.408 47.112,154.856 C48.324,154.268 49.452,153.692 49.452,152.336 C49.452,150.944 48.48,150.08 46.908,150.08 C45.132,150.08 44.232,151.328 44.232,152 C44.232,152.468 44.772,152.48 44.784,152.432 C45.036,151.58 45.588,150.836 46.848,150.836 C47.964,150.836 48.648,151.4 48.648,152.324 C48.648,153.296 47.652,153.74 46.596,154.28 C45.384,154.892 44.196,155.588 44.196,157.268 L44.196,157.508 C44.196,157.82 44.388,158 44.712,158 L49.224,158 Z M52.968,158.144 C54.756,158.144 55.872,157.172 55.872,155.624 C55.872,154.148 54.78,153.188 53.148,153.188 C52.464,153.188 51.9,153.356 51.42,153.596 L51.42,150.98 L55.104,150.98 C55.344,150.98 55.476,150.86 55.476,150.644 L55.476,150.584 C55.476,150.356 55.344,150.236 55.104,150.236 L51.096,150.236 C50.844,150.236 50.64,150.44 50.64,150.692 L50.64,153.956 C50.64,154.268 50.784,154.472 51.156,154.52 C51.636,154.172 52.236,153.944 53.136,153.944 C54.312,153.944 55.056,154.604 55.056,155.66 C55.056,156.728 54.24,157.412 52.992,157.412 C51.912,157.412 51.156,156.92 50.784,156.164 C50.76,156.116 50.304,156.26 50.304,156.608 C50.304,157.232 51.384,158.144 52.968,158.144 Z" id="Sat,Nov25"></path>
                <path d="M3.288,188.144 C4.92,188.144 5.988,187.28 5.988,185.96 C5.988,184.424 4.68,183.968 3.444,183.68 C2.268,183.404 1.452,183.2 1.452,182.204 C1.452,181.364 2.196,180.8 3.276,180.8 C4.236,180.8 4.992,181.292 5.352,181.928 C5.376,181.964 5.832,181.784 5.832,181.436 C5.832,180.932 4.872,180.092 3.264,180.092 C1.776,180.092 0.66,181.004 0.66,182.228 C0.66,183.776 1.872,184.16 3.048,184.436 C4.164,184.7 5.184,184.976 5.184,185.996 C5.184,186.896 4.476,187.436 3.276,187.436 C2.124,187.436 1.344,186.848 0.924,186.128 C0.9,186.092 0.444,186.272 0.444,186.62 C0.444,187.184 1.56,188.144 3.288,188.144 Z M9.516,188.144 C10.392,188.144 11.052,187.724 11.46,187.112 L11.46,187.292 C11.46,187.916 11.7,188.048 11.964,188.048 C12.108,188.048 12.228,187.988 12.228,187.964 L12.228,182.612 C12.228,182.324 12.084,182.24 11.88,182.24 L11.796,182.24 C11.592,182.24 11.448,182.324 11.448,182.612 L11.448,186.2 C11.112,186.92 10.452,187.412 9.624,187.412 C8.604,187.412 8.028,186.728 8.028,185.576 L8.028,182.612 C8.028,182.324 7.884,182.24 7.68,182.24 L7.596,182.24 C7.392,182.24 7.248,182.324 7.248,182.612 L7.248,185.624 C7.248,187.136 8.004,188.144 9.516,188.144 Z M14.268,188.048 C14.472,188.048 14.616,187.964 14.616,187.676 L14.616,184.088 C14.952,183.368 15.612,182.876 16.5,182.876 C17.472,182.876 18.036,183.572 18.036,184.712 L18.036,187.676 C18.036,187.964 18.18,188.048 18.384,188.048 L18.468,188.048 C18.672,188.048 18.816,187.964 18.816,187.676 L18.816,184.664 C18.816,183.152 18.06,182.144 16.548,182.144 C15.66,182.144 15,182.576 14.604,183.188 L14.604,182.996 C14.604,182.372 14.364,182.24 14.1,182.24 C13.956,182.24 13.836,182.3 13.836,182.324 L13.836,187.676 C13.836,187.964 13.98,188.048 14.184,188.048 L14.268,188.048 Z M20.148,189.572 L21.168,187.868 C21.348,187.592 21.36,187.424 21.36,187.292 L21.36,187.244 C21.36,186.968 21.192,186.824 21,186.824 L20.94,186.824 C20.64,186.824 20.58,186.968 20.472,187.244 L19.752,189.392 C19.656,189.644 20.076,189.704 20.148,189.572 Z M25.476,188.048 C25.716,188.048 25.812,187.928 25.812,187.676 L25.812,181.268 L30.288,187.736 C30.444,187.952 30.516,188.048 30.816,188.048 L30.876,188.048 C31.14,188.048 31.296,187.82 31.296,187.496 L31.296,180.56 C31.296,180.308 31.2,180.188 30.972,180.188 L30.864,180.188 C30.624,180.188 30.528,180.308 30.528,180.56 L30.528,186.728 L26.316,180.62 C26.124,180.344 25.992,180.188 25.692,180.188 L25.488,180.188 C25.2,180.188 25.044,180.44 25.044,180.74 L25.044,187.676 C25.044,187.928 25.14,188.048 25.368,188.048 L25.476,188.048 Z M35.592,188.144 C37.296,188.144 38.532,186.884 38.532,185.156 C38.532,183.416 37.296,182.144 35.592,182.144 C33.876,182.144 32.64,183.404 32.64,185.132 C32.64,186.872 33.876,188.144 35.592,188.144 Z M35.592,187.46 C34.356,187.46 33.432,186.464 33.432,185.132 C33.432,183.8 34.356,182.828 35.592,182.828 C36.828,182.828 37.74,183.824 37.74,185.156 C37.74,186.488 36.816,187.46 35.592,187.46 Z M41.676,188.072 C42.072,188.072 42.156,187.964 42.24,187.76 L44.34,182.468 C44.352,182.432 44.232,182.24 43.956,182.24 C43.716,182.24 43.572,182.348 43.392,182.816 L41.676,187.304 L39.996,182.816 C39.816,182.348 39.684,182.24 39.408,182.24 C39.132,182.24 39.012,182.42 39.024,182.468 L41.148,187.784 C41.232,187.988 41.268,188.072 41.676,188.072 Z M52.092,188 C52.344,188 52.476,187.88 52.476,187.652 L52.476,187.592 C52.476,187.376 52.344,187.256 52.092,187.256 L47.856,187.256 L47.856,187.124 C47.856,185.936 48.852,185.408 49.98,184.856 C51.192,184.268 52.32,183.692 52.32,182.336 C52.32,180.944 51.348,180.08 49.776,180.08 C48,180.08 47.1,181.328 47.1,182 C47.1,182.468 47.64,182.48 47.652,182.432 C47.904,181.58 48.456,180.836 49.716,180.836 C50.832,180.836 51.516,181.4 51.516,182.324 C51.516,183.296 50.52,183.74 49.464,184.28 C48.252,184.892 47.064,185.588 47.064,187.268 L47.064,187.508 C47.064,187.82 47.256,188 47.58,188 L52.092,188 Z M56.496,188.144 C58.068,188.144 59.22,187.04 59.22,185.552 L59.22,185.492 C59.22,184.064 58.176,183.14 56.568,183.14 C55.668,183.14 54.804,183.572 54.276,184.076 L54.276,183.68 C54.276,181.832 55.14,180.788 56.556,180.788 C57.456,180.788 58.044,181.196 58.452,181.808 C58.476,181.844 58.896,181.652 58.896,181.364 C58.896,180.884 58.116,180.092 56.556,180.092 C54.672,180.092 53.472,181.46 53.472,183.728 L53.472,184.604 C53.472,186.704 54.492,188.144 56.496,188.144 Z M56.448,187.448 C55.116,187.448 54.372,186.488 54.288,184.904 C54.756,184.304 55.62,183.824 56.496,183.824 C57.744,183.824 58.428,184.448 58.428,185.552 L58.428,185.624 C58.428,186.704 57.612,187.448 56.448,187.448 Z" id="Sun,Nov26"></path>
            </g>
            <g id="Group-10" transform="translate(36.000000, 233.000000)">
                <g id="Group-6" transform="translate(0.000000, 1.000000)">
                    <circle id="Oval-2" fill="#FFAC00" cx="6" cy="6" r="6"></circle>
                    <circle id="Oval-2" fill="#FF7100" cx="6" cy="28" r="6"></circle>
                    <circle id="Oval-2" fill="#FF4798" cx="108" cy="6" r="6"></circle>
                    <circle id="Oval-2" fill="#61CEFC" cx="108" cy="28" r="6"></circle>
                    <circle id="Oval-2" fill="#C99AF3" cx="210" cy="6" r="6"></circle>
                    <circle id="Oval-2" fill="#6BCD83" cx="312" cy="6" r="6"></circle>
                    <circle id="Oval-2" fill="#DC5371" cx="414" cy="6" r="6"></circle>
                    <circle id="Oval-2" fill="#2B90E2" cx="414" cy="28" r="6"></circle>
                    <circle id="Oval-2" fill="#DD89E0" cx="312" cy="28" r="6"></circle>
                </g>
                <path d="M431.3,33.156 C433.112,33.156 434.216,32.268 434.216,30.84 C434.216,29.34 432.944,28.824 431.624,28.524 C430.544,28.272 429.788,28.14 429.788,27.288 C429.788,26.568 430.424,26.1 431.396,26.1 C432.296,26.1 433.064,26.556 433.472,27.144 C433.496,27.18 434.048,26.904 434.048,26.46 C434.048,25.896 433.112,25.08 431.384,25.08 C429.728,25.08 428.588,26.016 428.588,27.336 C428.588,28.908 429.836,29.328 431.036,29.604 C432.068,29.844 432.98,30.048 432.98,30.924 C432.98,31.692 432.368,32.136 431.288,32.136 C430.22,32.136 429.392,31.596 428.948,30.948 C428.912,30.9 428.384,31.2 428.384,31.608 C428.384,32.244 429.428,33.156 431.3,33.156 Z M437.012,33.132 C437.888,33.132 438.644,32.76 439.088,32.136 C439.1,32.832 439.4,33.06 439.82,33.06 C440.036,33.06 440.252,32.988 440.252,32.928 L440.252,29.388 C440.252,27.924 439.364,27.084 437.732,27.084 C436.1,27.084 435.26,27.912 435.26,28.464 C435.26,29.04 435.992,29.052 435.992,29.04 C436.256,28.512 436.772,28.056 437.648,28.056 C438.572,28.056 439.076,28.536 439.076,29.412 L439.076,29.532 L438.92,29.532 C436.316,29.58 435.044,30.156 435.044,31.488 C435.044,32.472 435.776,33.132 437.012,33.132 Z M437.3,32.28 C436.616,32.28 436.208,31.956 436.208,31.44 C436.208,30.66 437.072,30.348 438.752,30.288 L439.076,30.276 L439.076,30.72 C439.076,31.632 438.332,32.28 437.3,32.28 Z M444.008,33.156 C444.92,33.156 445.58,32.736 446.036,32.04 L446.036,32.484 C446.036,32.916 446.252,33.048 446.564,33.048 L446.684,33.048 C446.996,33.048 447.212,32.916 447.212,32.484 L447.212,25.776 C447.212,24.948 446.828,24.756 446.456,24.756 C446.228,24.756 446.024,24.852 446.024,24.888 L446.024,28.032 C445.688,27.516 444.98,27.084 444.044,27.084 C442.448,27.084 441.308,28.296 441.308,30.12 C441.308,31.944 442.46,33.156 444.008,33.156 Z M444.236,32.172 C443.204,32.172 442.46,31.32 442.46,30.12 C442.46,28.884 443.18,28.068 444.26,28.068 C445.148,28.068 445.736,28.524 446.036,29.256 L446.036,30.48 C446.036,31.464 445.196,32.172 444.236,32.172 Z" id="Sad" fill="#000000" fill-rule="nonzero"></path>
                <path d="M434.72,10.06 C435.092,10.06 435.44,9.784 435.404,9.688 L432.62,2.56 C432.524,2.308 432.344,2.164 431.768,2.164 C431.204,2.164 431.012,2.308 430.916,2.56 L428.156,9.688 C428.12,9.796 428.468,10.06 428.828,10.06 C429.092,10.06 429.356,9.928 429.512,9.496 L430.196,7.72 L433.304,7.72 L433.988,9.484 C434.156,9.928 434.444,10.06 434.72,10.06 Z M432.992,6.724 L430.496,6.724 L431.744,3.436 L432.992,6.724 Z M436.952,10.048 C437.252,10.048 437.48,9.916 437.48,9.484 L437.48,6.136 C437.768,5.536 438.344,5.128 439.1,5.128 C439.94,5.128 440.432,5.728 440.432,6.7 L440.432,9.484 C440.432,9.916 440.648,10.048 440.96,10.048 L441.092,10.048 C441.392,10.048 441.62,9.916 441.62,9.484 L441.62,6.556 C441.62,5.128 440.912,4.084 439.388,4.084 C438.5,4.084 437.864,4.516 437.468,5.104 C437.432,4.348 437.072,4.168 436.724,4.168 C436.484,4.168 436.292,4.264 436.292,4.3 L436.292,9.484 C436.292,9.916 436.508,10.048 436.82,10.048 L436.952,10.048 Z M445.112,12.532 C447.02,12.532 448.136,11.86 448.136,10.768 C448.136,9.82 447.272,9.412 446.456,9.196 C445.448,8.944 444.896,8.908 444.896,8.536 C444.896,8.464 444.908,8.404 444.956,8.332 L445.172,8.332 C446.636,8.332 447.668,7.444 447.668,6.232 C447.668,5.752 447.476,5.308 447.164,4.948 L448.148,3.928 C448.184,3.904 447.98,3.424 447.536,3.424 C447.236,3.424 447.044,3.568 446.852,3.88 L446.54,4.432 C446.144,4.216 445.664,4.084 445.16,4.084 C443.732,4.084 442.688,5.056 442.688,6.268 C442.688,7.168 443.276,7.9 444.2,8.188 C444.008,8.356 443.876,8.572 443.876,8.812 C443.876,9.052 443.96,9.232 444.104,9.352 C443.06,9.532 442.268,10.096 442.268,10.936 C442.268,12.016 443.168,12.532 445.112,12.532 Z M445.172,7.552 C444.38,7.552 443.816,7.024 443.816,6.244 C443.816,5.464 444.368,4.936 445.148,4.936 C445.964,4.936 446.516,5.476 446.516,6.244 C446.516,7.024 445.964,7.552 445.172,7.552 Z M445.136,11.704 C443.996,11.704 443.408,11.416 443.408,10.9 C443.408,10.288 444.224,9.94 445.208,9.88 C446.06,10.096 446.984,10.216 446.984,10.804 C446.984,11.38 446.3,11.704 445.136,11.704 Z M449.552,10.048 C449.852,10.048 450.08,9.916 450.08,9.484 L450.08,7.456 C450.08,6.124 450.452,5.212 451.388,5.212 C451.712,5.212 451.94,5.32 452.12,5.464 C452.144,5.488 452.48,5.308 452.48,4.852 C452.48,4.372 452.132,4.084 451.532,4.084 C450.8,4.084 450.32,4.468 450.068,5.176 C450.056,4.36 449.672,4.168 449.324,4.168 C449.084,4.168 448.892,4.264 448.892,4.3 L448.892,9.484 C448.892,9.916 449.108,10.048 449.42,10.048 L449.552,10.048 Z M455.012,12.34 C455.288,12.34 455.552,12.196 455.744,11.68 L458.468,4.492 C458.492,4.432 458.168,4.168 457.844,4.168 C457.532,4.168 457.268,4.336 457.1,4.864 L455.72,8.824 L454.16,4.84 C453.968,4.324 453.74,4.168 453.404,4.168 C453.02,4.168 452.756,4.444 452.78,4.516 L454.844,9.34 C454.94,9.58 455.084,9.652 455.348,9.676 L454.388,12.016 C454.364,12.076 454.676,12.34 455.012,12.34 Z" id="Angry" fill="#000000" fill-rule="nonzero"></path>
                <path d="M332.72,33.06 C333.092,33.06 333.44,32.784 333.404,32.688 L330.62,25.56 C330.524,25.308 330.344,25.164 329.768,25.164 C329.204,25.164 329.012,25.308 328.916,25.56 L326.156,32.688 C326.12,32.796 326.468,33.06 326.828,33.06 C327.092,33.06 327.356,32.928 327.512,32.496 L328.196,30.72 L331.304,30.72 L331.988,32.484 C332.156,32.928 332.444,33.06 332.72,33.06 Z M330.992,29.724 L328.496,29.724 L329.744,26.436 L330.992,29.724 Z M334.952,33.048 C335.252,33.048 335.48,32.916 335.48,32.484 L335.48,29.136 C335.768,28.536 336.344,28.128 337.1,28.128 C337.94,28.128 338.432,28.728 338.432,29.7 L338.432,32.484 C338.432,32.916 338.648,33.048 338.96,33.048 L339.092,33.048 C339.392,33.048 339.62,32.916 339.62,32.484 L339.62,29.556 C339.62,28.128 338.912,27.084 337.388,27.084 C336.5,27.084 335.864,27.516 335.468,28.104 C335.432,27.348 335.072,27.168 334.724,27.168 C334.484,27.168 334.292,27.264 334.292,27.3 L334.292,32.484 C334.292,32.916 334.508,33.048 334.82,33.048 L334.952,33.048 Z M345.212,33.06 C345.656,33.06 345.896,32.676 345.86,32.616 L343.988,30.12 L345.896,27.6 C345.932,27.552 345.668,27.168 345.236,27.168 C344.996,27.168 344.732,27.3 344.504,27.66 L343.244,29.496 L341.96,27.66 C341.756,27.336 341.54,27.168 341.216,27.168 C340.796,27.168 340.544,27.54 340.58,27.6 L342.464,30.12 L340.556,32.616 C340.508,32.664 340.784,33.06 341.204,33.06 C341.504,33.06 341.744,32.88 341.948,32.556 L343.196,30.744 L344.48,32.568 C344.672,32.88 344.888,33.06 345.212,33.06 Z M347.54,25.992 C347.996,25.992 348.248,25.764 348.248,25.332 C348.248,24.9 347.996,24.66 347.552,24.66 C347.096,24.66 346.832,24.9 346.832,25.332 C346.832,25.752 347.096,25.992 347.54,25.992 Z M347.6,33.048 C347.912,33.048 348.128,32.916 348.128,32.484 L348.128,27.744 C348.128,27.3 347.912,27.168 347.6,27.168 L347.48,27.168 C347.168,27.168 346.94,27.312 346.94,27.744 L346.94,32.484 C346.94,32.916 347.168,33.048 347.48,33.048 L347.6,33.048 Z M352.328,33.156 C354.104,33.156 355.352,31.896 355.352,30.132 C355.352,28.356 354.104,27.084 352.34,27.084 C350.552,27.084 349.304,28.344 349.304,30.108 C349.304,31.896 350.54,33.156 352.328,33.156 Z M352.328,32.184 C351.224,32.184 350.396,31.296 350.396,30.108 C350.396,28.92 351.224,28.056 352.328,28.056 C353.444,28.056 354.248,28.932 354.248,30.132 C354.248,31.308 353.432,32.184 352.328,32.184 Z M358.64,33.144 C359.528,33.144 360.152,32.724 360.56,32.136 C360.584,32.88 360.956,33.048 361.316,33.048 C361.544,33.048 361.736,32.952 361.736,32.916 L361.736,27.744 C361.736,27.3 361.52,27.168 361.208,27.168 L361.076,27.168 C360.776,27.168 360.56,27.312 360.56,27.744 L360.56,31.092 C360.26,31.704 359.696,32.112 358.976,32.112 C358.1,32.112 357.596,31.524 357.596,30.528 L357.596,27.744 C357.596,27.3 357.38,27.168 357.068,27.168 L356.936,27.168 C356.636,27.168 356.42,27.312 356.42,27.744 L356.42,30.672 C356.42,32.112 357.116,33.144 358.64,33.144 Z M365.216,33.144 C366.704,33.144 367.616,32.436 367.616,31.332 C367.616,30.084 366.38,29.82 365.492,29.628 C364.556,29.424 364.052,29.304 364.052,28.776 C364.052,28.296 364.484,27.984 365.3,27.984 C366.032,27.984 366.632,28.32 366.992,28.8 C367.016,28.836 367.472,28.62 367.472,28.248 C367.472,27.708 366.728,27.084 365.252,27.084 C363.848,27.084 362.948,27.816 362.948,28.896 C362.948,30.12 364.124,30.384 364.976,30.564 C365.924,30.768 366.464,30.876 366.464,31.464 C366.464,31.944 366.008,32.244 365.192,32.244 C364.28,32.244 363.632,31.872 363.248,31.38 C363.212,31.356 362.78,31.548 362.78,31.92 C362.78,32.472 363.608,33.144 365.216,33.144 Z" id="Anxious" fill="#000000" fill-rule="nonzero"></path>
                <path d="M330.44,10.156 C332.504,10.156 333.524,8.92 333.524,8.344 C333.524,7.768 332.78,7.624 332.756,7.684 C332.432,8.524 331.556,9.04 330.512,9.04 C328.952,9.04 327.812,7.828 327.812,6.112 C327.812,4.384 328.916,3.196 330.488,3.196 C331.364,3.196 332.24,3.616 332.684,4.396 C332.708,4.444 333.404,4.3 333.404,3.724 C333.404,3.184 332.42,2.08 330.476,2.08 C328.148,2.08 326.528,3.76 326.528,6.136 C326.528,8.5 328.136,10.156 330.44,10.156 Z M337.292,10.156 C339.068,10.156 340.316,8.896 340.316,7.132 C340.316,5.356 339.068,4.084 337.304,4.084 C335.516,4.084 334.268,5.344 334.268,7.108 C334.268,8.896 335.504,10.156 337.292,10.156 Z M337.292,9.184 C336.188,9.184 335.36,8.296 335.36,7.108 C335.36,5.92 336.188,5.056 337.292,5.056 C338.408,5.056 339.212,5.932 339.212,7.132 C339.212,8.308 338.396,9.184 337.292,9.184 Z M342.092,10.048 C342.392,10.048 342.62,9.916 342.62,9.484 L342.62,6.136 C342.908,5.536 343.484,5.128 344.24,5.128 C345.08,5.128 345.572,5.728 345.572,6.7 L345.572,9.484 C345.572,9.916 345.788,10.048 346.1,10.048 L346.232,10.048 C346.532,10.048 346.76,9.916 346.76,9.484 L346.76,6.556 C346.76,5.128 346.052,4.084 344.528,4.084 C343.64,4.084 343.004,4.516 342.608,5.104 C342.572,4.348 342.212,4.168 341.864,4.168 C341.624,4.168 341.432,4.264 341.432,4.3 L341.432,9.484 C341.432,9.916 341.648,10.048 341.96,10.048 L342.092,10.048 Z M349.388,10.048 C349.7,10.048 349.904,9.916 349.904,9.484 L349.904,5.2 L350.852,5.2 C351.236,5.2 351.38,5.044 351.38,4.756 L351.38,4.672 C351.38,4.384 351.236,4.228 350.852,4.228 L349.88,4.228 L349.88,3.808 C349.88,2.992 350.132,2.632 350.708,2.632 C351.068,2.632 351.404,2.8 351.572,2.968 C351.596,2.992 351.86,2.788 351.86,2.452 C351.86,2.044 351.452,1.672 350.564,1.672 C349.412,1.672 348.728,2.344 348.728,3.796 L348.728,4.228 L348.056,4.228 C347.672,4.228 347.528,4.372 347.528,4.66 L347.528,4.744 C347.528,5.044 347.672,5.2 348.056,5.2 L348.728,5.2 L348.728,9.484 C348.728,9.916 348.956,10.048 349.268,10.048 L349.388,10.048 Z M354.572,10.144 C355.46,10.144 356.084,9.724 356.492,9.136 C356.516,9.88 356.888,10.048 357.248,10.048 C357.476,10.048 357.668,9.952 357.668,9.916 L357.668,4.744 C357.668,4.3 357.452,4.168 357.14,4.168 L357.008,4.168 C356.708,4.168 356.492,4.312 356.492,4.744 L356.492,8.092 C356.192,8.704 355.628,9.112 354.908,9.112 C354.032,9.112 353.528,8.524 353.528,7.528 L353.528,4.744 C353.528,4.3 353.312,4.168 353,4.168 L352.868,4.168 C352.568,4.168 352.352,4.312 352.352,4.744 L352.352,7.672 C352.352,9.112 353.048,10.144 354.572,10.144 Z M361.148,10.144 C362.636,10.144 363.548,9.436 363.548,8.332 C363.548,7.084 362.312,6.82 361.424,6.628 C360.488,6.424 359.984,6.304 359.984,5.776 C359.984,5.296 360.416,4.984 361.232,4.984 C361.964,4.984 362.564,5.32 362.924,5.8 C362.948,5.836 363.404,5.62 363.404,5.248 C363.404,4.708 362.66,4.084 361.184,4.084 C359.78,4.084 358.88,4.816 358.88,5.896 C358.88,7.12 360.056,7.384 360.908,7.564 C361.856,7.768 362.396,7.876 362.396,8.464 C362.396,8.944 361.94,9.244 361.124,9.244 C360.212,9.244 359.564,8.872 359.18,8.38 C359.144,8.356 358.712,8.548 358.712,8.92 C358.712,9.472 359.54,10.144 361.148,10.144 Z M367.4,10.156 C368.972,10.156 369.86,9.352 369.86,8.848 C369.86,8.344 369.26,8.236 369.236,8.26 C368.936,8.776 368.432,9.22 367.424,9.22 C366.332,9.22 365.54,8.5 365.456,7.432 L369.716,7.432 C369.992,7.432 370.076,7.336 370.076,7.084 L370.076,6.988 C370.076,5.26 368.972,4.084 367.304,4.084 C365.6,4.084 364.352,5.392 364.352,7.144 C364.352,8.944 365.576,10.156 367.4,10.156 Z M368.924,6.628 L365.468,6.628 C365.612,5.668 366.344,4.984 367.292,4.984 C368.252,4.984 368.864,5.632 368.924,6.628 Z M373.532,10.156 C374.444,10.156 375.104,9.736 375.56,9.04 L375.56,9.484 C375.56,9.916 375.776,10.048 376.088,10.048 L376.208,10.048 C376.52,10.048 376.736,9.916 376.736,9.484 L376.736,2.776 C376.736,1.948 376.352,1.756 375.98,1.756 C375.752,1.756 375.548,1.852 375.548,1.888 L375.548,5.032 C375.212,4.516 374.504,4.084 373.568,4.084 C371.972,4.084 370.832,5.296 370.832,7.12 C370.832,8.944 371.984,10.156 373.532,10.156 Z M373.76,9.172 C372.728,9.172 371.984,8.32 371.984,7.12 C371.984,5.884 372.704,5.068 373.784,5.068 C374.672,5.068 375.26,5.524 375.56,6.256 L375.56,7.48 C375.56,8.464 374.72,9.172 373.76,9.172 Z" id="Confused" fill="#000000" fill-rule="nonzero"></path>
                <path d="M228.44,10.156 C230.744,10.156 232.376,8.488 232.376,6.112 C232.376,3.736 230.768,2.08 228.452,2.08 C226.16,2.08 224.516,3.76 224.516,6.136 C224.516,8.5 226.124,10.156 228.44,10.156 Z M228.452,9.064 C226.88,9.064 225.764,7.84 225.764,6.112 C225.764,4.372 226.868,3.172 228.44,3.172 C230.012,3.172 231.128,4.408 231.128,6.136 C231.128,7.864 230.024,9.064 228.452,9.064 Z M234.416,10.048 C234.776,10.048 234.956,9.856 234.956,9.484 L234.956,6.244 L238.124,9.7 C238.328,9.952 238.532,10.048 238.796,10.048 C239.336,10.048 239.552,9.568 239.504,9.508 L236.324,6.028 L239.42,2.74 C239.444,2.692 239.276,2.188 238.748,2.188 C238.532,2.188 238.328,2.26 238.064,2.584 L234.956,5.872 L234.956,2.752 C234.956,2.38 234.776,2.188 234.416,2.188 L234.236,2.188 C233.9,2.188 233.72,2.38 233.72,2.752 L233.72,9.484 C233.72,9.856 233.9,10.048 234.236,10.048 L234.416,10.048 Z" id="OK" fill="#000000" fill-rule="nonzero"></path>
                <path d="M126.44,33.156 C128.504,33.156 129.524,31.92 129.524,31.344 C129.524,30.768 128.78,30.624 128.756,30.684 C128.432,31.524 127.556,32.04 126.512,32.04 C124.952,32.04 123.812,30.828 123.812,29.112 C123.812,27.384 124.916,26.196 126.488,26.196 C127.364,26.196 128.24,26.616 128.684,27.396 C128.708,27.444 129.404,27.3 129.404,26.724 C129.404,26.184 128.42,25.08 126.476,25.08 C124.148,25.08 122.528,26.76 122.528,29.136 C122.528,31.5 124.136,33.156 126.44,33.156 Z M132.248,33.132 C133.124,33.132 133.88,32.76 134.324,32.136 C134.336,32.832 134.636,33.06 135.056,33.06 C135.272,33.06 135.488,32.988 135.488,32.928 L135.488,29.388 C135.488,27.924 134.6,27.084 132.968,27.084 C131.336,27.084 130.496,27.912 130.496,28.464 C130.496,29.04 131.228,29.052 131.228,29.04 C131.492,28.512 132.008,28.056 132.884,28.056 C133.808,28.056 134.312,28.536 134.312,29.412 L134.312,29.532 L134.156,29.532 C131.552,29.58 130.28,30.156 130.28,31.488 C130.28,32.472 131.012,33.132 132.248,33.132 Z M132.536,32.28 C131.852,32.28 131.444,31.956 131.444,31.44 C131.444,30.66 132.308,30.348 133.988,30.288 L134.312,30.276 L134.312,30.72 C134.312,31.632 133.568,32.28 132.536,32.28 Z M137.6,33.048 C137.912,33.048 138.128,32.916 138.128,32.484 L138.128,25.776 C138.128,24.948 137.744,24.756 137.372,24.756 C137.144,24.756 136.94,24.852 136.94,24.888 L136.94,32.484 C136.94,32.916 137.168,33.048 137.48,33.048 L137.6,33.048 Z M140.312,33.048 C140.612,33.048 140.84,32.916 140.84,32.484 L140.84,29.088 C141.128,28.512 141.692,28.128 142.292,28.128 C143.144,28.128 143.564,28.632 143.564,29.652 L143.564,32.484 C143.564,32.916 143.792,33.048 144.104,33.048 L144.224,33.048 C144.536,33.048 144.752,32.916 144.752,32.484 L144.752,29.088 C145.052,28.512 145.604,28.128 146.216,28.128 C147.068,28.128 147.488,28.632 147.488,29.604 L147.488,32.484 C147.488,32.916 147.704,33.048 148.028,33.048 L148.148,33.048 C148.46,33.048 148.676,32.916 148.676,32.484 L148.676,29.46 C148.676,27.972 147.968,27.084 146.504,27.084 C145.544,27.084 144.896,27.624 144.5,28.296 C144.2,27.528 143.552,27.084 142.616,27.084 C141.824,27.084 141.224,27.492 140.828,28.056 C140.78,27.336 140.42,27.168 140.084,27.168 C139.844,27.168 139.652,27.264 139.652,27.3 L139.652,32.484 C139.652,32.916 139.868,33.048 140.18,33.048 L140.312,33.048 Z" id="Calm" fill="#000000" fill-rule="nonzero"></path>
                <path d="M21.524,10.048 C21.884,10.048 22.064,9.856 22.064,9.484 L22.064,6.652 L26.156,6.652 L26.156,9.484 C26.156,9.856 26.336,10.048 26.672,10.048 L26.852,10.048 C27.212,10.048 27.392,9.856 27.392,9.484 L27.392,2.752 C27.392,2.38 27.212,2.188 26.852,2.188 L26.672,2.188 C26.336,2.188 26.156,2.38 26.156,2.752 L26.156,5.572 L22.064,5.572 L22.064,2.752 C22.064,2.38 21.884,2.188 21.524,2.188 L21.344,2.188 C21.008,2.188 20.828,2.38 20.828,2.752 L20.828,9.484 C20.828,9.856 21.008,10.048 21.344,10.048 L21.524,10.048 Z M30.584,10.132 C31.46,10.132 32.216,9.76 32.66,9.136 C32.672,9.832 32.972,10.06 33.392,10.06 C33.608,10.06 33.824,9.988 33.824,9.928 L33.824,6.388 C33.824,4.924 32.936,4.084 31.304,4.084 C29.672,4.084 28.832,4.912 28.832,5.464 C28.832,6.04 29.564,6.052 29.564,6.04 C29.828,5.512 30.344,5.056 31.22,5.056 C32.144,5.056 32.648,5.536 32.648,6.412 L32.648,6.532 L32.492,6.532 C29.888,6.58 28.616,7.156 28.616,8.488 C28.616,9.472 29.348,10.132 30.584,10.132 Z M30.872,9.28 C30.188,9.28 29.78,8.956 29.78,8.44 C29.78,7.66 30.644,7.348 32.324,7.288 L32.648,7.276 L32.648,7.72 C32.648,8.632 31.904,9.28 30.872,9.28 Z M35.888,12.352 C36.188,12.352 36.416,12.22 36.416,11.788 L36.416,9.076 C36.74,9.652 37.436,10.156 38.396,10.156 C39.992,10.156 41.132,8.92 41.132,7.108 C41.132,5.272 39.98,4.084 38.432,4.084 C37.508,4.084 36.848,4.492 36.404,5.176 C36.392,4.36 36.008,4.168 35.66,4.168 C35.42,4.168 35.228,4.264 35.228,4.3 L35.228,11.788 C35.228,12.22 35.444,12.352 35.756,12.352 L35.888,12.352 Z M38.18,9.172 C37.22,9.172 36.404,8.452 36.404,7.48 L36.404,6.268 C36.704,5.536 37.316,5.068 38.204,5.068 C39.236,5.068 39.98,5.92 39.98,7.12 C39.98,8.344 39.26,9.172 38.18,9.172 Z M42.908,12.352 C43.208,12.352 43.436,12.22 43.436,11.788 L43.436,9.076 C43.76,9.652 44.456,10.156 45.416,10.156 C47.012,10.156 48.152,8.92 48.152,7.108 C48.152,5.272 47,4.084 45.452,4.084 C44.528,4.084 43.868,4.492 43.424,5.176 C43.412,4.36 43.028,4.168 42.68,4.168 C42.44,4.168 42.248,4.264 42.248,4.3 L42.248,11.788 C42.248,12.22 42.464,12.352 42.776,12.352 L42.908,12.352 Z M45.2,9.172 C44.24,9.172 43.424,8.452 43.424,7.48 L43.424,6.268 C43.724,5.536 44.336,5.068 45.224,5.068 C46.256,5.068 47,5.92 47,7.12 C47,8.344 46.28,9.172 45.2,9.172 Z M50.924,12.34 C51.2,12.34 51.464,12.196 51.656,11.68 L54.38,4.492 C54.404,4.432 54.08,4.168 53.756,4.168 C53.444,4.168 53.18,4.336 53.012,4.864 L51.632,8.824 L50.072,4.84 C49.88,4.324 49.652,4.168 49.316,4.168 C48.932,4.168 48.668,4.444 48.692,4.516 L50.756,9.34 C50.852,9.58 50.996,9.652 51.26,9.676 L50.3,12.016 C50.276,12.076 50.588,12.34 50.924,12.34 Z" id="Happy" fill="#000000" fill-rule="nonzero"></path>
                <path d="M26.06,33 C26.444,33 26.624,32.808 26.624,32.46 L26.624,32.4 C26.624,32.076 26.444,31.908 26.06,31.908 L22.064,31.908 L22.064,29.556 L25.1,29.556 C25.484,29.556 25.676,29.376 25.676,29.04 L25.676,29.004 C25.676,28.68 25.496,28.512 25.1,28.512 L22.064,28.512 L22.064,26.34 L25.988,26.34 C26.372,26.34 26.564,26.16 26.564,25.824 L26.564,25.752 C26.564,25.428 26.372,25.236 25.988,25.236 L21.488,25.236 C21.092,25.236 20.828,25.512 20.828,25.932 L20.828,32.316 C20.828,32.736 21.092,33 21.488,33 L26.06,33 Z M31.964,33.06 C32.408,33.06 32.648,32.676 32.612,32.616 L30.74,30.12 L32.648,27.6 C32.684,27.552 32.42,27.168 31.988,27.168 C31.748,27.168 31.484,27.3 31.256,27.66 L29.996,29.496 L28.712,27.66 C28.508,27.336 28.292,27.168 27.968,27.168 C27.548,27.168 27.296,27.54 27.332,27.6 L29.216,30.12 L27.308,32.616 C27.26,32.664 27.536,33.06 27.956,33.06 C28.256,33.06 28.496,32.88 28.7,32.556 L29.948,30.744 L31.232,32.568 C31.424,32.88 31.64,33.06 31.964,33.06 Z M36.296,33.156 C38,33.156 38.768,32.1 38.768,31.572 C38.768,31.056 38.096,30.972 38.06,31.032 C37.796,31.668 37.292,32.16 36.32,32.16 C35.228,32.16 34.424,31.296 34.424,30.108 C34.424,28.932 35.24,28.08 36.32,28.08 C37.304,28.08 37.796,28.572 38.06,29.208 C38.096,29.268 38.768,29.172 38.768,28.68 C38.768,28.14 38.012,27.084 36.296,27.084 C34.568,27.084 33.296,28.356 33.296,30.108 C33.296,31.884 34.556,33.156 36.296,33.156 Z M40.484,25.992 C40.94,25.992 41.192,25.764 41.192,25.332 C41.192,24.9 40.94,24.66 40.496,24.66 C40.04,24.66 39.776,24.9 39.776,25.332 C39.776,25.752 40.04,25.992 40.484,25.992 Z M40.544,33.048 C40.856,33.048 41.072,32.916 41.072,32.484 L41.072,27.744 C41.072,27.3 40.856,27.168 40.544,27.168 L40.424,27.168 C40.112,27.168 39.884,27.312 39.884,27.744 L39.884,32.484 C39.884,32.916 40.112,33.048 40.424,33.048 L40.544,33.048 Z M44.756,33.156 C45.608,33.156 46.1,32.724 46.1,32.28 C46.1,31.908 45.8,31.74 45.764,31.776 C45.584,32.016 45.32,32.184 44.948,32.184 C44.384,32.184 44.18,31.836 44.18,31.116 L44.18,28.2 L45.488,28.2 C45.86,28.2 46.004,28.044 46.004,27.744 L46.004,27.66 C46.004,27.372 45.872,27.228 45.5,27.228 L44.192,27.228 L44.192,26.34 C44.192,25.896 43.988,25.776 43.676,25.776 L43.556,25.776 C43.232,25.776 43.028,25.932 43.028,26.34 L43.028,27.228 L42.608,27.228 C42.236,27.228 42.092,27.384 42.092,27.672 L42.092,27.756 C42.092,28.044 42.236,28.2 42.608,28.2 L43.028,28.2 L43.028,31.248 C43.028,32.496 43.568,33.156 44.756,33.156 Z M49.748,33.156 C51.32,33.156 52.208,32.352 52.208,31.848 C52.208,31.344 51.608,31.236 51.584,31.26 C51.284,31.776 50.78,32.22 49.772,32.22 C48.68,32.22 47.888,31.5 47.804,30.432 L52.064,30.432 C52.34,30.432 52.424,30.336 52.424,30.084 L52.424,29.988 C52.424,28.26 51.32,27.084 49.652,27.084 C47.948,27.084 46.7,28.392 46.7,30.144 C46.7,31.944 47.924,33.156 49.748,33.156 Z M51.272,29.628 L47.816,29.628 C47.96,28.668 48.692,27.984 49.64,27.984 C50.6,27.984 51.212,28.632 51.272,29.628 Z M55.88,33.156 C56.792,33.156 57.452,32.736 57.908,32.04 L57.908,32.484 C57.908,32.916 58.124,33.048 58.436,33.048 L58.556,33.048 C58.868,33.048 59.084,32.916 59.084,32.484 L59.084,25.776 C59.084,24.948 58.7,24.756 58.328,24.756 C58.1,24.756 57.896,24.852 57.896,24.888 L57.896,28.032 C57.56,27.516 56.852,27.084 55.916,27.084 C54.32,27.084 53.18,28.296 53.18,30.12 C53.18,31.944 54.332,33.156 55.88,33.156 Z M56.108,32.172 C55.076,32.172 54.332,31.32 54.332,30.12 C54.332,28.884 55.052,28.068 56.132,28.068 C57.02,28.068 57.608,28.524 57.908,29.256 L57.908,30.48 C57.908,31.464 57.068,32.172 56.108,32.172 Z" id="Excited" fill="#000000" fill-rule="nonzero"></path>
                <path d="M126.44,10.156 C128.504,10.156 129.524,8.92 129.524,8.344 C129.524,7.768 128.78,7.624 128.756,7.684 C128.432,8.524 127.556,9.04 126.512,9.04 C124.952,9.04 123.812,7.828 123.812,6.112 C123.812,4.384 124.916,3.196 126.488,3.196 C127.364,3.196 128.24,3.616 128.684,4.396 C128.708,4.444 129.404,4.3 129.404,3.724 C129.404,3.184 128.42,2.08 126.476,2.08 C124.148,2.08 122.528,3.76 122.528,6.136 C122.528,8.5 124.136,10.156 126.44,10.156 Z M132.248,10.132 C133.124,10.132 133.88,9.76 134.324,9.136 C134.336,9.832 134.636,10.06 135.056,10.06 C135.272,10.06 135.488,9.988 135.488,9.928 L135.488,6.388 C135.488,4.924 134.6,4.084 132.968,4.084 C131.336,4.084 130.496,4.912 130.496,5.464 C130.496,6.04 131.228,6.052 131.228,6.04 C131.492,5.512 132.008,5.056 132.884,5.056 C133.808,5.056 134.312,5.536 134.312,6.412 L134.312,6.532 L134.156,6.532 C131.552,6.58 130.28,7.156 130.28,8.488 C130.28,9.472 131.012,10.132 132.248,10.132 Z M132.536,9.28 C131.852,9.28 131.444,8.956 131.444,8.44 C131.444,7.66 132.308,7.348 133.988,7.288 L134.312,7.276 L134.312,7.72 C134.312,8.632 133.568,9.28 132.536,9.28 Z M137.552,10.048 C137.852,10.048 138.08,9.916 138.08,9.484 L138.08,7.456 C138.08,6.124 138.452,5.212 139.388,5.212 C139.712,5.212 139.94,5.32 140.12,5.464 C140.144,5.488 140.48,5.308 140.48,4.852 C140.48,4.372 140.132,4.084 139.532,4.084 C138.8,4.084 138.32,4.468 138.068,5.176 C138.056,4.36 137.672,4.168 137.324,4.168 C137.084,4.168 136.892,4.264 136.892,4.3 L136.892,9.484 C136.892,9.916 137.108,10.048 137.42,10.048 L137.552,10.048 Z M142.004,2.992 C142.46,2.992 142.712,2.764 142.712,2.332 C142.712,1.9 142.46,1.66 142.016,1.66 C141.56,1.66 141.296,1.9 141.296,2.332 C141.296,2.752 141.56,2.992 142.004,2.992 Z M142.064,10.048 C142.376,10.048 142.592,9.916 142.592,9.484 L142.592,4.744 C142.592,4.3 142.376,4.168 142.064,4.168 L141.944,4.168 C141.632,4.168 141.404,4.312 141.404,4.744 L141.404,9.484 C141.404,9.916 141.632,10.048 141.944,10.048 L142.064,10.048 Z M144.776,10.048 C145.076,10.048 145.304,9.916 145.304,9.484 L145.304,6.136 C145.592,5.536 146.168,5.128 146.924,5.128 C147.764,5.128 148.256,5.728 148.256,6.7 L148.256,9.484 C148.256,9.916 148.472,10.048 148.784,10.048 L148.916,10.048 C149.216,10.048 149.444,9.916 149.444,9.484 L149.444,6.556 C149.444,5.128 148.736,4.084 147.212,4.084 C146.324,4.084 145.688,4.516 145.292,5.104 C145.256,4.348 144.896,4.168 144.548,4.168 C144.308,4.168 144.116,4.264 144.116,4.3 L144.116,9.484 C144.116,9.916 144.332,10.048 144.644,10.048 L144.776,10.048 Z M152.936,12.532 C154.844,12.532 155.96,11.86 155.96,10.768 C155.96,9.82 155.096,9.412 154.28,9.196 C153.272,8.944 152.72,8.908 152.72,8.536 C152.72,8.464 152.732,8.404 152.78,8.332 L152.996,8.332 C154.46,8.332 155.492,7.444 155.492,6.232 C155.492,5.752 155.3,5.308 154.988,4.948 L155.972,3.928 C156.008,3.904 155.804,3.424 155.36,3.424 C155.06,3.424 154.868,3.568 154.676,3.88 L154.364,4.432 C153.968,4.216 153.488,4.084 152.984,4.084 C151.556,4.084 150.512,5.056 150.512,6.268 C150.512,7.168 151.1,7.9 152.024,8.188 C151.832,8.356 151.7,8.572 151.7,8.812 C151.7,9.052 151.784,9.232 151.928,9.352 C150.884,9.532 150.092,10.096 150.092,10.936 C150.092,12.016 150.992,12.532 152.936,12.532 Z M152.996,7.552 C152.204,7.552 151.64,7.024 151.64,6.244 C151.64,5.464 152.192,4.936 152.972,4.936 C153.788,4.936 154.34,5.476 154.34,6.244 C154.34,7.024 153.788,7.552 152.996,7.552 Z M152.96,11.704 C151.82,11.704 151.232,11.416 151.232,10.9 C151.232,10.288 152.048,9.94 153.032,9.88 C153.884,10.096 154.808,10.216 154.808,10.804 C154.808,11.38 154.124,11.704 152.96,11.704 Z" id="Caring" fill="#000000" fill-rule="nonzero"></path>
            </g>
        </g>
    </g>
</svg>