<?xml version="1.0" encoding="UTF-8"?>
<svg width="152px" height="152px" viewBox="0 0 152 152" version="1.1" xmlns="http://www.w3.org/2000/svg" xmlns:xlink="http://www.w3.org/1999/xlink">
    <title>Group 11</title>
    <g id="Page-1" stroke="none" stroke-width="1" fill="none" fill-rule="evenodd">
        <g id="No-Photo" transform="translate(-542.000000, -245.000000)">
            <g id="Group-10" transform="translate(542.000000, 245.000000)">
                <circle id="Oval" fill="#EEEAE1" cx="76" cy="76" r="76"></circle>
                <path d="M99.6478874,69.989841 L82.4380932,69.989841 L82.4380932,53.9291342 C82.4380932,53.9291342 82.5964931,47.938834 76.2610953,48.0004724 C69.9256974,48.0621109 69.5602975,53.9291342 69.5602975,53.9291342 L69.5602975,69.989841 L52.3517033,69.989841 C52.3517033,69.989841 46.0289054,70.0173689 46.0001054,75.9185027 C45.9701055,81.820235 52.3517033,82.0093394 52.3517033,82.0093394 L69.5602975,82.0093394 L69.5602975,98.0712432 C69.5602975,98.0712432 69.5896975,103.972377 75.9124954,103.999905 C82.2358932,104.027433 82.4380932,98.0712432 82.4380932,98.0712432 L82.4380932,82.0093394 L99.6478874,82.0093394 C99.6478874,82.0093394 106.066085,82.1559552 105.999485,76.2428527 C105.932885,70.3303486 99.6478874,69.989841 99.6478874,69.989841 L99.6478874,69.989841 Z" id="Shape" fill="#C7C1B3"></path>
            </g>
        </g>
    </g>
</svg>