<?xml version="1.0" encoding="UTF-8"?>
<svg width="20px" height="20px" viewBox="0 0 20 20" version="1.1" xmlns="http://www.w3.org/2000/svg" xmlns:xlink="http://www.w3.org/1999/xlink">
    <title>noun_Gear_2474147</title>
    <g id="Page-1" stroke="none" stroke-width="1" fill="none" fill-rule="evenodd">
        <g id="Open-menu" transform="translate(-1133.000000, -171.000000)" fill-rule="nonzero">
            <g id="noun_Gear_2474147" transform="translate(1133.000000, 171.000000)">
                <path d="M19.4842331,8.38811465 C19.4842331,8.38811465 19.4842331,8.38811465 19.4842331,8.38811465 C19.2527165,8.07257428 18.894918,7.84117802 18.4950255,7.79910597 L17.6531467,7.69392585 C17.3374421,7.6518538 17.0638315,7.44149356 16.9165027,7.12595319 C16.7902209,6.83144886 16.8323148,6.47383644 17.0427845,6.22140415 L17.5689588,5.54825138 C17.8215224,5.23271102 17.9267573,4.83302656 17.8425694,4.4333421 C17.6531467,3.25532474 16.7481269,2.3507757 15.5694966,2.14041546 C15.1696041,2.07730739 14.7697117,2.18248751 14.4540071,2.41388378 L13.801551,2.9608204 C13.5489874,3.15014462 13.1911889,3.19221667 12.8754843,3.06600053 C12.5808267,2.93978438 12.3493101,2.66631607 12.3282631,2.3507757 L12.2230282,1.50933474 C12.1809343,1.10965028 11.9494176,0.752037865 11.6337131,0.520641599 C10.6655524,-0.1735472 9.38168719,-0.1735472 8.41352654,0.520641599 C8.09782198,0.752037865 7.8663053,1.10965028 7.82421136,1.50933474 L7.71897651,2.3507757 C7.67688257,2.66631607 7.46641286,2.93978438 7.1507083,3.08703655 C6.85605071,3.2132527 6.49825221,3.17118065 6.24568856,2.9608204 L5.57218549,2.4349198 C5.25648093,2.18248751 4.85658849,2.07730739 4.45669605,2.16145149 C3.27806569,2.3507757 2.37304595,3.25532474 2.16257624,4.4333421 C2.09943533,4.83302656 2.20467018,5.23271102 2.43618686,5.54825138 L2.96236113,6.22140415 C3.15178386,6.47383644 3.1938778,6.81041283 3.06759598,7.14698922 C2.94131416,7.44149356 2.66770354,7.67288982 2.35199898,7.69392585 L1.51012015,7.79910597 C1.1102277,7.84117802 0.752429203,8.07257428 0.520912525,8.38811465 C-0.173637508,9.35577176 -0.173637508,10.6389692 0.520912525,11.6066263 C0.752429203,11.9221667 1.1102277,12.153563 1.51012015,12.195635 L2.35199898,12.3008151 C2.66770354,12.3428872 2.94131416,12.5532474 3.08864295,12.8687878 C3.21492478,13.1632921 3.17283083,13.5209045 2.96236113,13.7733368 L2.43618686,14.4464896 C2.18362321,14.76203 2.09943533,15.1617144 2.16257624,15.5613989 C2.35199898,16.7183802 3.27806569,17.6439653 4.43564908,17.8332895 C4.83554152,17.8963976 5.23543396,17.7912175 5.55113852,17.5598212 L6.22464159,17.0339206 C6.47720524,16.8445964 6.81395677,16.8025243 7.04547344,16.8866684 C7.06652042,16.9077044 7.10861436,16.9287405 7.12966133,16.9287405 C7.42431892,17.0549566 7.6558356,17.3284249 7.67688257,17.6439653 L7.78211742,18.4854063 C7.82421136,18.8850907 8.05572804,19.2427031 8.3714326,19.4740994 C8.85551293,19.8106758 9.42378113,20 9.97100237,20 C10.5392706,20 11.1075388,19.8317118 11.5705721,19.4740994 C11.8862767,19.2427031 12.1177934,18.8850907 12.1598873,18.4854063 L12.2651222,17.6439653 C12.3072161,17.3284249 12.5176858,17.0549566 12.8333904,16.9077044 C13.128048,16.7814883 13.4858465,16.8235603 13.7384101,17.0339206 L14.4119132,17.5598212 C14.7276178,17.8122535 15.1275102,17.9174336 15.5274026,17.8332895 C16.684986,17.6439653 17.6110527,16.7183802 17.8004755,15.5613989 C17.8636164,15.1617144 17.7583815,14.76203 17.5268649,14.4464896 L17.0006906,13.7733368 C16.8112679,13.5209045 16.7481269,13.1843282 16.8954557,12.8477518 C17.0217376,12.5532474 17.2953482,12.3218512 17.6110527,12.3008151 L18.4529316,12.195635 C18.852824,12.153563 19.2106225,11.9221667 19.4421392,11.6066263 C20.1787832,10.6389692 20.1787832,9.33473573 19.4842331,8.38811465 Z M18.6002604,10.9545096 C18.5371195,11.0176177 18.4739785,11.0807257 18.3687437,11.0807257 L17.5268649,11.1859059 C16.8112679,11.27005 16.2009057,11.7538785 15.9062481,12.4270313 C15.6326375,13.1001841 15.7378723,13.8574809 16.1798587,14.4254536 L16.706033,15.0986064 C16.7691739,15.1617144 16.7902209,15.2668946 16.7691739,15.3510387 C16.6639391,16.0452275 16.1167178,16.5921641 15.4011208,16.7183802 C15.3169329,16.7394163 15.2327451,16.7183802 15.1485572,16.6552722 L14.4750541,16.1293715 C13.9067859,15.687615 13.128048,15.5824349 12.4545449,15.8769393 C11.7810419,16.1504076 11.3180085,16.7604523 11.2127736,17.4756771 L11.1075388,18.3171181 C11.0864918,18.4012622 11.0443979,18.4854063 10.981257,18.5485143 C10.4129888,18.9692348 9.63425084,18.9692348 9.06598263,18.5485143 C9.00284172,18.4854063 8.93970081,18.4222982 8.93970081,18.3171181 L8.83446595,17.4756771 C8.75027807,16.7604523 8.26619775,16.1504076 7.59269468,15.8559032 C7.34013103,15.7507231 7.08756739,15.7086511 6.81395677,15.7086511 C6.37197038,15.7086511 5.929984,15.8559032 5.57218549,16.1293715 L4.89868243,16.6552722 C4.83554152,16.7183802 4.73030667,16.7394163 4.64611878,16.7183802 C3.95156875,16.6132001 3.40434751,16.0662635 3.27806569,15.3510387 C3.25701872,15.2668946 3.27806569,15.1617144 3.3412066,15.0986064 L3.86738087,14.4254536 C4.30936725,13.8574809 4.41460211,13.079148 4.11994452,12.4059953 C3.8463339,11.7328425 3.23597175,11.27005 2.52037474,11.1648698 L1.67849591,11.0596897 C1.59430803,11.0386537 1.51012015,10.9965816 1.44697924,10.9334736 C1.02603982,10.3655009 1.02603982,9.58716803 1.44697924,9.01919537 C1.48907318,8.9560873 1.57326106,8.89297923 1.67849591,8.89297923 L2.52037474,8.78779911 C3.23597175,8.70365501 3.8463339,8.21982645 4.14099149,7.54667368 C4.41460211,6.8735209 4.30936725,6.11622403 3.86738087,5.54825138 L3.3412066,4.87509861 C3.27806569,4.81199053 3.25701872,4.70681041 3.27806569,4.62266632 C3.38330054,3.92847752 3.93052178,3.38154089 4.64611878,3.25532474 C4.73030667,3.23428872 4.83554152,3.25532474 4.89868243,3.31843282 L5.57218549,3.84433342 C6.1404537,4.28608993 6.91919162,4.39127005 7.59269468,4.09676571 C8.26619775,3.8232974 8.7292311,3.19221667 8.83446595,2.47699185 L8.93970081,1.63555088 C8.96074778,1.55140678 9.00284172,1.46726269 9.06598263,1.40415461 C9.63425084,1.00447016 10.4129888,0.983434131 10.981257,1.40415461 C11.0443979,1.44622666 11.1075388,1.53037076 11.1075388,1.63555088 L11.2127736,2.47699185 C11.2969615,3.19221667 11.7810419,3.80226137 12.4545449,4.09676571 C13.128048,4.37023403 13.8857389,4.2650539 14.4540071,3.8232974 L15.1275102,3.29739679 C15.1906511,3.23428872 15.295886,3.2132527 15.3800738,3.23428872 C16.0746239,3.33946884 16.6218451,3.88640547 16.7481269,4.60163029 C16.7691739,4.68577439 16.7481269,4.79095451 16.684986,4.85406258 L16.1588118,5.52721536 C15.7168254,6.09518801 15.6115905,6.8735209 15.9062481,7.54667368 C16.1798587,8.21982645 16.7902209,8.68261899 17.5058179,8.78779911 L18.3476967,8.89297923 C18.4318846,8.91401525 18.5160725,8.9560873 18.5792134,9.01919537 C19.0001528,9.60820405 19.0001528,10.3655009 18.6002604,10.9545096 Z" id="Shape" fill="#6F3996"></path>
                <path d="M10.0130963,5.52721536 C7.55060074,5.52721536 5.55113852,7.52563765 5.55113852,9.98685248 C5.55113852,12.4480673 7.55060074,14.4464896 10.0130963,14.4464896 C12.4755919,14.4464896 14.4750541,12.4480673 14.4750541,9.98685248 C14.4750541,7.52563765 12.4755919,5.52721536 10.0130963,5.52721536 Z M10.0130963,13.3315803 C8.16096289,13.3315803 6.66662797,11.8380226 6.66662797,9.98685248 C6.66662797,8.13568236 8.16096289,6.64212464 10.0130963,6.64212464 C11.8652297,6.64212464 13.3595647,8.13568236 13.3595647,9.98685248 C13.3595647,11.8380226 11.8652297,13.3315803 10.0130963,13.3315803 Z" id="Shape" fill="#652D90"></path>
            </g>
        </g>
    </g>
</svg>