<?xml version="1.0" encoding="UTF-8"?>
<svg width="23px" height="23px" viewBox="0 0 23 23" version="1.1" xmlns="http://www.w3.org/2000/svg" xmlns:xlink="http://www.w3.org/1999/xlink">
    <title>Shape</title>
    <g id="Educator---Insights-Dashboard" stroke="none" stroke-width="1" fill="none" fill-rule="evenodd">
        <g id="1.03a-Notification-centre" transform="translate(-1137.000000, -1362.000000)" fill="#652D90" fill-rule="nonzero">
            <g id="Group-40-Copy-2" transform="translate(1129.000000, 1351.468495)">
                <g id="Avatar-Placeholder-Copy-19" transform="translate(0.000000, 3.000000)">
                    <path d="M16.9801008,12.9190418 C16.9801008,10.20233 19.1953746,8 21.9280534,8 C24.6607321,8 26.876006,10.20233 26.876006,12.9190418 C26.876006,15.6357536 24.6607321,17.8380836 21.9280534,17.8380836 C19.1966516,17.8350211 16.9831813,15.634484 16.9801008,12.9190418 L16.9801008,12.9190418 Z M15.9934915,25.4755189 C16.0786563,25.5275287 16.1582585,25.5880453 16.2310603,25.6561276 L16.1518707,26.7212563 C16.0703008,26.7781973 15.9828526,26.8263233 15.8910108,26.8648171 C15.6049847,26.8213215 15.3215831,26.9575907 15.1783044,27.2075106 L14.77304,27.9114217 C14.6306155,28.1614188 14.6584251,28.472909 14.8429132,28.6940597 C14.8542718,28.7924612 14.8558321,28.8917371 14.8475714,28.9904433 L13.9625111,29.5971035 C13.8671309,29.5700322 13.7749816,29.5327667 13.6876766,29.4859597 C13.5413198,29.2368791 13.2573755,29.1012356 12.970312,29.1432661 L12.1690996,29.268303 C11.8814429,29.3108717 11.6509243,29.5271063 11.5914813,29.8101292 C11.5216363,29.8804836 11.4452068,29.9440612 11.3632289,30 L10.3337641,29.6850924 C10.2958254,29.5941485 10.2677182,29.499453 10.2499163,29.4026018 C10.3588162,29.1347976 10.288148,28.8278929 10.0729043,28.6338568 L9.47665315,28.0873995 C9.26243737,27.8924313 8.94976152,27.848287 8.68941535,27.9762556 C8.59113311,27.9673234 8.49421962,27.9471216 8.40060622,27.9160527 L8,26.92502 C8.04989145,26.8382078 8.10757766,26.756059 8.17235384,26.6795773 C8.45109626,26.5982889 8.64860467,26.3519197 8.66612429,26.0636551 L8.72668104,25.2578622 C8.74678697,24.9702251 8.58475583,24.7005196 8.32048497,24.581737 C8.26971474,24.4967703 8.22458903,24.4085932 8.18539683,24.3177704 L8.72109119,23.3869406 C8.81955508,23.370537 8.91946464,23.3643292 9.01921675,23.3684166 C9.25728563,23.5328078 9.57304388,23.5328078 9.81111276,23.3684166 L10.4818953,22.9099482 C10.7209698,22.7469111 10.8325193,22.4530322 10.761388,22.1736202 C10.7949075,22.0804303 10.8370101,21.9905161 10.8871597,21.9050225 L11.949232,21.7429377 C12.0240714,21.8077187 12.0912696,21.8807387 12.1495351,21.9605945 C12.1678607,22.2485507 12.3650453,22.4945159 12.6433055,22.5765167 L13.4212269,22.8126973 C13.6986625,22.8957335 13.9988634,22.7999358 14.1758572,22.5718857 C14.2699745,22.5406416 14.3665917,22.517403 14.4646664,22.5024207 L15.2565624,23.2248558 C15.249708,23.3232807 15.2341201,23.4209112 15.2099803,23.5166084 C14.9962002,23.7114937 14.9257578,24.0174177 15.0329682,24.2853534 L15.3310938,25.0355745 C15.4393593,25.3041114 15.7025066,25.4788859 15.9934915,25.4755189 L15.9934915,25.4755189 Z M12.8957806,25.6700206 C12.833945,25.4486482 12.6865994,25.2605484 12.485858,25.1467183 C12.3558827,25.0709761 12.2079613,25.031015 12.0573025,25.030942 C11.6624272,25.0302224 11.3165678,25.293933 11.214891,25.6732646 C11.1132143,26.0525962 11.281214,26.4524377 11.6240888,26.6471604 C11.8220119,26.764041 12.0597853,26.7942177 12.2808967,26.7305183 C12.5044234,26.6734934 12.69467,26.5278762 12.8072746,26.3276218 C12.9244462,26.1286363 12.9563341,25.8912081 12.8957806,25.6686313 L12.8957806,25.6700206 Z M28.57439,21.4873069 C27.0055042,19.9414811 24.7588487,19.190797 21.9415622,19.2384962 C19.1289339,19.1921863 16.919544,19.9229571 15.3515899,21.4233991 L16.4332267,22.4125795 C16.5657649,22.5332284 16.6462209,22.70017 16.6577525,22.8784575 C16.688449,23.301362 16.6248246,23.7257876 16.471424,24.1214162 L16.4928518,24.1765251 C16.8780506,24.3586774 17.2176209,24.6238106 17.4869142,24.9526797 C17.6014837,25.0902234 17.6583689,25.2663498 17.6457592,25.4444912 L17.526509,27.1250793 L30.5336339,27.1250793 C30.6693889,27.1252359 30.7984584,27.0665094 30.8870717,26.9642652 C30.9756851,26.8620209 31.0150245,26.7264331 30.9947968,26.5929777 C30.7487647,24.680209 29.901726,22.8934429 28.57439,21.4873069 Z" id="Shape"></path>
                </g>
            </g>
        </g>
    </g>
</svg>