<?xml version="1.0" encoding="UTF-8"?>
<svg width="131px" height="231px" viewBox="0 0 131 231" version="1.1" xmlns="http://www.w3.org/2000/svg" xmlns:xlink="http://www.w3.org/1999/xlink">
    <title>character-confused</title>
    <g id="Student-Web-Experience" stroke="none" stroke-width="1" fill="none" fill-rule="evenodd">
        <g id="character-confused" transform="translate(2.000000, 1.000000)">
            <g id="Left_leg_1_" transform="translate(44.354916, 135.813443)" stroke="#000000" stroke-linecap="round" stroke-width="1.75104">
                <line x1="6.21582734" y1="0.0614540466" x2="0.0920863309" y2="33.8919067" id="Shape"></line>
            </g>
            <g id="Left_foot" transform="translate(34.225420, 167.615912)" stroke="#000000" stroke-linecap="round" stroke-width="1.75104">
                <path d="M10.2215827,2.08943759 C-8.70215827,11.0002743 3.74484412,2.27379973 7.5971223,0.0153635117" id="Shape"></path>
            </g>
            <g id="Right_leg" transform="translate(68.604317, 134.584362)" stroke="#000000" stroke-linecap="round" stroke-linejoin="round" stroke-width="1.75104">
                <line x1="0.03072" y1="0.0768175583" x2="0.03072" y2="35.7048011" id="Shape"></line>
            </g>
            <g id="Right_foot" transform="translate(68.604317, 167.769547)" stroke="#000000" stroke-linecap="round" stroke-linejoin="round" stroke-width="1.75104">
                <path d="M0.0306954436,2.51961591 C19.3841727,12.5058985 2.76258993,0.046090535 2.76258993,0.046090535" id="Shape"></path>
            </g>
            <g id="Body" transform="translate(5.525180, 32.570645)" fill="#4FC47D" fill-rule="nonzero">
                <ellipse id="Oval" cx="51.6604317" cy="51.6982167" rx="51.6143885" ry="51.6674897"></ellipse>
            </g>
            <g id="Left_arm" transform="translate(0.613909, 111.385460)" stroke="#000000" stroke-linecap="round" stroke-width="1.75104">
                <path d="M13.2604317,0.046090535 C-21.0724221,26.99369 22.6532374,10.9849108 22.6532374,10.9849108" id="Shape"></path>
            </g>
            <g id="Right_arm" transform="translate(102.369305, 70.364883)" stroke="#000000" stroke-linecap="round" stroke-width="1.75104">
                <path d="M4.66570743,0.445541838 C34.6244604,-4.83950617 31.6470024,46.1058985 0.0306954436,37.6406036" id="Shape"></path>
            </g>
            <g id="Right_hand" transform="translate(102.522782, 59.610425)" fill="#000000" fill-rule="nonzero" stroke="#000000" stroke-linecap="round" stroke-width="1.75096218">
                <ellipse id="Oval" transform="translate(2.885415, 5.817809) rotate(-16.535696) translate(-2.885415, -5.817809) " cx="2.88541468" cy="5.8178085" rx="1.25845726" ry="5.66888386"></ellipse>
            </g>
            <g id="Left_hand" transform="translate(22.254197, 121.832647)" fill="#000000" fill-rule="nonzero" stroke="#000000" stroke-linecap="round" stroke-width="1.75108022">
                <ellipse id="Oval" transform="translate(2.460363, 4.525934) rotate(-16.528573) translate(-2.460363, -4.525934) " cx="2.46036259" cy="4.52593383" rx="1.2585421" ry="4.3326098"></ellipse>
            </g>
            <g id="Mouth" transform="translate(60.316547, 104.164609)" stroke="#000000" stroke-linecap="round" stroke-width="2.09524224">
                <path d="M0,0.36872428 C0,0.36872428 15.2402878,-1.88971193 17.3122302,6.49876543" id="Shape"></path>
            </g>
            <g id="Eyes" transform="translate(46.964029, 84.038409)" fill="#000000" fill-rule="nonzero">
                <g id="Group">
                    <ellipse id="Oval" cx="3.31510791" cy="5.56159122" rx="3.26906475" ry="4.82414266"></ellipse>
                    <ellipse id="Oval" cx="29.9280576" cy="4.83950617" rx="3.26906475" ry="4.82414266"></ellipse>
                </g>
            </g>
            <g id="Cheeks" transform="translate(36.834532, 96.636488)" fill="#3DB86D" fill-rule="nonzero">
                <g id="Group">
                    <path d="M3.06954436,7.5127572 C1.48872902,7.5127572 0.138129496,6.28367627 0.0153477218,4.68587106 C-0.107434053,2.99588477 1.15107914,1.52098765 2.83932854,1.39807956 L6.47673861,1.12153635 C8.16498801,0.998628258 9.6383693,2.25843621 9.76115108,3.9484225 C9.88393285,5.63840878 8.62541966,7.1133059 6.93717026,7.23621399 L3.29976019,7.5127572 C3.22302158,7.5127572 3.14628297,7.5127572 3.06954436,7.5127572 Z" id="Shape"></path>
                    <path d="M50.6628297,6.54485597 C50.5707434,6.54485597 50.4786571,6.54485597 50.3865707,6.52949246 L46.7952038,6.20685871 C45.1069544,6.05322359 43.863789,4.56296296 44.0326139,2.87297668 C44.1860911,1.1829904 45.6748201,-0.0614540466 47.3630695,0.107544582 L50.9544365,0.430178326 C52.6426859,0.583813443 53.8858513,2.07407407 53.7170264,3.76406036 C53.5635492,5.34650206 52.2282974,6.54485597 50.6628297,6.54485597 Z" id="Shape"></path>
                </g>
            </g>
            <g id="Squiggly" transform="translate(30.541966, 0.000000)" stroke="#4FC47D" stroke-linecap="round" stroke-linejoin="round" stroke-width="1.75104">
                <path d="M37.463789,16.8384088 C10.1448441,34.4142661 -0.721342926,24.3665295 10.1448441,11.5379973 C21.0110312,-1.29053498 36.6196643,-8.54211248 33.8263789,18.2364883 C31.0330935,45.0150892 -0.16882494,9.86337449 5.40239808,3.73333333 C10.9736211,-2.39670782 40.8709832,9.15665295 42.1908873,20.1876543 C43.58753,31.9100137 -0.721342926,19.9111111 0.107434053,15.163786 C0.936211031,10.4164609 25.3083933,8.94156379 23.0829736,15.6400549 C20.857554,22.338546 5.52517986,17.8677641 21.1338129,6.43731139 C36.742446,-4.99314129 55.1597122,5.68449931 37.463789,16.8384088 Z" id="Shape"></path>
            </g>
            <g id="Table_Shadow" transform="translate(14.580336, 223.692730)" opacity="0.3" stroke="#C1A5EF" stroke-linecap="round" stroke-width="10.50624">
                <line x1="0.0613908873" y1="0.12288" x2="88.9553957" y2="0.12288" id="Shape"></line>
            </g>
            <g id="Table_Legs" transform="translate(26.091127, 174.683128)" fill-rule="nonzero" stroke="#6D2995">
                <g id="Group">
                    <g id="Shape">
                        <line x1="3.7294964" y1="0.0153635117" x2="3.7294964" y2="43.9703704" stroke-width="3.50208" fill="#FFFFFF"></line>
                        <path d="M4.92661871,42.4647462 L2.54772182,42.4647462 C1.65755396,42.4647462 0.905515588,43.0946502 0.736690647,43.9703704 L0.184172662,46.9662551 C-0.0306954436,48.103155 0.8441247,49.1325103 1.99520384,49.1325103 L5.47913669,49.1325103 C6.63021583,49.1325103 7.48968825,48.0877915 7.29016787,46.9662551 L6.73764988,43.9703704 C6.56882494,43.0946502 5.81678657,42.4647462 4.92661871,42.4647462 Z" stroke-width="2.62656" fill="#6D2995"></path>
                    </g>
                    <g transform="translate(58.628297, 0.000000)" id="Shape">
                        <line x1="3.63741007" y1="0.0153635117" x2="3.63741007" y2="43.9703704" stroke-width="3.50208" fill="#FFFFFF"></line>
                        <path d="M4.81918465,42.4647462 L2.44028777,42.4647462 C1.5501199,42.4647462 0.798081535,43.0946502 0.629256595,43.9703704 L0.0767386091,46.9662551 C-0.138129496,48.103155 0.736690647,49.1325103 1.88776978,49.1325103 L5.37170264,49.1325103 C6.52278177,49.1325103 7.3822542,48.0877915 7.18273381,46.9662551 L6.63021583,43.9703704 C6.47673861,43.0946502 5.70935252,42.4647462 4.81918465,42.4647462 Z" stroke-width="2.62656" fill="#6D2995"></path>
                    </g>
                </g>
            </g>
            <g id="Group" transform="translate(0.000000, 128.592593)" stroke="#6D2995">
                <path d="M93.2220624,50.6995885 L24.9553957,50.6995885 C17.6345324,50.6995885 11.0043165,46.3517147 8.07290168,39.6378601 L3.10023981,28.2074074 L115.092566,28.2074074 L110.119904,39.6378601 C107.173141,46.3517147 100.542926,50.6995885 93.2220624,50.6995885 Z" id="Shape" stroke-width="3.50208" fill="#C1A5EF" fill-rule="nonzero"></path>
                <path d="M110.181295,37.9325103 L7.99616307,37.9325103 C3.60671463,37.9325103 0.0306954436,34.3681756 0.0306954436,29.9588477 L0.0306954436,12.8899863 C0.0306954436,9.89410151 2.45563549,7.48203018 5.43309353,7.48203018 L112.729017,7.48203018 C115.721823,7.48203018 118.131464,9.90946502 118.131464,12.8899863 L118.131464,29.9588477 C118.146763,34.3528121 114.586091,37.9325103 110.181295,37.9325103 Z" id="Shape" stroke-width="3.50208" fill="#EDE4FB" fill-rule="nonzero"></path>
                <path d="M0.0306954436,25.1500686 L0.0306954436,5.5308642 C0.0306954436,2.53497942 2.45563549,0.122908093 5.43309353,0.122908093 L112.729017,0.122908093 C115.721823,0.122908093 118.131415,2.55034294 118.131415,5.5308642 L118.131415,25.1654321" id="Shape" stroke-width="3.50208" fill="#EDE4FB" fill-rule="nonzero"></path>
                <path d="M118.146763,25.1500686 C118.146763,28.1459534 115.721823,30.5580247 112.744365,30.5580247 L5.44844125,30.5580247 C2.45563549,30.5580247 0.0460431655,28.1305898 0.0460431655,25.1500686" id="Shape" stroke-width="1.75104"></path>
            </g>
            <g id="Book" transform="translate(30.235012, 133.048011)" fill="#FFFFFF" fill-rule="nonzero" stroke="#6D2995" stroke-linejoin="round" stroke-width="1.75104">
                <g id="Group">
                    <rect id="Rectangle-path" x="1.81103118" y="6.88285322" width="48.7136691" height="14.5953361"></rect>
                    <path d="M51.4916067,18.7434842 L51.4916067,18.7434842 C43.0964029,18.2672154 34.6705036,19.066118 26.5208633,21.078738 L26.1678657,21.1709191 L25.8148681,21.078738 C17.6498801,19.0507545 9.23932854,18.2672154 0.8441247,18.7434842 L0.8441247,18.7434842 L0.8441247,3.56433471 L0.8441247,3.56433471 C9.23932854,3.08806584 17.6652278,3.88696845 25.8148681,5.89958848 L26.1678657,5.99176955 L26.5208633,5.89958848 C34.6858513,3.87160494 43.0964029,3.08806584 51.4916067,3.56433471 L51.4916067,3.56433471 L51.4916067,18.7434842 Z" id="Shape"></path>
                    <path d="M52.2743405,15.8705075 L51.8446043,15.8397805 C43.5107914,15.3635117 35.1616307,16.515775 27.257554,19.2197531 L26.1678657,19.5884774 L25.0781775,19.2197531 C17.1741007,16.515775 8.82494005,15.3788752 0.491127098,15.8397805 L0.0613908873,15.8705075 L0.0613908873,0.215089163 L0.491127098,0.18436214 C8.82494005,-0.291906722 17.1741007,0.860356653 25.0781775,3.56433471 L26.1678657,3.93305898 L27.257554,3.56433471 C35.1616307,0.860356653 43.5107914,-0.27654321 51.8446043,0.18436214 L52.2743405,0.215089163 L52.2743405,15.8705075 Z" id="Shape"></path>
                    <line x1="26.152518" y1="3.9484225" x2="26.152518" y2="21.1555556" id="Shape"></line>
                </g>
            </g>
            <g id="Pen" transform="translate(21.026379, 136.888889)" stroke="#6D2995" stroke-linecap="round">
                <g id="Group">
                    <line x1="0.0920863309" y1="11.0156379" x2="4.09784173" y2="0.0153635117" id="Shape" stroke-width="1.75104"></line>
                    <line x1="0.0920863309" y1="11.0156379" x2="2.30215827" y2="4.94705075" id="Shape" stroke-width="2.62656"></line>
                </g>
            </g>
            <g id="Left_eye_lid" transform="translate(46.810552, 85.421125)" stroke="#000000" stroke-linecap="round" stroke-width="2.09524224">
                <line x1="0.0767386091" y1="0.12288" x2="6.52278177" y2="0.12288" id="Shape"></line>
            </g>
            <g id="Right_eye_lid" transform="translate(73.822542, 92.795610)" stroke="#000000" stroke-linecap="round" stroke-width="2.09524224">
                <line x1="0" y1="0.06144" x2="6.43069544" y2="0.06144" id="Shape"></line>
            </g>
        </g>
    </g>
</svg>