<?xml version="1.0" encoding="UTF-8"?>
<svg width="108px" height="108px" viewBox="0 0 108 108" version="1.1" xmlns="http://www.w3.org/2000/svg" xmlns:xlink="http://www.w3.org/1999/xlink">
    <title>dot-box-img</title>
    <g id="Student-Web-Experience" stroke="none" stroke-width="1" fill="none" fill-rule="evenodd">
        <g id="dot-box-img">
            <path d="M107.708466,92.9964156 C107.708466,101.10974 101.147452,107.678805 93.0390811,107.678805 C84.9384229,107.678805 78.3732019,101.10974 78.3732019,92.9964156 C78.3732019,84.8908052 84.9384229,78.3280519 93.0390811,78.3280519 C101.147452,78.3280519 107.708466,84.8908052 107.708466,92.9964156" id="Fill-1" fill="#E25674"></path>
            <path d="M29.7377027,92.9964156 C29.7377027,101.10974 23.1640684,107.678805 15.0514913,107.678805 C6.95363752,107.678805 0.386313196,101.10974 0.386313196,92.9964156 C0.386313196,84.8908052 6.95363752,78.3280519 15.0514913,78.3280519 C23.1640684,78.3280519 29.7377027,84.8908052 29.7377027,92.9964156" id="Fill-2" fill="#DD89E0"></path>
            <path d="M68.7237854,92.9964156 C68.7237854,101.10974 62.1585644,107.678805 54.0551017,107.678805 C45.9481335,107.678805 39.3864181,101.10974 39.3864181,92.9964156 C39.3864181,84.8908052 45.9481335,78.3280519 54.0551017,78.3280519 C62.1585644,78.3280519 68.7237854,84.8908052 68.7237854,92.9964156" id="Fill-3" fill="#6599FE"></path>
            <path d="M29.7377027,14.8086234 C29.7377027,22.9086234 23.1640684,29.4804935 15.0514913,29.4804935 C6.95363752,29.4804935 0.386313196,22.9086234 0.386313196,14.8086234 C0.386313196,6.6938961 6.95363752,0.124831169 15.0514913,0.124831169 C23.1640684,0.124831169 29.7377027,6.6938961 29.7377027,14.8086234" id="Fill-4" fill="#FFAC00"></path>
            <path d="M68.7343021,14.8086234 C68.7343021,22.9086234 62.1585644,29.4804935 54.0621129,29.4804935 C45.9481335,29.4804935 39.3864181,22.9086234 39.3864181,14.8086234 C39.3864181,6.6938961 45.9481335,0.124831169 54.0621129,0.124831169 C62.1585644,0.124831169 68.7343021,6.6938961 68.7343021,14.8086234" id="Fill-5" fill="#F77D2C"></path>
            <path d="M107.870423,14.8086234 C107.870423,22.9086234 101.308707,29.4804935 93.1968315,29.4804935 C85.0919666,29.4804935 78.5267456,22.9086234 78.5267456,14.8086234 C78.5267456,6.6938961 85.0919666,0.124831169 93.1968315,0.124831169 C101.308707,0.124831169 107.870423,6.6938961 107.870423,14.8086234" id="Fill-6" fill="#EF659F"></path>
            <path d="M29.7377027,53.8688571 C29.7377027,61.9674545 23.1640684,68.5463377 15.0514913,68.5463377 C6.95363752,68.5463377 0.386313196,61.9674545 0.386313196,53.8688571 C0.386313196,45.7499221 6.95363752,39.1794545 15.0514913,39.1794545 C23.1640684,39.1794545 29.7377027,45.7499221 29.7377027,53.8688571" id="Fill-7" fill="#7DCDF8"></path>
            <path d="M68.6810175,53.8688571 C68.6810175,61.9674545 62.1094865,68.5449351 54.006725,68.5449351 C45.9109746,68.5449351 39.3380413,61.9674545 39.3380413,53.8688571 C39.3380413,45.7499221 45.9109746,39.1794545 54.006725,39.1794545 C62.1094865,39.1794545 68.6810175,45.7499221 68.6810175,53.8688571" id="Fill-8" fill="#C2A5EF"></path>
            <path d="M107.708466,53.8688571 C107.708466,62.2262338 101.204943,68.5463377 93.0390811,68.5463377 C84.9384229,68.5463377 78.3732019,61.9674545 78.3732019,53.8688571 C78.3732019,45.7499221 84.9384229,39.1794545 93.0390811,39.1794545 C101.147452,39.1794545 107.708466,45.7499221 107.708466,53.8688571" id="Fill-9" fill="#6BCD83"></path>
        </g>
    </g>
</svg>