<?xml version="1.0" encoding="UTF-8"?>
<svg width="1200px" height="964px" viewBox="0 0 1200 964" version="1.1" xmlns="http://www.w3.org/2000/svg" xmlns:xlink="http://www.w3.org/1999/xlink">
    <title>dots-background</title>
    <defs>
        <rect id="path-1" x="0" y="0" width="1200" height="963"></rect>
        <linearGradient x1="100%" y1="50%" x2="23.4682617%" y2="50%" id="linearGradient-3">
            <stop stop-color="#FFFFFF" stop-opacity="0" offset="0%"></stop>
            <stop stop-color="#FFFFFF" offset="100%"></stop>
        </linearGradient>
        <polygon id="path-4" points="1.06165077e-13 -0.351186119 1200 4 1200 957 0 962.853572"></polygon>
    </defs>
    <g id="Educator-Login/Sign-Up" stroke="none" stroke-width="1" fill="none" fill-rule="evenodd">
        <g id="dots-background" transform="translate(0.000000, 1.000000)">
            <mask id="mask-2" fill="white">
                <use xlink:href="#path-1"></use>
            </mask>
            <use id="Mask" fill="#FFFFFF" xlink:href="#path-1"></use>
            <g id="Dots" opacity="0.15" mask="url(#mask-2)">
                <g transform="translate(360.000000, -104.000000)">
                    <path d="M259.639,462.927 C242.602,492.759 204.684,503.125 174.865,486.096 C145.09,469.091 134.733,431.156 151.769,401.324 C168.787,371.527 206.708,361.197 236.483,378.201 C266.302,395.231 276.656,433.13 259.639,462.927" id="Fill-2" fill="#E35773"></path>
                    <path d="M444.719,1140.232 C427.682,1170.064 389.764,1180.43 359.945,1163.399 C330.17,1146.396 319.812,1108.461 336.85,1078.629 C353.867,1048.832 391.788,1038.502 421.562,1055.506 C451.382,1072.534 461.736,1110.435 444.719,1140.232" id="Fill-5" fill="#E35773"></path>
                    <path d="M690.877,709.204 C673.84,739.036 635.922,749.402 606.102,732.372 C576.327,715.368 565.971,677.434 583.008,647.602 C600.024,617.805 637.945,607.475 667.721,624.479 C697.539,641.508 707.894,679.407 690.877,709.204" id="Fill-6" fill="#E35773"></path>
                    <path d="M158.024,976.502 C140.987,1006.334 103.034,1016.68 73.198,999.641 C43.422,982.635 33.057,944.695 50.094,914.863 C67.111,885.066 105.04,874.741 134.816,891.746 C164.652,908.785 175.041,946.705 158.024,976.502" id="Fill-21" fill="#DE8AE0"></path>
                    <path d="M404.182,545.475 C387.144,575.307 349.191,585.652 319.355,568.613 C289.579,551.608 279.215,513.668 296.252,483.836 C313.269,454.039 351.197,443.715 380.974,460.719 C410.81,477.758 421.198,515.678 404.182,545.475" id="Fill-22" fill="#DE8AE0"></path>
                    <path d="M650.339,114.447 C633.302,144.279 595.349,154.625 565.513,137.586 C535.736,120.581 525.372,82.642 542.409,52.81 C559.426,23.012 597.354,12.687 627.131,29.691 C656.967,46.731 667.355,84.65 650.339,114.447" id="Fill-23" fill="#DE8AE0"></path>
                    <path d="M833.891,790.879 C816.854,820.711 778.9,831.057 749.064,814.019 C719.289,797.014 708.924,759.073 725.961,729.241 C742.977,699.444 780.907,689.119 810.683,706.123 C840.519,723.163 850.908,761.082 833.891,790.879" id="Fill-26" fill="#DE8AE0"></path>
                    <path d="M116.296,381.065 C99.259,410.897 61.323,421.252 31.523,404.233 C1.729,387.219 -8.618,349.288 8.419,319.456 C25.435,289.659 63.348,279.324 93.14,296.338 C122.941,313.358 133.312,351.268 116.296,381.065" id="Fill-30" fill="#6699FF"></path>
                    <path d="M301.376,1058.369 C284.339,1088.201 246.403,1098.557 216.602,1081.537 C186.81,1064.524 176.462,1026.593 193.499,996.761 C210.516,966.964 248.428,956.629 278.22,973.643 C308.021,990.662 318.393,1028.572 301.376,1058.369" id="Fill-33" fill="#6699FF"></path>
                    <path d="M547.533,627.342 C530.496,657.174 492.56,667.529 462.76,650.511 C432.967,633.496 422.619,595.566 439.656,565.734 C456.673,535.937 494.585,525.602 524.377,542.615 C554.179,559.636 564.55,597.545 547.533,627.342" id="Fill-34" fill="#6699FF"></path>
                    <path d="M793.69,196.315 C776.653,226.147 738.719,236.503 708.916,219.483 C679.124,202.469 668.776,164.539 685.813,134.707 C702.83,104.91 740.742,94.574 770.534,111.59 C800.336,128.608 810.707,166.518 793.69,196.315" id="Fill-35" fill="#6699FF"></path>
                    <path d="M322.166,689.084 C305.162,718.859 267.203,729.215 237.367,712.176 C207.593,695.17 197.232,657.222 214.236,627.446 C231.273,597.614 269.218,587.263 298.993,604.268 C328.829,621.307 339.203,659.252 322.166,689.084" id="Fill-44" fill="#FFAB00"></path>
                    <path d="M568.324,258.057 C551.32,287.832 513.361,298.188 483.525,281.148 C453.75,264.144 443.39,226.194 460.394,196.42 C477.431,166.588 515.375,156.235 545.15,173.24 C574.987,190.279 585.361,228.226 568.324,258.057" id="Fill-45" fill="#FFAB00"></path>
                    <path d="M750.879,933.92 C733.875,963.695 695.916,974.051 666.08,957.012 C636.306,940.006 625.945,902.057 642.949,872.282 C659.986,842.45 697.931,832.098 727.706,849.104 C757.542,866.143 767.916,904.088 750.879,933.92" id="Fill-47" fill="#FFAB00"></path>
                    <path d="M280.465,93.662 C263.459,123.437 225.493,133.787 195.727,116.788 C165.899,99.753 155.557,61.815 172.56,32.039 C189.598,2.207 227.524,-8.155 257.352,8.88 C287.118,25.879 297.502,63.83 280.465,93.662" id="Fill-51" fill="#F77D2B"></path>
                    <path d="M465.544,770.967 C448.539,800.742 410.573,811.092 380.807,794.093 C350.979,777.058 340.637,739.119 357.641,709.344 C374.678,679.512 412.604,669.151 442.433,686.185 C472.198,703.184 482.581,741.135 465.544,770.967" id="Fill-53" fill="#F77D2B"></path>
                    <path d="M711.702,339.94 C694.697,369.715 656.73,380.065 626.964,363.066 C597.137,346.031 586.794,308.092 603.798,278.316 C620.835,248.484 658.762,238.123 688.59,255.158 C718.356,272.156 728.738,310.107 711.702,339.94" id="Fill-54" fill="#F77D2B"></path>
                    <path d="M894.258,1015.803 C877.253,1045.578 839.286,1055.928 809.519,1038.929 C779.692,1021.894 769.35,983.955 786.354,954.18 C803.391,924.348 841.317,913.985 871.146,931.021 C900.912,948.02 911.294,985.971 894.258,1015.803" id="Fill-56" fill="#F77D2B"></path>
                    <path d="M178.21,606.872 C161.206,636.647 123.292,647.027 93.464,629.992 C63.671,612.979 53.328,575.039 70.333,545.264 C87.37,515.432 125.297,505.07 155.09,522.085 C184.917,539.119 195.247,577.04 178.21,606.872" id="Fill-59" fill="#F0669E"></path>
                    <path d="M424.368,175.845 C407.363,205.619 369.45,216 339.622,198.966 C309.829,181.951 299.485,144.012 316.491,114.236 C333.527,84.404 371.455,74.043 401.248,91.058 C431.075,108.092 441.404,146.013 424.368,175.845" id="Fill-60" fill="#F0669E"></path>
                    <path d="M609.448,853.15 C592.442,882.924 554.529,893.305 524.702,876.27 C494.909,859.256 484.565,821.316 501.57,791.541 C518.607,761.709 556.535,751.348 586.328,768.362 C616.154,785.396 626.484,823.317 609.448,853.15" id="Fill-62" fill="#F0669E"></path>
                    <path d="M855.605,422.122 C838.6,451.896 800.687,462.277 770.859,445.243 C741.066,428.229 730.723,390.289 747.729,360.514 C764.765,330.682 802.692,320.32 832.485,337.335 C862.313,354.369 872.643,392.29 855.605,422.122" id="Fill-63" fill="#F0669E"></path>
                    <path d="M240.169,832.664 C223.164,862.44 185.189,872.824 155.352,855.785 C125.577,838.781 115.235,800.801 132.239,771.025 C149.281,741.186 187.23,730.824 217.006,747.829 C246.842,764.869 257.211,802.822 240.169,832.664" id="Fill-74" fill="#7DCCF7"></path>
                    <path d="M486.326,401.637 C469.322,431.412 431.347,441.798 401.511,424.758 C371.734,407.754 361.393,369.773 378.396,339.999 C395.438,310.158 433.388,299.798 463.163,316.802 C492.999,333.842 503.368,371.796 486.326,401.637" id="Fill-75" fill="#7DCCF7"></path>
                    <path d="M669.879,1078.068 C652.873,1107.844 614.898,1118.23 585.061,1101.19 C555.286,1084.186 544.944,1046.205 561.948,1016.431 C578.99,986.59 616.939,976.23 646.716,993.234 C676.552,1010.273 686.921,1048.228 669.879,1078.068" id="Fill-78" fill="#7DCCF7"></path>
                    <path d="M916.036,647.041 C899.032,676.816 861.056,687.203 831.219,670.162 C801.443,653.158 791.102,615.179 808.105,585.404 C825.147,555.563 863.097,545.203 892.873,562.207 C922.709,579.246 933.078,617.201 916.036,647.041" id="Fill-79" fill="#7DCCF7"></path>
                    <path d="M383.354,914.436 C366.35,944.211 328.379,954.588 298.586,937.574 C268.82,920.574 258.455,882.594 275.459,852.818 C292.501,822.977 330.469,812.627 360.234,829.626 C390.027,846.641 400.396,884.596 383.354,914.436" id="Fill-86" fill="#C2A6F0"></path>
                    <path d="M629.512,483.409 C612.508,513.184 574.536,523.561 544.743,506.547 C514.977,489.547 504.612,451.566 521.616,421.791 C538.658,391.95 576.626,381.6 606.392,398.6 C636.185,415.614 646.554,453.568 629.512,483.409" id="Fill-87" fill="#C2A6F0"></path>
                    <path d="M341.784,319.09 C324.24,349.811 287.058,359.396 257.019,342.24 C227.245,325.236 216.911,287.262 233.915,257.486 C250.957,227.646 288.897,217.28 318.673,234.284 C348.492,251.315 358.826,289.248 341.784,319.09" id="Fill-95" fill="#6BCC82"></path>
                    <path d="M526.864,997.394 C509.32,1028.115 472.138,1037.699 442.1,1020.545 C412.324,1003.541 401.991,965.566 418.995,935.791 C436.037,905.949 473.977,895.585 503.753,912.589 C533.572,929.619 543.906,967.553 526.864,997.394" id="Fill-98" fill="#6BCC82"></path>
                    <path d="M773.021,565.367 C755.477,596.088 718.295,605.673 688.258,588.518 C658.482,571.514 648.148,533.539 665.152,503.764 C682.194,473.923 720.135,463.558 749.91,480.562 C779.729,497.592 790.063,535.525 773.021,565.367" id="Fill-99" fill="#6BCC82"></path>
                </g>
            </g>
            <mask id="mask-5" fill="white">
                <use xlink:href="#path-4"></use>
            </mask>
            <use id="Mask-Copy" fill="url(#linearGradient-3)" xlink:href="#path-4"></use>
        </g>
    </g>
</svg>