<?xml version="1.0" encoding="UTF-8"?>
<svg width="227px" height="63px" viewBox="0 0 227 63" version="1.1" xmlns="http://www.w3.org/2000/svg" xmlns:xlink="http://www.w3.org/1999/xlink">
    <title>logo-app</title>
    <g id="Student-Web-Experience" stroke="none" stroke-width="1" fill="none" fill-rule="evenodd">
        <g id="logo-app">
            <g id="Logo" transform="translate(87.000000, 17.000000)">
                <polyline id="Fill-10" fill="#FFFFFF" points="15.8319375 28.165449 9.63363345 28.165449 9.63363345 17.1662191 0.0191248452 0.310926686 6.73371147 0.310926686 12.7335947 10.6719273 18.7315358 0.310926686 25.4474172 0.310926686 15.8319375 17.1662191 15.8319375 28.165449"></polyline>
                <path d="M43.2816622,17.447027 C43.2816622,20.5540935 42.2079887,23.1703144 40.0648496,25.2963387 C37.9171788,27.4217138 35.2227988,28.484239 31.9775016,28.484239 C28.7338228,28.484239 26.0375006,27.4217138 23.8930668,25.2963387 C21.7486329,23.1703144 20.674312,20.5540935 20.674312,17.447027 C20.674312,14.3370387 21.7486329,11.7143252 23.8930668,9.57499091 C26.0375006,7.43727977 28.7338228,6.36793724 31.9775016,6.36793724 C35.2227988,6.36793724 37.9171788,7.43727977 40.0648496,9.57499091 C42.2079887,11.7143252 43.2816622,14.3370387 43.2816622,17.447027 L43.2816622,17.447027 Z M26.6735478,17.447027 C26.6735478,19.1997229 27.1710565,20.6264868 28.1634843,21.7286173 C29.1578542,22.8313971 30.4289775,23.3835985 31.9775016,23.3835985 C33.5269967,23.3835985 34.7987673,22.8313971 35.7911952,21.7286173 C36.7855651,20.6264868 37.2811316,19.1997229 37.2811316,17.447027 C37.2811316,15.6930326 36.7855651,14.2581528 35.7911952,13.1423877 C34.7987673,12.0259733 33.5269967,11.4682531 31.9775016,11.4682531 C30.4289775,11.4682531 29.1578542,12.0259733 28.1634843,13.1423877 C27.1710565,14.2581528 26.6735478,15.6930326 26.6735478,17.447027 L26.6735478,17.447027 Z" id="Fill-11" fill="#FFFFFF"></path>
                <path d="M59.5191537,6.70263431 L59.5191537,18.3796988 C59.5191537,21.6140217 58.3538764,23.0355915 55.521929,23.0924023 C52.7980933,23.0355915 51.4538165,21.6140217 51.4538165,18.3796988 L51.4538165,6.70263431 L45.4532859,6.70263431 L45.4532859,19.6947889 C45.4532859,22.5895452 46.2485877,24.7746528 47.837249,26.2488132 C49.4272051,27.7242721 51.6240765,28.4618393 53.9679022,28.4618393 C54.4006733,28.4618393 55.075563,28.470929 55.5031551,28.4618393 C56.0333562,28.470929 56.5875103,28.4618393 57.0202813,28.4618393 C59.363136,28.4618393 61.5457651,27.7242721 63.137016,26.2488132 C64.7253537,24.7746528 65.5209791,22.5895452 65.5209791,19.6947889 L65.5209791,6.70263431 L59.5191537,6.70263431" id="Fill-12" fill="#FFFFFF"></path>
                <path d="M138.047513,25.0570839 C135.637008,27.341854 132.808297,28.484239 129.564618,28.484239 C126.319321,28.484239 123.636594,27.4814463 121.518379,25.475861 C119.398545,23.4709249 118.341056,20.7793891 118.341056,17.4054739 C118.341056,14.0322079 119.41829,11.3497619 121.579232,9.35553871 C123.736937,7.36521114 126.286629,6.36793724 129.227012,6.36793724 C132.166423,6.36793724 134.663677,7.25808211 136.71586,9.03804721 C138.768367,10.8176877 139.794782,13.2621774 139.794782,16.3698933 C139.794782,16.3698933 139.661422,19.5587674 136.608719,19.5587674 L124.219556,19.5587674 C124.405677,20.7277724 125.014858,21.6834933 126.048394,22.4275531 C127.081283,23.1703144 128.245913,23.5426689 129.544226,23.5426689 C131.636222,23.5426689 133.356948,22.8388636 134.708994,21.4289806 L138.047513,25.0570839 L138.047513,25.0570839 Z M132.325031,12.3454126 C131.503834,11.6545927 130.504932,11.3088581 129.325089,11.3088581 C128.147512,11.3088581 127.067041,11.6672534 126.08756,12.3850179 C125.106462,13.1027824 124.537742,14.0721378 124.379134,15.2930842 L133.75638,15.2930842 C133.622049,14.0198718 133.146227,13.0362326 132.325031,12.3454126 L132.325031,12.3454126 Z" id="Fill-13" fill="#C2A5EF"></path>
                <path d="M109.93358,6.70263431 L109.93358,18.3796988 C109.93358,21.6140217 108.767332,23.0355915 105.935385,23.0924023 C103.211873,23.0355915 101.867272,21.6140217 101.867272,18.3796988 L101.867272,6.70263431 L95.8657705,6.70263431 L95.8657705,19.6947889 C95.8657705,22.5895452 96.662367,24.7746528 98.2500573,26.2488132 C99.8416318,27.7242721 102.036885,28.4618393 104.381034,28.4618393 C104.813805,28.4618393 105.489342,28.470929 105.916934,28.4618393 C106.447783,28.470929 107.000966,28.4618393 107.433413,28.4618393 C109.777563,28.4618393 111.959868,27.7242721 113.550148,26.2488132 C115.138162,24.7746528 115.934111,22.5895452 115.934111,19.6947889 L115.934111,6.70263431 L109.93358,6.70263431" id="Fill-14" fill="#C2A5EF"></path>
                <polyline id="Fill-15" fill="#C2A5EF" points="86.5419338 28.1216235 86.5419338 16.9091094 75.2429522 16.9091094 75.2429522 28.1216235 69.1161832 28.1216235 69.1161832 0.190487683 75.2429522 0.190487683 75.2429522 11.2436067 86.5419338 11.2436067 86.5419338 0.190487683 92.6683791 0.190487683 92.6683791 28.1216235 86.5419338 28.1216235"></polyline>
            </g>
            <g id="Imported-Layers">
                <path d="M62.0400763,53.5659354 C62.0400763,58.2392104 58.2609321,62.0229918 53.5905107,62.0229918 C48.9245316,62.0229918 45.1429643,58.2392104 45.1429643,53.5659354 C45.1429643,48.8971038 48.9245316,45.1169579 53.5905107,45.1169579 C58.2609321,45.1169579 62.0400763,48.8971038 62.0400763,53.5659354" id="Fill-1" fill="#E25674"></path>
                <path d="M17.1289168,53.5659354 C17.1289168,58.2392104 13.3425034,62.0229918 8.66965896,62.0229918 C4.00529521,62.0229918 0.222516401,58.2392104 0.222516401,53.5659354 C0.222516401,48.8971038 4.00529521,45.1169579 8.66965896,45.1169579 C13.3425034,45.1169579 17.1289168,48.8971038 17.1289168,53.5659354" id="Fill-2" fill="#DD89E0"></path>
                <path d="M39.5849004,53.5659354 C39.5849004,58.2392104 35.8033331,62.0229918 31.1357386,62.0229918 C26.4661249,62.0229918 22.6865768,58.2392104 22.6865768,53.5659354 C22.6865768,48.8971038 26.4661249,45.1169579 31.1357386,45.1169579 C35.8033331,45.1169579 39.5849004,48.8971038 39.5849004,53.5659354" id="Fill-3" fill="#6599FE"></path>
                <path d="M17.1289168,8.52976706 C17.1289168,13.1953671 13.3425034,16.9807643 8.66965896,16.9807643 C4.00529521,16.9807643 0.222516401,13.1953671 0.222516401,8.52976706 C0.222516401,3.85568416 4.00529521,0.0719027532 8.66965896,0.0719027532 C13.3425034,0.0719027532 17.1289168,3.85568416 17.1289168,8.52976706" id="Fill-4" fill="#FFAC00"></path>
                <path d="M39.590958,8.52976706 C39.590958,13.1953671 35.8033331,16.9807643 31.139777,16.9807643 C26.4661249,16.9807643 22.6865768,13.1953671 22.6865768,8.52976706 C22.6865768,3.85568416 26.4661249,0.0719027532 31.139777,0.0719027532 C35.8033331,0.0719027532 39.590958,3.85568416 39.590958,8.52976706" id="Fill-5" fill="#F77D2C"></path>
                <path d="M62.1333636,8.52976706 C62.1333636,13.1953671 58.3538155,16.9807643 53.6813749,16.9807643 C49.0129728,16.9807643 45.2314055,13.1953671 45.2314055,8.52976706 C45.2314055,3.85568416 49.0129728,0.0719027532 53.6813749,0.0719027532 C58.3538155,0.0719027532 62.1333636,3.85568416 62.1333636,8.52976706" id="Fill-6" fill="#EF659F"></path>
                <path d="M17.1289168,31.0284617 C17.1289168,35.6932538 13.3425034,39.4826905 8.66965896,39.4826905 C4.00529521,39.4826905 0.222516401,35.6932538 0.222516401,31.0284617 C0.222516401,26.3519551 4.00529521,22.5673658 8.66965896,22.5673658 C13.3425034,22.5673658 17.1289168,26.3519551 17.1289168,31.0284617" id="Fill-7" fill="#7DCDF8"></path>
                <path d="M39.5602661,31.0284617 C39.5602661,35.6932538 35.7750642,39.4818826 31.1078736,39.4818826 C26.4447213,39.4818826 22.6587118,35.6932538 22.6587118,31.0284617 C22.6587118,26.3519551 26.4447213,22.5673658 31.1078736,22.5673658 C35.7750642,22.5673658 39.5602661,26.3519551 39.5602661,31.0284617" id="Fill-8" fill="#C2A5EF"></path>
                <path d="M62.0400763,31.0284617 C62.0400763,35.8423106 58.294047,39.4826905 53.5905107,39.4826905 C48.9245316,39.4826905 45.1429643,35.6932538 45.1429643,31.0284617 C45.1429643,26.3519551 48.9245316,22.5673658 53.5905107,22.5673658 C58.2609321,22.5673658 62.0400763,26.3519551 62.0400763,31.0284617" id="Fill-9" fill="#6BCD83"></path>
            </g>
        </g>
    </g>
</svg>