<?xml version="1.0" encoding="UTF-8"?>
<svg width="111px" height="28px" viewBox="0 0 111 28" version="1.1" xmlns="http://www.w3.org/2000/svg" xmlns:xlink="http://www.w3.org/1999/xlink">
    <title>logo</title>
    <defs>
        <path d="M7.403,3.85154705 C7.403,5.89548453 5.76653846,7.55044083 3.74691026,7.55044083 C1.73108974,7.55044083 0.0961794872,5.89548453 0.0961794872,3.85154705 C0.0961794872,1.8094673 1.73108974,0.156082935 3.74691026,0.156082935 C5.76653846,0.156082935 7.403,1.8094673 7.403,3.85154705 Z" id="path-1"></path>
        <path d="M7.64670513,3.85154705 C7.64670513,5.89548453 6.01235897,7.55044083 3.99512821,7.55044083 C1.97691026,7.55044083 0.343410256,5.89548453 0.343410256,3.85154705 C0.343410256,1.8094673 1.97691026,0.156082935 3.99512821,0.156082935 C6.01235897,0.156082935 7.64670513,1.8094673 7.64670513,3.85154705 Z" id="path-3"></path>
        <path d="M7.403,3.73076108 C7.403,5.7714118 5.76653846,7.42708262 3.74691026,7.42708262 C1.73108974,7.42708262 0.0961794872,5.7714118 0.0961794872,3.73076108 C0.0961794872,1.6863949 1.73108974,0.0314385965 3.74691026,0.0314385965 C5.76653846,0.0314385965 7.403,1.6863949 7.403,3.73076108 Z" id="path-5"></path>
        <path d="M7.64938462,3.73076108 C7.64938462,5.7714118 6.01235897,7.42708262 3.99682051,7.42708262 C1.97691026,7.42708262 0.343410256,5.7714118 0.343410256,3.73076108 C0.343410256,1.6863949 1.97691026,0.0314385965 3.99682051,0.0314385965 C6.01235897,0.0314385965 7.64938462,1.6863949 7.64938462,3.73076108 Z" id="path-7"></path>
        <path d="M7.52020513,3.73076108 C7.52020513,5.7714118 5.88670513,7.42708262 3.86735897,7.42708262 C1.84970513,7.42708262 0.215358974,5.7714118 0.215358974,3.73076108 C0.215358974,1.6863949 1.84970513,0.0314385965 3.86735897,0.0314385965 C5.88670513,0.0314385965 7.52020513,1.6863949 7.52020513,3.73076108 Z" id="path-9"></path>
        <path d="M7.403,3.99716491 C7.403,6.03752982 5.76653846,7.69491547 3.74691026,7.69491547 C1.73108974,7.69491547 0.0961794872,6.03752982 0.0961794872,3.99716491 C0.0961794872,1.95179841 1.73108974,0.296413397 3.74691026,0.296413397 C5.76653846,0.296413397 7.403,1.95179841 7.403,3.99716491 Z" id="path-11"></path>
        <path d="M7.63612821,3.99716491 C7.63612821,6.03752982 6.00023077,7.69448676 3.983,7.69448676 C1.96760256,7.69448676 0.331423077,6.03752982 0.331423077,3.99716491 C0.331423077,1.95179841 1.96760256,0.296413397 3.983,0.296413397 C6.00023077,0.296413397 7.63612821,1.95179841 7.63612821,3.99716491 Z" id="path-13"></path>
        <path d="M7.47987179,3.99716491 C7.47987179,6.10269346 5.86089744,7.69491547 3.82801282,7.69491547 C1.81148718,7.69491547 0.177141026,6.03752982 0.177141026,3.99716491 C0.177141026,1.95179841 1.81148718,0.296413397 3.82801282,0.296413397 C5.84665385,0.296413397 7.47987179,1.95179841 7.47987179,3.99716491 Z" id="path-15"></path>
        <polygon id="path-17" points="8.98446154 15.6591362 5.64229487 15.6591362 5.64229487 9.67294163 0.458051282 0.499444976 4.07860256 0.499444976 7.31387179 6.13838596 10.5480128 0.499444976 14.1692692 0.499444976 8.98446154 9.67294163"></polygon>
        <path d="M12.5037564,6.9676504 C12.5037564,8.65861818 11.9248462,10.0825008 10.769141,11.2395841 C9.61117949,12.3963815 8.15833333,12.9745659 6.40834615,12.9745659 C4.65934615,12.9745659 3.20551282,12.3963815 2.04910256,11.2395841 C0.892833333,10.0825008 0.3135,8.65861818 0.3135,6.9676504 C0.3135,5.27511069 0.892833333,3.8476555 2.04910256,2.68342711 C3.20551282,1.51991324 4.65934615,0.937870494 6.40834615,0.937870494 C8.15833333,0.937870494 9.61117949,1.51991324 10.769141,2.68342711 C11.9248462,3.8476555 12.5037564,5.27511069 12.5037564,6.9676504 Z M3.54848718,6.9676504 C3.54848718,7.921526 3.81671795,8.69805933 4.35176923,9.29796491 C4.88794872,9.8981563 5.57333333,10.1986807 6.40834615,10.1986807 C7.24392308,10.1986807 7.92958974,9.8981563 8.46478205,9.29796491 C9.00096154,8.69805933 9.26820513,7.921526 9.26820513,6.9676504 C9.26820513,6.01306029 9.00096154,5.23209697 8.46478205,4.62490335 C7.92958974,4.01728102 7.24392308,3.71375566 6.40834615,3.71375566 C5.57333333,3.71375566 4.88794872,4.01728102 4.35176923,4.62490335 C3.81671795,5.23209697 3.54848718,6.01306029 3.54848718,6.9676504 Z" id="path-19"></path>
        <path d="M8.56688462,0.120071451 L11.803141,0.120071451 L11.803141,7.19104051 C11.803141,8.7664 11.374141,9.95563636 10.5176923,10.7580351 C9.65969231,11.5610054 8.48283333,11.9624191 7.21952564,11.9624191 C6.98612821,11.9624191 6.68729487,11.9674207 6.4014359,11.9624191 C6.17085897,11.9674207 5.80701282,11.9624191 5.57361538,11.9624191 C4.30974359,11.9624191 3.12512821,11.5610054 2.26783333,10.7580351 C1.41124359,9.95563636 0.982384615,8.7664 0.982384615,7.19104051 L0.982384615,0.120071451 L4.2179359,0.120071451 L4.2179359,6.47524083 C4.2179359,8.23551643 4.94280769,9.00919171 6.41158974,9.04020159 C7.93861538,9.00919171 8.56688462,8.23551643 8.56688462,6.47524083 L8.56688462,0.120071451 Z" id="path-21"></path>
        <path d="M11.4232179,11.1093997 C10.1235256,12.3529391 8.59819231,12.9745659 6.84919231,12.9745659 C5.09934615,12.9745659 3.65270513,12.4288204 2.51053846,11.3373295 C1.36752564,10.2461244 0.797358974,8.78137161 0.797358974,6.94507177 C0.797358974,5.10920064 1.37810256,3.64930654 2.54339744,2.56396045 C3.70685897,1.48075789 5.08171795,0.937870494 6.66712821,0.937870494 C8.25211538,0.937870494 9.59862821,1.42245359 10.7052564,2.39119107 C11.8120256,3.35964274 12.3654103,4.69006699 12.3654103,6.38146348 C12.3654103,6.38146348 12.2934872,8.11701691 10.6474359,8.11701691 L3.96705128,8.11701691 C4.06746154,8.75321978 4.39591026,9.27338565 4.95324359,9.67837193 C5.51015385,10.0825008 6.13814103,10.2851368 6.83819231,10.2851368 C7.96625641,10.2851368 8.8940641,9.90215758 9.62316667,9.13477002 L11.4232179,11.1093997 Z M8.33757692,4.19119362 C7.89489744,3.81521659 7.35617949,3.62701372 6.72001282,3.62701372 C6.08511538,3.62701372 5.50239744,3.82207592 4.97425641,4.21277193 C4.44526923,4.60332504 4.13867949,5.13092185 4.05307692,5.79541946 L9.10941026,5.79541946 C9.0370641,5.10248421 8.78039744,4.56717065 8.33757692,4.19119362 Z" id="path-23"></path>
        <path d="M7.95611538,0.120071451 L11.1918077,0.120071451 L11.1918077,7.19104051 C11.1918077,8.7664 10.7625256,9.95563636 9.90621795,10.7580351 C9.04878205,11.5610054 7.8720641,11.9624191 6.60805128,11.9624191 C6.3749359,11.9624191 6.07652564,11.9674207 5.79038462,11.9624191 C5.55980769,11.9674207 5.19553846,11.9624191 4.96214103,11.9624191 C3.69812821,11.9624191 2.5145,11.5610054 1.65621795,10.7580351 C0.800192308,9.95563636 0.370628205,8.7664 0.370628205,7.19104051 L0.370628205,0.120071451 L3.60674359,0.120071451 L3.60674359,6.47524083 C3.60674359,8.23551643 4.33175641,9.00919171 5.80025641,9.04020159 C7.32728205,9.00919171 7.95611538,8.23551643 7.95611538,6.47524083 L7.95611538,0.120071451 Z" id="path-25"></path>
        <polygon id="path-27" points="9.44562821 15.6352715 9.44562821 9.53303987 3.35303846 9.53303987 3.35303846 15.6352715 0.0495128205 15.6352715 0.0495128205 0.433995534 3.35303846 0.433995534 3.35303846 6.44948517 9.44562821 6.44948517 9.44562821 0.433995534 12.7491538 0.433995534 12.7491538 15.6352715"></polygon>
        <path d="M7.47987179,3.85154705 C7.47987179,5.89548453 5.84665385,7.55044083 3.82801282,7.55044083 C1.81148718,7.55044083 0.177141026,5.89548453 0.177141026,3.85154705 C0.177141026,1.8094673 1.81148718,0.156082935 3.82801282,0.156082935 C5.84665385,0.156082935 7.47987179,1.8094673 7.47987179,3.85154705 Z" id="path-29"></path>
    </defs>
    <g id="Educator-Login/Sign-Up" stroke="none" stroke-width="1" fill="none" fill-rule="evenodd">
        <g id="1.02-Create-Account" transform="translate(-81.000000, -43.000000)">
            <g id="logo" transform="translate(81.000000, 43.000000)">
                <g id="Group-12" transform="translate(0.000000, 19.577352)">
                    <mask id="mask-2" fill="white">
                        <use xlink:href="#path-1"></use>
                    </mask>
                    <g id="Clip-11"></g>
                    <polygon id="Fill-10" fill="#DD89E0" mask="url(#mask-2)" points="-6.95510256 14.6955764 14.4542821 14.6955764 14.4542821 -6.98910979 -6.95510256 -6.98910979"></polygon>
                </g>
                <g id="Group-15" transform="translate(9.461538, 19.577352)">
                    <mask id="mask-4" fill="white">
                        <use xlink:href="#path-3"></use>
                    </mask>
                    <g id="Clip-14"></g>
                    <polygon id="Fill-13" fill="#2B90E2" mask="url(#mask-4)" points="-6.70787179 14.6955764 14.6980154 14.6955764 14.6980154 -6.98910979 -6.70787179 -6.98910979"></polygon>
                </g>
                <g id="Group-18">
                    <mask id="mask-6" fill="white">
                        <use xlink:href="#path-5"></use>
                    </mask>
                    <g id="Clip-17"></g>
                    <polygon id="Fill-16" fill="#FFAC00" mask="url(#mask-6)" points="-6.95510256 14.5722182 14.4542821 14.5722182 14.4542821 -7.11371126 -6.95510256 -7.11371126"></polygon>
                </g>
                <g id="Group-21" transform="translate(9.461538, 0.000000)">
                    <mask id="mask-8" fill="white">
                        <use xlink:href="#path-7"></use>
                    </mask>
                    <g id="Clip-20"></g>
                    <polygon id="Fill-19" fill="#F27C2B" mask="url(#mask-8)" points="-6.70787179 14.5722182 14.7006385 14.5722182 14.7006385 -7.11371126 -6.70787179 -7.11371126"></polygon>
                </g>
                <g id="Group-24" transform="translate(19.333333, 0.000000)">
                    <mask id="mask-10" fill="white">
                        <use xlink:href="#path-9"></use>
                    </mask>
                    <g id="Clip-23"></g>
                    <polygon id="Fill-22" fill="#EE659B" mask="url(#mask-10)" points="-6.83592308 14.5722182 14.5715436 14.5722182 14.5715436 -7.11371126 -6.83592308 -7.11371126"></polygon>
                </g>
                <g id="Group-27" transform="translate(0.000000, 9.574163)">
                    <mask id="mask-12" fill="white">
                        <use xlink:href="#path-11"></use>
                    </mask>
                    <g id="Clip-26"></g>
                    <polygon id="Fill-25" fill="#56C8E7" mask="url(#mask-12)" points="-6.95510256 14.840051 14.4542821 14.840051 14.4542821 -6.84869359 -6.95510256 -6.84869359"></polygon>
                </g>
                <g id="Group-30" transform="translate(9.461538, 9.574163)">
                    <mask id="mask-14" fill="white">
                        <use xlink:href="#path-13"></use>
                    </mask>
                    <g id="Clip-29"></g>
                    <polygon id="Fill-28" fill="#C2A5EF" mask="url(#mask-14)" points="-6.71985897 14.8396223 14.6874244 14.8396223 14.6874244 -6.84877933 -6.71985897 -6.84877933"></polygon>
                </g>
                <g id="Group-33" transform="translate(19.333333, 9.574163)">
                    <mask id="mask-16" fill="white">
                        <use xlink:href="#path-15"></use>
                    </mask>
                    <g id="Clip-32"></g>
                    <polygon id="Fill-31" fill="#70C284" mask="url(#mask-16)" points="-6.87414103 14.840051 14.5312244 14.840051 14.5312244 -6.84869359 -6.87414103 -6.84869359"></polygon>
                </g>
                <g id="Group-36" transform="translate(33.846154, 5.716108)">
                    <mask id="mask-18" fill="white">
                        <use xlink:href="#path-17"></use>
                    </mask>
                    <use id="Clip-35" fill="#6F3996" xlink:href="#path-17"></use>
                    <polygon id="Fill-34" fill="#6F3996" mask="url(#mask-18)" points="-6.59323077 22.8042718 21.2206077 22.8042718 21.2206077 -6.6456763 -6.59323077 -6.6456763"></polygon>
                </g>
                <g id="Group-39" transform="translate(45.128205, 8.574163)">
                    <mask id="mask-20" fill="white">
                        <use xlink:href="#path-19"></use>
                    </mask>
                    <use id="Clip-38" fill="#6F3996" xlink:href="#path-19"></use>
                    <polygon id="Fill-37" fill="#6F3996" mask="url(#mask-20)" points="-6.73778205 20.1197014 19.5549679 20.1197014 19.5549679 -6.20725078 -6.73778205 -6.20725078"></polygon>
                </g>
                <g id="Group-42" transform="translate(57.820513, 9.574163)">
                    <mask id="mask-22" fill="white">
                        <use xlink:href="#path-21"></use>
                    </mask>
                    <use id="Clip-41" fill="#6F3996" xlink:href="#path-21"></use>
                    <polygon id="Fill-40" fill="#6F3996" mask="url(#mask-22)" points="-6.06889744 19.1096982 18.8544372 19.1096982 18.8544372 -7.02510699 -6.06889744 -7.02510699"></polygon>
                </g>
                <g id="Group-45" transform="translate(97.307692, 8.574163)">
                    <mask id="mask-24" fill="white">
                        <use xlink:href="#path-23"></use>
                    </mask>
                    <g id="Clip-44"></g>
                    <polygon id="Fill-43" fill="#C2A5EF" mask="url(#mask-24)" points="-6.25392308 20.1197014 19.4167769 20.1197014 19.4167769 -6.20725078 -6.25392308 -6.20725078"></polygon>
                </g>
                <g id="Group-48" transform="translate(85.615385, 9.574163)">
                    <mask id="mask-26" fill="white">
                        <use xlink:href="#path-25"></use>
                    </mask>
                    <g id="Clip-47"></g>
                    <polygon id="Fill-46" fill="#C2A5EF" mask="url(#mask-26)" points="-6.68065385 19.1096982 18.2430333 19.1096982 18.2430333 -7.02510699 -6.68065385 -7.02510699"></polygon>
                </g>
                <g id="Group-51" transform="translate(71.512821, 5.716108)">
                    <mask id="mask-28" fill="white">
                        <use xlink:href="#path-27"></use>
                    </mask>
                    <g id="Clip-50"></g>
                    <polygon id="Fill-49" fill="#C2A5EF" mask="url(#mask-28)" points="-7.00176923 22.780407 19.80045 22.780407 19.80045 -6.71124006 -7.00176923 -6.71124006"></polygon>
                </g>
                <g id="Group-9" transform="translate(19.333333, 19.577352)">
                    <mask id="mask-30" fill="white">
                        <use xlink:href="#path-29"></use>
                    </mask>
                    <g id="Clip-8"></g>
                    <polygon id="Fill-7" fill="#E25674" mask="url(#mask-30)" points="-6.87414103 14.6955764 14.5312244 14.6955764 14.5312244 -6.98910979 -6.87414103 -6.98910979"></polygon>
                </g>
            </g>
        </g>
    </g>
</svg>