<?xml version="1.0" encoding="UTF-8"?>
<svg width="350px" height="346px" viewBox="0 0 350 346" version="1.1" xmlns="http://www.w3.org/2000/svg" xmlns:xlink="http://www.w3.org/1999/xlink">
    <title>youhue</title>
    <g id="Student-Web-Experience" stroke="none" stroke-width="1" fill="none" fill-rule="evenodd">
        <g id="youhue">
            <g id="Logo" transform="translate(0.000000, 274.700000)">
                <polyline id="Fill-10" fill="#FFFFFF" points="39.5798438 70.4136224 24.0840836 70.4136224 24.0840836 42.9155477 0.047812113 0.777316716 16.8342787 0.777316716 31.8339868 26.6798182 46.8288395 0.777316716 63.618543 0.777316716 39.5798438 42.9155477 39.5798438 70.4136224"></polyline>
                <path d="M108.204156,43.6175674 C108.204156,51.3852339 105.519972,57.9257859 100.162124,63.2408468 C94.792947,68.5542845 88.056997,71.2105975 79.9437539,71.2105975 C71.834557,71.2105975 65.0937516,68.5542845 59.7326669,63.2408468 C54.3715822,57.9257859 51.6857799,51.3852339 51.6857799,43.6175674 C51.6857799,35.8425968 54.3715822,29.285813 59.7326669,23.9374773 C65.0937516,18.5931994 71.834557,15.9198431 79.9437539,15.9198431 C88.056997,15.9198431 94.792947,18.5931994 100.162124,23.9374773 C105.519972,29.285813 108.204156,35.8425968 108.204156,43.6175674 L108.204156,43.6175674 Z M66.6838696,43.6175674 C66.6838696,47.9993072 67.9276412,51.566217 70.4087108,54.3215433 C72.8946356,57.0784927 76.0724439,58.4589963 79.9437539,58.4589963 C83.8174917,58.4589963 86.9969183,57.0784927 89.4779879,54.3215433 C91.9639127,51.566217 93.2028291,47.9993072 93.2028291,43.6175674 C93.2028291,39.2325814 91.9639127,35.645382 89.4779879,32.8559692 C86.9969183,30.0649333 83.8174917,28.6706327 79.9437539,28.6706327 C76.0724439,28.6706327 72.8946356,30.0649333 70.4087108,32.8559692 C67.9276412,35.645382 66.6838696,39.2325814 66.6838696,43.6175674 L66.6838696,43.6175674 Z" id="Fill-11" fill="#FFFFFF"></path>
                <path d="M148.797884,16.7565858 L148.797884,45.9492471 C148.797884,54.0350543 145.884691,57.5889787 138.804822,57.7310059 C131.995233,57.5889787 128.634541,54.0350543 128.634541,45.9492471 L128.634541,16.7565858 L113.633215,16.7565858 L113.633215,49.2369721 C113.633215,56.4738629 115.621469,61.936632 119.593123,65.622033 C123.568013,69.3106804 129.060191,71.1545982 134.919756,71.1545982 C136.001683,71.1545982 137.688908,71.1773226 138.757888,71.1545982 C140.083391,71.1773226 141.468776,71.1545982 142.550703,71.1545982 C148.40784,71.1545982 153.864413,69.3106804 157.84254,65.622033 C161.813384,61.936632 163.802448,56.4738629 163.802448,49.2369721 L163.802448,16.7565858 L148.797884,16.7565858" id="Fill-12" fill="#FFFFFF"></path>
                <path d="M345.118783,62.6427097 C339.092519,68.3546349 332.020743,71.2105975 323.911546,71.2105975 C315.798303,71.2105975 309.091485,68.7036158 303.795947,63.6896525 C298.496363,58.6773123 295.85264,51.9484729 295.85264,43.5136848 C295.85264,35.0805198 298.545725,28.3744047 303.94808,23.3888468 C309.342343,18.4130279 315.716571,15.9198431 323.067529,15.9198431 C330.416059,15.9198431 336.659194,18.1452053 341.789651,22.595118 C346.920917,27.0442192 349.486954,33.1554435 349.486954,40.9247331 C349.486954,40.9247331 349.153556,48.8969186 341.521799,48.8969186 L310.54889,48.8969186 C311.014192,51.8194311 312.537145,54.2087331 315.120985,56.0688827 C317.703207,57.9257859 320.614782,58.8566723 323.860565,58.8566723 C329.090556,58.8566723 333.392371,57.0971591 336.772484,53.5724516 L345.118783,62.6427097 L345.118783,62.6427097 Z M330.812577,30.8635315 C328.759585,29.1364817 326.262331,28.2721452 323.312723,28.2721452 C320.368779,28.2721452 317.667602,29.1681334 315.218901,30.9625447 C312.766154,32.756956 311.344354,35.1803446 310.947836,38.2327104 L334.390949,38.2327104 C334.055123,35.0496796 332.865569,32.5905814 330.812577,30.8635315 L330.812577,30.8635315 Z" id="Fill-13" fill="#C2A5EF"></path>
                <path d="M274.833951,16.7565858 L274.833951,45.9492471 C274.833951,54.0350543 271.91833,57.5889787 264.838461,57.7310059 C258.029682,57.5889787 254.66818,54.0350543 254.66818,45.9492471 L254.66818,16.7565858 L239.664426,16.7565858 L239.664426,49.2369721 C239.664426,56.4738629 241.655917,61.936632 245.625143,65.622033 C249.60408,69.3106804 255.092212,71.1545982 260.952585,71.1545982 C262.034513,71.1545982 263.723356,71.1773226 264.792336,71.1545982 C266.119457,71.1773226 267.502415,71.1545982 268.583533,71.1545982 C274.443907,71.1545982 279.89967,69.3106804 283.87537,65.622033 C287.845405,61.936632 289.835278,56.4738629 289.835278,49.2369721 L289.835278,16.7565858 L274.833951,16.7565858" id="Fill-14" fill="#C2A5EF"></path>
                <polyline id="Fill-15" fill="#C2A5EF" points="216.354835 70.3040587 216.354835 42.2727735 188.10738 42.2727735 188.10738 70.3040587 172.790458 70.3040587 172.790458 0.476219208 188.10738 0.476219208 188.10738 28.1090169 216.354835 28.1090169 216.354835 0.476219208 231.670948 0.476219208 231.670948 70.3040587 216.354835 70.3040587"></polyline>
            </g>
            <g id="Imported-Layers" transform="translate(67.000000, 0.000000)">
                <path d="M215.416932,185.992831 C215.416932,202.219481 202.294903,215.35761 186.078162,215.35761 C169.876846,215.35761 156.746404,202.219481 156.746404,185.992831 C156.746404,169.78161 169.876846,156.656104 186.078162,156.656104 C202.294903,156.656104 215.416932,169.78161 215.416932,185.992831" id="Fill-1" fill="#E25674"></path>
                <path d="M59.4754054,185.992831 C59.4754054,202.219481 46.3281367,215.35761 30.1029825,215.35761 C13.907275,215.35761 0.772626391,202.219481 0.772626391,185.992831 C0.772626391,169.78161 13.907275,156.656104 30.1029825,156.656104 C46.3281367,156.656104 59.4754054,169.78161 59.4754054,185.992831" id="Fill-2" fill="#DD89E0"></path>
                <path d="M137.447571,185.992831 C137.447571,202.219481 124.317129,215.35761 108.110203,215.35761 C91.8962671,215.35761 78.7728362,202.219481 78.7728362,185.992831 C78.7728362,169.78161 91.8962671,156.656104 108.110203,156.656104 C124.317129,156.656104 137.447571,169.78161 137.447571,185.992831" id="Fill-3" fill="#6599FE"></path>
                <path d="M59.4754054,29.6172468 C59.4754054,45.8172468 46.3281367,58.960987 30.1029825,58.960987 C13.907275,58.960987 0.772626391,45.8172468 0.772626391,29.6172468 C0.772626391,13.3877922 13.907275,0.249662338 30.1029825,0.249662338 C46.3281367,0.249662338 59.4754054,13.3877922 59.4754054,29.6172468" id="Fill-4" fill="#FFAC00"></path>
                <path d="M137.468604,29.6172468 C137.468604,45.8172468 124.317129,58.960987 108.124226,58.960987 C91.8962671,58.960987 78.7728362,45.8172468 78.7728362,29.6172468 C78.7728362,13.3877922 91.8962671,0.249662338 108.124226,0.249662338 C124.317129,0.249662338 137.468604,13.3877922 137.468604,29.6172468" id="Fill-5" fill="#F77D2C"></path>
                <path d="M215.740846,29.6172468 C215.740846,45.8172468 202.617415,58.960987 186.393663,58.960987 C170.183933,58.960987 157.053491,45.8172468 157.053491,29.6172468 C157.053491,13.3877922 170.183933,0.249662338 186.393663,0.249662338 C202.617415,0.249662338 215.740846,13.3877922 215.740846,29.6172468" id="Fill-6" fill="#EF659F"></path>
                <path d="M59.4754054,107.737714 C59.4754054,123.934909 46.3281367,137.092675 30.1029825,137.092675 C13.907275,137.092675 0.772626391,123.934909 0.772626391,107.737714 C0.772626391,91.4998442 13.907275,78.3589091 30.1029825,78.3589091 C46.3281367,78.3589091 59.4754054,91.4998442 59.4754054,107.737714" id="Fill-7" fill="#7DCDF8"></path>
                <path d="M137.362035,107.737714 C137.362035,123.934909 124.218973,137.08987 108.01345,137.08987 C91.8219491,137.08987 78.6760827,123.934909 78.6760827,107.737714 C78.6760827,91.4998442 91.8219491,78.3589091 108.01345,78.3589091 C124.218973,78.3589091 137.362035,91.4998442 137.362035,107.737714" id="Fill-8" fill="#C2A5EF"></path>
                <path d="M215.416932,107.737714 C215.416932,124.452468 202.409886,137.092675 186.078162,137.092675 C169.876846,137.092675 156.746404,123.934909 156.746404,107.737714 C156.746404,91.4998442 169.876846,78.3589091 186.078162,78.3589091 C202.294903,78.3589091 215.416932,91.4998442 215.416932,107.737714" id="Fill-9" fill="#6BCD83"></path>
            </g>
        </g>
    </g>
</svg>