<?xml version="1.0" encoding="UTF-8"?>
<svg width="229px" height="57px" viewBox="0 0 229 57" version="1.1" xmlns="http://www.w3.org/2000/svg" xmlns:xlink="http://www.w3.org/1999/xlink">
    <title>Logo 3</title>
    <defs>
        <path d="M15.2485013,7.6993712 C15.2485013,11.957844 11.8333926,15.405888 7.61865886,15.405888 C3.41187129,15.405888 0,11.957844 0,7.6993712 C0,3.44476894 3.41187129,-1.13686838e-13 7.61865886,-1.13686838e-13 C11.8333926,-1.13686838e-13 15.2485013,3.44476894 15.2485013,7.6993712 Z" id="path-1"></path>
        <path d="M15.2411437,7.6993712 C15.2411437,11.957844 11.8304496,15.405888 7.62071899,15.405888 C3.40892825,15.405888 0,11.957844 0,7.6993712 C0,3.44476894 3.40892825,-7.08849053e-14 7.62071899,-7.08849053e-14 C11.8304496,-7.08849053e-14 15.2411437,3.44476894 15.2411437,7.6993712 Z" id="path-3"></path>
        <path d="M15.2485013,7.70740998 C15.2485013,11.9590349 11.8333926,15.4085676 7.61865886,15.4085676 C3.41187129,15.4085676 0,11.9590349 0,7.70740998 C0,3.448044 3.41187129,0 7.61865886,0 C11.8333926,0 15.2485013,3.448044 15.2485013,7.70740998 Z" id="path-5"></path>
        <path d="M15.2467355,7.70740998 C15.2467355,11.9590349 11.8304496,15.4085676 7.62425064,15.4085676 C3.40892825,15.4085676 0,11.9590349 0,7.70740998 C0,3.448044 3.40892825,0 7.62425064,0 C11.8304496,0 15.2467355,3.448044 15.2467355,7.70740998 Z" id="path-7"></path>
        <path d="M15.244381,7.70740998 C15.244381,11.9590349 11.8354528,15.4085676 7.6213076,15.4085676 C3.41069407,15.4085676 0,11.9590349 0,7.70740998 C0,3.448044 3.41069407,0 7.6213076,0 C11.8354528,0 15.244381,3.448044 15.244381,7.70740998 Z" id="path-9"></path>
        <path d="M15.2485013,7.71038731 C15.2485013,11.9614168 11.8333926,15.4145222 7.61865886,15.4145222 C3.41187129,15.4145222 0,11.9614168 0,7.71038731 C0,3.4489372 3.41187129,0 7.61865886,0 C11.8333926,0 15.2485013,3.4489372 15.2485013,7.71038731 Z" id="path-11"></path>
        <path d="M15.2440867,7.71038731 C15.2440867,11.9614168 11.8301553,15.413629 7.62042468,15.413629 C3.41452003,15.413629 0,11.9614168 0,7.71038731 C0,3.4489372 3.41452003,0 7.62042468,0 C11.8301553,0 15.2440867,3.4489372 15.2440867,7.71038731 Z" id="path-13"></path>
        <path d="M15.2399665,7.71038731 C15.2399665,12.097183 11.8613516,15.4145222 7.61895316,15.4145222 C3.41069407,15.4145222 0,11.9614168 0,7.71038731 C0,3.4489372 3.41069407,0 7.61895316,0 C11.8316268,0 15.2399665,3.4489372 15.2399665,7.71038731 Z" id="path-15"></path>
        <polygon id="path-17" points="17.793646 31.5846904 10.8189253 31.5846904 10.8189253 19.1126618 0 0 7.55567771 0 14.3073157 11.7485378 21.0565993 0 28.6137485 0 17.793646 19.1126618"></polygon>
        <path d="M25.4396752,12.5628371 C25.4396752,16.0859098 24.2315555,19.0525198 21.8197307,21.4632626 C19.403197,23.8734099 16.3712727,25.078037 12.719249,25.078037 C9.06928541,25.078037 6.03530101,23.8734099 3.62200466,21.4632626 C1.20900261,19.0525198 0,16.0859098 0,12.5628371 C0,9.03648937 1.20900261,6.06243605 3.62200466,3.63680662 C6.03530101,1.21266585 9.06928541,0 12.719249,0 C16.3712727,0 19.403197,1.21266585 21.8197307,3.63680662 C24.2315555,6.06243605 25.4396752,9.03648937 25.4396752,12.5628371 Z M6.75104939,12.5628371 C6.75104939,14.5502038 7.31081642,16.168084 8.42740744,17.4179665 C9.54635289,18.6684444 10.9766724,19.2945766 12.719249,19.2945766 C14.4630027,19.2945766 15.8939109,18.6684444 17.0107962,17.4179665 C18.1297417,16.168084 18.6874486,14.5502038 18.6874486,12.5628371 C18.6874486,10.5739817 18.1297417,8.94687179 17.0107962,7.68180496 C15.8939109,6.41584493 14.4630027,5.78346038 12.719249,5.78346038 C10.9766724,5.78346038 9.54635289,6.41584493 8.42740744,7.68180496 C7.31081642,8.94687179 6.75104939,10.5739817 6.75104939,12.5628371 Z" id="path-19"></path>
        <path d="M15.8279867,0 L22.5816848,0 L22.5816848,14.7321186 C22.5816848,18.0143254 21.6864108,20.4920581 19.8990999,22.1638279 C18.1085518,23.8367888 15.6525813,24.6731203 13.0162022,24.6731203 C12.5291283,24.6731203 11.9054972,24.683541 11.3089421,24.6731203 C10.8277544,24.683541 10.068449,24.6731203 9.58137512,24.6731203 C6.94381879,24.6731203 4.47166155,23.8367888 2.68258491,22.1638279 C0.894979781,20.4920581 0,18.0143254 0,14.7321186 L0,0 L6.75222661,0 L6.75222661,13.2407748 C6.75222661,16.9082479 8.26495139,18.5201735 11.3301321,18.5847815 C14.5168605,18.5201735 15.8279867,16.9082479 15.8279867,13.2407748 L15.8279867,0 Z" id="path-21"></path>
        <path d="M22.1749561,21.192028 C19.4626465,23.7828991 16.2794497,25.078037 12.6294861,25.078037 C8.97775673,25.078037 5.95878185,23.9409953 3.57521025,21.6669118 C1.18987282,19.3934239 -9.09494702e-13,16.3416623 -9.09494702e-13,12.5157953 C-9.09494702e-13,8.69082155 1.21194565,5.64918287 3.64378318,3.38790197 C6.07179476,1.13108705 8.94096867,0 12.2495391,0 C15.5572266,0 18.3672454,1.00961205 20.6766522,3.02794296 C22.9863534,5.04567841 24.141204,7.81757113 24.141204,11.341537 C24.141204,11.341537 23.9911088,14.9575023 20.5559874,14.9575023 L6.61478644,14.9575023 C6.82433119,16.2830089 7.50976622,17.3667565 8.67285733,18.2105313 C9.83506554,19.0525198 11.1456032,19.4747049 12.6065304,19.4747049 C14.9606715,19.4747049 16.8969004,18.6767809 18.4184543,17.0779556 L22.1749561,21.192028 Z M15.7355751,6.7781858 C14.8117535,5.9948507 13.6875106,5.60273655 12.3599033,5.60273655 C11.0349447,5.60273655 9.8188788,6.00914187 8.7167087,6.82314345 C7.61277277,7.6368473 6.97295493,8.73607694 6.79431214,10.1205346 L17.3463033,10.1205346 C17.1953251,8.6768281 16.659691,7.56152089 15.7355751,6.7781858 Z" id="path-23"></path>
        <path d="M15.8300468,0 L22.5825677,0 L22.5825677,14.7321186 C22.5825677,18.0143254 21.6867051,20.4920581 19.8996885,22.1638279 C18.1103176,23.8367888 15.6546414,24.6731203 13.0167908,24.6731203 C12.5303055,24.6731203 11.9075574,24.683541 11.3104137,24.6731203 C10.8292259,24.683541 10.0690376,24.6731203 9.58196373,24.6731203 C6.9441131,24.6731203 4.47401599,23.8367888 2.68287921,22.1638279 C0.896451303,20.4920581 0,18.0143254 0,14.7321186 L0,0 L6.75340382,0 L6.75340382,13.2407748 C6.75340382,16.9082479 8.26642291,18.5201735 11.331015,18.5847815 C14.5177434,18.5201735 15.8300468,16.9082479 15.8300468,13.2407748 L15.8300468,0 Z" id="path-25"></path>
        <polygon id="path-27" points="19.6086215 31.6713307 19.6086215 18.957543 6.89408134 18.957543 6.89408134 31.6713307 0 31.6713307 0 0 6.89408134 0 6.89408134 12.5330638 19.6086215 12.5330638 19.6086215 0 26.5027028 0 26.5027028 31.6713307"></polygon>
        <path d="M15.2399665,7.6993712 C15.2399665,11.957844 11.8316268,15.405888 7.61895316,15.405888 C3.41069407,15.405888 0,11.957844 0,7.6993712 C0,3.44476894 3.41069407,-1.13686838e-13 7.61895316,-1.13686838e-13 C11.8316268,-1.13686838e-13 15.2399665,3.44476894 15.2399665,7.6993712 Z" id="path-29"></path>
    </defs>
    <g id="Educator---Admin-Dashboard" stroke="none" stroke-width="1" fill="none" fill-rule="evenodd">
        <g id="Artboard" transform="translate(-1.000000, -1.000000)">
            <g id="Logo-3" transform="translate(1.000000, 1.000000)">
                <g id="Logo" transform="translate(-0.000000, -0.000000)">
                    <g id="Group-12" transform="translate(0.000000, 41.048426)">
                        <mask id="mask-2" fill="white">
                            <use xlink:href="#path-1"></use>
                        </mask>
                        <g id="Clip-11"></g>
                        <polygon id="Fill-10" fill="#DD89E0" mask="url(#mask-2)" points="-14.7152216 30.2925299 29.9637229 30.2925299 29.9637229 -14.886761 -14.7152216 -14.886761"></polygon>
                    </g>
                    <g id="Group-15" transform="translate(20.261094, 41.048426)">
                        <mask id="mask-4" fill="white">
                            <use xlink:href="#path-3"></use>
                        </mask>
                        <g id="Clip-14"></g>
                        <polygon id="Fill-13" fill="#6599FE" mask="url(#mask-4)" points="-14.7152216 30.2925299 29.9564242 30.2925299 29.9564242 -14.886761 -14.7152216 -14.886761"></polygon>
                    </g>
                    <g id="Group-18" transform="translate(0.000000, 0.000000)">
                        <mask id="mask-6" fill="white">
                            <use xlink:href="#path-5"></use>
                        </mask>
                        <g id="Clip-17"></g>
                        <polygon id="Fill-16" fill="#FFAC00" mask="url(#mask-6)" points="-14.7152216 30.2952095 29.9637229 30.2952095 29.9637229 -14.8866717 -14.7152216 -14.8866717"></polygon>
                    </g>
                    <g id="Group-21" transform="translate(20.261094, 0.000000)">
                        <mask id="mask-8" fill="white">
                            <use xlink:href="#path-7"></use>
                        </mask>
                        <g id="Clip-20"></g>
                        <polygon id="Fill-19" fill="#F77D2C" mask="url(#mask-8)" points="-14.7152216 30.2952095 29.9618982 30.2952095 29.9618982 -14.8866717 -14.7152216 -14.8866717"></polygon>
                    </g>
                    <g id="Group-24" transform="translate(40.595176, 0.000000)">
                        <mask id="mask-10" fill="white">
                            <use xlink:href="#path-9"></use>
                        </mask>
                        <g id="Clip-23"></g>
                        <polygon id="Fill-22" fill="#EF659F" mask="url(#mask-10)" points="-14.7152216 30.2952095 29.9597204 30.2952095 29.9597204 -14.8866717 -14.7152216 -14.8866717"></polygon>
                    </g>
                    <g id="Group-27" transform="translate(0.000000, 20.499501)">
                        <mask id="mask-12" fill="white">
                            <use xlink:href="#path-11"></use>
                        </mask>
                        <g id="Clip-26"></g>
                        <polygon id="Fill-25" fill="#7DCDF8" mask="url(#mask-12)" points="-14.7152216 30.3011641 29.9637229 30.3011641 29.9637229 -14.8865824 -14.7152216 -14.8865824"></polygon>
                    </g>
                    <g id="Group-30" transform="translate(20.236079, 20.499501)">
                        <mask id="mask-14" fill="white">
                            <use xlink:href="#path-13"></use>
                        </mask>
                        <g id="Clip-29"></g>
                        <polygon id="Fill-28" fill="#C2A5EF" mask="url(#mask-14)" points="-14.7152216 30.3002709 29.9593378 30.3002709 29.9593378 -14.886761 -14.7152216 -14.886761"></polygon>
                    </g>
                    <g id="Group-33" transform="translate(40.515420, 20.499501)">
                        <mask id="mask-16" fill="white">
                            <use xlink:href="#path-15"></use>
                        </mask>
                        <g id="Clip-32"></g>
                        <polygon id="Fill-31" fill="#6BCD83" mask="url(#mask-16)" points="-14.7152216 30.3011641 29.9553353 30.3011641 29.9553353 -14.8865824 -14.7152216 -14.8865824"></polygon>
                    </g>
                    <g id="Group-5" transform="translate(71.388249, 12.748027)">
                        <g id="Group-36" transform="translate(0.000000, 0.136362)">
                            <mask id="mask-18" fill="white">
                                <use xlink:href="#path-17"></use>
                            </mask>
                            <use id="Clip-35" fill="#6F3996" xlink:href="#path-17"></use>
                            <polygon id="Fill-34" fill="#652D90" mask="url(#mask-18)" points="-14.7152216 46.4713323 43.3290879 46.4713323 43.3290879 -14.8866121 -14.7152216 -14.8866121"></polygon>
                        </g>
                        <g id="Group-39" transform="translate(23.242693, 7.004463)">
                            <mask id="mask-20" fill="white">
                                <use xlink:href="#path-19"></use>
                            </mask>
                            <use id="Clip-38" fill="#6F3996" xlink:href="#path-19"></use>
                            <polygon id="Fill-37" fill="#652D90" mask="url(#mask-20)" points="-14.7152216 39.9646789 40.1547497 39.9646789 40.1547497 -14.8866121 -14.7152216 -14.8866121"></polygon>
                        </g>
                        <g id="Group-42" transform="translate(51.125977, 7.384072)">
                            <mask id="mask-22" fill="white">
                                <use xlink:href="#path-21"></use>
                            </mask>
                            <use id="Clip-41" fill="#6F3996" xlink:href="#path-21"></use>
                            <polygon id="Fill-40" fill="#652D90" mask="url(#mask-22)" points="-14.7152216 39.5642282 37.2969359 39.5642282 37.2969359 -14.8867312 -14.7152216 -14.8867312"></polygon>
                        </g>
                        <g id="Group-45" transform="translate(133.145091, 7.004463)">
                            <mask id="mask-24" fill="white">
                                <use xlink:href="#path-23"></use>
                            </mask>
                            <g id="Clip-44"></g>
                            <polygon id="Fill-43" fill="#C2A5EF" mask="url(#mask-24)" points="-14.7152216 39.9646789 38.8566023 39.9646789 38.8566023 -14.8866121 -14.7152216 -14.8866121"></polygon>
                        </g>
                        <g id="Group-48" transform="translate(107.854040, 7.384072)">
                            <mask id="mask-26" fill="white">
                                <use xlink:href="#path-25"></use>
                            </mask>
                            <g id="Clip-47"></g>
                            <polygon id="Fill-46" fill="#C2A5EF" mask="url(#mask-26)" points="-14.7152216 39.5642282 37.2976717 39.5642282 37.2976717 -14.8867312 -14.7152216 -14.8867312"></polygon>
                        </g>
                        <g id="Group-51" transform="translate(77.753465, 0.000000)">
                            <mask id="mask-28" fill="white">
                                <use xlink:href="#path-27"></use>
                            </mask>
                            <g id="Clip-50"></g>
                            <polygon id="Fill-49" fill="#C2A5EF" mask="url(#mask-28)" points="-14.7152216 46.5579726 41.2179539 46.5579726 41.2179539 -14.8868503 -14.7152216 -14.8868503"></polygon>
                        </g>
                    </g>
                    <g id="Group-9" transform="translate(40.515420, 41.048426)">
                        <mask id="mask-30" fill="white">
                            <use xlink:href="#path-29"></use>
                        </mask>
                        <g id="Clip-8"></g>
                        <polygon id="Fill-7" fill="#E25674" mask="url(#mask-30)" points="-14.7152216 30.2925299 29.9553353 30.2925299 29.9553353 -14.886761 -14.7152216 -14.886761"></polygon>
                    </g>
                </g>
            </g>
        </g>
    </g>
</svg>