<?xml version="1.0" encoding="UTF-8"?>
<svg width="503px" height="247px" viewBox="0 0 503 247" version="1.1" xmlns="http://www.w3.org/2000/svg" xmlns:xlink="http://www.w3.org/1999/xlink">
    <title>character-02</title>
    <g id="Educator-Login/Sign-Up" stroke="none" stroke-width="1" fill="none" fill-rule="evenodd">
        <g id="character-02" transform="translate(2.000000, 0.000000)">
            <g id="Shadow_Right" transform="translate(29.637363, 237.968660)" opacity="0.3" stroke="#C1A5EF" stroke-linecap="round" stroke-width="16.4583373">
                <line x1="0" y1="0.0963855422" x2="139.343796" y2="0.0963855422" id="Shape"></line>
            </g>
            <g id="Leg_Right" transform="translate(112.284643, 172.715276)" stroke="#000000" stroke-linecap="round" stroke-linejoin="round" stroke-width="2.74306024">
                <path d="M8.93939966,0.169804345 L0.216858752,55.6715672 C30.6493703,74.8837159 5.06003755,52.4938002 5.06003755,52.4938002" id="Shape"></path>
            </g>
            <g id="Leg_Left" transform="translate(64.575717, 165.680525)" stroke="#000000" stroke-linecap="round" stroke-width="2.74306024">
                <path d="M29.8783169,0.097031054 L0.0722862506,58.7037877 C19.710051,85.1204921 8.89120883,63.7494025 5.22870546,57.7577349" id="Shape"></path>
            </g>
            <g id="Hand_Left" transform="translate(0.000000, 168.834034)" fill="#000000" fill-rule="nonzero" stroke="#000000" stroke-linecap="round" stroke-width="2.74291269">
                <ellipse id="Oval" transform="translate(6.518617, 6.893263) rotate(-47.999585) translate(-6.518617, -6.893263) " cx="6.51861746" cy="6.89326316" rx="7.5414598" ry="1.67369565"></ellipse>
            </g>
            <g id="Arm_Left" transform="translate(10.842938, 142.150494)" stroke="#000000" stroke-linecap="round" stroke-width="2.74306024">
                <path d="M40.7935408,0.097031054 C40.7935408,0.097031054 13.7825785,14.772978 0.0722862506,28.9880274" id="Shape"></path>
            </g>
            <g id="Puzzle_Blue" transform="translate(231.797910, 0.000000)" fill="#00CAEB" fill-rule="nonzero">
                <path d="M84.1171003,35.4405925 C81.4184136,35.8287167 79.0811582,37.1143782 77.3462882,38.9337104 C76.6475211,39.6614433 75.7318953,40.1708564 74.7439832,40.3164029 C72.3344415,40.6560116 70.0935677,38.9579682 69.7562319,36.5321918 L68.0213619,24.0637014 C67.8045031,22.5597201 66.4310643,21.4923785 64.9130531,21.7106983 L54.6725009,23.1661641 L46.239105,24.3547946 C43.8295633,24.6944032 41.5886895,22.9963598 41.2513537,20.5705835 L41.2513537,20.5705835 C41.1067812,19.5517574 41.32364,18.5571891 41.8537391,17.6596518 C43.4199412,14.9670401 43.9500404,11.6194687 42.9139375,8.27189736 C41.4200216,3.37182913 36.7214153,-0.0242577635 31.6372824,0.097031054 C24.5532298,0.266835399 19.420906,6.54959615 20.3847227,13.3902855 C20.7702494,16.107155 22.0473064,18.460158 23.8544627,20.206717 C24.5773252,20.9101921 25.083329,21.8319872 25.2279015,22.8265555 C25.5652373,25.2523318 23.8785581,27.5083038 21.4690164,27.8479125 L13.0356205,29.0365429 L2.53001877,30.5162665 C1.03610293,30.7345864 -0.0240954169,32.1172789 0.192763335,33.645518 L7.15633881,83.5679953 C7.37319757,85.0719766 8.74663633,86.1393182 10.2646476,85.9209983 L29.2036453,83.2526444 C31.6131869,82.9130357 33.2998661,80.6570637 32.9625303,78.2312873 C32.8179578,77.2124612 32.3360495,76.314924 31.5890915,75.6114488 C29.7578398,73.8648899 28.4807828,71.5118868 28.1193515,68.7950173 C27.1555348,61.954328 32.311954,55.6715672 39.3719112,55.5017629 C44.4560441,55.3804741 49.1546504,58.776561 50.6485663,63.6766292 C51.6846692,67.0484583 51.15457,70.3717719 49.5883679,73.0643837 C49.0823642,73.9376632 48.8655054,74.9564892 48.9859825,75.9753153 L48.9859825,75.9753153 C49.3233184,78.4010917 51.5641921,80.0991351 53.9737338,79.7595264 L62.4071297,78.570896 L62.4071297,78.570896 L72.6476819,77.1154302 C74.1415977,76.8971103 75.2017961,75.5144178 74.9849373,73.9861787 L74.4307427,70.0079055 L73.5392123,63.6523714 L73.2500673,61.5176883 C72.9127315,59.0919119 74.5994107,56.8359399 77.0089524,56.4963312 L77.0089524,56.4963312 C78.0209599,56.3507846 79.008872,56.5691045 79.9004024,57.1027753 C82.5749937,58.6795299 85.9001612,59.2132007 89.2253287,58.1701169 C94.0926029,56.6661355 97.4659613,51.9358717 97.3454842,46.8174836 C97.1527209,39.6614433 90.9120079,34.4702819 84.1171003,35.4405925 Z" id="Shape"></path>
            </g>
            <g id="Hand_Right" transform="translate(230.111231, 25.470652)" fill="#000000" fill-rule="nonzero" stroke="#000000" stroke-linecap="round" stroke-width="2.74290545">
                <ellipse id="Oval" transform="translate(7.587611, 4.742400) rotate(-23.999141) translate(-7.587611, -4.742400) " cx="7.58761063" cy="4.74240004" rx="7.54143988" ry="1.67369123"></ellipse>
            </g>
            <g id="Arm_Right" transform="translate(193.486198, 29.109316)" stroke="#000000" stroke-linecap="round" stroke-width="2.74306024">
                <path d="M0.168667918,63.2399895 C0.168667918,63.2399895 1.30115251,18.7269934 44.21509,0.048515527" id="Shape"></path>
            </g>
            <g id="Body" transform="translate(34.215492, 12.856615)" fill="#00CAEB" fill-rule="nonzero">
                <ellipse id="Oval" cx="81.1292686" cy="81.5303431" rx="80.9124099" ry="81.4575699"></ellipse>
            </g>
            <g id="Smile" transform="translate(125.778076, 118.863041)" stroke="#000000" stroke-linecap="round" stroke-width="3.30812048">
                <path d="M0.192763335,2.64409622 C1.97582418,8.78131039 8.65025466,12.4684904 14.3608685,11.595211 C20.0714823,10.7219315 23.468936,5.74908995 23.3002681,0.169804345" id="Shape"></path>
            </g>
            <g id="Cheeks_1_" transform="translate(100.477888, 100.427141)" fill="#00ACEB" fill-rule="nonzero">
                <g id="Group">
                    <path d="M5.01184671,20.2309748 C2.93964086,20.2309748 1.01200751,18.8482822 0.409622087,16.7378568 C-0.337335836,14.1665339 1.13248459,11.4981799 3.68659878,10.7461892 L10.3851247,8.78131039 C12.9392389,8.02931972 15.5897347,9.50904329 16.3366926,12.0803662 C17.0836506,14.6516892 15.6138301,17.3200431 13.059716,18.0720338 L6.36119006,20.0369127 C5.90337714,20.1582015 5.44556422,20.2309748 5.01184671,20.2309748 Z" id="Shape"></path>
                    <path d="M72.5753956,10.1397451 C72.479014,10.1397451 72.3826323,10.1397451 72.2862506,10.1397451 L66.5756368,9.80013646 C63.925141,9.63033211 61.901126,7.35010234 62.0697939,4.68174836 C62.2384618,2.01339437 64.503431,-0.0242577635 67.1539269,0.145546581 L72.8645407,0.48515527 C75.5150365,0.630701851 77.5390515,2.93518938 77.3703836,5.60354337 C77.2017157,8.15060854 75.081319,10.1397451 72.5753956,10.1397451 Z" id="Shape"></path>
                </g>
            </g>
            <g id="Eyes_1_" transform="translate(368.177970, 93.877545)" fill="#000000" fill-rule="nonzero">
                <g id="Group">
                    <ellipse id="Oval" cx="5.15641921" cy="8.92685697" rx="5.1323238" ry="7.59267998"></ellipse>
                    <ellipse id="Oval" cx="46.8655858" cy="7.76248432" rx="5.1323238" ry="7.59267998"></ellipse>
                </g>
            </g>
            <g id="Eyes_Closed" transform="translate(108.188422, 91.209191)" stroke="#000000" stroke-linecap="round" stroke-width="3.30812048">
                <g id="Group">
                    <line x1="42.191075" y1="2.95944715" x2="57.7808097" y2="0.194062108" id="Shape"></line>
                    <line x1="0.144572501" y1="9.67884764" x2="15.6861164" y2="6.76791602" id="Shape"></line>
                </g>
            </g>
            <g id="Shadow_Right_1_" transform="translate(335.890111, 237.968660)" opacity="0.3" stroke="#C1A5EF" stroke-linecap="round" stroke-width="16.4583373">
                <line x1="0.0963816675" y1="0.0963855422" x2="139.440177" y2="0.0963855422" id="Shape"></line>
            </g>
            <g id="Puzzle_Purple" transform="translate(243.363711, 78.595154)" fill="#C1A5EF" fill-rule="nonzero">
                <path d="M66.4792552,60.0864802 L66.4792552,60.0864802 C65.4672477,60.1592535 64.5275264,60.5958932 63.7805685,61.2751106 C61.4915039,63.385536 58.3590997,64.5984242 54.8652642,64.2830733 C49.7811313,63.8221758 45.5162425,59.9166759 44.5765212,54.871061 C43.2753687,47.8605674 48.3113108,41.5050334 55.1544092,41.0198781 C57.8530959,40.825816 60.4072101,41.6020644 62.5035114,43.0332725 C63.346851,43.6154588 64.3347631,43.9065519 65.3467706,43.8337787 C67.7804077,43.6639743 69.6116594,41.5535489 69.4429915,39.1035148 L68.5755564,26.5137355 C68.4791748,24.9854964 67.1539269,23.8453815 65.6359156,23.9424126 L51.5400967,24.9369809 L46.4318683,25.3008473 C43.9982312,25.4706517 41.8778345,23.6270617 41.7091666,21.1770275 L41.7091666,21.1770275 C41.6368804,20.1582015 41.9260254,19.1636332 42.5043154,18.3146114 C44.2632808,15.7432885 45.0102387,12.4442327 44.21509,9.02388802 C43.05851,4.02678874 38.6249533,0.315350926 33.5167249,0.0727732905 C26.4567677,-0.266835399 20.8907264,5.6520589 21.3485394,12.5412637 C21.5413027,15.2581332 22.6496919,17.7081674 24.3363711,19.5760151 C25.0110427,20.3280058 25.4447602,21.2740586 25.5170465,22.2928847 C25.6857144,24.7429188 23.8544627,26.877602 21.4208256,27.0474063 L14.1199143,27.5568193 L2.74687752,28.3573255 C1.22886626,28.4543566 0.0963816675,29.7885336 0.192763335,31.2925149 L3.68659878,81.5788587 C3.78298045,83.1070978 5.10822838,84.2472127 6.62623964,84.1501816 L69.4911823,79.7352686 C71.0091936,79.6382376 72.1416781,78.3040606 72.0452965,76.7758215 L71.1778615,64.1860422 C71.0091936,61.7602659 68.9128923,59.9166759 66.4792552,60.0864802 Z" id="Shape"></path>
            </g>
            <g id="Hand_Left_1_" transform="translate(314.204236, 140.209873)" fill="#000000" fill-rule="nonzero" stroke="#000000" stroke-linecap="round" stroke-width="2.74301515">
                <ellipse id="Oval" transform="translate(2.448707, 7.927256) rotate(-5.179749) translate(-2.448707, -7.927256) " cx="2.44870652" cy="7.92725578" rx="1.66255644" ry="7.59255517"></ellipse>
            </g>
            <g id="Arm_Left_1_" transform="translate(316.854732, 146.274314)" stroke="#000000" stroke-linecap="round" stroke-width="2.74306024">
                <path d="M44.4078533,0.121288818 C43.2753687,34.7856329 7.30091132,38.4000396 0.168667918,6.30701851" id="Shape"></path>
            </g>
            <g id="Body_1_" transform="translate(337.335836, 12.856615)" fill="#C6A3F4" fill-rule="nonzero">
                <ellipse id="Oval" cx="81.1051732" cy="81.5303431" rx="80.9124099" ry="81.4575699"></ellipse>
            </g>
            <g id="Hand_Right_1_" transform="translate(466.728225, 195.760151)" fill="#000000" fill-rule="nonzero" stroke="#000000" stroke-linecap="round" stroke-width="2.74299989">
                <ellipse id="Oval" transform="translate(4.733039, 6.152472) rotate(-59.999272) translate(-4.733039, -6.152472) " cx="4.73303864" cy="6.1524723" rx="5.68639328" ry="1.98909285"></ellipse>
            </g>
            <g id="Arm_Right_1_" transform="translate(472.511125, 155.007109)" stroke="#000000" stroke-linecap="round" stroke-width="2.74306024">
                <line x1="1.80715627" y1="41.9416731" x2="0.0722862506" y2="0.145546581" id="Shape"></line>
            </g>
            <g id="Leg_Left_1_" transform="translate(398.779149, 175.626208)" stroke="#000000" stroke-linecap="round" stroke-width="2.74306024">
                <path d="M16.1439293,0.145546581 L16.1439293,56.2537536 C-13.5175289,70.2989986 5.9997588,56.5448467 12.023613,52.9789555" id="Shape"></path>
            </g>
            <g id="Leg_Right_1_" transform="translate(436.368000, 173.685587)" stroke="#000000" stroke-linecap="round" stroke-linejoin="round" stroke-width="2.74306024">
                <path d="M0.0240954169,0.145546581 L0.0240954169,56.3265269 C30.3602253,72.0698154 4.31307962,52.4210269 4.31307962,52.4210269" id="Shape"></path>
            </g>
            <g id="Smile_1_" transform="translate(386.249533, 126.140370)" stroke="#000000" stroke-linecap="round" stroke-width="3.28226506">
                <path d="M0.0722862506,2.95944715 C0.0722862506,2.95944715 8.93939966,3.63866453 14.8668722,0.194062108" id="Shape"></path>
            </g>
            <g id="Eyes" transform="translate(368.177970, 93.877545)" fill="#000000" fill-rule="nonzero">
                <g id="Group">
                    <ellipse id="Oval" cx="5.15641921" cy="8.92685697" rx="5.1323238" ry="7.59267998"></ellipse>
                    <ellipse id="Oval" cx="46.8655858" cy="7.76248432" rx="5.1323238" ry="7.59267998"></ellipse>
                </g>
            </g>
            <g id="Cheeks" transform="translate(352.034041, 114.011488)" fill="#BD92F4" fill-rule="nonzero">
                <g id="Group">
                    <path d="M5.01184671,11.7407575 C2.53001877,11.7407575 0.433717504,9.82439422 0.240954169,7.27732905 C0.0481908338,4.60897507 2.02401502,2.30448753 4.65041546,2.08616766 L10.3610293,1.64952792 C13.0115251,1.45546581 15.3005897,3.44460242 15.5174485,6.08869864 C15.7102118,8.75705263 13.7343876,11.0615402 11.1079872,11.27986 L5.39737338,11.7164998 C5.2768963,11.7164998 5.1323238,11.7407575 5.01184671,11.7407575 Z" id="Shape"></path>
                    <path d="M79.6594482,10.2125184 C79.5148757,10.2125184 79.3703032,10.2125184 79.2257307,10.1882607 L73.5874032,9.67884764 C70.9369073,9.43627 69.009274,7.08326694 69.2502281,4.41491296 C69.4911823,1.74655897 71.8284377,-0.194062108 74.4789336,0.048515527 L80.1172611,0.557928561 C82.767757,0.800506196 84.6953903,3.15350926 84.4544362,5.82186324 C84.1893866,8.32041288 82.0930853,10.2125184 79.6594482,10.2125184 Z" id="Shape"></path>
                </g>
            </g>
        </g>
    </g>
</svg>