<?xml version="1.0" encoding="UTF-8"?>
<svg width="111px" height="188px" viewBox="0 0 111 188" version="1.1" xmlns="http://www.w3.org/2000/svg" xmlns:xlink="http://www.w3.org/1999/xlink">
    <title>character-05</title>
    <g id="Educator---Admin-Dashboard" stroke="none" stroke-width="1" fill="none" fill-rule="evenodd">
        <g id="1.05o-Verified-Educator---Student-Limit-Reached" transform="translate(-665.000000, -839.000000)">
            <g id="Group-11" transform="translate(225.000000, 579.000000)">
                <g id="character-05" transform="translate(442.000000, 261.000000)">
                    <ellipse id="Oval" fill="#4FC47D" fill-rule="nonzero" cx="49.4725321" cy="68.429699" rx="41.9950844" ry="41.9757031"></ellipse>
                    <g id="Group" transform="translate(3.533196, 90.507196)" stroke="#000000" stroke-linecap="round" stroke-width="1.42488285">
                        <path d="M10.7024262,0 C-17.2331085,21.890273 18.3484537,8.88941295 18.3484537,8.88941295" id="Path"></path>
                        <ellipse id="Oval" fill="#000000" fill-rule="nonzero" transform="translate(18.939007, 16.750889) rotate(-16.260205) translate(-18.939007, -16.750889) " cx="18.9390072" cy="16.7508892" rx="1.02268013" ry="3.52369014"></ellipse>
                    </g>
                    <g id="Group" transform="translate(86.256630, 48.509558)" stroke="#000000" stroke-linecap="round" stroke-width="1.42488285">
                        <path d="M3.77243979,8.98623834 C28.1453229,4.69505585 25.7215209,46.0866189 0,39.2005067" id="Path"></path>
                        <ellipse id="Oval" fill="#000000" fill-rule="nonzero" transform="translate(2.463968, 4.706216) rotate(-16.530000) translate(-2.463968, -4.706216) " cx="2.46396845" cy="4.7062156" rx="1.022679" ry="4.60589158"></ellipse>
                    </g>
                    <path d="M44.0892193,110.364213 L39.1067517,137.852494 C23.7098028,145.086844 33.8395716,137.998529 36.9676622,136.16373" id="Path" stroke="#000000" stroke-width="1.42488285" stroke-linecap="round"></path>
                    <path d="M58.7931182,109.368179 L58.7931182,138.3243 C74.5272266,146.434859 61.0108783,136.31351 61.0108783,136.31351" id="Path" stroke="#000000" stroke-width="1.42488285" stroke-linecap="round" stroke-linejoin="round"></path>
                    <path d="M52.0124668,84.8942098 C52.0124668,84.8942098 64.4161889,83.0631555 66.09824,89.8706335" id="Path" stroke="#000000" stroke-width="1.70610972" stroke-linecap="round"></path>
                    <g id="Group" transform="translate(41.193394, 68.261197)" fill="#000000" fill-rule="nonzero">
                        <ellipse id="Oval" cx="2.65981356" cy="4.50461827" rx="2.65981356" ry="3.91298927"></ellipse>
                        <ellipse id="Oval" cx="24.3129436" cy="3.91298927" rx="2.65981356" ry="3.91298927"></ellipse>
                    </g>
                    <g id="Group" transform="translate(35.409236, 80.990582)" stroke="#3DB86D" stroke-linecap="round" stroke-width="4.98708996">
                        <line x1="0" y1="1.1102405" x2="2.96325707" y2="0.881826769" id="Path"></line>
                        <line x1="38.7246376" y1="0.320153668" x2="35.8025889" y2="0.0542950664" id="Path"></line>
                    </g>
                    <line x1="41.0922463" y1="69.4706664" x2="46.3294567" y2="69.4706664" id="Path" stroke="#000000" stroke-width="1.70610972" stroke-linecap="round"></line>
                    <line x1="63.0038653" y1="75.4131678" x2="68.2373295" y2="75.4131678" id="Path" stroke="#000000" stroke-width="1.70610972" stroke-linecap="round"></line>
                    <path d="M58.2723942,13.6553381 C36.0498392,27.9330684 27.2050226,19.7738304 36.0498392,9.34917769 C44.8946558,-1.07547507 57.5905828,-6.96929815 55.324122,14.7899178 C53.0576611,36.5491337 27.6583148,7.98992878 32.1949827,3.00227164 C36.7316506,-1.9853855 61.0595791,7.40578876 62.1272507,16.3738359 C63.2511156,25.8960672 27.2050226,16.1491667 27.886834,12.2960892 C28.5686453,8.44301175 48.3898756,7.2447758 46.5729607,12.670538 C44.7560458,18.0963001 32.2886381,14.4828698 44.9883112,5.18156328 C57.6879844,-4.11974328 72.6728495,4.58618979 58.2723942,13.6553381 Z" id="Path" stroke="#4FC47D" stroke-width="1.42488285" stroke-linecap="round" stroke-linejoin="round"></path>
                    <line x1="11.8867442" y1="181.812776" x2="84.2074494" y2="181.812776" id="Path" stroke="#C1A5EF" stroke-width="8.54929708" opacity="0.3" stroke-linecap="round"></line>
                    <g id="Group" transform="translate(0.000000, 104.534046)" stroke="#6D2995">
                        <g transform="translate(21.329624, 37.369984)" fill-rule="nonzero" id="Path">
                            <g>
                                <line x1="2.90839553" y1="0" x2="2.90839553" y2="35.7036868" stroke-width="2.84976569" fill="#FFFFFF"></line>
                                <path d="M3.87866554,34.4867284 L1.94187173,34.4867284 C1.22014878,34.4872376 0.601323021,35.0019008 0.46960873,35.7111758 L0.0238089935,38.1450925 C-0.0548077485,38.580748 0.0634101485,39.0288492 0.346728125,39.3691074 C0.630046102,39.7093655 1.04943948,39.9069225 1.49232577,39.9087461 L4.32446528,39.9087461 C4.7680076,39.9080276 5.18844264,39.7109424 5.47260519,39.3705384 C5.75676774,39.0301343 5.87545772,38.5813908 5.79672827,38.1450925 L5.34718232,35.7111758 C5.21572871,35.0032849 4.5989759,34.4890373 3.87866554,34.4867284 Z" stroke-width="2.13732427" fill="#6D2995"></path>
                            </g>
                            <g transform="translate(47.618155, 0.000000)">
                                <line x1="2.90839553" y1="0" x2="2.90839553" y2="35.7036868" stroke-width="2.84976569" fill="#FFFFFF"></line>
                                <path d="M3.87866554,34.4867284 L1.94187173,34.4867284 C1.22014878,34.4872376 0.601323021,35.0019008 0.46960873,35.7111758 L0.0238089935,38.1450925 C-0.0548077485,38.580748 0.0634101485,39.0288492 0.346728125,39.3691074 C0.630046102,39.7093655 1.04943948,39.9069225 1.49232577,39.9087461 L4.32446528,39.9087461 C4.7680076,39.9080276 5.18844264,39.7109424 5.47260519,39.3705384 C5.75676774,39.0301343 5.87545772,38.5813908 5.79672827,38.1450925 L5.34718232,35.7111758 C5.21572871,35.0032849 4.5989759,34.4890373 3.87866554,34.4867284 Z" stroke-width="2.13732427" fill="#6D2995"></path>
                            </g>
                        </g>
                        <path d="M75.8234174,41.1032375 L20.2745225,41.1032375 C14.3162903,41.1032375 8.9241865,37.5747577 6.54089362,32.1164679 L2.49123382,22.8338838 L93.6067061,22.8338838 L89.5570463,32.1164679 C87.1737534,37.5747577 81.7816496,41.1032375 75.8234174,41.1032375 Z" id="Path" stroke-width="2.84976569" fill="#C1A5EF" fill-rule="nonzero"></path>
                        <path d="M4.39805791,5.9762018 L91.6848971,5.9762018 C94.1159464,5.9762018 96.0867012,7.9460471 96.0867012,10.3759744 L96.0867012,24.2305776 C96.0867012,27.8061898 93.1867565,30.7047962 89.6094933,30.7047962 L6.47720794,30.7047962 C2.89994477,30.7047962 0,27.8061898 0,24.2305776 L0,10.3759744 C0,7.94750866 1.96847174,5.97826858 4.39805791,5.9762018 Z" id="Path" stroke-width="2.84976569" fill="#EDE4FB" fill-rule="nonzero"></path>
                        <path d="M0,20.3475442 L0,4.39977263 C0,1.97130686 1.96847174,0.00206677937 4.39805791,0 L91.6848971,0 C94.1159464,0 96.0867012,1.9698453 96.0867012,4.39977263 L96.0867012,20.3475442" id="Path" stroke-width="2.84976569" fill="#EDE4FB" fill-rule="nonzero"></path>
                        <path d="M96.0979399,20.3475442 C96.0979399,22.7774715 94.1271851,24.7473168 91.6961358,24.7473168 L4.40929656,24.7473168 C1.97971038,24.7452501 0.0112386488,22.77601 0.0112386488,20.3475442" id="Path" stroke-width="1.42488285"></path>
                    </g>
                    <g id="Group" transform="translate(27.579644, 108.142706)" fill="#FFFFFF" fill-rule="nonzero" stroke="#6D2995" stroke-linejoin="round" stroke-width="1.42488285">
                        <rect id="Rectangle" x="1.43105462" y="5.50916626" width="39.6349682" height="11.8587914"></rect>
                        <path d="M41.8564744,15.1437322 L41.8564744,15.1437322 C35.025036,14.7594675 28.1745544,15.4006543 21.5332511,17.0459318 L21.2485387,17.1133325 L20.9600801,17.0459318 C14.3187769,15.4006543 7.46829517,14.7594675 0.636856767,15.1437322 L0.636856767,15.1437322 L0.636856767,2.81313537 L0.636856767,2.81313537 C7.46810875,2.42759065 14.3185962,3.06751585 20.9600801,4.71159045 L21.2485387,4.78273571 L21.5332511,4.71159045 C28.174735,3.06751585 35.0252225,2.42759065 41.8564744,2.81313537 L41.8564744,2.81313537 L41.8564744,15.1437322 Z" id="Path"></path>
                        <path d="M42.4933312,12.8146611 L42.1411869,12.8146611 C35.358285,12.4327802 28.5654678,13.3647721 22.136392,15.5593703 L21.2485387,15.8626738 L20.3606855,15.5593703 C13.9302545,13.3650288 7.1362628,12.4330502 0.35214433,12.8146611 L0,12.8146611 L0,0.0834041004 L0.35214433,0.0834041004 C7.1362628,-0.298206711 13.9302545,0.633771859 20.3606855,2.82811332 L21.2485387,3.1314168 L22.136392,2.82811332 C28.5654678,0.633515166 35.358285,-0.298476787 42.1411869,0.0834041004 L42.4933312,0.0834041004 L42.4933312,12.8146611 Z" id="Path"></path>
                        <line x1="21.2485387" y1="3.1314168" x2="21.2485387" y2="17.1133325" id="Path"></line>
                    </g>
                    <g id="Group" transform="translate(20.124674, 111.195489)" stroke="#6D2995" stroke-linecap="round">
                        <line x1="0" y1="8.93809128" x2="3.25171573" y2="0" id="Path" stroke-width="1.42488285"></line>
                        <line x1="0" y1="8.93809128" x2="1.7944376" y2="4.01409043" id="Path" stroke-width="2.13732427"></line>
                    </g>
                </g>
            </g>
        </g>
    </g>
</svg>