<?xml version="1.0" encoding="UTF-8"?>
<svg width="505px" height="502px" viewBox="0 0 505 502" version="1.1" xmlns="http://www.w3.org/2000/svg" xmlns:xlink="http://www.w3.org/1999/xlink">
    <title>character-03</title>
    <g id="Educator-Admin-Dashboard" stroke="none" stroke-width="1" fill="none" fill-rule="evenodd">
        <g id="character-03" transform="translate(4.000000, 3.000000)">
            <g id="Group" transform="translate(179.068315, 0.000000)">
                <path d="M104.672783,251.302509 L61.6790864,310.858788 C34.602573,281.288887 62.3711379,302.445943 62.3711379,302.445943" id="Shape" stroke="#000000" stroke-width="5.22650257" stroke-linecap="round" stroke-linejoin="round"></path>
                <path d="M177.770719,255.967056 C204.933739,304.361739 214.881978,276.624339 219.726339,245.471824 C255.020963,258.882399 228.117463,253.884669 220.158871,251.552395" id="Shape" stroke="#000000" stroke-width="5.22650257" stroke-linecap="round" stroke-linejoin="round"></path>
                <path d="M252.771796,36.6500178 C248.359968,26.238081 248.7925,24.3222846 254.761444,33.318198 C258.135195,13.8270522 261.335933,19.9076233 256.751092,33.5680845 C270.505615,17.8252359 269.294524,23.0728521 258.913753,35.1506989 C273.014301,25.571717 276.647571,26.7378539 260.470868,37.3996773 C255.366989,40.7314971 255.10747,41.8143385 254.155899,45.3127493 C231.750733,100.03789 229.328553,133.022906 229.328553,133.022906" id="Shape" stroke="#000000" stroke-width="5.22650257" stroke-linecap="round" stroke-linejoin="round"></path>
                <path d="M71.4543133,29.2367188 C82.3541238,25.238535 83.4787074,23.6559206 72.6654033,25.571717 C85.208836,9.91216391 78.3748279,11.7446648 71.1082875,24.3222846 C73.7034805,3.91488827 70.5892489,8.32954951 68.4265881,23.9058071 C66.0909145,7.49659456 62.7171636,5.66409367 65.6583823,24.4055801 C66.609953,30.3195602 66.004408,31.1525152 63.9282536,34.2344485 C44.9833449,75.6323095 60.3814899,132.273246 60.3814899,132.273246" id="Shape" stroke="#000000" stroke-width="5.22650257" stroke-linecap="round" stroke-linejoin="round"></path>
                <ellipse id="Oval" fill="#FF7400" fill-rule="nonzero" cx="148.445038" cy="167.757127" rx="96.9737109" ry="93.37425"></ellipse>
                <path d="M134.950035,188.081228 C135.988112,188.247819 136.76667,189.080774 136.680163,190.163615 C136.161125,196.993846 133.306413,220.39988 119.897915,219.733516 C106.489418,219.067152 108.046534,194.161799 108.825092,186.915091 C108.911599,185.83225 109.949676,185.08259 111.074259,185.165886 L134.950035,188.081228 Z" id="Shape" fill="#000000" fill-rule="nonzero"></path>
                <ellipse id="Oval" fill="#000000" fill-rule="nonzero" transform="translate(142.374469, 165.988881) rotate(-88.289957) translate(-142.374469, -165.988881) " cx="142.374469" cy="165.988881" rx="11.7654087" ry="5.9142485"></ellipse>
                <ellipse id="Oval" fill="#000000" fill-rule="nonzero" transform="translate(102.383028, 163.800546) rotate(-88.289957) translate(-102.383028, -163.800546) " cx="102.383028" cy="163.800546" rx="11.7654087" ry="5.9142485"></ellipse>
                <g transform="translate(289.796549, 105.785279)" id="Shape" stroke="#FF7400" stroke-linecap="round" stroke-linejoin="round" stroke-width="5.22650257">
                    <g>
                        <path d="M14.5330807,14.3268252 C14.5330807,19.6577368 19.0314152,23.9891026 24.5678268,23.9891026"></path>
                        <path d="M14.5330807,0.16659099 L14.5330807,14.3268252 C14.5330807,19.6577368 10.0347462,23.9891026 4.49833449,23.9891026 L0.432532163,23.9891026"></path>
                    </g>
                    <g transform="translate(4.325322, 23.322739)">
                        <path d="M10.207759,24.4888756 L10.207759,10.3286414 C10.207759,4.9977297 14.7060935,0.666363961 20.2425052,0.666363961 L24.3083075,0.666363961"></path>
                        <path d="M10.207759,10.3286414 C10.207759,4.9977297 5.70942455,0.666363961 0.173012865,0.666363961"></path>
                    </g>
                </g>
                <g transform="translate(107.267976, 0.000000)" id="Shape" stroke="#FF7400" stroke-linecap="round" stroke-linejoin="round" stroke-width="5.22650257">
                    <g>
                        <path d="M16.1767029,16.0760306 C16.1767029,21.9900107 21.194076,26.8211494 27.3360327,26.8211494"></path>
                        <path d="M16.1767029,0.33318198 L16.1767029,16.0760306 C16.1767029,21.9900107 11.1593298,26.8211494 5.01737309,26.8211494 L0.519038595,26.8211494"></path>
                    </g>
                    <g transform="translate(4.325322, 26.654558)">
                        <path d="M11.8513813,26.6545584 L11.8513813,10.9117099 C11.8513813,4.9977297 16.8687543,0.16659099 23.0107111,0.16659099 L27.5090455,0.16659099"></path>
                        <path d="M11.8513813,10.9117099 C11.8513813,4.9977297 6.83400817,0.16659099 0.69205146,0.16659099"></path>
                    </g>
                </g>
                <g transform="translate(0.000000, 110.783008)" id="Shape" stroke="#FF7400" stroke-linecap="round" stroke-linejoin="round" stroke-width="5.22650257">
                    <g>
                        <path d="M11.591862,0.49977297 L11.591862,11.4947783 C11.591862,15.6595531 15.0521193,18.9913729 19.3774409,18.9913729 L22.4916725,18.9913729"></path>
                        <path d="M11.591862,0.49977297 L11.591862,11.4947783 C11.591862,15.6595531 8.13160466,18.9913729 3.80628303,18.9913729 L0.69205146,18.9913729"></path>
                    </g>
                    <g transform="translate(0.000000, 18.325009)">
                        <path d="M11.591862,19.1579639 L11.591862,8.16295852 C11.591862,3.99818376 15.0521193,0.666363961 19.3774409,0.666363961 L22.4916725,0.666363961"></path>
                        <path d="M11.591862,19.1579639 L11.591862,8.16295852 C11.591862,3.99818376 8.13160466,0.666363961 3.80628303,0.666363961 L0.69205146,0.666363961"></path>
                    </g>
                </g>
                <line x1="157.787733" y1="190.542552" x2="150.953725" y2="189.497251" id="Shape" stroke="#FF5E00" stroke-width="11.1219975" stroke-linecap="round"></line>
                <line x1="84.8628103" y1="185.08259" x2="91.7833249" y2="185.39618" id="Shape" stroke="#FF5E00" stroke-width="11.1219975" stroke-linecap="round"></line>
                <line x1="83.0461752" y1="380.327231" x2="217.131146" y2="380.327231" id="Shape" stroke="#C1A5EF" stroke-width="19.0662814" opacity="0.3" stroke-linecap="round"></line>
            </g>
            <g id="Group" transform="translate(0.000000, 249.138526)">
                <g transform="translate(72.260179, 0.000000)" fill-rule="nonzero" id="Shape" stroke="#6D2995">
                    <path d="M78.1802905,83.5796316 L39.3513266,83.5796316 L0.522362743,83.5796316 L0.522362743,41.7898158 L0.522362743,8.48297543 L0.522362743,8.48297543 C25.334593,-2.32165643 53.2809998,-2.32165643 78.09323,8.48297543 L78.09323,8.48297543 L78.09323,41.7898158 L78.09323,83.5796316 L78.1802905,83.5796316 Z" stroke-width="6.35542712" fill="#C1A5EF"></path>
                    <path d="M49.2762187,24.3773925 L29.513495,24.3773925 C27.1628626,24.3773925 25.2475326,22.412914 25.2475326,20.0019631 L25.2475326,20.0019631 C25.2475326,17.5910122 27.1628626,15.6265337 29.513495,15.6265337 L49.2762187,15.6265337 C51.6268511,15.6265337 53.5421811,17.5910122 53.5421811,20.0019631 L53.5421811,20.0019631 C53.5421811,22.412914 51.6268511,24.3773925 49.2762187,24.3773925 Z" stroke-width="5.22650257" fill="#FFFFFF"></path>
                </g>
                <line x1="27.5981649" y1="240.112852" x2="195.624847" y2="240.112852" id="Shape" stroke="#C1A5EF" stroke-width="19.0662814" opacity="0.3" stroke-linecap="round"></line>
                <g transform="translate(0.000000, 55.362576)" id="Shape" stroke="#6D2995">
                    <g transform="translate(48.753856, 89.294478)" fill-rule="nonzero">
                        <g>
                            <line x1="7.57425977" y1="0.267883435" x2="7.57425977" y2="85.4548156" stroke-width="6.35542712" fill="#FFFFFF"></line>
                            <path d="M9.83783165,82.5080978 L5.31068788,82.5080978 C3.6565392,82.5080978 2.17651143,83.7582205 1.91533006,85.4548156 L0.870604571,91.2589567 C0.435302286,93.4913186 2.08945097,95.4557972 4.2659624,95.4557972 L10.8825571,95.4557972 C13.0590686,95.4557972 14.7132173,93.4020242 14.277915,91.2589567 L13.2331895,85.4548156 C12.8849477,83.7582205 11.4919803,82.5080978 9.83783165,82.5080978 Z" stroke-width="5.22650257" fill="#6D2995"></path>
                        </g>
                        <g transform="translate(111.437385, 0.000000)">
                            <line x1="6.79071565" y1="0.267883435" x2="6.79071565" y2="85.4548156" stroke-width="6.35542712" fill="#FFFFFF"></line>
                            <path d="M9.05428754,82.5080978 L4.52714377,82.5080978 C2.87299508,82.5080978 1.39296731,83.7582205 1.13178594,85.4548156 L0.0870604571,91.2589567 C-0.348241828,93.4913186 1.30590686,95.4557972 3.48241828,95.4557972 L10.099013,95.4557972 C12.2755245,95.4557972 13.9296731,93.4020242 13.4943709,91.2589567 L12.4496454,85.4548156 C12.1014035,83.7582205 10.7084362,82.5080978 9.05428754,82.5080978 Z" stroke-width="5.22650257" fill="#6D2995"></path>
                        </g>
                    </g>
                    <path d="M176.210365,98.4918094 L47.0997073,98.4918094 C33.2570946,98.4918094 20.7203888,90.0981285 15.1485195,77.0611347 L5.74599017,54.9161041 L217.477022,54.9161041 L208.074492,77.0611347 C202.589684,90.0981285 190.052978,98.4918094 176.210365,98.4918094 Z" stroke-width="6.35542712" fill="#C1A5EF" fill-rule="nonzero"></path>
                    <path d="M208.248613,73.757239 L15.0614591,73.757239 C6.79071565,73.757239 0,66.8815641 0,58.3092942 L0,25.2703373 C0,19.4661962 4.61420423,14.8228834 10.1860735,14.8228834 L213.036939,14.8228834 C218.695868,14.8228834 223.22384,19.5554907 223.22384,25.2703373 L223.22384,58.3092942 C223.310072,66.7922697 216.519357,73.757239 208.248613,73.757239 Z" stroke-width="6.35542712" fill="#EDE4FB" fill-rule="nonzero"></path>
                    <path d="M0,49.0226685 L0,10.9832208 C0,5.17907973 4.61420423,0.535766869 10.1860735,0.535766869 L213.036939,0.535766869 C218.695868,0.535766869 223.223012,5.26837421 223.223012,10.9832208 L223.223012,49.0226685" stroke-width="6.35542712" fill="#EDE4FB" fill-rule="nonzero"></path>
                    <path d="M223.310072,49.0226685 C223.310072,54.8268096 218.695868,59.4701225 213.123999,59.4701225 L10.2731339,59.4701225 C4.61420423,59.4701225 0.0870604571,54.7375151 0.0870604571,49.0226685" stroke-width="5.22650257"></path>
                </g>
                <g transform="translate(61.812925, 42.861350)" fill="#FFFFFF" fill-rule="nonzero" stroke="#6D2995" stroke-linejoin="round" stroke-width="5.22650257">
                    <polygon id="Rectangle-path" points="4.00478103 13.5727607 96.1147446 13.5727607 96.1147446 41.8791103 4.00478103 41.8791103"></polygon>
                    <path d="M97.9430142,36.5214416 L97.9430142,36.5214416 C82.0980111,35.6284968 66.1659474,37.1465029 50.7562465,41.07546 L50.0597628,41.2540489 L49.3632792,41.07546 C33.9535783,37.1465029 18.0215146,35.6284968 2.17651143,36.5214416 L2.17651143,36.5214416 L2.17651143,7.14355825 L2.17651143,7.14355825 C18.0215146,6.25061347 33.9535783,7.7686196 49.3632792,11.6975766 L50.0597628,11.8761656 L50.7562465,11.6975766 C66.1659474,7.7686196 82.0980111,6.25061347 97.9430142,7.14355825 L97.9430142,7.14355825 L97.9430142,36.5214416 Z" id="Shape"></path>
                    <path d="M99.423042,30.9851839 L98.6394979,30.8958894 C82.8815552,30.0029447 67.1236124,32.2353066 52.1492138,37.4143864 L50.0597628,38.1287422 L47.9703119,37.4143864 C32.9959132,32.1460121 17.2379705,30.0029447 1.48002777,30.8958894 L0.696483657,30.9851839 L0.696483657,0.625061347 L1.48002777,0.535766869 C17.2379705,-0.357177913 32.9959132,1.87518404 47.9703119,7.05426378 L50.0597628,7.7686196 L52.1492138,7.05426378 C67.1236124,1.78588956 82.8815552,-0.357177913 98.6394979,0.535766869 L99.423042,0.625061347 L99.423042,30.9851839 Z" id="Shape"></path>
                    <line x1="50.0597628" y1="7.85791408" x2="50.0597628" y2="41.2540489" id="Shape"></line>
                </g>
            </g>
        </g>
    </g>
</svg>