<?xml version="1.0" encoding="UTF-8"?>
<svg width="175px" height="189px" viewBox="0 0 175 189" version="1.1" xmlns="http://www.w3.org/2000/svg" xmlns:xlink="http://www.w3.org/1999/xlink">
    <title>Group 2</title>
    <g id="Educator---Insights-Dashboard" stroke="none" stroke-width="1" fill="none" fill-rule="evenodd">
        <g id="1.02g-Flagged-logs---Empty-state" transform="translate(-633.000000, -547.000000)">
            <g id="Group-2" transform="translate(634.000000, 548.000000)">
                <ellipse id="Oval" fill="#FFAC00" fill-rule="nonzero" cx="89.7247241" cy="62.7223601" rx="44.4912707" ry="44.6298482"></ellipse>
                <path d="M87.7918741,107.308415 L87.7918741,138.04767 C71.4797311,145.739451 82.211613,138.202939 85.5256372,136.252125" id="Path" stroke="#000000" stroke-width="1.51089268" stroke-linecap="round"></path>
                <path d="M99.5993255,106.249401 L99.5993255,137.052357 C116.268669,145.675751 101.948909,134.914424 101.948909,134.914424" id="Path" stroke="#000000" stroke-width="1.51089268" stroke-linecap="round" stroke-linejoin="round"></path>
                <path d="M5.96127463,43.8910326 L10.2040194,43.8910326 C6.09224804,29.1086395 20.9914657,31.30231 18.9077978,40.0371795 C21.9519374,35.0008942 26.6550735,39.4997103 23.9284452,43.8910326 L35.0929363,43.8910326" id="Path" stroke="#FFAC00" stroke-width="1.51089268" stroke-linecap="round" stroke-linejoin="round"></path>
                <line x1="0" y1="43.9348264" x2="2.73456606" y2="43.9348264" id="Path" stroke="#FFAC00" stroke-width="1.51089268" stroke-linecap="round" stroke-linejoin="round"></line>
                <g id="Group" transform="translate(135.787676, 0.000000)" stroke="#FFAC00" stroke-linecap="round" stroke-linejoin="round" stroke-width="1.51089268">
                    <path d="M5.50485214,13.3468582 L10.8033219,13.3468582 C5.37784762,5.53962067 16.5423387,0.129097594 16.5423387,10.7869124 C16.5423387,-5.44465686 35.5533277,-2.35122314 26.6233224,13.3468582 L37.2123242,13.3468582" id="Path"></path>
                    <line x1="0" y1="13.3468582" x2="1.96857005" y2="13.3468582" id="Path"></line>
                </g>
                <g id="Group" transform="translate(75.099360, 66.382991)">
                    <path d="M11.5415357,16.3730351 C12.3035628,20.4697446 15.2802313,23.0058029 17.8322283,22.5121275 C20.3842254,22.0184521 21.932093,18.777712 21.8804974,15.067184" id="Path" stroke="#000000" stroke-width="1.80909518" stroke-linecap="round"></path>
                    <g transform="translate(0.827126, 0.000000)" fill="#000000" fill-rule="nonzero" id="Oval">
                        <ellipse transform="translate(3.031881, 6.137331) rotate(-3.000000) translate(-3.031881, -6.137331) " cx="3.031881" cy="6.13733074" rx="2.8179369" ry="4.16037058"></ellipse>
                        <ellipse transform="translate(25.904505, 4.302102) rotate(-3.000000) translate(-25.904505, -4.302102) " cx="25.9045051" cy="4.30210165" rx="2.8179369" ry="4.16037419"></ellipse>
                    </g>
                    <g transform="translate(0.000000, 14.354540)" id="Path" stroke="#FF8D01" stroke-linecap="round" stroke-width="5.28812437">
                        <line x1="0" y1="2.67938339" x2="3.11954851" y2="2.27329557"></line>
                        <line x1="32.660006" y1="0.406087825" x2="29.5364886" y2="0"></line>
                    </g>
                </g>
                <line x1="51.4169859" y1="182.800937" x2="128.032462" y2="182.800937" id="Path" stroke="#C1A5EF" stroke-width="9.06535606" opacity="0.3" stroke-linecap="round"></line>
                <g id="Group" transform="translate(38.819725, 100.635834)" stroke="#6D2995">
                    <g transform="translate(22.605394, 39.732907)" fill-rule="nonzero" id="Path">
                        <g>
                            <line x1="3.07333267" y1="0" x2="3.07333267" y2="37.9612491" stroke-width="3.02178535" fill="#FFFFFF"></line>
                            <path d="M4.1012755,36.6673269 L2.05729651,36.6673269 C1.29267438,36.6678832 0.63706564,37.2150888 0.497522256,37.9692116 L0.0252241992,40.5570262 C-0.0580655191,41.0202284 0.0671792455,41.4966633 0.367337632,41.8584361 C0.667496019,42.2202089 1.11181812,42.4302576 1.58102956,42.4321964 L4.58548023,42.4321964 C5.05469167,42.4302576 5.49901377,42.2202089 5.79917216,41.8584361 C6.09933054,41.4966633 6.22457531,41.0202284 6.14128559,40.5570262 L5.66898753,37.9692116 C5.52890408,37.2121317 4.86888775,36.6640366 4.1012755,36.6673269 Z" stroke-width="2.26633902" fill="#6D2995"></path>
                        </g>
                        <g transform="translate(50.440639, 0.000000)">
                            <line x1="3.08127045" y1="0" x2="3.08127045" y2="37.9612491" stroke-width="3.02178535" fill="#FFFFFF"></line>
                            <path d="M4.10921328,36.6673418 L2.05729651,36.6673418 C1.29267438,36.6678832 0.63706564,37.2150888 0.497522256,37.9692116 L0.0252241992,40.5570262 C-0.0580655191,41.0202284 0.0671792455,41.4966633 0.367337632,41.8584361 C0.667496019,42.2202089 1.11181812,42.4302576 1.58102956,42.4321964 L4.58548023,42.4321964 C5.05469167,42.4302576 5.49901377,42.2202089 5.79917216,41.8584361 C6.09933054,41.4966633 6.22457531,41.0202284 6.14128559,40.5570262 L5.66898753,37.9692116 C5.52944415,37.2150888 4.87383541,36.6678832 4.10921328,36.6673418 Z" stroke-width="2.26633902" fill="#6D2995"></path>
                        </g>
                    </g>
                    <path d="M80.3303586,43.7022181 L21.4875771,43.7022181 C15.1751878,43.7022181 9.46257761,39.9506288 6.93762188,34.1472085 L2.64725045,24.2816632 L99.178623,24.2816632 L94.8882516,34.1472085 C92.3621439,39.9532785 86.6456289,43.7052874 80.3303586,43.7022181 Z" id="Path" stroke-width="3.02178535" fill="#C1A5EF" fill-rule="nonzero"></path>
                    <path d="M4.65947831,6.35408008 L97.1346441,6.35408008 C99.7101948,6.35408008 101.798091,8.4484797 101.798091,11.0320526 L101.798091,25.7626893 C101.798091,29.5643893 98.7257739,32.6462761 94.9358783,32.6462761 L6.86221294,32.6462761 C3.07231738,32.6462761 0,29.5643893 0,25.7626893 L0,11.0320526 C0,8.45003368 2.08547762,6.35627754 4.65947831,6.35408008 Z" id="Path" stroke-width="3.02178535" fill="#EDE4FB" fill-rule="nonzero"></path>
                    <path d="M0,21.6341298 L0,4.67797249 C0,2.0959536 2.08547762,0.00219746288 4.65947831,0 L97.1346441,0 C99.7101948,0 101.798091,2.09439962 101.798091,4.67797249 L101.798091,21.6341298" id="Path" stroke-width="3.02178535" fill="#EDE4FB" fill-rule="nonzero"></path>
                    <path d="M101.809998,21.6341298 C101.809998,24.2177027 99.7221015,26.3121023 97.1465507,26.3121023 L4.67138498,26.3121023 C2.0973843,26.3099048 0.0119066737,24.2161487 0.0119066737,21.6341298" id="Path" stroke-width="1.51089268"></path>
                </g>
                <g id="Group" transform="translate(68.721352, 97.302435)" fill="#FFFFFF" fill-rule="nonzero" stroke="#6D2995" stroke-linejoin="round" stroke-width="1.51089268">
                    <rect id="Rectangle" x="1.51611645" y="5.85751364" width="41.9908693" height="12.6086288"></rect>
                    <path d="M44.3444218,16.1012781 L44.3444218,16.1012781 C37.1071237,15.6915355 29.8494703,16.371921 22.8131868,18.1197734 L22.5115511,18.1954173 L22.2059465,18.1197734 C15.1696931,16.3717432 7.91201286,15.6913552 0.67471151,16.1012781 L0.67471151,16.1012781 L0.67471151,2.99101135 L0.67471151,2.99101135 C7.91201286,2.58108844 15.1696931,3.26147644 22.2059465,5.00950672 L22.5115511,5.08515053 L22.8131868,5.00950672 C29.8494703,3.26165423 37.1071237,2.58126874 44.3444218,2.99101135 L44.3444218,2.99101135 L44.3444218,16.1012781 Z" id="Path"></path>
                    <path d="M45.0191333,13.6249386 L44.6460575,13.6249386 C37.4599801,13.2189112 30.2633982,14.2098335 23.4521783,16.5431972 L22.5115511,16.8656787 L21.5709239,16.5431972 C14.7582683,14.2101064 7.56044201,13.2191983 0.373075776,13.6249386 L0,13.6249386 L0,0.0886777842 L0.373075776,0.0886777842 C7.56044201,-0.317062473 14.7582683,0.673845577 21.5709239,3.00693637 L22.5115511,3.32941787 L23.4521783,3.00693637 C30.2633982,0.673572652 37.4599801,-0.317349627 44.6460575,0.0886777842 L45.0191333,0.0886777842 L45.0191333,13.6249386 Z" id="Path"></path>
                    <line x1="22.5115511" y1="3.32941787" x2="22.5115511" y2="18.1954173" id="Path"></line>
                </g>
                <g id="Group" transform="translate(52.654253, 92.796747)" stroke-linecap="round">
                    <g transform="translate(20.305875, 1.779620)" id="Path" stroke="#6D2995">
                        <line x1="0" y1="0" x2="3.44499759" y2="9.50325135" stroke-width="1.51089268"></line>
                        <line x1="0" y1="0" x2="1.9010989" y2="5.23534793" stroke-width="2.26633902"></line>
                    </g>
                    <g stroke="#000000" stroke-width="1.51089268">
                        <ellipse id="Oval" fill="#000000" fill-rule="nonzero" transform="translate(22.227935, 11.315838) rotate(-78.000000) translate(-22.227935, -11.315838) " cx="22.2279349" cy="11.3158384" rx="1.08673808" ry="3.12393803"></ellipse>
                        <path d="M19.1628342,10.661796 C4.78354123,13.1540605 -7.46445712,13.1540605 5.45428385,0" id="Path"></path>
                    </g>
                    <g transform="translate(51.228399, 3.017790)" stroke="#000000" stroke-width="1.51089268">
                        <ellipse id="Oval" fill="#000000" fill-rule="nonzero" transform="translate(3.281729, 9.809038) rotate(-12.000000) translate(-3.281729, -9.809038) " cx="3.28172892" cy="9.80903761" rx="3.12393803" ry="1.08673808"></ellipse>
                        <path d="M6.33345763,9.15688232 C25.8326203,13.9343861 28.0909194,2.93020234 15.5174719,0" id="Path"></path>
                    </g>
                </g>
            </g>
        </g>
    </g>
</svg>