<?xml version="1.0" encoding="UTF-8"?>
<svg width="153px" height="186px" viewBox="0 0 153 186" version="1.1" xmlns="http://www.w3.org/2000/svg" xmlns:xlink="http://www.w3.org/1999/xlink">
    <title>Group</title>
    <g id="Educator---Insights-Dashboard" stroke="none" stroke-width="1" fill="none" fill-rule="evenodd">
        <g id="1.02e-Class-journal---Empty-state" transform="translate(-644.000000, -546.000000)">
            <g id="Group" transform="translate(645.000000, 548.000000)">
                <g transform="translate(82.821342, 0.000000)" fill-rule="nonzero" stroke="#6D2995">
                    <path d="M34.6368701,36.2257115 L2.27313968e-13,36.2257115 L2.27313968e-13,3.54251239 L2.27313968e-13,3.54251239 C11.0635016,-1.18083746 23.5733685,-1.18083746 34.6368701,3.54251239 L34.6368701,3.54251239 L34.6368701,36.2257115 L34.6368701,36.2257115 Z" id="Path" stroke-width="2.95488" fill="#C1A5EF"></path>
                    <rect id="Rectangle" stroke-width="1.47744" fill="#FFFFFF" x="11.0040376" y="6.59683516" width="12.6287949" height="3.8130399" rx="1.90512"></rect>
                </g>
                <line x1="62.6207115" y1="100.736121" x2="137.658842" y2="100.736121" id="Path" stroke="#C1A5EF" stroke-width="8.86464" opacity="0.3" stroke-linecap="round"></line>
                <g transform="translate(50.287327, 20.436614)" id="Path" stroke="#6D2995">
                    <g transform="translate(22.131077, 38.830753)" fill-rule="nonzero">
                        <g>
                            <line x1="3.01767746" y1="0" x2="3.01767746" y2="37.0993219" stroke-width="2.95488" fill="#FFFFFF"></line>
                            <path d="M4.02440503,35.8347933 L2.01483687,35.8347933 C1.26599544,35.8353225 0.623917521,36.3701035 0.487254112,37.1071036 L0.024703608,39.6361607 C-0.0568671303,40.0888456 0.0657927624,40.5544629 0.359756312,40.9080215 C0.653719861,41.2615801 1.08887179,41.4668595 1.54839939,41.4687543 L4.49084251,41.4687543 C4.9503701,41.4668595 5.38552203,41.2615801 5.67948558,40.9080215 C5.97344913,40.5544629 6.09610902,40.0888456 6.01453829,39.6361607 L5.55198778,37.1071036 C5.41532437,36.3701035 4.77324646,35.8353225 4.02440503,35.8347933 Z" stroke-width="2.21616" fill="#6D2995"></path>
                        </g>
                        <g transform="translate(49.407390, 0.000000)">
                            <line x1="3.01767746" y1="0" x2="3.01767746" y2="37.0993219" stroke-width="2.95488" fill="#FFFFFF"></line>
                            <path d="M4.02440503,35.8347933 L2.01483687,35.8347933 C1.26599544,35.8353225 0.623917521,36.3701035 0.487254112,37.1071036 L0.024703608,39.6361607 C-0.0568671303,40.0888456 0.0657927624,40.5544629 0.359756312,40.9080215 C0.653719861,41.2615801 1.08887179,41.4668595 1.54839939,41.4687543 L4.49084251,41.4687543 C4.9503701,41.4668595 5.38552203,41.2615801 5.67948558,40.9080215 C5.97344913,40.5544629 6.09610902,40.0888456 6.01453829,39.6361607 L5.55198778,37.1071036 C5.41532437,36.3701035 4.77324646,35.8353225 4.02440503,35.8347933 Z" stroke-width="2.21616" fill="#6D2995"></path>
                        </g>
                    </g>
                    <path d="M78.6724555,42.7099377 L21.0363305,42.7099377 C14.8542198,42.7099377 9.25950965,39.0435318 6.78666538,33.3718808 L2.58484105,23.7264462 L97.1239449,23.7264462 L92.9143466,33.36799 C90.4438075,39.0385756 84.8526677,42.7060756 78.6724555,42.7099377 L78.6724555,42.7099377 Z" stroke-width="2.95488" fill="#C1A5EF" fill-rule="nonzero"></path>
                    <path d="M4.56331338,6.20980783 L95.1299247,6.20980783 C97.6523198,6.20980783 99.697125,8.25665317 99.697125,10.7815649 L99.697125,25.1777359 C99.697125,28.8931166 96.6882159,31.9050277 92.9765383,31.9050277 L6.72058673,31.9050277 C3.00890917,31.9050277 0,28.8931166 0,25.1777359 L0,10.7815649 C0,8.25817187 2.04243636,6.2119554 4.56331338,6.20980783 Z" stroke-width="2.95488" fill="#EDE4FB" fill-rule="nonzero"></path>
                    <path d="M0.0155479161,21.1429171 L0.0155479161,4.57175702 C0.0155479161,2.04836403 2.05798428,0.0021475685 4.57886129,0 L95.1454726,0 C97.6678677,0 99.7126729,2.04684534 99.7126729,4.57175702 L99.7126729,21.1429171" stroke-width="2.95488" fill="#EDE4FB" fill-rule="nonzero"></path>
                    <path d="M99.708786,21.1429171 C99.708786,23.6678288 97.6639807,25.7146742 95.1415856,25.7146742 L4.57497431,25.7146742 C2.0540973,25.7125266 0.0116609371,23.6663101 0.0116609371,21.1429171" stroke-width="1.47744"></path>
                </g>
                <g transform="translate(106.990541, 17.008769)" fill-rule="nonzero" id="Path" stroke="#6D2995" stroke-linejoin="round" stroke-width="1.47744">
                    <path d="M3.32340349,0 L22.0469815,0 L22.0469815,16.4349801 L3.64211459e-05,16.4349801 L3.64211459e-05,3.32668277 C3.64211459e-05,1.48940661 1.48795854,0 3.32340349,0 Z" fill="#6D2995"></path>
                    <g transform="translate(0.000000, 12.742557)" fill="#FFFFFF">
                        <path d="M3.32340349,0 L22.0469815,0 L22.0469815,6.66892896 L3.32340349,6.66892896 C1.48795854,6.66892896 0,5.17952236 0,3.3422462 L0,3.3422462 C-0.00409977644,2.45726159 0.344212858,1.60710304 0.967913953,0.979858876 C1.59161505,0.352614707 2.43929127,0 3.32340349,0 L3.32340349,0 Z"></path>
                        <line x1="0.369299429" y1="2.21778851" x2="22.0469815" y2="2.21778851"></line>
                        <line x1="0.369299429" y1="4.43557702" x2="22.0469815" y2="4.43557702"></line>
                    </g>
                </g>
                <g transform="translate(95.539537, 27.358448)" id="Path" stroke="#6D2995" stroke-linecap="round">
                    <line x1="3.37389779" y1="0" x2="0" y2="9.28747575" stroke-width="1.47744"></line>
                    <line x1="3.37389779" y1="0" x2="1.51592182" y2="5.11647701" stroke-width="2.21616"></line>
                </g>
                <g transform="translate(89.648820, 27.066634)" id="Path" stroke="#6D2995" stroke-linecap="round">
                    <line x1="0.734832" y1="0" x2="0.042768" y2="9.87110431" stroke-width="1.47744"></line>
                    <line x1="0.734832" y1="0" x2="0.353808" y2="5.43941814" stroke-width="2.21616"></line>
                </g>
                <g transform="translate(0.000000, 70.943829)">
                    <path d="M115.032737,61.8373909 C127.859767,68.339013 142.089998,57.2578522 142.089998,57.2578522 C155.243535,69.0393673 144.36388,62.2342583 141.343698,59.9814521" id="Path" stroke="#000000" stroke-width="1.47744" stroke-linecap="round"></path>
                    <path d="M107.608607,72.3193598 C121.349078,80.260599 142.727462,71.7902032 142.727462,71.7902032 C157.109285,84.7156303 141.806248,74.762818 141.806248,74.762818" id="Path" stroke="#000000" stroke-width="1.47744" stroke-linecap="round" stroke-linejoin="round"></path>
                    <g transform="translate(18.152907, 70.805816)" stroke="#000000" stroke-linecap="round" stroke-width="1.47744">
                        <ellipse id="Oval" fill="#000000" fill-rule="nonzero" transform="translate(2.734611, 24.068915) rotate(-72.000000) translate(-2.734611, -24.068915) " cx="2.73461141" cy="24.0689145" rx="4.28342588" ry="1.48496799"></ellipse>
                        <path d="M4.05488346,19.9951143 C4.05488346,19.9951143 7.52984271,6.19424441 28.1930232,0" id="Path"></path>
                    </g>
                    <ellipse id="Oval" fill="#0092E9" fill-rule="nonzero" cx="74.6858944" cy="55.1334442" rx="43.5730349" ry="43.6165074"></ellipse>
                    <path d="M78.4329422,77.0000608 C78.4329422,77.0000608 65.9712874,75.3114288 70.682306,85.9918314" id="Path" stroke="#000000" stroke-width="1.76904" stroke-linecap="round"></path>
                    <ellipse id="Oval" fill="#000000" fill-rule="nonzero" transform="translate(70.985457, 63.722723) rotate(-45.000000) translate(-70.985457, -63.722723) " cx="70.985457" cy="63.7227229" rx="2.76113256" ry="4.06391958"></ellipse>
                    <g transform="translate(58.679315, 65.557050)" id="Path" stroke="#007EE6" stroke-linecap="round" stroke-width="5.17104">
                        <line x1="23.7494418" y1="0" x2="21.4055935" y2="2.01157309"></line>
                        <line x1="0" y1="23.2050714" x2="1.95126347" y2="20.8627754"></line>
                    </g>
                    <line x1="71.238144" y1="58.5612893" x2="66.3522114" y2="61.3588155" id="Path" stroke="#000000" stroke-width="1.76904" stroke-linecap="round"></line>
                    <ellipse id="Oval" fill="#000000" fill-rule="nonzero" transform="translate(56.957350, 77.764424) rotate(-45.000000) translate(-56.957350, -77.764424) " cx="56.9573497" cy="77.7644242" rx="2.76113256" ry="4.06391958"></ellipse>
                    <line x1="51.6827525" y1="78.3190613" x2="54.4774905" y2="73.428254" id="Path" stroke="#000000" stroke-width="1.76904" stroke-linecap="round"></line>
                    <path d="M3.11883659,0 C11.5924509,17.5088567 -7.03395262,14.3300265 3.11883659,0" id="Path" stroke="#0092E9" stroke-width="1.47744" stroke-linecap="round" stroke-linejoin="round"></path>
                    <g transform="translate(8.540842, 14.890310)" id="Path" stroke="#0092E9" stroke-linecap="round" stroke-linejoin="round" stroke-width="1.47744">
                        <path d="M1.99435053,14.0926842 C7.43612117,25.2983525 -4.5046784,23.2595434 1.99435053,14.0926842"></path>
                        <path d="M18.7394562,0 C25.5727653,14.1160293 10.5768002,11.5480637 18.7394562,0"></path>
                    </g>
                    <g transform="translate(67.793923, 89.065608)" stroke="#000000" stroke-linecap="round" stroke-width="1.47744">
                        <ellipse id="Oval" fill="#000000" fill-rule="nonzero" transform="translate(4.444563, 20.922526) rotate(-8.000000) translate(-4.444563, -20.922526) " cx="4.44456332" cy="20.9225255" rx="4.27964661" ry="1.48627881"></ellipse>
                        <path d="M8.67998156,20.3219463 C8.67998156,20.3219463 22.859681,19.2947601 32.5382588,0" id="Path"></path>
                    </g>
                </g>
            </g>
        </g>
    </g>
</svg>