<?xml version="1.0" encoding="UTF-8"?>
<svg width="111px" height="189px" viewBox="0 0 111 189" version="1.1" xmlns="http://www.w3.org/2000/svg" xmlns:xlink="http://www.w3.org/1999/xlink">
    <title>Group 2</title>
    <g id="Educator---Insights-Dashboard" stroke="none" stroke-width="1" fill="none" fill-rule="evenodd">
        <g id="1.02f-Popular-topics---Empty-state" transform="translate(-665.000000, -547.000000)">
            <g id="Group-2" transform="translate(667.000000, 548.000000)">
                <ellipse id="Oval" fill="#4FC47D" fill-rule="nonzero" cx="49.9348922" cy="68.8056863" rx="42.3875619" ry="42.2063388"></ellipse>
                <g id="Group" transform="translate(3.566216, 91.004489)" stroke="#000000" stroke-linecap="round" stroke-width="1.43271187">
                    <path d="M10.8024489,0 C-17.3941656,22.0105492 18.5199345,8.93825588 18.5199345,8.93825588" id="Path"></path>
                    <ellipse id="Oval" fill="#000000" fill-rule="nonzero" transform="translate(19.116007, 16.842927) rotate(-16.260205) translate(-19.116007, -16.842927) " cx="19.1160073" cy="16.8429271" rx="1.03193741" ry="3.54411568"></ellipse>
                </g>
                <g id="Group" transform="translate(87.062766, 48.775804)" stroke="#000000" stroke-linecap="round" stroke-width="1.43271187">
                    <path d="M3.80769624,9.03590337 C28.4083633,4.72114295 25.961909,46.3401322 0,39.4161842" id="Path"></path>
                    <ellipse id="Oval" fill="#000000" fill-rule="nonzero" transform="translate(2.486996, 4.732364) rotate(-16.530000) translate(-2.486996, -4.732364) " cx="2.48699619" cy="4.73236402" rx="1.03193244" ry="4.63263539"></ellipse>
                </g>
                <path d="M44.5012681,110.970609 L39.4722354,138.609926 C23.9313897,145.884024 34.1558293,138.756763 37.3131544,136.911883" id="Path" stroke="#000000" stroke-width="1.43271187" stroke-linecap="round"></path>
                <path d="M59.3425866,109.969103 L59.3425866,139.084323 C75.2237427,147.239446 61.5810734,137.062485 61.5810734,137.062485" id="Path" stroke="#000000" stroke-width="1.43271187" stroke-linecap="round" stroke-linejoin="round"></path>
                <path d="M52.4985646,85.3606615 C52.4985646,85.3606615 65.0182093,83.5195464 66.7159805,90.3644282" id="Path" stroke="#000000" stroke-width="1.71548395" stroke-linecap="round"></path>
                <g id="Group" transform="translate(41.578379, 68.636259)" fill="#000000" fill-rule="nonzero">
                    <ellipse id="Oval" cx="2.68467163" cy="4.52936892" rx="2.68467163" ry="3.93448921"></ellipse>
                    <ellipse id="Oval" cx="24.5401674" cy="3.93448921" rx="2.68467163" ry="3.93448921"></ellipse>
                </g>
                <g id="Group" transform="translate(35.740164, 81.435585)" stroke="#3DB86D" stroke-linecap="round" stroke-width="5.01449155">
                    <line x1="0" y1="1.11634072" x2="2.99095107" y2="0.886671971" id="Path"></line>
                    <line x1="39.0865501" y1="0.321912754" x2="36.1371926" y2="0.054593391" id="Path"></line>
                </g>
                <line x1="41.476286" y1="69.8523734" x2="46.7624423" y2="69.8523734" id="Path" stroke="#000000" stroke-width="1.71548395" stroke-linecap="round"></line>
                <line x1="63.5926865" y1="75.8275259" x2="68.8750615" y2="75.8275259" id="Path" stroke="#000000" stroke-width="1.71548395" stroke-linecap="round"></line>
                <path d="M58.816996,13.7303675 C36.3867536,28.0865468 27.4592751,19.8824779 36.3867536,9.40054679 C45.3142321,-1.08138427 58.1288125,-7.00759099 55.8411698,14.8711811 C53.5535271,36.7499531 27.9168037,8.03382949 32.4958704,3.01876764 C37.074937,-1.99629421 61.6302293,7.4464799 62.7078792,16.4638021 C63.8422475,26.0383533 27.4592751,16.2378984 28.1474586,12.3636502 C28.835642,8.48940192 48.8421175,7.28458226 47.008222,12.7401563 C45.1743266,18.1957303 32.590401,14.562446 45.4087628,5.2100334 C58.2271245,-4.14237923 73.352035,4.61138863 58.816996,13.7303675 Z" id="Path" stroke="#4FC47D" stroke-width="1.43271187" stroke-linecap="round" stroke-linejoin="round"></path>
                <line x1="11.9978353" y1="182.811747" x2="84.9944349" y2="182.811747" id="Path" stroke="#C1A5EF" stroke-width="8.59627123" opacity="0.3" stroke-linecap="round"></line>
                <g id="Group" transform="translate(0.000000, 105.108409)" stroke="#6D2995">
                    <g transform="translate(21.528966, 37.575313)" fill-rule="nonzero" id="Path">
                        <g>
                            <line x1="2.93557679" y1="0" x2="2.93557679" y2="35.8998609" stroke-width="2.86542374" fill="#FFFFFF"></line>
                            <path d="M3.91491475,34.6762159 L1.96002006,34.6762159 C1.23155204,34.676728 0.606942863,35.194219 0.473997597,35.907391 L0.0240315074,38.354681 C-0.0553199705,38.7927302 0.0640027668,39.2432935 0.349968575,39.5854211 C0.635934383,39.9275488 1.05924732,40.1261913 1.50627274,40.1280249 L4.36488084,40.1280249 C4.81256842,40.1273025 5.23693276,39.9291344 5.52375103,39.58686 C5.81056931,39.2445856 5.93036854,38.7933764 5.8509033,38.354681 L5.39715599,35.907391 C5.26447384,35.1956107 4.64195698,34.6785375 3.91491475,34.6762159 Z" stroke-width="2.14906781" fill="#6D2995"></path>
                        </g>
                        <g transform="translate(48.063185, 0.000000)">
                            <line x1="2.93557679" y1="0" x2="2.93557679" y2="35.8998609" stroke-width="2.86542374" fill="#FFFFFF"></line>
                            <path d="M3.91491475,34.6762159 L1.96002006,34.6762159 C1.23155204,34.676728 0.606942863,35.194219 0.473997597,35.907391 L0.0240315074,38.354681 C-0.0553199705,38.7927302 0.0640027668,39.2432935 0.349968575,39.5854211 C0.635934383,39.9275488 1.05924732,40.1261913 1.50627274,40.1280249 L4.36488084,40.1280249 C4.81256842,40.1273025 5.23693276,39.9291344 5.52375103,39.58686 C5.81056931,39.2445856 5.93036854,38.7933764 5.8509033,38.354681 L5.39715599,35.907391 C5.26447384,35.1956107 4.64195698,34.6785375 3.91491475,34.6762159 Z" stroke-width="2.14906781" fill="#6D2995"></path>
                        </g>
                    </g>
                    <path d="M76.5320475,41.3290795 L20.464004,41.3290795 C14.4500874,41.3290795 9.00759012,37.7812124 6.60202346,32.292932 L2.51451638,22.9593447 L94.4815351,22.9593447 L90.394028,32.292932 C87.9884614,37.7812124 82.5459641,41.3290795 76.5320475,41.3290795 Z" id="Path" stroke-width="2.86542374" fill="#C1A5EF" fill-rule="nonzero"></path>
                    <path d="M4.43916125,6.00903807 L92.5417653,6.00903807 C94.9955347,6.00903807 96.9847078,7.9897067 96.9847078,10.4329853 L96.9847078,24.3637126 C96.9847078,27.9589711 94.0576607,30.8735039 90.4469652,30.8735039 L6.53774259,30.8735039 C2.92704706,30.8735039 0,27.9589711 0,24.3637126 L0,10.4329853 C0,7.99117629 1.98686867,6.0111162 4.43916125,6.00903807 Z" id="Path" stroke-width="2.86542374" fill="#EDE4FB" fill-rule="nonzero"></path>
                    <path d="M0,20.4593439 L0,4.4239472 C0,1.98213822 1.98686867,0.0020781353 4.43916125,0 L92.5417653,0 C94.9955347,0 96.9847078,1.98066863 96.9847078,4.4239472 L96.9847078,20.4593439" id="Path" stroke-width="2.86542374" fill="#EDE4FB" fill-rule="nonzero"></path>
                    <path d="M96.9960515,20.4593439 C96.9960515,22.9026225 95.0068784,24.8832911 92.553109,24.8832911 L4.45050493,24.8832911 C1.99821235,24.881213 0.0113436829,22.9011529 0.0113436829,20.4593439" id="Path" stroke-width="1.43271187"></path>
                </g>
                <g id="Group" transform="translate(27.837398, 108.736897)" fill="#FFFFFF" fill-rule="nonzero" stroke="#6D2995" stroke-linejoin="round" stroke-width="1.43271187">
                    <rect id="Rectangle" x="1.44442896" y="5.5394364" width="40.0053885" height="11.9239496"></rect>
                    <path d="M42.2476564,15.2269395 L42.2476564,15.2269395 C35.3523728,14.8405635 28.4378679,15.4852733 21.7344965,17.1395907 L21.4471232,17.2073618 L21.1559687,17.1395907 C14.4525972,15.4852733 7.53809232,14.8405635 0.642808699,15.2269395 L0.642808699,15.2269395 L0.642808699,2.82859216 L0.642808699,2.82859216 C7.53790415,2.44092906 14.4524149,3.08437033 21.1559687,4.73747831 L21.4471232,4.80901448 L21.7344965,4.73747831 C28.4380503,3.08437033 35.352561,2.44092906 42.2476564,2.82859216 L42.2476564,2.82859216 L42.2476564,15.2269395 Z" id="Path"></path>
                    <path d="M42.8904651,12.8850713 L42.5350297,12.8850713 C35.6887362,12.5010922 28.8324348,13.4382049 22.3432741,15.6448613 L21.4471232,15.9498313 L20.5509722,15.6448613 C14.0604438,13.438463 7.20295685,12.5013637 0.355435398,12.8850713 L0,12.8850713 L0,0.0838623647 L0.355435398,0.0838623647 C7.20295685,-0.299845209 14.0604438,0.637254122 20.5509722,2.84365241 L21.4471232,3.14862238 L22.3432741,2.84365241 C28.8324348,0.636996018 35.6887362,-0.30011677 42.5350297,0.0838623647 L42.8904651,0.0838623647 L42.8904651,12.8850713 Z" id="Path"></path>
                    <line x1="21.4471232" y1="3.14862238" x2="21.4471232" y2="17.2073618" id="Path"></line>
                </g>
                <g id="Group" transform="translate(20.312755, 111.806453)" stroke="#6D2995" stroke-linecap="round">
                    <line x1="0" y1="8.98720167" x2="3.28210559" y2="0" id="Path" stroke-width="1.43271187"></line>
                    <line x1="0" y1="8.98720167" x2="1.81120804" y2="4.03614587" id="Path" stroke-width="2.14906781"></line>
                </g>
            </g>
        </g>
    </g>
</svg>