<?xml version="1.0" encoding="UTF-8"?>
<svg width="75px" height="75px" viewBox="0 0 75 75" version="1.1" xmlns="http://www.w3.org/2000/svg" xmlns:xlink="http://www.w3.org/1999/xlink">
    <title>add-plus-round-icon</title>
    <g id="Educator---Admin-Dashboard" stroke="none" stroke-width="1" fill="none" fill-rule="evenodd">
        <g id="1.06a-Home-View---No-Classes" transform="translate(-683.000000, -320.000000)" fill="#652D90" fill-rule="nonzero">
            <g id="Group-10" transform="translate(595.000000, 302.000000)">
                <g id="add-plus-round-icon" transform="translate(88.000000, 18.000000)">
                    <path d="M37.5,0 C16.7893219,0 0,16.7893219 0,37.5 C0,58.2106781 16.7893219,75 37.5,75 C58.2106781,75 75,58.2106781 75,37.5 C75,27.5543816 71.0491185,18.0161099 64.0165043,10.9834957 C56.9838901,3.95088151 47.4456184,0 37.5,0 Z M56.6041667,41.3125 L41.3125,41.3125 L41.3125,56.6041667 C41.3125,58.7097523 39.6055856,60.4166667 37.5,60.4166667 C35.3944144,60.4166667 33.6875,58.7097523 33.6875,56.6041667 L33.6875,41.3125 L18.3958333,41.3125 C16.2902477,41.3125 14.5833333,39.6055856 14.5833333,37.5 C14.5833333,35.3944144 16.2902477,33.6875 18.3958333,33.6875 L33.6875,33.6875 L33.6875,18.3958333 C33.6875,16.2902477 35.3944144,14.5833333 37.5,14.5833333 C39.6055856,14.5833333 41.3125,16.2902477 41.3125,18.3958333 L41.3125,33.6875 L56.6041667,33.6875 C58.7097523,33.6875 60.4166667,35.3944144 60.4166667,37.5 C60.4166667,39.6055856 58.7097523,41.3125 56.6041667,41.3125 Z" id="Shape"></path>
                </g>
            </g>
        </g>
    </g>
</svg>