<?xml version="1.0" encoding="UTF-8"?>
<svg width="256px" height="256px" viewBox="0 0 256 256" version="1.1" xmlns="http://www.w3.org/2000/svg" xmlns:xlink="http://www.w3.org/1999/xlink">
    <title>calendar-icon</title>
    <g id="Educator-Insight-Dashboard---Updates" stroke="none" stroke-width="1" fill="none" fill-rule="evenodd">
        <g id="calendar-icon" fill="#652D90" fill-rule="nonzero">
            <path d="M229.290667,256 L26.7093333,256 C11.9893333,256 0,244.021333 0,229.290667 L0,48.0533333 C0,33.3226667 11.9893333,21.3333333 26.72,21.3333333 L229.28,21.3333333 C244.010667,21.3333333 256,33.3226667 256,48.0533333 L256,229.290667 C256,244.021333 244.021333,256 229.290667,256 Z M26.72,42.6666667 C23.7546667,42.6666667 21.3333333,45.088 21.3333333,48.0533333 L21.3333333,229.290667 C21.3333333,232.256 23.744,234.666667 26.7093333,234.666667 L229.290667,234.666667 C232.256,234.666667 234.666667,232.256 234.666667,229.290667 L234.666667,48.0533333 C234.666667,45.088 232.245333,42.6666667 229.28,42.6666667 L26.72,42.6666667 Z M245.333333,85.3333333 L10.6666667,85.3333333 C4.77866667,85.3333333 2.84217094e-14,80.5546667 2.84217094e-14,74.6666667 C2.84217094e-14,68.7786667 4.77866667,64 10.6666667,64 L245.333333,64 C251.232,64 256,68.7786667 256,74.6666667 C256,80.5546667 251.232,85.3333333 245.333333,85.3333333 Z M53.3333333,53.3333333 C47.4453333,53.3333333 42.6666667,48.5546667 42.6666667,42.6666667 L42.6666667,10.6666667 C42.6666667,4.77866667 47.4453333,0 53.3333333,0 C59.2213333,0 64,4.77866667 64,10.6666667 L64,42.6666667 C64,48.5546667 59.2213333,53.3333333 53.3333333,53.3333333 Z M202.666667,53.3333333 C196.768,53.3333333 192,48.5546667 192,42.6666667 L192,10.6666667 C192,4.77866667 196.768,0 202.666667,0 C208.565333,0 213.333333,4.77866667 213.333333,10.6666667 L213.333333,42.6666667 C213.333333,48.5546667 208.565333,53.3333333 202.666667,53.3333333 Z" id="Shape"></path>
            <circle id="Oval" cx="64" cy="202.666667" r="10.6666667"></circle>
            <circle id="Oval" cx="64" cy="160" r="10.6666667"></circle>
            <circle id="Oval" cx="96" cy="202.666667" r="10.6666667"></circle>
            <circle id="Oval" cx="96" cy="160" r="10.6666667"></circle>
            <circle id="Oval" cx="96" cy="117.333333" r="10.6666667"></circle>
            <circle id="Oval" cx="160" cy="202.666667" r="10.6666667"></circle>
            <circle id="Oval" cx="160" cy="160" r="10.6666667"></circle>
            <circle id="Oval" cx="160" cy="117.333333" r="10.6666667"></circle>
            <circle id="Oval" cx="192" cy="160" r="10.6666667"></circle>
            <circle id="Oval" cx="192" cy="117.333333" r="10.6666667"></circle>
            <circle id="Oval" cx="128" cy="202.666667" r="10.6666667"></circle>
            <circle id="Oval" cx="128" cy="160" r="10.6666667"></circle>
            <circle id="Oval" cx="128" cy="117.333333" r="10.6666667"></circle>
        </g>
    </g>
</svg>