<svg id="noun_Calendar_Tasks_Manager_878575" data-name="noun_Calendar Tasks Manager_878575" xmlns="http://www.w3.org/2000/svg" width="23" height="23" viewBox="0 0 23 23">
  <path id="Shape" d="M2.4,23A2.4,2.4,0,0,1,0,20.6V4.317a2.4,2.4,0,0,1,2.4-2.4H3.833V.959a.959.959,0,1,1,1.917,0v.959h11.5V.959a.958.958,0,1,1,1.916,0v.959H20.6a2.4,2.4,0,0,1,2.4,2.4V20.6A2.4,2.4,0,0,1,20.6,23Z" fill="#652d90"/>
  <circle id="Oval" cx="0.958" cy="0.958" r="0.958" transform="translate(4.792 17.25)" fill="#652d90"/>
  <circle id="Oval-2" data-name="Oval" cx="0.958" cy="0.958" r="0.958" transform="translate(4.792 13.417)" fill="#652d90"/>
  <circle id="Oval-3" data-name="Oval" cx="0.958" cy="0.958" r="0.958" transform="translate(7.667 17.25)" fill="#652d90"/>
  <circle id="Oval-4" data-name="Oval" cx="0.958" cy="0.958" r="0.958" transform="translate(7.667 13.417)" fill="#652d90"/>
  <circle id="Oval-5" data-name="Oval" cx="0.958" cy="0.958" r="0.958" transform="translate(7.667 9.583)" fill="#652d90"/>
  <circle id="Oval-6" data-name="Oval" cx="0.958" cy="0.958" r="0.958" transform="translate(13.417 17.25)" fill="#652d90"/>
  <circle id="Oval-7" data-name="Oval" cx="0.958" cy="0.958" r="0.958" transform="translate(13.417 13.417)" fill="#652d90"/>
  <circle id="Oval-8" data-name="Oval" cx="0.958" cy="0.958" r="0.958" transform="translate(13.417 9.583)" fill="#652d90"/>
  <circle id="Oval-9" data-name="Oval" cx="0.958" cy="0.958" r="0.958" transform="translate(16.292 13.417)" fill="#652d90"/>
  <circle id="Oval-10" data-name="Oval" cx="0.958" cy="0.958" r="0.958" transform="translate(16.292 9.583)" fill="#652d90"/>
  <circle id="Oval-11" data-name="Oval" cx="0.958" cy="0.958" r="0.958" transform="translate(10.542 17.25)" fill="#652d90"/>
  <circle id="Oval-12" data-name="Oval" cx="0.958" cy="0.958" r="0.958" transform="translate(10.542 13.417)" fill="#652d90"/>
  <circle id="Oval-13" data-name="Oval" cx="0.958" cy="0.958" r="0.958" transform="translate(10.542 9.583)" fill="#652d90"/>
</svg>
