<?xml version="1.0" encoding="UTF-8"?>
<svg width="24px" height="24px" viewBox="0 0 24 24" version="1.1" xmlns="http://www.w3.org/2000/svg" xmlns:xlink="http://www.w3.org/1999/xlink">
    <title>cancel-icon</title>
    <g id="Educator-Admin-Dashboard" stroke="none" stroke-width="1" fill="none" fill-rule="evenodd">
        <g id="2.02-Admin---Add-Students" transform="translate(-102.000000, -220.000000)" fill="#6F3996" fill-rule="nonzero">
            <g id="cancel-icon" transform="translate(102.000000, 220.000000)">
                <path d="M16.2984375,14.8992188 C16.0359375,14.6367188 15.7734375,14.3742188 15.5085937,14.109375 C14.8804688,13.48125 14.2523437,12.853125 13.6242188,12.225 C12.8648438,11.465625 12.1054688,10.70625 11.3460938,9.946875 C10.6875,9.28828125 10.0265625,8.62734375 9.36796875,7.96875 C9.04921875,7.65 8.7328125,7.32421875 8.409375,7.01015625 C8.4046875,7.00546875 8.4,7.00078125 8.3953125,6.99609375 C8.0484375,6.64921875 7.4109375,6.62109375 7.06875,6.99609375 C6.7265625,7.3734375 6.6984375,7.95 7.06875,8.32265625 C7.33125,8.58515625 7.59375,8.84765625 7.85859375,9.1125 C8.48671875,9.740625 9.11484375,10.36875 9.74296875,10.996875 C10.5023437,11.75625 11.2617188,12.515625 12.0210938,13.275 C12.6796875,13.9335938 13.340625,14.5945313 13.9992188,15.253125 C14.3179688,15.571875 14.634375,15.8976563 14.9578125,16.2117188 C14.9625,16.2164063 14.9671875,16.2210938 14.971875,16.2257813 C15.31875,16.5726563 15.95625,16.6007813 16.2984375,16.2257813 C16.640625,15.8507813 16.66875,15.271875 16.2984375,14.8992188 L16.2984375,14.8992188 Z" id="Path"></path>
                <path d="M14.9695313,6.99609375 C14.7070312,7.25859375 14.4445313,7.52109375 14.1796875,7.7859375 C13.5515625,8.4140625 12.9234375,9.0421875 12.2953125,9.6703125 C11.5359375,10.4296875 10.7765625,11.1890625 10.0171875,11.9484375 C9.35859375,12.6070313 8.69765625,13.2679688 8.0390625,13.9265625 C7.7203125,14.2453125 7.39453125,14.5617188 7.08046875,14.8851563 C7.07578125,14.8898438 7.07109375,14.8945312 7.06640625,14.8992188 C6.71953125,15.2460938 6.69140625,15.8835938 7.06640625,16.2257813 C7.44375,16.5679688 8.0203125,16.5960938 8.39296875,16.2257813 C8.65546875,15.9632813 8.91796875,15.7007813 9.1828125,15.4359375 C9.8109375,14.8078125 10.4390625,14.1796875 11.0671875,13.5515625 C11.8265625,12.7921875 12.5859375,12.0328125 13.3453125,11.2734375 C14.0039063,10.6148438 14.6648438,9.95390625 15.3234375,9.2953125 C15.6421875,8.9765625 15.9679688,8.66015625 16.2820313,8.33671875 C16.2867188,8.33203125 16.2914063,8.32734375 16.2960938,8.32265625 C16.6429688,7.97578125 16.6710938,7.33828125 16.2960938,6.99609375 C15.9210938,6.65390625 15.3421875,6.62578125 14.9695313,6.99609375 L14.9695313,6.99609375 Z" id="Path"></path>
                <path d="M18.5132813,4.73671875 C18.853125,5.0765625 19.1671875,5.4375 19.4578125,5.8171875 C19.4085938,5.7515625 19.3570313,5.68359375 19.3054687,5.61796875 C19.875,6.365625 20.34375,7.1859375 20.7,8.05546875 C20.6695313,7.98046875 20.6390625,7.90546875 20.60625,7.83046875 C20.9507813,8.68125 21.1851563,9.57421875 21.3046875,10.4859375 C21.2953125,10.40625 21.2859375,10.3265625 21.2742187,10.246875 C21.3890625,11.1609375 21.3914062,12.0890625 21.2742187,13.0054687 C21.2835938,12.9257812 21.2929688,12.8460937 21.3046875,12.7664062 C21.1851562,13.678125 20.9507813,14.56875 20.60625,15.421875 C20.6367188,15.346875 20.6671875,15.271875 20.7,15.196875 C20.34375,16.0664062 19.875,16.8867187 19.3054687,17.634375 C19.3546875,17.56875 19.40625,17.5007812 19.4578125,17.4351562 C18.8742188,18.196875 18.1921875,18.8789062 17.4304687,19.4625 C17.4960938,19.4132812 17.5640625,19.3617187 17.6296875,19.3101562 C16.8820313,19.8796875 16.0617188,20.3484375 15.1921875,20.7046875 C15.2671875,20.6742187 15.3421875,20.64375 15.4171875,20.6109375 C14.5664062,20.9554687 13.6734375,21.1898437 12.7617188,21.309375 C12.8414063,21.3 12.9210937,21.290625 13.0007813,21.2789062 C12.0867188,21.39375 11.1585938,21.3960937 10.2421875,21.2789062 C10.321875,21.2882812 10.4015625,21.2976562 10.48125,21.309375 C9.56953125,21.1898437 8.67890625,20.9554687 7.82578125,20.6109375 C7.90078125,20.6414062 7.97578125,20.671875 8.05078125,20.7046875 C7.18125,20.3484375 6.3609375,19.8796875 5.61328125,19.3101562 C5.67890625,19.359375 5.746875,19.4109375 5.8125,19.4625 C5.05078125,18.8789062 4.36875,18.196875 3.78515625,17.4351562 C3.834375,17.5007812 3.8859375,17.56875 3.9375,17.634375 C3.36796875,16.8867187 2.89921875,16.0664062 2.54296875,15.196875 C2.5734375,15.271875 2.60390625,15.346875 2.63671875,15.421875 C2.2921875,14.5710937 2.0578125,13.678125 1.93828125,12.7664062 C1.94765625,12.8460937 1.95703125,12.9257812 1.96875,13.0054687 C1.85390625,12.0914063 1.8515625,11.1632812 1.96875,10.246875 C1.959375,10.3265625 1.95,10.40625 1.93828125,10.4859375 C2.0578125,9.57421875 2.2921875,8.68359375 2.63671875,7.83046875 C2.60625,7.90546875 2.57578125,7.98046875 2.54296875,8.05546875 C2.89921875,7.1859375 3.36796875,6.365625 3.9375,5.61796875 C3.88828125,5.68359375 3.83671875,5.7515625 3.78515625,5.8171875 C4.36875,5.05546875 5.05078125,4.3734375 5.8125,3.78984375 C5.746875,3.8390625 5.67890625,3.890625 5.61328125,3.9421875 C6.3609375,3.37265625 7.18125,2.90390625 8.05078125,2.54765625 C7.97578125,2.578125 7.90078125,2.60859375 7.82578125,2.64140625 C8.6765625,2.296875 9.56953125,2.0625 10.48125,1.94296875 C10.4015625,1.95234375 10.321875,1.96171875 10.2421875,1.9734375 C11.15625,1.85859375 12.084375,1.85625 13.0007813,1.9734375 C12.9210938,1.9640625 12.8414063,1.9546875 12.7617188,1.94296875 C13.6734375,2.0625 14.5640625,2.296875 15.4171875,2.64140625 C15.3421875,2.6109375 15.2671875,2.58046875 15.1921875,2.54765625 C16.0617188,2.90390625 16.8820313,3.37265625 17.6296875,3.9421875 C17.5640625,3.89296875 17.4960938,3.84140625 17.4304687,3.78984375 C17.8148438,4.08046875 18.1734375,4.396875 18.5132813,4.73671875 C18.8601562,5.08359375 19.4976563,5.11171875 19.8398438,4.73671875 C20.1820313,4.36171875 20.2101563,3.7828125 19.8398438,3.41015625 C18.9890625,2.5640625 18.0023438,1.83515625 16.9335938,1.2890625 C15.9,0.76171875 14.784375,0.3796875 13.6382813,0.18515625 C13.040625,0.084375 12.4335938,0.02109375 11.8242188,0.009375 C11.2101563,-0.00234375 10.6007812,0.04921875 9.99375,0.13125 C8.840625,0.28359375 7.725,0.63046875 6.67265625,1.11796875 C5.5921875,1.61484375 4.59375,2.30390625 3.721875,3.1125 C2.8359375,3.93046875 2.071875,4.903125 1.48359375,5.95546875 C0.91875,6.96796875 0.496875,8.08125 0.2625,9.21796875 C0.028125,10.3429688 -0.0515625,11.5078125 0.0609375,12.6515625 C0.11953125,13.2632813 0.21328125,13.8703125 0.36328125,14.465625 C0.51328125,15.0632812 0.721875,15.6398437 0.95625,16.2046875 C1.415625,17.30625 2.06953125,18.3164062 2.84296875,19.2234375 C3.63046875,20.1421875 4.58203125,20.9390625 5.615625,21.5695313 C6.609375,22.171875 7.71328125,22.6265625 8.84296875,22.903125 C9.95625,23.175 11.1257812,23.2898438 12.2695312,23.2195312 C13.415625,23.1492187 14.559375,22.9289063 15.6351562,22.5210938 C16.2210938,22.3007813 16.7929688,22.0476562 17.334375,21.740625 C17.8851563,21.4289063 18.4007813,21.065625 18.8976563,20.671875 C19.8539063,19.9171875 20.671875,18.99375 21.3445313,17.9789063 C21.9914063,17.0039062 22.48125,15.9140625 22.8,14.7914063 C23.1140625,13.6875 23.2617188,12.5226563 23.2359375,11.3765625 C23.2101563,10.2257813 23.0179688,9.06796875 22.6523438,7.978125 C22.2773438,6.86015625 21.7476563,5.79375 21.0492188,4.84453125 C20.6765625,4.33828125 20.278125,3.85546875 19.8351563,3.41015625 C19.4882813,3.06328125 18.8507813,3.03515625 18.5085938,3.41015625 C18.1710938,3.78515625 18.1453125,4.3640625 18.5132813,4.73671875 Z" id="Path"></path>
            </g>
        </g>
    </g>
</svg>