<?xml version="1.0" encoding="UTF-8"?>
<svg width="15px" height="16px" viewBox="0 0 15 16" version="1.1" xmlns="http://www.w3.org/2000/svg" xmlns:xlink="http://www.w3.org/1999/xlink">
    <title>edit-icon</title>
    <g id="Educator-Admin-Dashboard" stroke="none" stroke-width="1" fill="none" fill-rule="evenodd">
        <g id="edit-icon" fill="#6F3996" fill-rule="nonzero">
            <path d="M11.8570392,12.59712 C11.8570392,13.2899616 11.2901688,13.8410856 10.6130736,13.8410856 L2.5036776,13.8410856 C1.8265824,13.856832 1.259712,13.2899616 1.259712,12.59712 L1.259712,4.5034704 C1.259712,3.8106288 1.8265824,3.2595048 2.5036776,3.2595048 L6.5505024,3.2595048 L7.7314824,2.0785248 L2.5036776,2.0785248 C1.1652336,2.0785248 0.078732,3.1650264 0.078732,4.5034704 L0.078732,12.59712 C0.078732,13.935564 1.1652336,15.0220656 2.5036776,15.0220656 L10.6130736,15.0220656 C11.9515176,15.0220656 13.0380192,13.935564 13.0380192,12.59712 L13.0380192,7.3693152 L11.8570392,8.5502952 L11.8570392,12.59712 Z" id="Path"></path>
            <path d="M14.6126592,2.0627784 L13.069512,0.5196312 C12.5026416,-0.0472392 11.573604,-0.0472392 10.9909872,0.5196312 L4.2830208,7.2118512 C4.2042888,7.2905832 4.1413032,7.400808 4.1255568,7.5110328 L3.3697296,11.0539728 C3.3224904,11.2429296 3.385476,11.4476328 3.5271936,11.5893504 C3.6689112,11.731068 3.8736144,11.7940536 4.0625712,11.7468144 L7.6055112,10.9909872 C7.715736,10.9594944 7.8259608,10.9122552 7.9046928,10.8335232 L14.5969128,4.1413032 C15.1795296,3.5586864 15.1795296,2.6296488 14.6126592,2.0627784 Z M4.7081736,10.4083704 L5.196312,8.0936496 L7.007148,9.9044856 L4.7081736,10.4083704 Z M7.9361856,9.132912 L5.983632,7.1803584 L10.3453848,2.8186056 L12.2979384,4.7711592 L7.9361856,9.132912 Z M13.7781,3.2909976 L13.148244,3.9366 L11.179944,1.9840464 L11.8255464,1.338444 C11.9357712,1.2282192 12.124728,1.2282192 12.2349528,1.338444 L13.7781,2.8815912 C13.8883248,3.0075624 13.8883248,3.1807728 13.7781,3.2909976 Z" id="Shape"></path>
        </g>
    </g>
</svg>