<?xml version="1.0" encoding="UTF-8"?>
<svg width="61px" height="56px" viewBox="0 0 61 56" version="1.1" xmlns="http://www.w3.org/2000/svg" xmlns:xlink="http://www.w3.org/1999/xlink">
    <title>history-icon</title>
    <g id="Student-Web-Experience" stroke="none" stroke-width="1" fill="none" fill-rule="evenodd">
        <g id="1.04-Student-Home" transform="translate(-659.000000, -75.000000)" fill="#FFFFFF" fill-rule="nonzero">
            <g id="history-icon" transform="translate(659.000000, 75.000000)">
                <path d="M32.8918871,0 C21.2003147,0 11.1508472,7.125489 7.02255258,17.263125 L5.37724008,14.3521875 C4.94646304,13.5399592 4.09420838,13.0403616 3.17505258,13.06125 C2.31665007,13.0803992 1.53205904,13.5510855 1.11111273,14.2994342 C0.690166423,15.0477829 0.695346448,15.9627156 1.12473927,16.70625 L5.57974008,24.6797199 C6.2235,25.8217841 7.65707896,26.2473886 8.81974008,25.6416192 L16.7425526,21.5915625 C17.553329,21.2198896 18.0953679,20.4339572 18.1546908,19.5440247 C18.2140138,18.6540921 17.7810877,17.8031685 17.0268172,17.3271695 C16.2725466,16.8511705 15.3181402,16.8265875 14.5403651,17.263125 L11.6294276,18.7565625 C15.1102568,10.6129197 23.3118956,4.86 32.8918871,4.86 C45.6498731,4.86 55.9009901,15.0030144 55.9009901,27.5400162 C55.9009901,40.0769532 45.6498731,50.2200162 32.8918871,50.2200162 C21.9780119,50.2200162 12.8869283,42.7303512 10.4903651,32.7543912 C10.2868839,31.908844 9.64776554,31.2360821 8.81375964,30.9895284 C7.97975373,30.7429747 7.07756564,30.9600865 6.44704089,31.5590799 C5.81651613,32.1580733 5.55344643,33.047947 5.75692758,33.8934942 C8.67649158,46.0464912 19.7549831,55.0800162 32.8918871,55.0800162 C48.2416301,55.0800162 60.7609901,42.7386942 60.7609901,27.5400162 C60.7609901,12.3412896 48.2416301,0 32.8918871,0 L32.8918871,0 Z M33.1956371,12.0992396 C32.5467216,12.1060697 31.9274375,12.3720206 31.4757518,12.8379779 C31.0240661,13.3039352 30.777502,13.9311902 30.7909901,14.58 L30.7909901,27.5400162 C30.7904644,28.2784167 31.1258484,28.9769663 31.7022401,29.4384942 L39.8022401,35.9184942 C40.4804778,36.4611907 41.3967318,36.6007993 42.2058195,36.2847248 C43.0149072,35.9686504 43.5938926,35.2449186 43.7246533,34.3861826 C43.8554139,33.5274466 43.5180815,32.6641861 42.8397401,32.1216192 L35.6509901,26.3756412 L35.6509901,14.58 C35.6646626,13.9223963 35.4111984,13.2873339 34.9484892,12.8198622 C34.48578,12.3523906 33.8533463,12.0924369 33.1956371,12.0992396 L33.1956371,12.0992396 Z" id="Shape"></path>
            </g>
        </g>
    </g>
</svg>