<?xml version="1.0" encoding="UTF-8"?>
<svg width="15px" height="15px" viewBox="0 0 15 15" version="1.1" xmlns="http://www.w3.org/2000/svg" xmlns:xlink="http://www.w3.org/1999/xlink">
    <title>Info-icon</title>
    <g id="Educator-Admin-Dashboard" stroke="none" stroke-width="1" fill="none" fill-rule="evenodd">
        <g id="2.02-Admin---Add-Students" transform="translate(-212.000000, -146.000000)" fill="#6F3996" fill-rule="nonzero">
            <g id="Group" transform="translate(212.000000, 146.000000)">
                <path d="M7.2291498,0 C3.26477733,0 0,3.26477733 0,7.2291498 C0,11.1935223 3.26477733,14.4582996 7.2291498,14.4582996 C11.1935223,14.4582996 14.4582996,11.1935223 14.4582996,7.2291498 C14.4582996,3.26477733 11.1352227,0 7.2291498,0 Z M7.2291498,13.5255061 C3.78947368,13.5255061 0.932793522,10.6688259 0.932793522,7.2291498 C0.932793522,3.78947368 3.78947368,0.932793522 7.2291498,0.932793522 C10.6688259,0.932793522 13.5255061,3.78947368 13.5255061,7.2291498 C13.5255061,10.6688259 10.6688259,13.5255061 7.2291498,13.5255061 Z" id="Shape"></path>
                <g transform="translate(6.412955, 3.202980)">
                    <path d="M1.45748988,7.40754656 C1.45748988,7.69904453 1.2242915,7.99054251 0.874493927,7.99054251 L0.699595142,7.99054251 C0.408097166,7.99054251 0.11659919,7.75734413 0.11659919,7.40754656 L0.11659919,2.56868016 C0.11659919,2.27718219 0.349797571,1.98568421 0.699595142,1.98568421 L0.874493927,1.98568421 C1.1659919,1.98568421 1.45748988,2.21888259 1.45748988,2.56868016 L1.45748988,7.40754656 Z" id="Path"></path>
                    <circle id="Oval" cx="0.816194332" cy="0.703093117" r="1"></circle>
                </g>
            </g>
        </g>
    </g>
</svg>