<?xml version="1.0" encoding="UTF-8"?>
<svg width="24px" height="27px" viewBox="0 0 24 27" version="1.1" xmlns="http://www.w3.org/2000/svg" xmlns:xlink="http://www.w3.org/1999/xlink">
    <title>light-bulb-icon</title>
    <g id="Educator-Admin-Dashboard" stroke="none" stroke-width="1" fill="none" fill-rule="evenodd">
        <g id="2.03b---Open-Menu" transform="translate(-454.000000, -102.000000)" fill="#6F3996" fill-rule="nonzero">
            <g id="Group-5" transform="translate(432.000000, 84.000000)">
                <g id="Group-3" transform="translate(22.000000, 10.000000)">
                    <g id="light-bulb-icon" transform="translate(0.000000, 8.000000)">
                        <path d="M15.0116528,21.2112 L14.6942021,21.2112 C14.5026515,21.2112 14.3356087,21.0573319 14.3200088,20.8675259 C14.3200088,20.8675259 14.2868791,20.9081682 14.3388151,20.1744 C14.3955352,19.3730405 14.58716,18.6605203 14.9059701,17.9850734 C15.1959666,17.3706726 15.4936766,16.9290711 16.1493713,16.0651353 C16.1734493,16.0334139 16.1734493,16.0334139 16.1974733,16.0017649 C16.8279081,15.1711671 17.1011486,14.7653283 17.358798,14.216247 C17.6918103,13.5065586 17.8632,12.7484624 17.8632,11.8368 C17.8632,8.54429925 15.1941007,5.8752 11.9016,5.8752 C8.60909925,5.8752 5.94,8.54429925 5.94,11.8368 C5.94,12.7467244 6.11520993,13.5032662 6.45582516,14.2118743 C6.71960187,14.7606292 6.99951045,15.1664734 7.64525016,15.9969792 C7.66986024,16.0286282 7.68477387,16.0478069 7.6945254,16.0603495 C8.36628216,16.9243748 8.67124917,17.3659703 8.96847258,17.9806892 C9.29561019,18.6572769 9.49190274,19.3713122 9.55037862,20.1744 C9.6024195,20.8891118 9.57255081,20.8664458 9.57255081,20.8664458 C9.56504313,21.0572403 9.39569886,21.2112 9.20489172,21.2112 L8.8774869,21.2112 C8.6866698,21.2112 8.532,21.0563889 8.532,20.8654197 L8.532,20.6928 C8.532,19.8310925 8.36359395,19.1114909 8.03505579,18.4320065 C7.77924309,17.9029334 7.50454656,17.5051699 6.87600435,16.696728 C6.86628717,16.6842296 6.85141002,16.6650978 6.82674984,16.6333843 C6.13732353,15.7466918 5.82681795,15.2964845 5.52137484,14.6610478 C5.11392534,13.8133993 4.9032,12.9035049 4.9032,11.8368 C4.9032,7.97169042 8.03649042,4.8384 11.9016,4.8384 C15.7667096,4.8384 18.9,7.97169042 18.9,11.8368 C18.9,12.9017669 18.6946433,13.8101069 18.297402,14.656675 C17.9993845,15.2917855 17.6962683,15.741998 17.0233267,16.6285986 C16.9992536,16.6603122 16.9992536,16.6603122 16.9752449,16.6919422 C16.3616001,17.5004736 16.0934481,17.8982311 15.843576,18.4276223 C15.5223519,19.1081834 15.3576,19.8293413 15.3576,20.6928 L15.3576,20.8654197 C15.3576,21.0563651 15.2027142,21.2112 15.0116528,21.2112 Z M8.964,24.2348394 C8.964,24.0441689 9.11887989,23.8896 9.30958626,23.8896 L14.4936137,23.8896 C14.6844758,23.8896 14.8392,24.0442593 14.8392,24.2348394 L14.8392,24.5811606 C14.8392,24.7718311 14.6843201,24.9264 14.4936137,24.9264 L9.30958626,24.9264 C9.11872422,24.9264 8.964,24.7717407 8.964,24.5811606 L8.964,24.2348394 Z M8.6184,22.3340394 C8.6184,22.1433689 8.77305603,21.9888 8.96439195,21.9888 L14.925208,21.9888 C15.1162941,21.9888 15.2712,22.1434593 15.2712,22.3340394 L15.2712,22.6803606 C15.2712,22.8710311 15.116544,23.0256 14.925208,23.0256 L8.96439195,23.0256 C8.77330587,23.0256 8.6184,22.8709407 8.6184,22.6803606 L8.6184,22.3340394 Z M11.9016,27 C10.8189236,27 9.7848,26.5106784 9.7848,25.7904 L14.0184,25.7904 C14.0184,26.5106784 12.9842764,27 11.9016,27 Z M11.7287917,8.3808 C9.86801808,8.3808045 8.35952634,9.88909776 8.3592,11.7592874 C8.3592,11.9500207 8.2045407,12.1046405 8.0139606,12.1046405 L7.6676394,12.1046405 C7.47696894,12.1046405 7.3224,11.9495068 7.3224,11.7588454 L7.3224,11.7412858 C7.32732129,9.3149778 9.2932422,7.34900526 11.7290469,7.344 C11.9197406,7.344 12.0744,7.4986593 12.0744,7.6892394 L12.0744,8.0355606 C12.0744,8.2262283 11.9196628,8.3807955 11.7287917,8.3808 Z M11.34,0.51833265 C11.34,0.232065432 11.5720326,0 11.8584,0 C12.1447044,0 12.3768,0.232124307 12.3768,0.51833265 L12.3768,2.93766735 C12.3768,3.22393458 12.1447674,3.456 11.8584,3.456 C11.5720956,3.456 11.34,3.22387569 11.34,2.93766735 L11.34,0.51833265 Z M23.1984674,11.34 C23.4847346,11.34 23.7168,11.5720326 23.7168,11.8584 C23.7168,12.1447044 23.4846757,12.3768 23.1984674,12.3768 L20.7791326,12.3768 C20.4928654,12.3768 20.2608,12.1447674 20.2608,11.8584 C20.2608,11.5720956 20.4929243,11.34 20.7791326,11.34 L23.1984674,11.34 Z M0.51833265,12.3768 C0.23206542,12.3768 0,12.1447674 0,11.8584 C0,11.5720956 0.23212431,11.34 0.51833265,11.34 L2.93766735,11.34 C3.22393458,11.34 3.456,11.5720326 3.456,11.8584 C3.456,12.1447044 3.22387569,12.3768 2.93766735,12.3768 L0.51833265,12.3768 Z M21.4199864,5.73941874 C21.6679011,5.59628514 21.984892,5.68119858 22.1280757,5.9292 C22.2712279,6.17714691 22.1862501,6.49420971 21.9383864,6.63731388 L19.8431811,7.84698126 C19.5952664,7.99011486 19.2782756,7.90520142 19.1350919,7.6572 C18.9919396,7.40925309 19.0769174,7.09219029 19.3247811,6.94908612 L21.4199864,5.73941874 Z M1.77841359,6.63731388 C1.5304989,6.49418028 1.44554067,6.17720142 1.58872434,5.9292 C1.73187657,5.68125309 2.0489499,5.59631457 2.29681359,5.73941874 L4.3920189,6.94908612 C4.63993359,7.09221972 4.72489182,7.40919858 4.58170815,7.6572 C4.43855595,7.90514691 4.12148259,7.99008543 3.8736189,7.84698126 L1.77841359,6.63731388 Z M17.0794861,1.77841359 C17.2226197,1.5304989 17.5395986,1.44554067 17.7876,1.58872434 C18.0355469,1.73187657 18.1204854,2.0489499 17.9773813,2.29681359 L16.7677139,4.3920189 C16.6245803,4.63993359 16.3076014,4.72489182 16.0596,4.58170815 C15.8116531,4.43855595 15.7267146,4.12148259 15.8698187,3.8736189 L17.0794861,1.77841359 Z M5.73941874,2.29681359 C5.59628514,2.0488989 5.68119858,1.73190804 5.9292,1.58872434 C6.17714691,1.44557215 6.49420971,1.5305499 6.63731388,1.77841359 L7.84698126,3.8736189 C7.99011486,4.12153359 7.90520142,4.43852445 7.6572,4.58170815 C7.40925309,4.72486035 7.09219029,4.63988259 6.94908612,4.3920189 L5.73941874,2.29681359 Z M21.9383864,17.0794861 C22.1863011,17.2226197 22.2712593,17.5395986 22.1280757,17.7876 C21.9849234,18.0355469 21.6678501,18.1204854 21.4199864,17.9773813 L19.3247811,16.7677139 C19.0768664,16.6245803 18.9919082,16.3076014 19.1350919,16.0596 C19.2782441,15.8116531 19.5953174,15.7267146 19.8431811,15.8698187 L21.9383864,17.0794861 Z M2.29681359,17.9773813 C2.0488989,18.1205149 1.73190804,18.0356014 1.58872434,17.7876 C1.44557214,17.5396531 1.5305499,17.2225903 1.77841359,17.0794861 L3.8736189,15.8698187 C4.12153359,15.7266851 4.43852445,15.8115986 4.58170815,16.0596 C4.72486035,16.3075469 4.63988259,16.6246097 4.3920189,16.7677139 L2.29681359,17.9773813 Z" id="insight-das"></path>
                    </g>
                </g>
            </g>
        </g>
    </g>
</svg>