<?xml version="1.0" encoding="UTF-8"?>
<svg width="25px" height="25px" viewBox="0 0 25 25" version="1.1" xmlns="http://www.w3.org/2000/svg" xmlns:xlink="http://www.w3.org/1999/xlink">
    <title>logout-icon</title>
    <g id="Educator-Insight-Dashboard---Updates" stroke="none" stroke-width="1" fill="none" fill-rule="evenodd">
        <g id="i1.02-Insight-+-Admin---Menu-Open" transform="translate(-453.000000, -267.000000)" fill="#6F3996" fill-rule="nonzero" stroke="#FFFFFF" stroke-width="0.675">
            <g id="Group-5" transform="translate(432.000000, 84.000000)">
                <g id="Group-3" transform="translate(22.000000, 10.000000)">
                    <g id="Group-2" transform="translate(0.000000, 52.000000)">
                        <g id="logout-icon" transform="translate(12.000000, 133.500000) scale(-1, 1) translate(-12.000000, -133.500000) translate(0.000000, 122.000000)">
                            <path d="M23.6172282,10.4135177 L21.0044739,7.80080264 C20.4927247,7.29824041 19.6715832,7.30195904 19.1644066,7.8091356 C18.6572301,8.31631216 18.6535114,9.13745362 19.1560737,9.64920291 L19.5390873,10.0322165 L14.8514187,10.0322165 C14.1294645,10.0322165 13.544205,10.6174761 13.544205,11.3394303 C13.544205,12.0613845 14.1294645,12.6466441 14.8514187,12.6466441 L19.5390089,12.6466441 L19.1559952,13.0296577 C18.8223381,13.3591557 18.6907588,13.842143 18.8111863,14.2953464 C18.9316137,14.7485497 19.2855914,15.1025124 19.7387999,15.2229206 C20.1920084,15.3433288 20.6749901,15.2117291 21.0044739,14.878058 L23.6172282,12.2653037 C23.9904789,11.8909885 24.1024662,11.3291549 23.9012596,10.8403361 C23.8357189,10.6807189 23.7391815,10.5356372 23.6172282,10.4135177 Z M16.1586325,13.9538578 C15.8118773,13.95366 15.4792674,14.0913204 15.2340743,14.3365134 C14.9888813,14.5817065 14.8512209,14.9143163 14.8514187,15.2610716 L14.8514187,16.5682854 L12.2369912,16.5682854 L12.2369912,6.11057524 L14.8514187,6.11057524 L14.8514187,7.41778901 C14.8514187,8.13974324 15.4366783,8.72500277 16.1586325,8.72500277 C16.8805867,8.72500277 17.4658465,8.13974324 17.4658465,7.41778901 L17.4658465,6.11057524 C17.4639739,4.66744308 16.2945509,3.49802013 14.8514187,3.49614771 L12.2369912,3.49614771 L12.2369912,2.61530786 C12.2373219,1.79490173 11.8525039,1.0219242 11.1976874,0.527675609 C10.5428709,0.0334270196 9.69401507,-0.124759452 8.90512555,0.100450801 L2.37036394,1.96808018 C1.24910834,2.29068061 0.475578816,3.31493327 0.472067327,4.48166924 L0.472067327,18.1971914 C0.475546429,19.3639443 1.24906937,20.388229 2.3703378,20.7108458 L8.90385756,22.5784098 C9.14017993,22.6454616 9.38457439,22.6798209 9.63022396,22.6805293 C11.0713992,22.6745414 12.2366366,21.5047404 12.2369912,20.0635527 L12.2369912,19.1827129 L14.8514187,19.1827129 C16.2945509,19.1808405 17.4639739,18.0114175 17.4658465,16.5682854 L17.4658465,15.2610716 C17.4660441,14.9143163 17.3283837,14.5817065 17.0831907,14.3365134 C16.8379977,14.0913204 16.5053878,13.95366 16.1586325,13.9538578 Z M9.62256369,4.80336148 L9.62256369,20.0635527 L3.08649486,18.1959234 L3.08649486,4.48293724 L9.62256369,2.61530786 L9.62256369,4.80336148 Z" id="Shape"></path>
                        </g>
                    </g>
                </g>
            </g>
        </g>
    </g>
</svg>