<?xml version="1.0" encoding="UTF-8"?>
<svg width="24px" height="24px" viewBox="0 0 24 24" version="1.1" xmlns="http://www.w3.org/2000/svg" xmlns:xlink="http://www.w3.org/1999/xlink">
    <title>question-icon</title>
    <g id="Educator-Admin-Dashboard" stroke="none" stroke-width="1" fill="none" fill-rule="evenodd">
        <g id="question-icon" transform="translate(1.000000, 1.000000)">
            <circle id="Oval" stroke="#652D90" stroke-width="1.296" cx="10.8" cy="10.8" r="10.8"></circle>
            <path d="M10.545856,12.23936 C11.04352,12.23936 11.35456,12.099392 11.43232,11.819456 C11.572288,10.015424 14.418304,10.357568 14.418304,7.791488 C14.418304,6.127424 13.096384,5.00768 10.903552,5.00768 C8.539648,5.00768 7.357696,6.40736 7.357696,7.511552 C7.357696,8.677952 8.835136,8.631296 8.850688,8.600192 C8.975104,7.713728 9.56608,6.811712 10.872448,6.811712 C11.790016,6.811712 12.318784,7.247168 12.318784,7.947008 C12.318784,9.268928 9.674944,8.880128 9.612736,11.477312 C9.597184,11.990528 9.985984,12.23936 10.545856,12.23936 Z M10.685824,15.380864 C11.385664,15.380864 11.74336,15.03872 11.74336,14.354432 L11.74336,14.136704 C11.74336,13.452416 11.401216,13.110272 10.685824,13.110272 L10.405888,13.110272 C9.7216,13.110272 9.379456,13.452416 9.379456,14.136704 L9.379456,14.354432 C9.379456,15.03872 9.7216,15.380864 10.405888,15.380864 L10.685824,15.380864 Z" id="?" fill="#652D90" fill-rule="nonzero"></path>
        </g>
    </g>
</svg>