<?xml version="1.0" encoding="UTF-8"?>
<svg width="25px" height="17px" viewBox="0 0 25 17" version="1.1" xmlns="http://www.w3.org/2000/svg" xmlns:xlink="http://www.w3.org/1999/xlink">
    <title>user-group</title>
    <g id="Educator-Insight-Dashboard---Updates" stroke="none" stroke-width="1" fill="none" fill-rule="evenodd">
        <g id="i1.02-Insight-+-Admin---Menu-Open" transform="translate(-454.000000, -107.000000)" fill="#6F3996" fill-rule="nonzero">
            <g id="user-group" transform="translate(454.000000, 107.000000)">
                <path d="M12.4990956,0 C10.5147478,0 8.88824583,1.62661944 8.88824583,3.61111111 C8.88824583,5.5956 10.5147469,7.22222222 12.4990956,7.22222222 C14.4834442,7.22222222 16.1099453,5.5956 16.1099453,3.61111111 C16.1099453,1.62661944 14.4834433,0 12.4990956,0 Z M12.4990956,1.66666667 C13.5827758,1.66666667 14.4433992,2.52735278 14.4433992,3.61111111 C14.4433992,4.69486667 13.582775,5.55555556 12.4990956,5.55555556 C11.4154161,5.55555556 10.5547917,4.69486667 10.5547917,3.61111111 C10.5547917,2.52735278 11.4154153,1.66666667 12.4990956,1.66666667 Z M5.27739583,2.22222222 C3.59985056,2.22222222 2.22206139,3.60011111 2.22206139,5.27777778 C2.22206139,6.95544444 3.59985056,8.33333889 5.27739583,8.33333889 C6.95494111,8.33333889 8.33273028,6.95544444 8.33273028,5.27777778 C8.33273028,3.60011111 6.95494111,2.22222222 5.27739583,2.22222222 L5.27739583,2.22222222 Z M19.7207953,2.22222222 C18.0432503,2.22222222 16.6654608,3.60011111 16.6654608,5.27777778 C16.6654608,6.95544444 18.0432478,8.33333889 19.7207953,8.33333889 C21.3983428,8.33333889 22.7761297,6.95544444 22.7761297,5.27777778 C22.7761297,3.60011111 21.3983403,2.22222222 19.7207953,2.22222222 Z M5.27739583,3.88888889 C6.05427333,3.88888889 6.66618417,4.50084444 6.66618417,5.27777778 C6.66618417,6.05471111 6.05427333,6.66666667 5.27739583,6.66666667 C4.50051833,6.66666667 3.8886075,6.05471111 3.8886075,5.27777778 C3.8886075,4.50084444 4.50051833,3.88888889 5.27739583,3.88888889 Z M19.7207953,3.88888889 C20.4976725,3.88888889 21.1095836,4.50084444 21.1095836,5.27777778 C21.1095836,6.05471111 20.49767,6.66666667 19.7207953,6.66666667 C18.9439197,6.66666667 18.3320069,6.05471111 18.3320069,5.27777778 C18.3320069,4.50084444 18.9439172,3.88888889 19.7207953,3.88888889 Z M12.4990881,7.77778333 C10.8276058,7.77778333 9.30538611,8.59611667 8.14177194,9.89583889 C8.06709722,9.97925556 7.99675056,10.0688944 7.92477361,10.1562556 C7.2171925,9.71422778 6.41439611,9.44445 5.56383333,9.44445 C2.83479139,9.44445 0.696039194,11.8645333 0.0173597778,15.1041722 C-0.035029644,15.3502901 0.0265776043,15.606904 0.184989981,15.8024058 C0.343402358,15.9979075 0.581658534,16.1113646 0.833272972,16.1111171 L24.1649181,16.1111171 C24.4165325,16.1113646 24.6547887,15.9979076 24.8132011,15.8024058 C24.9716136,15.6069041 25.0332208,15.3502901 24.9808314,15.1041722 C24.3021517,11.8645333 22.1633997,9.44445 19.4343575,9.44445 C18.5834467,9.44445 17.7744578,9.70636667 17.0647375,10.1475611 C16.9953394,10.0635056 16.9282975,9.97625556 16.8564192,9.89583889 C15.6945144,8.59597778 14.1705853,7.77778333 12.4990881,7.77778333 L12.4990881,7.77778333 Z M12.4990956,9.44445 C13.6329017,9.44445 14.6958133,9.97839444 15.6151894,11.00695 C16.3722608,11.8539222 16.9978072,13.0386722 17.4032544,14.44445 L7.58625667,14.44445 C7.99345694,13.0404778 8.62528722,11.8532833 9.38300167,11.00695 C10.3039719,9.97825556 11.3652894,9.44445 12.4990956,9.44445 L12.4990956,9.44445 Z M5.56383333,11.1111167 C6.05848417,11.1111167 6.53644306,11.2510056 6.99602139,11.5277833 C6.51189111,12.3938389 6.12540194,13.3780333 5.85895111,14.44445 L1.97902333,14.44445 C2.70460417,12.3577 4.074855,11.1111167 5.56383333,11.1111167 L5.56383333,11.1111167 Z M19.4343575,11.1111167 C20.9233361,11.1111167 22.2935869,12.3577 23.0191678,14.44445 L19.13924,14.44445 C18.8726658,13.3782 18.4863775,12.3938944 18.0021694,11.5277833 C18.4598169,11.2522556 18.94196,11.1111167 19.4343575,11.1111167 L19.4343575,11.1111167 Z" id="Shape"></path>
            </g>
        </g>
    </g>
</svg>