<?xml version="1.0" encoding="UTF-8"?>
<svg width="23px" height="23px" viewBox="0 0 23 23" version="1.1" xmlns="http://www.w3.org/2000/svg" xmlns:xlink="http://www.w3.org/1999/xlink">
    <title>Shape</title>
    <g id="Page-1" stroke="none" stroke-width="1" fill="none" fill-rule="evenodd">
        <g id="Time-Period---Selected" transform="translate(-176.000000, -696.000000)" fill="#652D90" fill-rule="nonzero">
            <g id="noun-time-2435186" transform="translate(176.000000, 696.000000)">
                <path d="M11.5,0 C5.14872538,0 0,5.14872538 0,11.5 C0,17.8512746 5.14872538,23 11.5,23 C17.8512746,23 23,17.8512746 23,11.5 C22.991825,5.15211466 17.8478853,0.00817500738 11.5,0 Z M11.5,20.7741935 C6.37800434,20.7741935 2.22580645,16.6219957 2.22580645,11.5 C2.22580645,6.37800434 6.37800434,2.22580645 11.5,2.22580645 C16.6219957,2.22580645 20.7741935,6.37800434 20.7741935,11.5 C20.7741935,13.9596691 19.7970938,16.3185965 18.0578451,18.0578451 C16.3185965,19.7970938 13.9596691,20.7741935 11.5,20.7741935 Z M12.6129032,5.56451613 L12.6129032,11.5 C12.6126435,11.7950608 12.4952211,12.077942 12.2864516,12.2864516 L9.31870968,15.2541935 C8.88420622,15.6881566 8.18030991,15.6881566 7.74580645,15.2541935 C7.31184337,14.8196901 7.31184337,14.1157938 7.74580645,13.6812903 L10.3870968,11.04 L10.3870968,5.56451613 C10.3870968,4.94987665 10.8853605,4.4516129 11.5,4.4516129 C12.1146395,4.4516129 12.6129032,4.94987665 12.6129032,5.56451613 Z" id="Shape"></path>
            </g>
        </g>
    </g>
</svg>