<?xml version="1.0" encoding="UTF-8"?>
<svg width="31px" height="44px" viewBox="0 0 31 44" version="1.1" xmlns="http://www.w3.org/2000/svg" xmlns:xlink="http://www.w3.org/1999/xlink">
    <title>logo-pin</title>
    <g id="Page-1" stroke="none" stroke-width="1" fill="none" fill-rule="evenodd">
        <g id="logo-pin">
            <path d="M17.6099895,0 C17.8857855,0.43277626 18.3605162,0.245999137 18.7403008,0.334832159 C28.0902362,2.54654662 33.1427279,11.8557918 30.1293178,21.4292582 C28.4519358,26.754684 25.5696419,31.4514453 22.4432008,36.0069848 C21.9707306,36.6903158 21.4733936,37.3554246 20.9896204,38.0296444 C20.6821757,38.4851984 20.2255299,38.8336971 20.1147594,39.3963063 C19.6052292,39.6705492 19.2657788,40.183587 19.2105104,40.7629682 C18.1502783,41.3346884 17.6868507,42.475851 16.8526809,43.2685149 C15.7359333,44.3322334 14.9763641,44.2183449 13.970387,43.0407379 C13.2922002,42.238963 12.8807669,41.1228558 11.7414131,40.7629682 C11.8747898,40.1069705 11.2599004,39.8381936 11.0338382,39.3644175 C10.7489997,38.9999743 10.6043199,38.5239205 10.1815834,38.2688102 C7.77854153,34.7792669 5.34837216,31.3147791 3.45623099,27.5131813 C1.96874127,24.5293029 0.639495143,21.4862024 0.167025005,18.1378808 C-1.01105561,10.0108607 4.15642165,2.31988024 12.0827671,0.403165253 C12.4942004,0.300665612 12.9870162,0.403165253 13.3148064,0 L17.6099895,0 Z" id="Path" fill="#FF771E" fill-rule="nonzero"></path>
            <path d="M23.9920308,14.8917549 L23.8970239,14.8917549 C23.8970239,12.7510899 23.8970239,10.610425 23.8970239,8.46976005 C23.8970239,7.92660626 23.8495205,7.38544936 23.283438,7.13983202 C22.7534666,6.89236299 22.1292683,6.97809522 21.6841559,7.3594898 C20.4413966,8.32086794 18.980952,8.95497884 17.4345784,9.20461518 C14.2300763,9.75575653 11.1700638,9.42227608 8.43465807,7.49128447 C7.88638934,7.10388802 7.37770679,6.83430801 6.73838982,7.16579158 C6.09907285,7.49727514 5.99614876,8.10832316 6,8.76330273 C6.01990047,12.7943559 6.0390338,16.8267403 6.05750735,20.8604559 C6.05750735,21.1839519 6.05750735,21.507448 6.08323838,21.8289471 C6.09892941,22.3499019 6.45929975,22.7953583 6.9620518,22.9152547 C7.44469602,23.0803586 7.97840928,22.9370859 8.3158995,22.5518209 C8.67613383,22.1803995 8.72363726,21.7251088 8.7117614,21.2378679 C8.68405107,18.0767927 8.67811314,14.9157176 8.63060971,11.7546424 C8.63060971,11.095669 8.74145104,10.9658712 9.40847835,11.1775415 C13.0362981,12.3572781 16.9390929,12.3621659 20.5698047,11.1915197 C21.1398458,11.0117997 21.2843354,11.0757001 21.2803768,11.6987295 C21.2546457,14.9596491 21.262563,18.2205688 21.2803768,21.4834853 C21.2803768,22.621712 22.228466,23.3126356 23.1587415,22.8593418 C23.782224,22.5558146 24.0039067,22.010664 24,21.3237342 C23.9821342,19.1730848 23.9920308,17.0324198 23.9920308,14.8917549 Z" id="Path" fill="#FFFFFF"></path>
        </g>
    </g>
</svg>