<svg width="16" height="16" viewBox="0 0 16 16" fill="none" xmlns="http://www.w3.org/2000/svg">
<path fill-rule="evenodd" clip-rule="evenodd" d="M7.99984 1.99984C4.68613 1.99984 1.99984 4.68613 1.99984 7.99984C1.99984 11.3135 4.68613 13.9998 7.99984 13.9998C11.3135 13.9998 13.9998 11.3135 13.9998 7.99984C13.9998 4.68613 11.3135 1.99984 7.99984 1.99984ZM0.666504 7.99984C0.666504 3.94975 3.94975 0.666504 7.99984 0.666504C12.0499 0.666504 15.3332 3.94975 15.3332 7.99984C15.3332 12.0499 12.0499 15.3332 7.99984 15.3332C3.94975 15.3332 0.666504 12.0499 0.666504 7.99984Z" fill="#1DD4B7"/>
<path fill-rule="evenodd" clip-rule="evenodd" d="M9.13775 5.52827C8.8774 5.26792 8.45529 5.26792 8.19494 5.52827L6.19494 7.52827C5.93459 7.78862 5.93459 8.21073 6.19494 8.47108L8.19494 10.4711C8.45529 10.7314 8.8774 10.7314 9.13775 10.4711C9.3981 10.2107 9.3981 9.78862 9.13775 9.52827L7.60915 7.99967L9.13775 6.47108C9.3981 6.21073 9.3981 5.78862 9.13775 5.52827Z" fill="#1DD4B7"/>
</svg>
