<svg width="24" height="24" viewBox="0 0 24 24" fill="none" xmlns="http://www.w3.org/2000/svg">
<rect width="24" height="24" rx="4" fill="#F7F9FC"/>
<path fill-rule="evenodd" clip-rule="evenodd" d="M4 7.33341C4 6.96522 4.29848 6.66675 4.66667 6.66675H19.3333C19.7015 6.66675 20 6.96522 20 7.33341C20 7.7016 19.7015 8.00008 19.3333 8.00008H4.66667C4.29848 8.00008 4 7.7016 4 7.33341ZM4 12.0001C4 11.6319 4.29848 11.3334 4.66667 11.3334H19.3333C19.7015 11.3334 20 11.6319 20 12.0001C20 12.3683 19.7015 12.6667 19.3333 12.6667H4.66667C4.29848 12.6667 4 12.3683 4 12.0001ZM4 16.6667C4 16.2986 4.29848 16.0001 4.66667 16.0001H19.3333C19.7015 16.0001 20 16.2986 20 16.6667C20 17.0349 19.7015 17.3334 19.3333 17.3334H4.66667C4.29848 17.3334 4 17.0349 4 16.6667Z" fill="#576473"/>
</svg>
