<svg width="24" height="20" viewBox="0 0 24 20" fill="none" xmlns="http://www.w3.org/2000/svg">
<path fill-rule="evenodd" clip-rule="evenodd" d="M0 3C0 1.34315 1.34315 0 3 0H21C22.6569 0 24 1.34315 24 3V10.4928C24 10.498 24 10.5032 24 10.5083V17C24 18.6569 22.6569 20 21 20H5.50296C5.50082 20 5.49868 20 5.49654 20H3C1.34314 20 0 18.6569 0 17V3ZM7.78398 18H21C21.5523 18 22 17.5523 22 17V10.9739L18.3249 7.96701C17.9154 7.63195 17.3158 7.67389 16.9569 8.06268L7.78398 18ZM22 8.38976V3C22 2.44772 21.5523 2 21 2H3C2.44772 2 2 2.44772 2 3V7.58579L3.97678 9.56257C4.23728 9.14592 4.59462 8.73369 5.01804 8.3681C5.8718 7.63094 7.09499 7 8.5 7C9.90501 7 11.1282 7.63094 11.982 8.3681C12.3681 8.70148 12.6992 9.07363 12.9521 9.45255L15.4873 6.70612C16.564 5.53973 18.3629 5.41392 19.5914 6.41909L22 8.38976ZM11.5003 11.0253C11.5001 11.0169 11.5 11.0085 11.5 11C11.5 11.002 11.4998 11.0012 11.4991 10.9975C11.4945 10.9755 11.469 10.8522 11.3346 10.6344C11.1913 10.4022 10.968 10.1349 10.6749 9.8819C10.0809 9.36906 9.30413 9 8.5 9C7.69587 9 6.91906 9.36906 6.3251 9.8819C6.03205 10.1349 5.80866 10.4022 5.66543 10.6344C5.53105 10.8522 5.50551 10.9755 5.50094 10.9975C5.50017 11.0012 5.5 11.002 5.5 11C5.5 11.0278 5.49887 11.0553 5.49665 11.0824L8.59115 14.1769L11.5003 11.0253ZM7.23351 15.6477L5.06217 18H3C2.44772 18 2 17.5523 2 17V10.4142L7.23351 15.6477Z" fill="#F7F9FC"/>
</svg>
