<svg width="22" height="25" viewBox="0 0 22 25" fill="none" xmlns="http://www.w3.org/2000/svg">
<path fill-rule="evenodd" clip-rule="evenodd" d="M11 2C6.02944 2 2 6.02944 2 11C2 11.8594 2.31024 12.8547 2.89117 13.9441C3.46762 15.0251 4.27596 16.1343 5.18715 17.2035C7.00985 19.3423 9.16642 21.2311 10.4666 22.3004C10.7823 22.5601 11.2177 22.5601 11.5334 22.3004C12.8336 21.2311 14.9902 19.3423 16.8128 17.2035C17.724 16.1343 18.5324 15.0251 19.1088 13.9441C19.6898 12.8547 20 11.8594 20 11C20 6.02944 15.9706 2 11 2ZM0 11C0 4.92487 4.92487 0 11 0C17.0751 0 22 4.92487 22 11C22 12.3136 21.5362 13.6426 20.8736 14.8851C20.2065 16.1361 19.3018 17.3664 18.3351 18.5008C16.4018 20.7693 14.1427 22.7439 12.8039 23.8451C11.75 24.7119 10.25 24.7119 9.19611 23.8451C7.85726 22.7439 5.59816 20.7693 3.66494 18.5008C2.69817 17.3664 1.79349 16.1361 1.12641 14.8851C0.463799 13.6426 0 12.3136 0 11ZM11 9C9.89543 9 9 9.89543 9 11C9 12.1046 9.89543 13 11 13C12.1046 13 13 12.1046 13 11C13 9.89543 12.1046 9 11 9ZM7 11C7 8.79086 8.79086 7 11 7C13.2091 7 15 8.79086 15 11C15 13.2091 13.2091 15 11 15C8.79086 15 7 13.2091 7 11Z" fill="#141F2B"/>
</svg>
