<svg width="14" height="12" viewBox="0 0 14 12" fill="none" xmlns="http://www.w3.org/2000/svg">
<path fill-rule="evenodd" clip-rule="evenodd" d="M7 1.91667C6.35567 1.91667 5.83333 2.439 5.83333 3.08333C5.83333 3.72767 6.35567 4.25 7 4.25C7.64433 4.25 8.16667 3.72767 8.16667 3.08333C8.16667 2.439 7.64433 1.91667 7 1.91667ZM4.66667 3.08333C4.66667 1.79467 5.71134 0.75 7 0.75C8.28866 0.75 9.33333 1.79467 9.33333 3.08333C9.33333 4.372 8.28866 5.41667 7 5.41667C5.71134 5.41667 4.66667 4.372 4.66667 3.08333ZM2.33333 4.25C2.01117 4.25 1.75 4.51117 1.75 4.83333C1.75 5.1555 2.01117 5.41667 2.33333 5.41667C2.6555 5.41667 2.91667 5.1555 2.91667 4.83333C2.91667 4.51117 2.6555 4.25 2.33333 4.25ZM0.583333 4.83333C0.583333 3.86683 1.36683 3.08333 2.33333 3.08333C3.29983 3.08333 4.08333 3.86683 4.08333 4.83333C4.08333 5.79983 3.29983 6.58333 2.33333 6.58333C1.36683 6.58333 0.583333 5.79983 0.583333 4.83333ZM11.6667 4.25C11.3445 4.25 11.0833 4.51117 11.0833 4.83333C11.0833 5.1555 11.3445 5.41667 11.6667 5.41667C11.9888 5.41667 12.25 5.1555 12.25 4.83333C12.25 4.51117 11.9888 4.25 11.6667 4.25ZM9.91667 4.83333C9.91667 3.86683 10.7002 3.08333 11.6667 3.08333C12.6332 3.08333 13.4167 3.86683 13.4167 4.83333C13.4167 5.79983 12.6332 6.58333 11.6667 6.58333C10.7002 6.58333 9.91667 5.79983 9.91667 4.83333ZM4.06309 7.59542C4.68713 6.6351 5.7694 6 7 6C8.2306 6 9.31287 6.6351 9.93691 7.59542C10.3498 7.32458 10.844 7.16667 11.375 7.16667C12.8247 7.16667 14 8.34192 14 9.79167V11.25H0V9.79167C0 8.34192 1.17525 7.16667 2.625 7.16667C3.15599 7.16667 3.6502 7.32458 4.06309 7.59542ZM4.66743 9.43978C4.66692 9.45979 4.66667 9.47986 4.66667 9.5V10.0833H9.33333V9.5C9.33333 9.47861 9.33305 9.45728 9.33247 9.43603C9.29858 8.17694 8.26727 7.16667 7 7.16667C5.73147 7.16667 4.69937 8.17894 4.66743 9.43978ZM10.5 9.5V10.0833H12.8333V9.79167C12.8333 8.98625 12.1804 8.33333 11.375 8.33333C11.0042 8.33333 10.6659 8.47129 10.4081 8.69985C10.4616 8.92864 10.4927 9.16606 10.4989 9.40966C10.4996 9.43968 10.5 9.4698 10.5 9.5ZM3.5 10.0833V9.5C3.5 9.46721 3.50045 9.43453 3.50135 9.40196C3.50797 9.16105 3.53894 8.92622 3.59188 8.69985C3.33413 8.47129 2.99576 8.33333 2.625 8.33333C1.81958 8.33333 1.16667 8.98625 1.16667 9.79167V10.0833H3.5Z" fill="#1DD4B7"/>
</svg>
