<svg width="14" height="14" viewBox="0 0 14 14" fill="none" xmlns="http://www.w3.org/2000/svg">
<path fill-rule="evenodd" clip-rule="evenodd" d="M10.5 2.33333V0H11.6667V2.33333H13.4167C13.7388 2.33333 14 2.5945 14 2.91667V13.4167C14 13.7388 13.7388 14 13.4167 14L0 14V1.86176L7.21666 0.315332C8.30605 0.0818894 9.33333 0.912357 9.33333 2.02649V2.33333H10.5ZM9.33333 3.5V12.8333L12.8333 12.8333V11.0833H11.0833V9.91667H12.8333V8.75H11.0833V7.58333H12.8333V6.41667H11.0833V5.25H12.8333V3.5H9.33333ZM8.16667 12.8333V2.02649C8.16667 1.65511 7.82424 1.37829 7.46111 1.4561L1.16667 2.80491V12.8333H2.91667V10.5H6.41667V12.8333H8.16667ZM5.25 12.8333V11.6667H4.08333V12.8333H5.25ZM4.08333 4.66667H2.33333V3.5H4.08333V4.66667ZM7 4.66667H5.25V3.5H7V4.66667ZM4.08333 7H2.33333V5.83333H4.08333V7ZM7 7H5.25V5.83333H7V7ZM4.08333 9.33333H2.33333V8.16667H4.08333V9.33333ZM7 9.33333H5.25V8.16667H7V9.33333Z" fill="#1DD4B7"/>
</svg>
