<svg width="24" height="24" viewBox="0 0 24 24" fill="none" xmlns="http://www.w3.org/2000/svg">
<path d="M13.2441 6.13025L12.4121 5.39144V6.50412V14.4961C12.4121 14.724 12.2279 14.9081 12.0001 14.9081C11.7895 14.9081 11.6121 14.7416 11.6121 14.4961V6.50412V5.3973L10.7815 6.12894L7.75754 8.79295L7.75215 8.79769L7.7469 8.8026C7.58699 8.95185 7.34757 8.92785 7.22811 8.78083L7.21729 8.76751L7.20559 8.75497C7.0632 8.60241 7.06886 8.3513 7.24131 8.20041L7.24132 8.20042L7.24399 8.19805L11.732 4.21404L11.7321 4.21414L11.7403 4.20651C11.8564 4.09873 12.0309 4.0694 12.1911 4.1457L12.2681 4.21404L16.7561 8.19805L16.7561 8.19806L16.7588 8.20041C16.9325 8.35236 16.9405 8.61272 16.807 8.76777C16.656 8.93934 16.4055 8.94474 16.2532 8.8026L16.2533 8.80248L16.2441 8.79426L13.2441 6.13025ZM5.30806 18.1921V18.6921H5.80806H18.1921H18.6921V18.1921V16.8961C18.6921 16.6856 18.8586 16.5081 19.1041 16.5081C19.3319 16.5081 19.4921 16.6683 19.4921 16.8961V19.1041C19.4921 19.3168 19.3231 19.4921 19.1041 19.4921H4.89606C4.6922 19.4921 4.50806 19.308 4.50806 19.1041V16.8961C4.50806 16.677 4.68335 16.5081 4.89606 16.5081C5.14153 16.5081 5.30806 16.6856 5.30806 16.8961V18.1921Z" fill="#EFF3F7" stroke="#EFF3F7"/>
</svg>
