<svg width="16" height="16" viewBox="0 0 16 16" fill="none" xmlns="http://www.w3.org/2000/svg">
<path fill-rule="evenodd" clip-rule="evenodd" d="M12 2.66667V0H13.3333V2.66667H15.3333C15.7015 2.66667 16 2.96514 16 3.33333V15.3333C16 15.7015 15.7015 16 15.3333 16L0 16V2.12773L8.24761 0.360379C9.49263 0.0935879 10.6667 1.04269 10.6667 2.31598V2.66667H12ZM10.6667 4V14.6667L14.6667 14.6667V12.6667H12.6667V11.3333H14.6667V10H12.6667V8.66667H14.6667V7.33333H12.6667V6H14.6667V4H10.6667ZM9.33333 14.6667V2.31598C9.33333 1.89155 8.94199 1.57518 8.52698 1.66412L1.33333 3.20561V14.6667H3.33333V12H7.33333V14.6667H9.33333ZM6 14.6667V13.3333H4.66667V14.6667H6ZM4.66667 5.33333H2.66667V4H4.66667V5.33333ZM8 5.33333H6V4H8V5.33333ZM4.66667 8H2.66667V6.66667H4.66667V8ZM8 8H6V6.66667H8V8ZM4.66667 10.6667H2.66667V9.33333H4.66667V10.6667ZM8 10.6667H6V9.33333H8V10.6667Z" fill="#EFF3F7"/>
</svg>
